G04 EAGLE Gerber X2 export*
%TF.Part,Single*%
%TF.FileFunction,Other,Bottom Copper Layer*%
%TF.FilePolarity,Positive*%
%TF.GenerationSoftware,Autodesk,EAGLE,8.7.0*%
%TF.CreationDate,2018-03-22T17:08:22Z*%
G75*
%MOMM*%
%FSLAX34Y34*%
%LPD*%
%AMOC8*
5,1,8,0,0,1.08239X$1,22.5*%
G01*
%ADD10P,1.785944X8X292.500000*%
%ADD11P,1.785944X8X112.500000*%
%ADD12C,1.524000*%
%ADD13C,0.635000*%
%ADD14C,0.254000*%
%ADD15C,0.762000*%

G36*
X302869Y3821D02*
X302869Y3821D01*
X302948Y3820D01*
X303026Y3840D01*
X303107Y3851D01*
X303146Y3866D01*
X304841Y3811D01*
X304853Y3813D01*
X304882Y3811D01*
X305004Y3811D01*
X305025Y3813D01*
X305088Y3813D01*
X306462Y3904D01*
X306566Y3924D01*
X306672Y3936D01*
X306752Y3961D01*
X306774Y3965D01*
X306788Y3972D01*
X306826Y3983D01*
X309465Y4978D01*
X309473Y4982D01*
X309482Y4985D01*
X309614Y5056D01*
X309746Y5126D01*
X309753Y5133D01*
X309761Y5137D01*
X309886Y5240D01*
X311943Y7169D01*
X311949Y7176D01*
X311957Y7182D01*
X312051Y7298D01*
X312146Y7414D01*
X312150Y7422D01*
X312156Y7429D01*
X312232Y7572D01*
X313395Y10142D01*
X313426Y10243D01*
X313466Y10342D01*
X313482Y10425D01*
X313488Y10445D01*
X313489Y10461D01*
X313497Y10500D01*
X313678Y11885D01*
X313678Y11887D01*
X313679Y11889D01*
X313689Y12050D01*
X313689Y301992D01*
X313679Y302071D01*
X313679Y302151D01*
X313659Y302228D01*
X313649Y302307D01*
X313637Y302339D01*
X313689Y304045D01*
X313688Y304056D01*
X313689Y304083D01*
X313689Y304194D01*
X313687Y304215D01*
X313686Y304281D01*
X313582Y305815D01*
X313562Y305920D01*
X313550Y306025D01*
X313525Y306106D01*
X313521Y306127D01*
X313514Y306142D01*
X313502Y306179D01*
X312393Y309106D01*
X312388Y309114D01*
X312386Y309123D01*
X312314Y309255D01*
X312244Y309387D01*
X312237Y309394D01*
X312233Y309402D01*
X312130Y309526D01*
X309985Y311806D01*
X309978Y311812D01*
X309972Y311819D01*
X309855Y311913D01*
X309739Y312008D01*
X309731Y312012D01*
X309724Y312018D01*
X309581Y312093D01*
X306727Y313378D01*
X306626Y313409D01*
X306527Y313449D01*
X306444Y313465D01*
X306423Y313471D01*
X306407Y313472D01*
X306369Y313480D01*
X304827Y313679D01*
X304826Y313679D01*
X304825Y313679D01*
X304664Y313689D01*
X237840Y313689D01*
X237702Y313672D01*
X237563Y313659D01*
X237544Y313652D01*
X237524Y313649D01*
X237395Y313598D01*
X237264Y313551D01*
X237247Y313540D01*
X237229Y313532D01*
X237116Y313451D01*
X237001Y313373D01*
X236988Y313357D01*
X236971Y313346D01*
X236882Y313238D01*
X236791Y313134D01*
X236781Y313116D01*
X236768Y313101D01*
X236709Y312975D01*
X236646Y312851D01*
X236642Y312831D01*
X236633Y312813D01*
X236607Y312676D01*
X236576Y312541D01*
X236577Y312520D01*
X236573Y312501D01*
X236582Y312362D01*
X236586Y312223D01*
X236592Y312203D01*
X236593Y312183D01*
X236636Y312051D01*
X236674Y311917D01*
X236685Y311900D01*
X236691Y311881D01*
X236765Y311763D01*
X236836Y311643D01*
X236854Y311622D01*
X236861Y311612D01*
X236876Y311598D01*
X236942Y311523D01*
X238116Y310349D01*
X238116Y310348D01*
X250817Y297648D01*
X250895Y297587D01*
X250967Y297519D01*
X251020Y297490D01*
X251068Y297453D01*
X251159Y297413D01*
X251246Y297366D01*
X251305Y297351D01*
X251360Y297326D01*
X251458Y297311D01*
X251554Y297286D01*
X251654Y297280D01*
X251674Y297277D01*
X251687Y297278D01*
X251715Y297276D01*
X257560Y297276D01*
X257658Y297288D01*
X257757Y297291D01*
X257815Y297308D01*
X257876Y297316D01*
X257968Y297352D01*
X258063Y297380D01*
X258115Y297411D01*
X258171Y297433D01*
X258251Y297491D01*
X258337Y297541D01*
X258412Y297608D01*
X258429Y297620D01*
X258436Y297629D01*
X258458Y297648D01*
X259991Y299181D01*
X263884Y299181D01*
X266637Y296428D01*
X266637Y292535D01*
X263884Y289782D01*
X259991Y289782D01*
X258458Y291315D01*
X258379Y291375D01*
X258307Y291443D01*
X258254Y291473D01*
X258206Y291510D01*
X258115Y291549D01*
X258029Y291597D01*
X257970Y291612D01*
X257914Y291636D01*
X257816Y291652D01*
X257721Y291676D01*
X257621Y291683D01*
X257600Y291686D01*
X257588Y291685D01*
X257560Y291687D01*
X248874Y291687D01*
X246865Y293695D01*
X234164Y306396D01*
X234086Y306457D01*
X234014Y306525D01*
X233961Y306554D01*
X233913Y306591D01*
X233822Y306630D01*
X233735Y306678D01*
X233677Y306693D01*
X233621Y306717D01*
X233523Y306733D01*
X233427Y306758D01*
X233327Y306764D01*
X233307Y306767D01*
X233295Y306766D01*
X233267Y306768D01*
X179483Y306768D01*
X179385Y306755D01*
X179286Y306752D01*
X179228Y306736D01*
X179168Y306728D01*
X179076Y306691D01*
X178981Y306664D01*
X178928Y306633D01*
X178872Y306611D01*
X178792Y306553D01*
X178707Y306502D01*
X178631Y306436D01*
X178615Y306424D01*
X178607Y306415D01*
X178586Y306396D01*
X176204Y304014D01*
X176143Y303936D01*
X176075Y303864D01*
X176046Y303811D01*
X176009Y303763D01*
X175970Y303672D01*
X175922Y303585D01*
X175907Y303527D01*
X175883Y303471D01*
X175867Y303373D01*
X175842Y303277D01*
X175836Y303177D01*
X175833Y303157D01*
X175834Y303145D01*
X175832Y303117D01*
X175832Y286952D01*
X175845Y286854D01*
X175848Y286755D01*
X175864Y286697D01*
X175872Y286637D01*
X175909Y286545D01*
X175936Y286450D01*
X175967Y286398D01*
X175989Y286341D01*
X176047Y286261D01*
X176098Y286176D01*
X176164Y286100D01*
X176176Y286084D01*
X176185Y286076D01*
X176204Y286055D01*
X177737Y284522D01*
X177737Y280628D01*
X174984Y277875D01*
X171091Y277875D01*
X169558Y279409D01*
X169479Y279469D01*
X169407Y279537D01*
X169354Y279566D01*
X169306Y279603D01*
X169215Y279643D01*
X169129Y279691D01*
X169070Y279706D01*
X169014Y279730D01*
X168916Y279745D01*
X168821Y279770D01*
X168721Y279776D01*
X168700Y279780D01*
X168688Y279778D01*
X168660Y279780D01*
X69152Y279780D01*
X69054Y279768D01*
X68955Y279765D01*
X68897Y279748D01*
X68837Y279740D01*
X68744Y279704D01*
X68649Y279676D01*
X68597Y279646D01*
X68541Y279623D01*
X68461Y279565D01*
X68375Y279515D01*
X68300Y279449D01*
X68284Y279437D01*
X68276Y279427D01*
X68255Y279409D01*
X54856Y266010D01*
X51903Y263057D01*
X51842Y262978D01*
X51774Y262906D01*
X51745Y262853D01*
X51708Y262805D01*
X51668Y262714D01*
X51621Y262628D01*
X51606Y262569D01*
X51581Y262514D01*
X51566Y262416D01*
X51541Y262320D01*
X51535Y262220D01*
X51532Y262199D01*
X51533Y262187D01*
X51531Y262159D01*
X51531Y259991D01*
X48778Y257238D01*
X44885Y257238D01*
X42132Y259991D01*
X42132Y263884D01*
X44885Y266637D01*
X47053Y266637D01*
X47151Y266650D01*
X47250Y266653D01*
X47308Y266669D01*
X47368Y266677D01*
X47461Y266714D01*
X47556Y266741D01*
X47608Y266772D01*
X47664Y266794D01*
X47744Y266852D01*
X47830Y266903D01*
X47905Y266969D01*
X47921Y266981D01*
X47929Y266990D01*
X47950Y267009D01*
X66311Y285370D01*
X168660Y285370D01*
X168758Y285382D01*
X168857Y285385D01*
X168916Y285402D01*
X168976Y285410D01*
X169068Y285446D01*
X169163Y285474D01*
X169215Y285504D01*
X169271Y285527D01*
X169351Y285585D01*
X169437Y285635D01*
X169512Y285701D01*
X169529Y285713D01*
X169536Y285723D01*
X169558Y285741D01*
X169871Y286055D01*
X169932Y286133D01*
X170000Y286205D01*
X170029Y286258D01*
X170066Y286306D01*
X170105Y286397D01*
X170153Y286484D01*
X170168Y286542D01*
X170192Y286598D01*
X170208Y286696D01*
X170233Y286792D01*
X170239Y286892D01*
X170242Y286912D01*
X170241Y286924D01*
X170243Y286952D01*
X170243Y305958D01*
X172252Y307966D01*
X175808Y311523D01*
X175893Y311632D01*
X175982Y311739D01*
X175990Y311758D01*
X176003Y311774D01*
X176058Y311902D01*
X176117Y312027D01*
X176121Y312047D01*
X176129Y312066D01*
X176151Y312204D01*
X176177Y312340D01*
X176176Y312360D01*
X176179Y312380D01*
X176166Y312519D01*
X176157Y312657D01*
X176151Y312676D01*
X176149Y312696D01*
X176102Y312828D01*
X176059Y312959D01*
X176048Y312977D01*
X176041Y312996D01*
X175963Y313111D01*
X175889Y313228D01*
X175874Y313242D01*
X175863Y313259D01*
X175759Y313351D01*
X175657Y313446D01*
X175640Y313456D01*
X175624Y313469D01*
X175500Y313533D01*
X175379Y313600D01*
X175359Y313605D01*
X175341Y313614D01*
X175205Y313644D01*
X175071Y313679D01*
X175043Y313681D01*
X175031Y313684D01*
X175010Y313683D01*
X174910Y313689D01*
X12700Y313689D01*
X12680Y313687D01*
X12576Y313683D01*
X11089Y313537D01*
X10985Y313513D01*
X10880Y313498D01*
X10800Y313471D01*
X10779Y313466D01*
X10765Y313459D01*
X10728Y313446D01*
X7981Y312308D01*
X7973Y312304D01*
X7964Y312301D01*
X7834Y312225D01*
X7705Y312151D01*
X7698Y312144D01*
X7690Y312140D01*
X7569Y312033D01*
X5467Y309931D01*
X5461Y309924D01*
X5454Y309918D01*
X5364Y309798D01*
X5272Y309680D01*
X5268Y309671D01*
X5262Y309664D01*
X5192Y309519D01*
X4054Y306772D01*
X4026Y306670D01*
X3989Y306570D01*
X3976Y306487D01*
X3970Y306466D01*
X3970Y306450D01*
X3963Y306411D01*
X3817Y304924D01*
X3817Y304905D01*
X3811Y304800D01*
X3811Y125853D01*
X3828Y125715D01*
X3841Y125576D01*
X3848Y125557D01*
X3851Y125537D01*
X3902Y125408D01*
X3949Y125277D01*
X3960Y125260D01*
X3968Y125241D01*
X4049Y125129D01*
X4127Y125014D01*
X4143Y125000D01*
X4154Y124984D01*
X4262Y124895D01*
X4366Y124803D01*
X4384Y124794D01*
X4399Y124781D01*
X4525Y124722D01*
X4649Y124659D01*
X4669Y124654D01*
X4687Y124646D01*
X4824Y124620D01*
X4959Y124589D01*
X4980Y124590D01*
X4999Y124586D01*
X5138Y124594D01*
X5277Y124599D01*
X5297Y124604D01*
X5317Y124606D01*
X5449Y124648D01*
X5583Y124687D01*
X5600Y124697D01*
X5619Y124704D01*
X5737Y124778D01*
X5857Y124849D01*
X5878Y124867D01*
X5888Y124874D01*
X5902Y124889D01*
X5977Y124955D01*
X7044Y126021D01*
X10405Y127413D01*
X29283Y127413D01*
X32644Y126021D01*
X35216Y123449D01*
X36608Y120088D01*
X36608Y116450D01*
X35216Y113089D01*
X32644Y110516D01*
X29283Y109124D01*
X10405Y109124D01*
X7044Y110516D01*
X5977Y111582D01*
X5868Y111667D01*
X5761Y111756D01*
X5742Y111765D01*
X5726Y111777D01*
X5599Y111833D01*
X5473Y111892D01*
X5453Y111896D01*
X5434Y111904D01*
X5296Y111926D01*
X5160Y111952D01*
X5140Y111950D01*
X5120Y111954D01*
X4981Y111940D01*
X4843Y111932D01*
X4824Y111926D01*
X4804Y111924D01*
X4672Y111877D01*
X4541Y111834D01*
X4523Y111823D01*
X4504Y111816D01*
X4389Y111738D01*
X4272Y111664D01*
X4258Y111649D01*
X4241Y111638D01*
X4149Y111534D01*
X4054Y111432D01*
X4044Y111414D01*
X4031Y111399D01*
X3968Y111275D01*
X3900Y111154D01*
X3895Y111134D01*
X3886Y111116D01*
X3856Y110980D01*
X3821Y110846D01*
X3819Y110818D01*
X3816Y110806D01*
X3817Y110785D01*
X3811Y110685D01*
X3811Y100453D01*
X3828Y100315D01*
X3841Y100176D01*
X3848Y100157D01*
X3851Y100137D01*
X3902Y100008D01*
X3949Y99877D01*
X3960Y99860D01*
X3968Y99841D01*
X4049Y99729D01*
X4127Y99614D01*
X4143Y99600D01*
X4154Y99584D01*
X4262Y99495D01*
X4366Y99403D01*
X4384Y99394D01*
X4399Y99381D01*
X4525Y99322D01*
X4649Y99259D01*
X4669Y99254D01*
X4687Y99246D01*
X4824Y99220D01*
X4959Y99189D01*
X4980Y99190D01*
X4999Y99186D01*
X5138Y99194D01*
X5277Y99199D01*
X5297Y99204D01*
X5317Y99206D01*
X5449Y99248D01*
X5583Y99287D01*
X5600Y99297D01*
X5619Y99304D01*
X5737Y99378D01*
X5857Y99449D01*
X5878Y99467D01*
X5888Y99474D01*
X5902Y99489D01*
X5977Y99555D01*
X7044Y100621D01*
X10405Y102013D01*
X29283Y102013D01*
X32644Y100621D01*
X35216Y98049D01*
X36608Y94688D01*
X36608Y91050D01*
X35216Y87689D01*
X32644Y85116D01*
X29283Y83724D01*
X10405Y83724D01*
X7044Y85116D01*
X5977Y86182D01*
X5868Y86267D01*
X5761Y86356D01*
X5742Y86365D01*
X5726Y86377D01*
X5599Y86433D01*
X5473Y86492D01*
X5453Y86496D01*
X5434Y86504D01*
X5296Y86526D01*
X5160Y86552D01*
X5140Y86550D01*
X5120Y86554D01*
X4981Y86540D01*
X4843Y86532D01*
X4824Y86526D01*
X4804Y86524D01*
X4672Y86477D01*
X4541Y86434D01*
X4523Y86423D01*
X4504Y86416D01*
X4389Y86338D01*
X4272Y86264D01*
X4258Y86249D01*
X4241Y86238D01*
X4149Y86134D01*
X4054Y86032D01*
X4044Y86014D01*
X4031Y85999D01*
X3968Y85875D01*
X3900Y85754D01*
X3895Y85734D01*
X3886Y85716D01*
X3856Y85580D01*
X3821Y85446D01*
X3819Y85418D01*
X3816Y85406D01*
X3817Y85385D01*
X3811Y85285D01*
X3811Y12700D01*
X3813Y12680D01*
X3817Y12576D01*
X3963Y11089D01*
X3987Y10985D01*
X4002Y10880D01*
X4029Y10800D01*
X4034Y10779D01*
X4041Y10765D01*
X4054Y10728D01*
X5192Y7981D01*
X5196Y7973D01*
X5199Y7964D01*
X5275Y7834D01*
X5349Y7705D01*
X5356Y7698D01*
X5360Y7690D01*
X5467Y7569D01*
X7569Y5467D01*
X7576Y5461D01*
X7582Y5454D01*
X7702Y5364D01*
X7820Y5272D01*
X7829Y5268D01*
X7836Y5262D01*
X7981Y5192D01*
X10728Y4054D01*
X10830Y4026D01*
X10930Y3989D01*
X11013Y3976D01*
X11034Y3970D01*
X11050Y3970D01*
X11089Y3963D01*
X12576Y3817D01*
X12595Y3817D01*
X12700Y3811D01*
X302791Y3811D01*
X302869Y3821D01*
G37*
%LPC*%
G36*
X137644Y245754D02*
X137644Y245754D01*
X137566Y245814D01*
X137494Y245882D01*
X137441Y245911D01*
X137393Y245948D01*
X137302Y245988D01*
X137215Y246036D01*
X137157Y246051D01*
X137101Y246075D01*
X137003Y246090D01*
X136907Y246115D01*
X136807Y246121D01*
X136787Y246125D01*
X136775Y246123D01*
X136747Y246125D01*
X134578Y246125D01*
X133202Y247502D01*
X131825Y248878D01*
X131825Y252772D01*
X134578Y255525D01*
X138017Y255525D01*
X138135Y255540D01*
X138254Y255547D01*
X138293Y255560D01*
X138333Y255565D01*
X138444Y255608D01*
X138557Y255645D01*
X138591Y255667D01*
X138628Y255682D01*
X138725Y255751D01*
X138825Y255815D01*
X138853Y255845D01*
X138886Y255868D01*
X138962Y255960D01*
X139043Y256047D01*
X139063Y256082D01*
X139089Y256113D01*
X139139Y256221D01*
X139197Y256325D01*
X139207Y256365D01*
X139224Y256401D01*
X139247Y256518D01*
X139276Y256633D01*
X139280Y256693D01*
X139284Y256713D01*
X139283Y256734D01*
X139287Y256794D01*
X139287Y260714D01*
X147274Y268701D01*
X194833Y268701D01*
X196841Y266692D01*
X200620Y262914D01*
X200730Y262829D01*
X200837Y262740D01*
X200855Y262731D01*
X200871Y262719D01*
X200999Y262663D01*
X201124Y262604D01*
X201144Y262601D01*
X201163Y262593D01*
X201301Y262571D01*
X201437Y262545D01*
X201457Y262546D01*
X201477Y262543D01*
X201616Y262556D01*
X201754Y262564D01*
X201773Y262571D01*
X201794Y262572D01*
X201925Y262620D01*
X202057Y262662D01*
X202074Y262673D01*
X202093Y262680D01*
X202208Y262758D01*
X202325Y262833D01*
X202339Y262847D01*
X202356Y262859D01*
X202448Y262963D01*
X202543Y263064D01*
X202553Y263082D01*
X202567Y263097D01*
X202630Y263221D01*
X202697Y263343D01*
X202702Y263362D01*
X202711Y263380D01*
X202742Y263516D01*
X202776Y263651D01*
X202778Y263679D01*
X202781Y263691D01*
X202780Y263711D01*
X202787Y263811D01*
X202787Y266270D01*
X209980Y273463D01*
X211835Y273463D01*
X211934Y273476D01*
X212033Y273479D01*
X212091Y273496D01*
X212151Y273503D01*
X212243Y273540D01*
X212338Y273567D01*
X212390Y273598D01*
X212447Y273620D01*
X212527Y273678D01*
X212612Y273729D01*
X212687Y273795D01*
X212704Y273807D01*
X212712Y273817D01*
X212733Y273835D01*
X214321Y275423D01*
X214382Y275502D01*
X214450Y275574D01*
X214479Y275627D01*
X214516Y275675D01*
X214555Y275766D01*
X214603Y275852D01*
X214618Y275911D01*
X214642Y275966D01*
X214658Y276064D01*
X214683Y276160D01*
X214689Y276260D01*
X214692Y276281D01*
X214691Y276293D01*
X214693Y276321D01*
X214693Y276899D01*
X214690Y276919D01*
X214691Y276974D01*
X214624Y278108D01*
X215427Y278910D01*
X215439Y278926D01*
X215478Y278965D01*
X218817Y282721D01*
X218852Y282772D01*
X218895Y282817D01*
X218942Y282903D01*
X218997Y282984D01*
X219018Y283042D01*
X219048Y283096D01*
X219072Y283190D01*
X219106Y283282D01*
X219112Y283344D01*
X219128Y283404D01*
X219138Y283565D01*
X219138Y286109D01*
X221891Y288862D01*
X225784Y288862D01*
X228537Y286109D01*
X228537Y282216D01*
X225784Y279463D01*
X223969Y279463D01*
X223834Y279446D01*
X223699Y279434D01*
X223677Y279426D01*
X223654Y279423D01*
X223527Y279373D01*
X223399Y279327D01*
X223380Y279314D01*
X223358Y279306D01*
X223248Y279226D01*
X223135Y279150D01*
X223112Y279127D01*
X223101Y279119D01*
X223087Y279103D01*
X223021Y279037D01*
X220603Y276317D01*
X220568Y276266D01*
X220525Y276221D01*
X220478Y276135D01*
X220423Y276055D01*
X220402Y275996D01*
X220372Y275942D01*
X220348Y275848D01*
X220314Y275756D01*
X220308Y275694D01*
X220292Y275634D01*
X220282Y275474D01*
X220282Y273480D01*
X214676Y267874D01*
X212821Y267874D01*
X212723Y267862D01*
X212624Y267859D01*
X212565Y267842D01*
X212505Y267834D01*
X212413Y267798D01*
X212318Y267770D01*
X212266Y267739D01*
X212210Y267717D01*
X212130Y267659D01*
X212044Y267609D01*
X211969Y267542D01*
X211952Y267530D01*
X211945Y267521D01*
X211923Y267502D01*
X210431Y266010D01*
X208748Y264327D01*
X208687Y264248D01*
X208619Y264176D01*
X208590Y264123D01*
X208553Y264075D01*
X208513Y263984D01*
X208466Y263898D01*
X208462Y263884D01*
X208451Y263839D01*
X208426Y263784D01*
X208421Y263751D01*
X208411Y263686D01*
X208386Y263590D01*
X208380Y263490D01*
X208377Y263469D01*
X208378Y263457D01*
X208376Y263429D01*
X208376Y252049D01*
X202398Y246070D01*
X200389Y244062D01*
X139336Y244062D01*
X137644Y245754D01*
G37*
%LPD*%
G36*
X197742Y250362D02*
X197742Y250362D01*
X197841Y250365D01*
X197899Y250382D01*
X197959Y250389D01*
X198051Y250426D01*
X198146Y250453D01*
X198199Y250484D01*
X198255Y250506D01*
X198335Y250565D01*
X198420Y250615D01*
X198496Y250681D01*
X198512Y250693D01*
X198520Y250703D01*
X198541Y250721D01*
X201716Y253896D01*
X201777Y253975D01*
X201845Y254047D01*
X201874Y254100D01*
X201911Y254148D01*
X201951Y254239D01*
X201998Y254325D01*
X202013Y254384D01*
X202038Y254439D01*
X202053Y254537D01*
X202078Y254633D01*
X202084Y254733D01*
X202087Y254753D01*
X202086Y254766D01*
X202088Y254794D01*
X202088Y258763D01*
X202076Y258861D01*
X202073Y258960D01*
X202056Y259018D01*
X202048Y259078D01*
X202012Y259170D01*
X201984Y259265D01*
X201953Y259317D01*
X201931Y259374D01*
X201873Y259454D01*
X201823Y259539D01*
X201756Y259615D01*
X201744Y259631D01*
X201735Y259639D01*
X201716Y259660D01*
X194573Y266804D01*
X194494Y266864D01*
X194422Y266932D01*
X194369Y266962D01*
X194321Y266999D01*
X194230Y267038D01*
X194144Y267086D01*
X194085Y267101D01*
X194029Y267125D01*
X193931Y267141D01*
X193836Y267165D01*
X193736Y267172D01*
X193715Y267175D01*
X193703Y267174D01*
X193675Y267176D01*
X148431Y267176D01*
X148333Y267163D01*
X148234Y267160D01*
X148176Y267143D01*
X148116Y267136D01*
X148024Y267099D01*
X147929Y267072D01*
X147876Y267041D01*
X147820Y267019D01*
X147740Y266961D01*
X147655Y266910D01*
X147579Y266844D01*
X147563Y266832D01*
X147555Y266822D01*
X147534Y266804D01*
X141184Y260454D01*
X141123Y260375D01*
X141055Y260303D01*
X141026Y260250D01*
X140989Y260202D01*
X140949Y260112D01*
X140902Y260025D01*
X140887Y259966D01*
X140862Y259911D01*
X140847Y259813D01*
X140822Y259717D01*
X140816Y259617D01*
X140813Y259597D01*
X140814Y259584D01*
X140812Y259556D01*
X140812Y254794D01*
X140824Y254696D01*
X140827Y254597D01*
X140844Y254538D01*
X140852Y254478D01*
X140888Y254386D01*
X140916Y254291D01*
X140947Y254239D01*
X140969Y254183D01*
X141027Y254103D01*
X141077Y254017D01*
X141144Y253942D01*
X141156Y253925D01*
X141165Y253917D01*
X141184Y253896D01*
X144359Y250721D01*
X144437Y250661D01*
X144509Y250593D01*
X144562Y250563D01*
X144610Y250526D01*
X144701Y250487D01*
X144788Y250439D01*
X144846Y250424D01*
X144902Y250400D01*
X145000Y250384D01*
X145096Y250360D01*
X145196Y250353D01*
X145216Y250350D01*
X145228Y250351D01*
X145256Y250350D01*
X197644Y250350D01*
X197742Y250362D01*
G37*
%LPC*%
G36*
X288856Y275789D02*
X288856Y275789D01*
X282861Y278272D01*
X278272Y282861D01*
X275789Y288856D01*
X275789Y295344D01*
X278272Y301339D01*
X282861Y305928D01*
X288856Y308411D01*
X295344Y308411D01*
X301339Y305928D01*
X305928Y301339D01*
X308411Y295344D01*
X308411Y288856D01*
X305928Y282861D01*
X301339Y278272D01*
X295344Y275789D01*
X288856Y275789D01*
G37*
%LPD*%
%LPC*%
G36*
X22156Y275789D02*
X22156Y275789D01*
X16161Y278272D01*
X11572Y282861D01*
X9089Y288856D01*
X9089Y295344D01*
X11572Y301339D01*
X16161Y305928D01*
X22156Y308411D01*
X28644Y308411D01*
X34639Y305928D01*
X39228Y301339D01*
X41711Y295344D01*
X41711Y288856D01*
X39228Y282861D01*
X34639Y278272D01*
X28644Y275789D01*
X22156Y275789D01*
G37*
%LPD*%
%LPC*%
G36*
X288856Y9089D02*
X288856Y9089D01*
X282861Y11572D01*
X278272Y16161D01*
X275789Y22156D01*
X275789Y28644D01*
X278272Y34639D01*
X282861Y39228D01*
X288856Y41711D01*
X295344Y41711D01*
X301339Y39228D01*
X305928Y34639D01*
X308411Y28644D01*
X308411Y22156D01*
X305928Y16161D01*
X301339Y11572D01*
X295344Y9089D01*
X288856Y9089D01*
G37*
%LPD*%
%LPC*%
G36*
X22156Y9089D02*
X22156Y9089D01*
X16161Y11572D01*
X11572Y16161D01*
X9089Y22156D01*
X9089Y28644D01*
X11572Y34639D01*
X16161Y39228D01*
X22156Y41711D01*
X28644Y41711D01*
X34639Y39228D01*
X39228Y34639D01*
X41711Y28644D01*
X41711Y22156D01*
X39228Y16161D01*
X34639Y11572D01*
X28644Y9089D01*
X22156Y9089D01*
G37*
%LPD*%
%LPC*%
G36*
X137753Y122300D02*
X137753Y122300D01*
X135000Y125053D01*
X135000Y128947D01*
X137753Y131700D01*
X139922Y131700D01*
X140020Y131712D01*
X140119Y131715D01*
X140177Y131732D01*
X140237Y131740D01*
X140329Y131776D01*
X140424Y131804D01*
X140477Y131834D01*
X140533Y131857D01*
X140613Y131915D01*
X140698Y131965D01*
X140774Y132031D01*
X140790Y132043D01*
X140798Y132053D01*
X140819Y132071D01*
X153624Y144876D01*
X213423Y144876D01*
X213521Y144888D01*
X213620Y144891D01*
X213678Y144908D01*
X213738Y144916D01*
X213831Y144952D01*
X213926Y144980D01*
X213978Y145011D01*
X214034Y145033D01*
X214114Y145091D01*
X214200Y145141D01*
X214275Y145208D01*
X214291Y145220D01*
X214299Y145229D01*
X214320Y145248D01*
X222259Y153186D01*
X222319Y153264D01*
X222387Y153336D01*
X222416Y153389D01*
X222453Y153437D01*
X222493Y153528D01*
X222541Y153615D01*
X222556Y153673D01*
X222580Y153729D01*
X222595Y153827D01*
X222620Y153923D01*
X222626Y154023D01*
X222630Y154043D01*
X222628Y154055D01*
X222630Y154083D01*
X222630Y156754D01*
X222618Y156852D01*
X222615Y156951D01*
X222598Y157009D01*
X222590Y157069D01*
X222554Y157161D01*
X222526Y157257D01*
X222496Y157309D01*
X222473Y157365D01*
X222415Y157445D01*
X222365Y157530D01*
X222299Y157606D01*
X222287Y157622D01*
X222277Y157630D01*
X222259Y157651D01*
X220725Y159185D01*
X220725Y163078D01*
X223478Y165831D01*
X227372Y165831D01*
X230125Y163078D01*
X230125Y159185D01*
X228591Y157651D01*
X228531Y157573D01*
X228463Y157501D01*
X228434Y157448D01*
X228397Y157400D01*
X228357Y157309D01*
X228309Y157222D01*
X228294Y157164D01*
X228270Y157108D01*
X228255Y157010D01*
X228230Y156914D01*
X228224Y156814D01*
X228220Y156794D01*
X228222Y156782D01*
X228220Y156754D01*
X228220Y151242D01*
X226211Y149234D01*
X218273Y141295D01*
X216264Y139287D01*
X156465Y139287D01*
X156366Y139274D01*
X156267Y139271D01*
X156209Y139254D01*
X156149Y139247D01*
X156057Y139210D01*
X155962Y139183D01*
X155910Y139152D01*
X155853Y139130D01*
X155773Y139072D01*
X155688Y139021D01*
X155613Y138955D01*
X155596Y138943D01*
X155588Y138933D01*
X155567Y138915D01*
X144771Y128119D01*
X144711Y128041D01*
X144643Y127969D01*
X144614Y127916D01*
X144577Y127868D01*
X144537Y127777D01*
X144489Y127690D01*
X144474Y127632D01*
X144450Y127576D01*
X144435Y127478D01*
X144410Y127382D01*
X144404Y127282D01*
X144400Y127262D01*
X144402Y127250D01*
X144400Y127222D01*
X144400Y125053D01*
X141647Y122300D01*
X137753Y122300D01*
G37*
%LPD*%
%LPC*%
G36*
X275351Y188625D02*
X275351Y188625D01*
X269625Y194351D01*
X269625Y202449D01*
X275351Y208175D01*
X283449Y208175D01*
X289175Y202449D01*
X289175Y194351D01*
X283449Y188625D01*
X275351Y188625D01*
G37*
%LPD*%
%LPC*%
G36*
X34051Y188625D02*
X34051Y188625D01*
X28325Y194351D01*
X28325Y202449D01*
X34051Y208175D01*
X42149Y208175D01*
X47875Y202449D01*
X47875Y194351D01*
X42149Y188625D01*
X34051Y188625D01*
G37*
%LPD*%
%LPC*%
G36*
X231547Y90114D02*
X231547Y90114D01*
X228492Y91379D01*
X226154Y93717D01*
X224889Y96772D01*
X224889Y100078D01*
X226154Y103133D01*
X228492Y105471D01*
X231547Y106736D01*
X234853Y106736D01*
X237908Y105471D01*
X240246Y103133D01*
X241511Y100078D01*
X241511Y96772D01*
X240246Y93717D01*
X237908Y91379D01*
X234853Y90114D01*
X231547Y90114D01*
G37*
%LPD*%
%LPC*%
G36*
X151547Y90114D02*
X151547Y90114D01*
X148492Y91379D01*
X146154Y93717D01*
X144889Y96772D01*
X144889Y100078D01*
X146154Y103133D01*
X148492Y105471D01*
X151547Y106736D01*
X154853Y106736D01*
X157908Y105471D01*
X160246Y103133D01*
X161511Y100078D01*
X161511Y96772D01*
X160246Y93717D01*
X157908Y91379D01*
X154853Y90114D01*
X151547Y90114D01*
G37*
%LPD*%
%LPC*%
G36*
X121247Y90114D02*
X121247Y90114D01*
X118192Y91379D01*
X115854Y93717D01*
X114589Y96772D01*
X114589Y100078D01*
X115854Y103133D01*
X118192Y105471D01*
X121247Y106736D01*
X124553Y106736D01*
X127608Y105471D01*
X129946Y103133D01*
X131211Y100078D01*
X131211Y96772D01*
X129946Y93717D01*
X127608Y91379D01*
X124553Y90114D01*
X121247Y90114D01*
G37*
%LPD*%
%LPC*%
G36*
X53247Y90114D02*
X53247Y90114D01*
X50192Y91379D01*
X47854Y93717D01*
X46589Y96772D01*
X46589Y100078D01*
X47854Y103133D01*
X50192Y105471D01*
X53247Y106736D01*
X56553Y106736D01*
X59608Y105471D01*
X61946Y103133D01*
X63211Y100078D01*
X63211Y96772D01*
X61946Y93717D01*
X59608Y91379D01*
X56553Y90114D01*
X53247Y90114D01*
G37*
%LPD*%
D10*
X38100Y198400D03*
X38100Y233400D03*
D11*
X279400Y233400D03*
X279400Y198400D03*
D12*
X27464Y118269D02*
X12224Y118269D01*
X12224Y92869D02*
X27464Y92869D01*
D13*
X304800Y266700D03*
X279400Y266700D03*
X266700Y279400D03*
X266700Y304800D03*
X114300Y12700D03*
X165100Y12700D03*
X174625Y101600D03*
X114300Y47625D03*
X38100Y266700D03*
X12700Y266700D03*
X304800Y50800D03*
X279400Y50800D03*
X266700Y38100D03*
X266700Y12700D03*
X50800Y12700D03*
X50800Y38100D03*
X187325Y152400D03*
X78581Y245269D03*
X125413Y246063D03*
D14*
X225425Y152400D02*
X215106Y142081D01*
X225425Y152400D02*
X225425Y161131D01*
D13*
X225425Y161131D03*
D15*
X153988Y261938D03*
X146050Y256381D03*
X188913Y261938D03*
X196850Y256381D03*
D14*
X154781Y142081D02*
X139700Y127000D01*
X154781Y142081D02*
X215106Y142081D01*
D13*
X139700Y127000D03*
X261938Y294481D03*
D14*
X250031Y294481D02*
X234950Y309563D01*
X250031Y294481D02*
X261938Y294481D01*
D13*
X173038Y282575D03*
D14*
X177800Y309563D02*
X234950Y309563D01*
X177800Y309563D02*
X173038Y304800D01*
X173038Y282575D01*
X67469Y282575D01*
X46831Y261938D01*
D13*
X46831Y261938D03*
X223838Y284163D03*
D14*
X205581Y265113D02*
X205581Y253206D01*
X199231Y246856D01*
X140494Y246856D01*
X136525Y250825D01*
D13*
X136525Y250825D03*
D14*
X205581Y265113D02*
X211138Y270669D01*
X213519Y270669D01*
X217488Y274638D01*
X217488Y277019D01*
X223838Y284163D01*
M02*
