M48
;GenerationSoftware,Autodesk,EAGLE,8.7.0*%
;CreationDate,2018-03-22T17:08:22Z*%
FMAT,2
ICI,OFF
METRIC,TZ,000.000
T6C0.381
T5C0.508
T4C0.900
T3C1.016
T2C1.100
T1C2.500
%
G90
M71
T1
X2540Y29210
X29210Y29210
X29210Y2540
X2540Y2540
T2
X3810Y19840
X3810Y23340
X27940Y23340
X27940Y19840
T3
X1984Y9287
X1984Y11827
T4
X23320Y9843
X15320Y9843
X5490Y9843
X12290Y9843
T5
X18891Y26194
X15399Y26194
X14605Y25638
X19685Y25638
T6
X5080Y3810
X18733Y15240
X12541Y24606
X22542Y16113
X16510Y1270
X30480Y26670
X13970Y12700
X26194Y29448
X17304Y28257
X4683Y26194
X22384Y28416
X13652Y25082
X27940Y26670
X26670Y27940
X26670Y30480
X11430Y1270
X17463Y10160
X11430Y4763
X3810Y26670
X1270Y26670
X7858Y24527
X30480Y5080
X27940Y5080
X26670Y3810
X26670Y1270
X5080Y1270
M30