G04 EAGLE Gerber X2 export*
%TF.Part,Single*%
%TF.FileFunction,Other,Top Silkscreen *%
%TF.FilePolarity,Positive*%
%TF.GenerationSoftware,Autodesk,EAGLE,8.7.0*%
%TF.CreationDate,2018-03-22T17:08:22Z*%
G75*
%MOMM*%
%FSLAX34Y34*%
%LPD*%
%AMOC8*
5,1,8,0,0,1.08239X$1,22.5*%
G01*
%ADD10C,0.152400*%
%ADD11C,0.254000*%
%ADD12C,0.101600*%
%ADD13C,0.100000*%
%ADD14C,0.127000*%
%ADD15C,0.203200*%
%ADD16C,0.254000*%
%ADD17R,0.250000X0.250000*%


D10*
X212281Y32840D02*
X212281Y21994D01*
X201434Y32840D01*
X198722Y32840D01*
X196011Y30129D01*
X196011Y24705D01*
X198722Y21994D01*
X196011Y46500D02*
X198722Y49212D01*
X196011Y46500D02*
X196011Y41077D01*
X198722Y38365D01*
X201434Y38365D01*
X204146Y41077D01*
X204146Y46500D01*
X206857Y49212D01*
X209569Y49212D01*
X212281Y46500D01*
X212281Y41077D01*
X209569Y38365D01*
X226834Y5622D02*
X237681Y5622D01*
X226834Y5622D02*
X221411Y11046D01*
X226834Y16469D01*
X237681Y16469D01*
X229546Y16469D02*
X229546Y5622D01*
X221411Y21994D02*
X237681Y21994D01*
X237681Y30129D01*
X234969Y32840D01*
X224122Y32840D01*
X221411Y30129D01*
X221411Y21994D01*
X234969Y38365D02*
X237681Y41077D01*
X237681Y43789D01*
X234969Y46500D01*
X221411Y46500D01*
X221411Y43789D02*
X221411Y49212D01*
X173322Y21994D02*
X170611Y24705D01*
X170611Y30129D01*
X173322Y32840D01*
X176034Y32840D01*
X178746Y30129D01*
X178746Y27417D01*
X178746Y30129D02*
X181457Y32840D01*
X184169Y32840D01*
X186881Y30129D01*
X186881Y24705D01*
X184169Y21994D01*
X170611Y46500D02*
X173322Y49212D01*
X170611Y46500D02*
X170611Y41077D01*
X173322Y38365D01*
X176034Y38365D01*
X178746Y41077D01*
X178746Y46500D01*
X181457Y49212D01*
X184169Y49212D01*
X186881Y46500D01*
X186881Y41077D01*
X184169Y38365D01*
D11*
X228600Y57150D02*
X228600Y60325D01*
X217488Y71438D01*
X217488Y77788D01*
X179388Y60325D02*
X179388Y57150D01*
X179388Y60325D02*
X190500Y71438D01*
X190500Y77788D01*
X203200Y77788D02*
X203200Y57150D01*
D10*
X65836Y30129D02*
X65836Y24705D01*
X68547Y21994D01*
X79394Y21994D01*
X82106Y24705D01*
X82106Y30129D01*
X79394Y32840D01*
X68547Y32840D01*
X65836Y30129D01*
X65836Y38365D02*
X82106Y38365D01*
X82106Y49212D02*
X65836Y38365D01*
X65836Y49212D02*
X82106Y49212D01*
X92823Y15345D02*
X92823Y9921D01*
X95535Y7210D01*
X106381Y7210D01*
X109093Y9921D01*
X109093Y15345D01*
X106381Y18056D01*
X95535Y18056D01*
X92823Y15345D01*
X92823Y23581D02*
X109093Y23581D01*
X92823Y23581D02*
X92823Y34428D01*
X100958Y29005D02*
X100958Y23581D01*
X109093Y39953D02*
X92823Y39953D01*
X92823Y50799D01*
X100958Y45376D02*
X100958Y39953D01*
D11*
X77788Y69850D02*
X77788Y77788D01*
X77788Y69850D02*
X73025Y65088D01*
X73025Y53975D01*
X95250Y69850D02*
X95250Y77788D01*
X95250Y69850D02*
X100013Y65088D01*
X100013Y53975D01*
D12*
X256809Y138621D02*
X264605Y138621D01*
X256809Y138621D02*
X252911Y142518D01*
X256809Y146416D01*
X264605Y146416D01*
X258758Y146416D02*
X258758Y138621D01*
X252911Y150314D02*
X264605Y150314D01*
X264605Y156161D01*
X262656Y158110D01*
X254860Y158110D01*
X252911Y156161D01*
X252911Y150314D01*
X262656Y162008D02*
X264605Y163957D01*
X264605Y165906D01*
X262656Y167855D01*
X252911Y167855D01*
X252911Y165906D02*
X252911Y169804D01*
D11*
X267494Y152400D02*
X269875Y152400D01*
X273050Y155575D01*
X273050Y161925D01*
X276225Y165100D01*
X277813Y165100D01*
X269875Y152400D02*
X273050Y149225D01*
X273050Y142875D01*
X276225Y139700D01*
X277813Y139700D01*
X273050Y119063D02*
X273050Y112713D01*
X273050Y119063D02*
X260350Y131763D01*
X260350Y134938D01*
D12*
X14654Y75702D02*
X6858Y75702D01*
X6858Y64008D01*
X14654Y64008D01*
X10756Y69855D02*
X6858Y69855D01*
X18552Y75702D02*
X26348Y64008D01*
X18552Y64008D02*
X26348Y75702D01*
X34144Y75702D02*
X34144Y64008D01*
X30246Y75702D02*
X38042Y75702D01*
X14654Y54703D02*
X12705Y56652D01*
X8807Y56652D01*
X6858Y54703D01*
X6858Y52754D01*
X8807Y50805D01*
X12705Y50805D01*
X14654Y48856D01*
X14654Y46907D01*
X12705Y44958D01*
X8807Y44958D01*
X6858Y46907D01*
X18552Y44958D02*
X18552Y56652D01*
X22450Y48856D02*
X18552Y44958D01*
X22450Y48856D02*
X26348Y44958D01*
X26348Y56652D01*
D11*
X31750Y50800D02*
X41275Y50800D01*
X41275Y77788D01*
X28575Y90488D01*
D12*
X86885Y238853D02*
X84936Y240802D01*
X81038Y240802D01*
X79089Y238853D01*
X79089Y231057D01*
X81038Y229108D01*
X84936Y229108D01*
X86885Y231057D01*
X86885Y234955D01*
X82987Y234955D01*
X90783Y229108D02*
X90783Y240802D01*
X98579Y229108D01*
X98579Y240802D01*
X102477Y240802D02*
X102477Y229108D01*
X108324Y229108D01*
X110273Y231057D01*
X110273Y238853D01*
X108324Y240802D01*
X102477Y240802D01*
X84936Y205083D02*
X81038Y205083D01*
X79089Y203134D01*
X79089Y195338D01*
X81038Y193389D01*
X84936Y193389D01*
X86885Y195338D01*
X86885Y203134D01*
X84936Y205083D01*
X90783Y205083D02*
X90783Y195338D01*
X92732Y193389D01*
X96630Y193389D01*
X98579Y195338D01*
X98579Y205083D01*
X106375Y205083D02*
X106375Y193389D01*
X102477Y205083D02*
X110273Y205083D01*
X213524Y240008D02*
X215473Y238059D01*
X213524Y240008D02*
X209626Y240008D01*
X207677Y238059D01*
X207677Y230263D01*
X209626Y228314D01*
X213524Y228314D01*
X215473Y230263D01*
X215473Y234161D01*
X211575Y234161D01*
X219371Y228314D02*
X219371Y240008D01*
X227167Y228314D01*
X227167Y240008D01*
X231065Y240008D02*
X231065Y228314D01*
X236912Y228314D01*
X238861Y230263D01*
X238861Y238059D01*
X236912Y240008D01*
X231065Y240008D01*
X226656Y194183D02*
X222758Y194183D01*
X224707Y194183D02*
X224707Y205877D01*
X222758Y205877D02*
X226656Y205877D01*
X230554Y205877D02*
X230554Y194183D01*
X238350Y194183D02*
X230554Y205877D01*
X238350Y205877D02*
X238350Y194183D01*
D13*
X256794Y264494D02*
X256794Y270494D01*
X252794Y267494D01*
X256794Y264494D01*
X252794Y264494D02*
X252794Y270494D01*
X245794Y260494D02*
X263794Y260494D01*
X263794Y274494D02*
X245794Y274494D01*
D14*
X2100Y253900D02*
X2100Y177900D01*
X10100Y177900D01*
X11100Y177900D02*
X74100Y177900D01*
X74100Y253900D01*
X2100Y253900D01*
X10100Y252900D02*
X10100Y177900D01*
X11100Y177900D01*
X315400Y177900D02*
X315400Y253900D01*
X307400Y253900D01*
X306400Y253900D02*
X243400Y253900D01*
X243400Y177900D01*
X315400Y177900D01*
X307400Y178900D02*
X307400Y253900D01*
X306400Y253900D01*
X263200Y80925D02*
X258200Y80925D01*
X263200Y80925D02*
X263200Y85925D01*
X263200Y110925D02*
X263200Y115925D01*
X258200Y115925D01*
X148200Y115925D02*
X143200Y115925D01*
X143200Y110925D01*
X143200Y80925D02*
X148200Y80925D01*
X143200Y80925D02*
X143200Y85925D01*
X309513Y74900D02*
X309513Y64900D01*
X299513Y64900D01*
X309513Y102900D02*
X309513Y112900D01*
X300513Y112900D01*
X271513Y90900D02*
X271513Y86900D01*
X46400Y110925D02*
X46400Y115925D01*
X51400Y115925D01*
X46400Y85925D02*
X46400Y80925D01*
X51400Y80925D01*
X126400Y80925D02*
X131400Y80925D01*
X131400Y85925D01*
X131400Y110925D02*
X131400Y115925D01*
X126400Y115925D01*
D10*
X32544Y111919D02*
X32544Y124619D01*
X32544Y111919D02*
X26194Y105569D01*
X13494Y105569D01*
X7144Y111919D01*
X13494Y130969D02*
X26194Y130969D01*
X32544Y124619D01*
X13494Y130969D02*
X7144Y124619D01*
X7144Y111919D01*
X26194Y105569D02*
X32544Y99219D01*
X32544Y86519D01*
X26194Y80169D01*
X13494Y80169D01*
X7144Y86519D01*
X7144Y99219D01*
X13494Y105569D01*
D13*
X228188Y264494D02*
X228188Y270494D01*
X232188Y267494D02*
X228188Y264494D01*
X232188Y267494D02*
X228188Y270494D01*
X232188Y270494D02*
X232188Y264494D01*
X239188Y274494D02*
X221188Y274494D01*
X221188Y260494D02*
X239188Y260494D01*
D15*
X177800Y156694D02*
X177800Y148106D01*
X152400Y148106D02*
X152400Y156694D01*
X162416Y159488D02*
X167784Y159488D01*
D16*
X149098Y142240D03*
D10*
X183424Y298700D02*
X189364Y298700D01*
X183424Y298700D02*
X183424Y290500D01*
X211864Y290500D02*
X211864Y298700D01*
X205924Y298700D01*
D17*
X63044Y301625D03*
D14*
X198200Y154900D02*
X203200Y147900D01*
X203200Y154900D02*
X198200Y154900D01*
X203200Y154900D02*
X208200Y154900D01*
X203200Y147900D01*
X199200Y147900D01*
X203200Y147900D02*
X207200Y147900D01*
X203200Y154900D02*
X203200Y160900D01*
X203200Y147900D02*
X203200Y143900D01*
D10*
X125984Y280924D02*
X122936Y280924D01*
X77216Y280924D02*
X77216Y252476D01*
X88900Y252476D01*
X125984Y252476D02*
X125984Y280924D01*
X111506Y280924D02*
X107696Y280924D01*
X95504Y280924D02*
X91694Y280924D01*
X80264Y280924D02*
X77216Y280924D01*
X114300Y252476D02*
X125984Y252476D01*
X136144Y288036D02*
X136146Y288106D01*
X136152Y288176D01*
X136161Y288245D01*
X136175Y288314D01*
X136192Y288382D01*
X136213Y288448D01*
X136237Y288514D01*
X136265Y288578D01*
X136297Y288640D01*
X136332Y288701D01*
X136370Y288760D01*
X136412Y288816D01*
X136456Y288870D01*
X136504Y288922D01*
X136554Y288970D01*
X136607Y289016D01*
X136662Y289059D01*
X136719Y289099D01*
X136779Y289136D01*
X136841Y289169D01*
X136904Y289199D01*
X136969Y289225D01*
X137035Y289248D01*
X137102Y289267D01*
X137171Y289282D01*
X137240Y289294D01*
X137309Y289302D01*
X137379Y289306D01*
X137449Y289306D01*
X137519Y289302D01*
X137588Y289294D01*
X137657Y289282D01*
X137726Y289267D01*
X137793Y289248D01*
X137859Y289225D01*
X137924Y289199D01*
X137987Y289169D01*
X138049Y289136D01*
X138109Y289099D01*
X138166Y289059D01*
X138221Y289016D01*
X138274Y288970D01*
X138324Y288922D01*
X138372Y288870D01*
X138416Y288816D01*
X138458Y288760D01*
X138496Y288701D01*
X138531Y288640D01*
X138563Y288578D01*
X138591Y288514D01*
X138615Y288448D01*
X138636Y288382D01*
X138653Y288314D01*
X138667Y288245D01*
X138676Y288176D01*
X138682Y288106D01*
X138684Y288036D01*
X138689Y287966D01*
X138690Y287896D01*
X138687Y287825D01*
X138681Y287755D01*
X138670Y287686D01*
X138656Y287617D01*
X138638Y287549D01*
X138616Y287482D01*
X138591Y287416D01*
X138562Y287352D01*
X138530Y287290D01*
X138494Y287229D01*
X138455Y287171D01*
X138413Y287115D01*
X138367Y287061D01*
X138319Y287010D01*
X138268Y286961D01*
X138215Y286916D01*
X138159Y286873D01*
X138101Y286833D01*
X138040Y286797D01*
X137978Y286764D01*
X137914Y286735D01*
X137849Y286709D01*
X137782Y286687D01*
X137714Y286669D01*
X137645Y286654D01*
X137576Y286643D01*
X137506Y286636D01*
X137436Y286633D01*
X137365Y286634D01*
X137295Y286639D01*
X137225Y286647D01*
X137156Y286659D01*
X137088Y286675D01*
X137020Y286695D01*
X136954Y286719D01*
X136889Y286746D01*
X136826Y286777D01*
X136764Y286811D01*
X136705Y286848D01*
X136647Y286889D01*
X136592Y286933D01*
X136540Y286979D01*
X136490Y287029D01*
X136443Y287081D01*
X136399Y287136D01*
X136358Y287193D01*
X136320Y287252D01*
X136285Y287314D01*
X136254Y287377D01*
X136227Y287441D01*
X136203Y287507D01*
X136183Y287575D01*
X136166Y287643D01*
X136153Y287712D01*
X136144Y287782D01*
M02*
