G04 EAGLE Gerber X2 export*
%TF.Part,Single*%
%TF.FileFunction,Other,Top Solder Mask*%
%TF.FilePolarity,Positive*%
%TF.GenerationSoftware,Autodesk,EAGLE,8.7.0*%
%TF.CreationDate,2018-03-22T17:08:22Z*%
G75*
%MOMM*%
%FSLAX34Y34*%
%LPD*%
%AMOC8*
5,1,8,0,0,1.08239X$1,22.5*%
G01*
%ADD10C,2.627000*%
%ADD11R,1.127000X1.227000*%
%ADD12R,0.927000X0.927000*%
%ADD13R,1.227000X1.127000*%
%ADD14P,1.923407X8X292.500000*%
%ADD15P,1.923407X8X112.500000*%
%ADD16C,1.027000*%
%ADD17R,1.327000X1.527000*%
%ADD18R,1.727000X1.427000*%
%ADD19R,1.727000X2.127000*%
%ADD20R,2.627000X2.627000*%
%ADD21C,1.651000*%
%ADD22R,0.737000X1.397000*%
%ADD23R,0.737000X1.147000*%
%ADD24R,0.737000X0.837000*%
%ADD25R,1.777000X3.937000*%
%ADD26R,0.677000X1.327000*%
%ADD27R,0.927000X1.027000*%
%ADD28R,0.977000X0.977000*%
%ADD29R,0.609600X1.524000*%
%ADD30R,0.685800X1.524000*%
%ADD31C,0.762000*%
%ADD32C,0.889000*%

G36*
X110764Y246384D02*
X110764Y246384D01*
X110783Y246382D01*
X110885Y246404D01*
X110987Y246421D01*
X111004Y246430D01*
X111024Y246434D01*
X111113Y246487D01*
X111204Y246536D01*
X111218Y246550D01*
X111235Y246560D01*
X111302Y246639D01*
X111374Y246714D01*
X111382Y246732D01*
X111395Y246747D01*
X111434Y246843D01*
X111477Y246937D01*
X111479Y246957D01*
X111487Y246975D01*
X111505Y247142D01*
X111505Y269748D01*
X111491Y269838D01*
X111483Y269929D01*
X111471Y269959D01*
X111466Y269991D01*
X111423Y270071D01*
X111387Y270155D01*
X111361Y270187D01*
X111350Y270208D01*
X111327Y270230D01*
X111282Y270286D01*
X105155Y276413D01*
X105155Y279654D01*
X105152Y279674D01*
X105154Y279693D01*
X105132Y279795D01*
X105116Y279897D01*
X105106Y279914D01*
X105102Y279934D01*
X105049Y280023D01*
X105000Y280114D01*
X104986Y280128D01*
X104976Y280145D01*
X104897Y280212D01*
X104822Y280284D01*
X104804Y280292D01*
X104789Y280305D01*
X104693Y280344D01*
X104599Y280387D01*
X104579Y280389D01*
X104561Y280397D01*
X104394Y280415D01*
X98806Y280415D01*
X98786Y280412D01*
X98767Y280414D01*
X98665Y280392D01*
X98563Y280376D01*
X98546Y280366D01*
X98526Y280362D01*
X98437Y280309D01*
X98346Y280260D01*
X98332Y280246D01*
X98315Y280236D01*
X98248Y280157D01*
X98177Y280082D01*
X98168Y280064D01*
X98155Y280049D01*
X98116Y279953D01*
X98073Y279859D01*
X98071Y279839D01*
X98063Y279821D01*
X98045Y279654D01*
X98045Y276413D01*
X91918Y270286D01*
X91865Y270212D01*
X91805Y270143D01*
X91793Y270113D01*
X91774Y270087D01*
X91747Y270000D01*
X91713Y269915D01*
X91709Y269874D01*
X91702Y269851D01*
X91703Y269819D01*
X91695Y269748D01*
X91695Y247142D01*
X91698Y247122D01*
X91696Y247103D01*
X91718Y247001D01*
X91735Y246899D01*
X91744Y246882D01*
X91748Y246862D01*
X91801Y246773D01*
X91850Y246682D01*
X91864Y246668D01*
X91874Y246651D01*
X91953Y246584D01*
X92028Y246513D01*
X92046Y246504D01*
X92061Y246491D01*
X92157Y246452D01*
X92251Y246409D01*
X92271Y246407D01*
X92289Y246399D01*
X92456Y246381D01*
X110744Y246381D01*
X110764Y246384D01*
G37*
D10*
X25400Y292100D03*
X292100Y292100D03*
X292100Y25400D03*
X25400Y25400D03*
D11*
X235513Y173038D03*
X218513Y173038D03*
D12*
X262044Y267494D03*
X247544Y267494D03*
D13*
X235744Y285188D03*
X235744Y302188D03*
X250825Y285188D03*
X250825Y302188D03*
D14*
X38100Y198400D03*
X38100Y233400D03*
D15*
X279400Y233400D03*
X279400Y198400D03*
D16*
X233200Y98425D03*
X153200Y98425D03*
D17*
X243200Y76425D03*
X223200Y120425D03*
X183200Y120425D03*
X163200Y76425D03*
D11*
X129613Y70644D03*
X146613Y70644D03*
X146613Y55563D03*
X129613Y55563D03*
X129613Y25400D03*
X146613Y25400D03*
X146613Y40481D03*
X129613Y40481D03*
D18*
X276013Y76400D03*
D19*
X305013Y88900D03*
D18*
X276013Y101400D03*
D11*
X283600Y127000D03*
X300600Y127000D03*
D20*
X292100Y152400D03*
D17*
X88900Y120425D03*
X113900Y76425D03*
X63900Y76425D03*
D16*
X54900Y98425D03*
X122900Y98425D03*
D21*
X27464Y118269D02*
X12224Y118269D01*
X12224Y92869D02*
X27464Y92869D01*
D12*
X222938Y267494D03*
X237438Y267494D03*
D11*
X216131Y252413D03*
X233131Y252413D03*
D22*
X172244Y243150D03*
X184944Y243150D03*
X159544Y243150D03*
X146844Y243150D03*
D23*
X184944Y188500D03*
D24*
X171994Y186950D03*
X159794Y186950D03*
D23*
X146844Y188500D03*
D25*
X177194Y209550D03*
X154594Y209550D03*
D26*
X155600Y139399D03*
X165100Y139399D03*
X174600Y139399D03*
X174600Y165401D03*
X155600Y165401D03*
D27*
X197644Y302100D03*
X207144Y282100D03*
X188144Y282100D03*
D13*
X131994Y301625D03*
X148994Y301625D03*
D11*
X65881Y281550D03*
X65881Y264550D03*
D12*
X56794Y301625D03*
X71794Y301625D03*
D11*
X93100Y301625D03*
X110100Y301625D03*
D28*
X203200Y169150D03*
X203200Y135650D03*
D29*
X117300Y286639D03*
D30*
X101600Y286639D03*
D29*
X85900Y286639D03*
D31*
X304800Y266700D03*
X279400Y266700D03*
X266700Y279400D03*
X266700Y304800D03*
X114300Y12700D03*
X165100Y12700D03*
X174625Y101600D03*
X114300Y47625D03*
X38100Y266700D03*
X12700Y266700D03*
X304800Y50800D03*
X279400Y50800D03*
X266700Y38100D03*
X266700Y12700D03*
X50800Y12700D03*
X50800Y38100D03*
X187325Y152400D03*
X78581Y245269D03*
X125413Y246063D03*
X225425Y161131D03*
D32*
X153988Y261938D03*
X146050Y256381D03*
X188913Y261938D03*
X196850Y256381D03*
D31*
X139700Y127000D03*
X261938Y294481D03*
X173038Y282575D03*
X46831Y261938D03*
X223838Y284163D03*
X136525Y250825D03*
M02*
