G75*
%MOIN*%
%OFA0B0*%
%FSLAX25Y25*%
%IPPOS*%
%LPD*%
%AMOC8*
5,1,8,0,0,1.08239X$1,22.5*
%
%ADD10OC8,0.06496*%
%ADD11R,0.03959X0.03959*%
%ADD12OC8,0.03959*%
%ADD13C,0.06000*%
%ADD14C,0.01000*%
%ADD15C,0.02900*%
%ADD16C,0.03400*%
%ADD17C,0.01600*%
D10*
X0026500Y0116444D03*
X0026500Y0130223D03*
X0121500Y0130223D03*
X0121500Y0116444D03*
D11*
X0027437Y0101458D03*
D12*
X0027437Y0096458D03*
X0022437Y0096458D03*
X0022437Y0101458D03*
X0017438Y0101458D03*
X0017438Y0096458D03*
D13*
X0017750Y0084896D03*
X0017750Y0074896D03*
D14*
X0014833Y0040839D02*
X0015915Y0040391D01*
X0016500Y0040333D01*
X0130709Y0040333D01*
X0130736Y0040359D01*
X0131532Y0040333D01*
X0131580Y0040333D01*
X0132121Y0040369D01*
X0133160Y0040761D01*
X0133971Y0041520D01*
X0134428Y0042532D01*
X0134500Y0043077D01*
X0134500Y0157228D01*
X0134476Y0157253D01*
X0134500Y0158051D01*
X0134500Y0158095D01*
X0134459Y0158699D01*
X0134022Y0159852D01*
X0133177Y0160749D01*
X0132054Y0161255D01*
X0131447Y0161333D01*
X0105138Y0161333D01*
X0110600Y0155871D01*
X0112619Y0155871D01*
X0113181Y0156433D01*
X0114118Y0156821D01*
X0115132Y0156821D01*
X0116069Y0156433D01*
X0116787Y0155715D01*
X0117175Y0154778D01*
X0117175Y0153764D01*
X0116787Y0152826D01*
X0116069Y0152109D01*
X0115132Y0151721D01*
X0114118Y0151721D01*
X0113181Y0152109D01*
X0112619Y0152671D01*
X0109275Y0152671D01*
X0108337Y0153608D01*
X0102400Y0159546D01*
X0102331Y0159546D01*
X0103037Y0158840D01*
X0103425Y0157903D01*
X0103425Y0156889D01*
X0103037Y0155951D01*
X0102319Y0155234D01*
X0101382Y0154846D01*
X0100368Y0154846D01*
X0099431Y0155234D01*
X0098869Y0155796D01*
X0098100Y0155796D01*
X0091613Y0149308D01*
X0092306Y0149308D01*
X0092868Y0149870D01*
X0093805Y0150258D01*
X0094820Y0150258D01*
X0095757Y0149870D01*
X0096474Y0149153D01*
X0096517Y0149050D01*
X0098325Y0150859D01*
X0098325Y0151028D01*
X0098713Y0151965D01*
X0099431Y0152683D01*
X0100368Y0153071D01*
X0101382Y0153071D01*
X0102319Y0152683D01*
X0103037Y0151965D01*
X0103425Y0151028D01*
X0103425Y0150014D01*
X0103037Y0149076D01*
X0102319Y0148359D01*
X0101382Y0147971D01*
X0100368Y0147971D01*
X0100081Y0148089D01*
X0098725Y0146733D01*
X0098725Y0145796D01*
X0097788Y0144858D01*
X0096225Y0143296D01*
X0095288Y0143296D01*
X0094037Y0142046D01*
X0094037Y0137358D01*
X0090600Y0133921D01*
X0066150Y0133921D01*
X0065537Y0134533D01*
X0064743Y0134533D01*
X0063806Y0134922D01*
X0063088Y0135639D01*
X0062700Y0136576D01*
X0062700Y0137591D01*
X0063088Y0138528D01*
X0063806Y0139245D01*
X0064743Y0139633D01*
X0065757Y0139633D01*
X0065838Y0139600D01*
X0065838Y0141184D01*
X0066775Y0142121D01*
X0069275Y0144621D01*
X0073671Y0144621D01*
X0073638Y0144701D01*
X0073638Y0145716D01*
X0073800Y0146108D01*
X0036462Y0146108D01*
X0035850Y0146721D01*
X0035055Y0146721D01*
X0034118Y0147109D01*
X0033401Y0147826D01*
X0033013Y0148764D01*
X0033013Y0149778D01*
X0033401Y0150715D01*
X0034118Y0151433D01*
X0035055Y0151821D01*
X0036070Y0151821D01*
X0037007Y0151433D01*
X0037724Y0150715D01*
X0038112Y0149778D01*
X0038112Y0149308D01*
X0046117Y0149308D01*
X0045825Y0150014D01*
X0045825Y0151028D01*
X0046213Y0151965D01*
X0046931Y0152683D01*
X0047868Y0153071D01*
X0048662Y0153071D01*
X0050525Y0154934D01*
X0051462Y0155871D01*
X0067712Y0155871D01*
X0068025Y0156184D01*
X0068300Y0156458D01*
X0068025Y0156733D01*
X0067100Y0157658D01*
X0066305Y0157658D01*
X0065368Y0158047D01*
X0064651Y0158764D01*
X0064262Y0159701D01*
X0064262Y0160716D01*
X0064518Y0161333D01*
X0016500Y0161333D01*
X0015915Y0161276D01*
X0014833Y0160828D01*
X0014006Y0160000D01*
X0013558Y0158919D01*
X0013500Y0158333D01*
X0013500Y0099784D01*
X0014358Y0100642D01*
X0014358Y0102734D01*
X0016162Y0104538D01*
X0018713Y0104538D01*
X0019938Y0103313D01*
X0021162Y0104538D01*
X0022004Y0104538D01*
X0023650Y0106183D01*
X0031225Y0106183D01*
X0032162Y0105246D01*
X0032475Y0104933D01*
X0040600Y0104933D01*
X0041225Y0104308D01*
X0057619Y0104308D01*
X0058181Y0104870D01*
X0059118Y0105258D01*
X0060132Y0105258D01*
X0061069Y0104870D01*
X0061787Y0104153D01*
X0062175Y0103216D01*
X0062175Y0102201D01*
X0061787Y0101264D01*
X0061069Y0100547D01*
X0060132Y0100158D01*
X0059118Y0100158D01*
X0058181Y0100547D01*
X0057619Y0101108D01*
X0041387Y0101108D01*
X0041491Y0100858D01*
X0052599Y0100858D01*
X0053712Y0099745D01*
X0054132Y0099325D01*
X0092919Y0099325D01*
X0093181Y0099587D01*
X0094118Y0099975D01*
X0095132Y0099975D01*
X0096069Y0099587D01*
X0096787Y0098870D01*
X0097175Y0097933D01*
X0097175Y0097521D01*
X0098650Y0098996D01*
X0098650Y0099765D01*
X0098088Y0100326D01*
X0097700Y0101264D01*
X0097700Y0102278D01*
X0098088Y0103215D01*
X0098806Y0103933D01*
X0099743Y0104321D01*
X0100757Y0104321D01*
X0101694Y0103933D01*
X0102412Y0103215D01*
X0102800Y0102278D01*
X0102800Y0101264D01*
X0102412Y0100326D01*
X0101850Y0099765D01*
X0101850Y0097671D01*
X0100913Y0096733D01*
X0096850Y0092671D01*
X0055913Y0092671D01*
X0052487Y0089246D01*
X0052487Y0088451D01*
X0052099Y0087514D01*
X0051537Y0086952D01*
X0051537Y0068059D01*
X0055275Y0064321D01*
X0056070Y0064321D01*
X0057007Y0063933D01*
X0057724Y0063215D01*
X0058112Y0062278D01*
X0058112Y0061264D01*
X0057724Y0060326D01*
X0057007Y0059609D01*
X0056070Y0059221D01*
X0055055Y0059221D01*
X0054118Y0059609D01*
X0053401Y0060326D01*
X0053012Y0061264D01*
X0053012Y0062058D01*
X0049275Y0065796D01*
X0048337Y0066733D01*
X0048337Y0086952D01*
X0047776Y0087514D01*
X0047387Y0088451D01*
X0047387Y0089466D01*
X0047776Y0090403D01*
X0048493Y0091120D01*
X0049430Y0091508D01*
X0050225Y0091508D01*
X0051590Y0092874D01*
X0051070Y0092658D01*
X0050055Y0092658D01*
X0049118Y0093047D01*
X0048556Y0093608D01*
X0047019Y0093608D01*
X0047099Y0093528D01*
X0047487Y0092591D01*
X0047487Y0091576D01*
X0047099Y0090639D01*
X0046382Y0089922D01*
X0045445Y0089533D01*
X0044650Y0089533D01*
X0040288Y0085171D01*
X0027087Y0085171D01*
X0026150Y0086108D01*
X0023337Y0088921D01*
X0019275Y0088921D01*
X0018338Y0089858D01*
X0017712Y0090483D01*
X0016150Y0090483D01*
X0015212Y0091421D01*
X0013500Y0093133D01*
X0013500Y0043333D01*
X0013558Y0042748D01*
X0014006Y0041667D01*
X0014833Y0040839D01*
X0014343Y0041329D02*
X0133766Y0041329D01*
X0134336Y0042327D02*
X0130086Y0042327D01*
X0130421Y0042466D02*
X0132368Y0044413D01*
X0133421Y0046957D01*
X0133421Y0049710D01*
X0132368Y0052254D01*
X0130421Y0054201D01*
X0127877Y0055255D01*
X0125123Y0055255D01*
X0122579Y0054201D01*
X0120632Y0052254D01*
X0119579Y0049710D01*
X0119579Y0046957D01*
X0120632Y0044413D01*
X0122579Y0042466D01*
X0125123Y0041412D01*
X0127877Y0041412D01*
X0130421Y0042466D01*
X0131281Y0043326D02*
X0134500Y0043326D01*
X0134500Y0044324D02*
X0132279Y0044324D01*
X0132745Y0045323D02*
X0134500Y0045323D01*
X0134500Y0046321D02*
X0133158Y0046321D01*
X0133421Y0047320D02*
X0134500Y0047320D01*
X0134500Y0048318D02*
X0133421Y0048318D01*
X0133421Y0049317D02*
X0134500Y0049317D01*
X0134500Y0050315D02*
X0133170Y0050315D01*
X0132757Y0051314D02*
X0134500Y0051314D01*
X0134500Y0052312D02*
X0132309Y0052312D01*
X0131310Y0053311D02*
X0134500Y0053311D01*
X0134500Y0054310D02*
X0130158Y0054310D01*
X0134500Y0055308D02*
X0013500Y0055308D01*
X0013500Y0054310D02*
X0017842Y0054310D01*
X0017579Y0054201D02*
X0015632Y0052254D01*
X0014579Y0049710D01*
X0014579Y0046957D01*
X0015632Y0044413D01*
X0017579Y0042466D01*
X0020123Y0041412D01*
X0022877Y0041412D01*
X0025421Y0042466D01*
X0027368Y0044413D01*
X0028421Y0046957D01*
X0028421Y0049710D01*
X0027368Y0052254D01*
X0025421Y0054201D01*
X0022877Y0055255D01*
X0020123Y0055255D01*
X0017579Y0054201D01*
X0016690Y0053311D02*
X0013500Y0053311D01*
X0013500Y0052312D02*
X0015691Y0052312D01*
X0015243Y0051314D02*
X0013500Y0051314D01*
X0013500Y0050315D02*
X0014830Y0050315D01*
X0014579Y0049317D02*
X0013500Y0049317D01*
X0013500Y0048318D02*
X0014579Y0048318D01*
X0014579Y0047320D02*
X0013500Y0047320D01*
X0013500Y0046321D02*
X0014842Y0046321D01*
X0015255Y0045323D02*
X0013500Y0045323D01*
X0013500Y0044324D02*
X0015721Y0044324D01*
X0016719Y0043326D02*
X0013501Y0043326D01*
X0013732Y0042327D02*
X0017914Y0042327D01*
X0025086Y0042327D02*
X0122914Y0042327D01*
X0121719Y0043326D02*
X0026281Y0043326D01*
X0027279Y0044324D02*
X0120721Y0044324D01*
X0120255Y0045323D02*
X0027745Y0045323D01*
X0028158Y0046321D02*
X0119842Y0046321D01*
X0119579Y0047320D02*
X0028421Y0047320D01*
X0028421Y0048318D02*
X0119579Y0048318D01*
X0119579Y0049317D02*
X0028421Y0049317D01*
X0028170Y0050315D02*
X0119830Y0050315D01*
X0120243Y0051314D02*
X0027757Y0051314D01*
X0027309Y0052312D02*
X0120691Y0052312D01*
X0121690Y0053311D02*
X0026310Y0053311D01*
X0025158Y0054310D02*
X0122842Y0054310D01*
X0134500Y0056307D02*
X0013500Y0056307D01*
X0013500Y0057305D02*
X0134500Y0057305D01*
X0134500Y0058304D02*
X0013500Y0058304D01*
X0013500Y0059302D02*
X0054859Y0059302D01*
X0056266Y0059302D02*
X0134500Y0059302D01*
X0134500Y0060301D02*
X0057698Y0060301D01*
X0058112Y0061299D02*
X0134500Y0061299D01*
X0134500Y0062298D02*
X0058104Y0062298D01*
X0057643Y0063296D02*
X0134500Y0063296D01*
X0134500Y0064295D02*
X0056133Y0064295D01*
X0054303Y0065293D02*
X0134500Y0065293D01*
X0134500Y0066292D02*
X0053304Y0066292D01*
X0052306Y0067290D02*
X0134500Y0067290D01*
X0134500Y0068289D02*
X0051537Y0068289D01*
X0051537Y0069287D02*
X0134500Y0069287D01*
X0134500Y0070286D02*
X0051537Y0070286D01*
X0051537Y0071284D02*
X0134500Y0071284D01*
X0134500Y0072283D02*
X0051537Y0072283D01*
X0051537Y0073281D02*
X0134500Y0073281D01*
X0134500Y0074280D02*
X0105841Y0074280D01*
X0105447Y0073886D02*
X0106508Y0074947D01*
X0107083Y0076333D01*
X0107083Y0077834D01*
X0106508Y0079220D01*
X0105447Y0080281D01*
X0104061Y0080855D01*
X0102561Y0080855D01*
X0101175Y0080281D01*
X0100114Y0079220D01*
X0099539Y0077834D01*
X0099539Y0076333D01*
X0100114Y0074947D01*
X0101175Y0073886D01*
X0102561Y0073312D01*
X0104061Y0073312D01*
X0105447Y0073886D01*
X0106646Y0075278D02*
X0134500Y0075278D01*
X0134500Y0076277D02*
X0107059Y0076277D01*
X0107083Y0077275D02*
X0134500Y0077275D01*
X0134500Y0078274D02*
X0106900Y0078274D01*
X0106456Y0079272D02*
X0134500Y0079272D01*
X0134500Y0080271D02*
X0105457Y0080271D01*
X0101165Y0080271D02*
X0073961Y0080271D01*
X0073951Y0080281D02*
X0072565Y0080855D01*
X0071065Y0080855D01*
X0069678Y0080281D01*
X0068618Y0079220D01*
X0068043Y0077834D01*
X0068043Y0076333D01*
X0068618Y0074947D01*
X0069678Y0073886D01*
X0071065Y0073312D01*
X0072565Y0073312D01*
X0073951Y0073886D01*
X0075012Y0074947D01*
X0075587Y0076333D01*
X0075587Y0077834D01*
X0075012Y0079220D01*
X0073951Y0080281D01*
X0074960Y0079272D02*
X0100166Y0079272D01*
X0099722Y0078274D02*
X0075404Y0078274D01*
X0075587Y0077275D02*
X0099539Y0077275D01*
X0099563Y0076277D02*
X0075563Y0076277D01*
X0075150Y0075278D02*
X0099976Y0075278D01*
X0100781Y0074280D02*
X0074345Y0074280D01*
X0069285Y0074280D02*
X0062416Y0074280D01*
X0062022Y0073886D02*
X0063083Y0074947D01*
X0063657Y0076333D01*
X0063657Y0077834D01*
X0063083Y0079220D01*
X0062022Y0080281D01*
X0060636Y0080855D01*
X0059136Y0080855D01*
X0057749Y0080281D01*
X0056688Y0079220D01*
X0056114Y0077834D01*
X0056114Y0076333D01*
X0056688Y0074947D01*
X0057749Y0073886D01*
X0059136Y0073312D01*
X0060636Y0073312D01*
X0062022Y0073886D01*
X0063221Y0075278D02*
X0068480Y0075278D01*
X0068067Y0076277D02*
X0063634Y0076277D01*
X0063657Y0077275D02*
X0068043Y0077275D01*
X0068226Y0078274D02*
X0063475Y0078274D01*
X0063031Y0079272D02*
X0068670Y0079272D01*
X0069669Y0080271D02*
X0062032Y0080271D01*
X0057739Y0080271D02*
X0051537Y0080271D01*
X0051537Y0081269D02*
X0134500Y0081269D01*
X0134500Y0082268D02*
X0051537Y0082268D01*
X0051537Y0083266D02*
X0134500Y0083266D01*
X0134500Y0084265D02*
X0051537Y0084265D01*
X0051537Y0085263D02*
X0134500Y0085263D01*
X0134500Y0086262D02*
X0051537Y0086262D01*
X0051846Y0087260D02*
X0134500Y0087260D01*
X0134500Y0088259D02*
X0052408Y0088259D01*
X0052499Y0089257D02*
X0134500Y0089257D01*
X0134500Y0090256D02*
X0053498Y0090256D01*
X0054496Y0091254D02*
X0134500Y0091254D01*
X0134500Y0092253D02*
X0055495Y0092253D01*
X0055250Y0094271D02*
X0096187Y0094271D01*
X0100250Y0098333D01*
X0100250Y0101771D01*
X0102326Y0100241D02*
X0134500Y0100241D01*
X0134500Y0099243D02*
X0101850Y0099243D01*
X0101850Y0098244D02*
X0134500Y0098244D01*
X0134500Y0097245D02*
X0101425Y0097245D01*
X0100426Y0096247D02*
X0134500Y0096247D01*
X0134500Y0095248D02*
X0099428Y0095248D01*
X0098429Y0094250D02*
X0134500Y0094250D01*
X0134500Y0093251D02*
X0097431Y0093251D01*
X0097046Y0098244D02*
X0097898Y0098244D01*
X0098650Y0099243D02*
X0096414Y0099243D01*
X0098174Y0100241D02*
X0060332Y0100241D01*
X0058918Y0100241D02*
X0053217Y0100241D01*
X0050562Y0095208D02*
X0036813Y0095208D01*
X0030562Y0101458D01*
X0027437Y0101458D01*
X0030517Y0099241D02*
X0036150Y0093608D01*
X0042856Y0093608D01*
X0042776Y0093528D01*
X0042388Y0092591D01*
X0042388Y0091796D01*
X0038962Y0088371D01*
X0028413Y0088371D01*
X0024663Y0092121D01*
X0020600Y0092121D01*
X0019310Y0093411D01*
X0020220Y0094320D01*
X0021162Y0093379D01*
X0023713Y0093379D01*
X0024937Y0094603D01*
X0026162Y0093379D01*
X0028713Y0093379D01*
X0030517Y0095183D01*
X0030517Y0097734D01*
X0029872Y0098379D01*
X0029873Y0098379D01*
X0030517Y0099023D01*
X0030517Y0099241D01*
X0030007Y0098244D02*
X0031514Y0098244D01*
X0030517Y0097245D02*
X0032513Y0097245D01*
X0033511Y0096247D02*
X0030517Y0096247D01*
X0030517Y0095248D02*
X0034510Y0095248D01*
X0035508Y0094250D02*
X0029584Y0094250D01*
X0025875Y0093021D02*
X0029000Y0089896D01*
X0027526Y0089257D02*
X0039849Y0089257D01*
X0040847Y0090256D02*
X0026528Y0090256D01*
X0025529Y0091254D02*
X0041846Y0091254D01*
X0042388Y0092253D02*
X0020468Y0092253D01*
X0020875Y0093021D02*
X0025875Y0093021D01*
X0025291Y0094250D02*
X0024584Y0094250D01*
X0024000Y0090521D02*
X0027750Y0086771D01*
X0039625Y0086771D01*
X0044937Y0092083D01*
X0046716Y0090256D02*
X0047715Y0090256D01*
X0047387Y0089257D02*
X0044374Y0089257D01*
X0043376Y0088259D02*
X0047467Y0088259D01*
X0048029Y0087260D02*
X0042377Y0087260D01*
X0041379Y0086262D02*
X0048337Y0086262D01*
X0048337Y0085263D02*
X0040380Y0085263D01*
X0035261Y0080271D02*
X0048337Y0080271D01*
X0048337Y0081269D02*
X0019709Y0081269D01*
X0020072Y0081420D02*
X0021226Y0082573D01*
X0021850Y0084080D01*
X0021850Y0085711D01*
X0021226Y0087218D01*
X0020072Y0088372D01*
X0018566Y0088996D01*
X0016934Y0088996D01*
X0015428Y0088372D01*
X0014274Y0087218D01*
X0013650Y0085711D01*
X0013650Y0084080D01*
X0014274Y0082573D01*
X0015428Y0081420D01*
X0016934Y0080796D01*
X0018566Y0080796D01*
X0020072Y0081420D01*
X0020920Y0082268D02*
X0048337Y0082268D01*
X0048337Y0083266D02*
X0021513Y0083266D01*
X0021850Y0084265D02*
X0048337Y0084265D01*
X0048337Y0079272D02*
X0036259Y0079272D01*
X0036312Y0079220D02*
X0035251Y0080281D01*
X0033864Y0080855D01*
X0032364Y0080855D01*
X0030978Y0080281D01*
X0029917Y0079220D01*
X0029343Y0077834D01*
X0029343Y0076333D01*
X0029917Y0074947D01*
X0030978Y0073886D01*
X0032364Y0073312D01*
X0033864Y0073312D01*
X0035251Y0073886D01*
X0036312Y0074947D01*
X0036886Y0076333D01*
X0036886Y0077834D01*
X0036312Y0079220D01*
X0036703Y0078274D02*
X0048337Y0078274D01*
X0048337Y0077275D02*
X0036886Y0077275D01*
X0036862Y0076277D02*
X0048337Y0076277D01*
X0048337Y0075278D02*
X0036449Y0075278D01*
X0035645Y0074280D02*
X0048337Y0074280D01*
X0048337Y0073281D02*
X0021519Y0073281D01*
X0021226Y0072573D02*
X0021850Y0074080D01*
X0021850Y0075711D01*
X0021226Y0077218D01*
X0020072Y0078372D01*
X0018566Y0078996D01*
X0016934Y0078996D01*
X0015428Y0078372D01*
X0014274Y0077218D01*
X0013650Y0075711D01*
X0013650Y0074080D01*
X0014274Y0072573D01*
X0015428Y0071420D01*
X0016934Y0070796D01*
X0018566Y0070796D01*
X0020072Y0071420D01*
X0021226Y0072573D01*
X0020935Y0072283D02*
X0048337Y0072283D01*
X0048337Y0071284D02*
X0019745Y0071284D01*
X0021850Y0074280D02*
X0030584Y0074280D01*
X0029779Y0075278D02*
X0021850Y0075278D01*
X0021616Y0076277D02*
X0029366Y0076277D01*
X0029343Y0077275D02*
X0021169Y0077275D01*
X0020170Y0078274D02*
X0029525Y0078274D01*
X0029969Y0079272D02*
X0013500Y0079272D01*
X0013500Y0078274D02*
X0015330Y0078274D01*
X0014331Y0077275D02*
X0013500Y0077275D01*
X0013500Y0076277D02*
X0013884Y0076277D01*
X0013650Y0075278D02*
X0013500Y0075278D01*
X0013500Y0074280D02*
X0013650Y0074280D01*
X0013500Y0073281D02*
X0013981Y0073281D01*
X0013500Y0072283D02*
X0014565Y0072283D01*
X0013500Y0071284D02*
X0015755Y0071284D01*
X0013500Y0070286D02*
X0048337Y0070286D01*
X0048337Y0069287D02*
X0013500Y0069287D01*
X0013500Y0068289D02*
X0048337Y0068289D01*
X0048337Y0067290D02*
X0013500Y0067290D01*
X0013500Y0066292D02*
X0048779Y0066292D01*
X0049777Y0065293D02*
X0013500Y0065293D01*
X0013500Y0064295D02*
X0050776Y0064295D01*
X0051774Y0063296D02*
X0013500Y0063296D01*
X0013500Y0062298D02*
X0052773Y0062298D01*
X0053012Y0061299D02*
X0013500Y0061299D01*
X0013500Y0060301D02*
X0053427Y0060301D01*
X0055562Y0061771D02*
X0049937Y0067396D01*
X0049937Y0088958D01*
X0055250Y0094271D01*
X0050969Y0092253D02*
X0047487Y0092253D01*
X0047354Y0091254D02*
X0048817Y0091254D01*
X0048913Y0093251D02*
X0047214Y0093251D01*
X0042661Y0093251D02*
X0019470Y0093251D01*
X0020150Y0094250D02*
X0020291Y0094250D01*
X0020875Y0093021D02*
X0017438Y0096458D01*
X0014000Y0094896D02*
X0014000Y0098021D01*
X0017438Y0101458D01*
X0014358Y0101240D02*
X0013500Y0101240D01*
X0013500Y0102238D02*
X0014358Y0102238D01*
X0014861Y0103237D02*
X0013500Y0103237D01*
X0013500Y0104235D02*
X0015859Y0104235D01*
X0019016Y0104235D02*
X0020859Y0104235D01*
X0022700Y0105234D02*
X0013500Y0105234D01*
X0013500Y0106232D02*
X0134500Y0106232D01*
X0134500Y0105234D02*
X0060192Y0105234D01*
X0059058Y0105234D02*
X0032175Y0105234D01*
X0030562Y0104583D02*
X0031812Y0103333D01*
X0039938Y0103333D01*
X0040563Y0102708D01*
X0059625Y0102708D01*
X0061704Y0104235D02*
X0099536Y0104235D01*
X0100964Y0104235D02*
X0134500Y0104235D01*
X0134500Y0103237D02*
X0102390Y0103237D01*
X0102800Y0102238D02*
X0134500Y0102238D01*
X0134500Y0101240D02*
X0102790Y0101240D01*
X0097710Y0101240D02*
X0061762Y0101240D01*
X0062175Y0102238D02*
X0097700Y0102238D01*
X0098109Y0103237D02*
X0062166Y0103237D01*
X0052750Y0124583D02*
X0063447Y0135280D01*
X0063088Y0135639D01*
X0062700Y0136576D01*
X0062700Y0137591D01*
X0063088Y0138528D01*
X0063806Y0139245D01*
X0064743Y0139633D01*
X0065757Y0139633D01*
X0065838Y0139600D01*
X0065838Y0141184D01*
X0066775Y0142121D01*
X0067362Y0142708D01*
X0027125Y0142708D01*
X0021500Y0137083D01*
X0021500Y0124583D01*
X0052750Y0124583D01*
X0053370Y0125204D02*
X0021500Y0125204D01*
X0021500Y0126202D02*
X0054369Y0126202D01*
X0055368Y0127201D02*
X0021500Y0127201D01*
X0021500Y0128199D02*
X0056366Y0128199D01*
X0057365Y0129198D02*
X0021500Y0129198D01*
X0021752Y0129198D02*
X0013500Y0129198D01*
X0013500Y0130196D02*
X0026000Y0130196D01*
X0026000Y0129723D02*
X0026000Y0130723D01*
X0021752Y0130723D01*
X0021752Y0132190D01*
X0024533Y0134971D01*
X0026000Y0134971D01*
X0026000Y0130723D01*
X0027000Y0130723D01*
X0031248Y0130723D01*
X0031248Y0132190D01*
X0028467Y0134971D01*
X0027000Y0134971D01*
X0027000Y0130723D01*
X0027000Y0129723D01*
X0027000Y0125475D01*
X0028467Y0125475D01*
X0031248Y0128256D01*
X0031248Y0129723D01*
X0027000Y0129723D01*
X0026000Y0129723D01*
X0026000Y0125475D01*
X0024533Y0125475D01*
X0021752Y0128256D01*
X0021752Y0129723D01*
X0026000Y0129723D01*
X0026000Y0129198D02*
X0027000Y0129198D01*
X0027000Y0130196D02*
X0121000Y0130196D01*
X0121000Y0129723D02*
X0121000Y0130723D01*
X0116752Y0130723D01*
X0116752Y0132190D01*
X0119533Y0134971D01*
X0121000Y0134971D01*
X0121000Y0130723D01*
X0122000Y0130723D01*
X0126248Y0130723D01*
X0126248Y0132190D01*
X0123467Y0134971D01*
X0122000Y0134971D01*
X0122000Y0130723D01*
X0122000Y0129723D01*
X0122000Y0125475D01*
X0123467Y0125475D01*
X0126248Y0128256D01*
X0126248Y0129723D01*
X0122000Y0129723D01*
X0121000Y0129723D01*
X0121000Y0125475D01*
X0119533Y0125475D01*
X0116752Y0128256D01*
X0116752Y0129723D01*
X0121000Y0129723D01*
X0121000Y0129198D02*
X0122000Y0129198D01*
X0122000Y0130196D02*
X0134500Y0130196D01*
X0134500Y0129198D02*
X0126248Y0129198D01*
X0126500Y0129198D02*
X0108135Y0129198D01*
X0107137Y0130196D02*
X0126500Y0130196D01*
X0126500Y0131195D02*
X0106138Y0131195D01*
X0105140Y0132193D02*
X0126500Y0132193D01*
X0126244Y0132193D02*
X0134500Y0132193D01*
X0134500Y0131195D02*
X0126248Y0131195D01*
X0126500Y0133192D02*
X0084141Y0133192D01*
X0083412Y0133921D02*
X0090600Y0133921D01*
X0091537Y0134858D01*
X0094037Y0137358D01*
X0094037Y0142046D01*
X0094700Y0142708D01*
X0106187Y0142708D01*
X0114000Y0134896D01*
X0126500Y0134896D01*
X0126500Y0126146D01*
X0111187Y0126146D01*
X0104937Y0132396D01*
X0084938Y0132396D01*
X0083412Y0133921D01*
X0089312Y0137396D02*
X0068688Y0137396D01*
X0067438Y0138646D01*
X0067438Y0140521D01*
X0069938Y0143021D01*
X0074805Y0143021D01*
X0075680Y0142658D01*
X0076695Y0142658D01*
X0077570Y0143021D01*
X0077675Y0143021D01*
X0077712Y0142983D01*
X0087787Y0142983D01*
X0090562Y0140208D01*
X0090562Y0138646D01*
X0089312Y0137396D01*
X0090101Y0138184D02*
X0067899Y0138184D01*
X0067438Y0139183D02*
X0090562Y0139183D01*
X0090562Y0140181D02*
X0067438Y0140181D01*
X0068097Y0141180D02*
X0089591Y0141180D01*
X0088592Y0142179D02*
X0069095Y0142179D01*
X0067831Y0143177D02*
X0013500Y0143177D01*
X0013500Y0142179D02*
X0066832Y0142179D01*
X0026595Y0142179D01*
X0025597Y0141180D02*
X0065838Y0141180D01*
X0013500Y0141180D01*
X0013500Y0140181D02*
X0065838Y0140181D01*
X0024598Y0140181D01*
X0023600Y0139183D02*
X0063743Y0139183D01*
X0013500Y0139183D01*
X0013500Y0138184D02*
X0062946Y0138184D01*
X0022601Y0138184D01*
X0021603Y0137186D02*
X0062700Y0137186D01*
X0013500Y0137186D01*
X0013500Y0136187D02*
X0062861Y0136187D01*
X0021500Y0136187D01*
X0021500Y0135189D02*
X0063356Y0135189D01*
X0063538Y0135189D02*
X0013500Y0135189D01*
X0013500Y0134190D02*
X0023753Y0134190D01*
X0022754Y0133192D02*
X0013500Y0133192D01*
X0013500Y0132193D02*
X0021756Y0132193D01*
X0021500Y0132193D02*
X0060360Y0132193D01*
X0059362Y0131195D02*
X0021500Y0131195D01*
X0021752Y0131195D02*
X0013500Y0131195D01*
X0013500Y0128199D02*
X0021809Y0128199D01*
X0022808Y0127201D02*
X0013500Y0127201D01*
X0013500Y0126202D02*
X0023806Y0126202D01*
X0026000Y0126202D02*
X0027000Y0126202D01*
X0027000Y0127201D02*
X0026000Y0127201D01*
X0026000Y0128199D02*
X0027000Y0128199D01*
X0029194Y0126202D02*
X0118806Y0126202D01*
X0117808Y0127201D02*
X0030192Y0127201D01*
X0031191Y0128199D02*
X0116809Y0128199D01*
X0116752Y0129198D02*
X0031248Y0129198D01*
X0031248Y0131195D02*
X0116752Y0131195D01*
X0116756Y0132193D02*
X0031244Y0132193D01*
X0030246Y0133192D02*
X0117754Y0133192D01*
X0118753Y0134190D02*
X0090870Y0134190D01*
X0126500Y0134190D01*
X0125246Y0133192D02*
X0134500Y0133192D01*
X0134500Y0134190D02*
X0124247Y0134190D01*
X0122000Y0134190D02*
X0121000Y0134190D01*
X0121000Y0133192D02*
X0122000Y0133192D01*
X0122000Y0132193D02*
X0121000Y0132193D01*
X0121000Y0131195D02*
X0122000Y0131195D01*
X0122000Y0128199D02*
X0121000Y0128199D01*
X0121000Y0127201D02*
X0122000Y0127201D01*
X0122000Y0126202D02*
X0121000Y0126202D01*
X0124194Y0126202D02*
X0134500Y0126202D01*
X0134500Y0125204D02*
X0013500Y0125204D01*
X0013500Y0124205D02*
X0134500Y0124205D01*
X0134500Y0123207D02*
X0013500Y0123207D01*
X0013500Y0122208D02*
X0134500Y0122208D01*
X0134500Y0121210D02*
X0013500Y0121210D01*
X0013500Y0120211D02*
X0024119Y0120211D01*
X0024699Y0120792D02*
X0022152Y0118245D01*
X0022152Y0114643D01*
X0024699Y0112096D01*
X0028301Y0112096D01*
X0030848Y0114643D01*
X0030848Y0118245D01*
X0028301Y0120792D01*
X0024699Y0120792D01*
X0023120Y0119213D02*
X0013500Y0119213D01*
X0013500Y0118214D02*
X0022152Y0118214D01*
X0022152Y0117216D02*
X0013500Y0117216D01*
X0013500Y0116217D02*
X0022152Y0116217D01*
X0022152Y0115219D02*
X0013500Y0115219D01*
X0013500Y0114220D02*
X0022574Y0114220D01*
X0023573Y0113222D02*
X0013500Y0113222D01*
X0013500Y0112223D02*
X0024571Y0112223D01*
X0028429Y0112223D02*
X0119571Y0112223D01*
X0119699Y0112096D02*
X0123301Y0112096D01*
X0125848Y0114643D01*
X0125848Y0118245D01*
X0123301Y0120792D01*
X0119699Y0120792D01*
X0117152Y0118245D01*
X0117152Y0114643D01*
X0119699Y0112096D01*
X0118573Y0113222D02*
X0029427Y0113222D01*
X0030426Y0114220D02*
X0117574Y0114220D01*
X0117152Y0115219D02*
X0030848Y0115219D01*
X0030848Y0116217D02*
X0117152Y0116217D01*
X0117152Y0117216D02*
X0030848Y0117216D01*
X0030848Y0118214D02*
X0117152Y0118214D01*
X0118120Y0119213D02*
X0029880Y0119213D01*
X0028881Y0120211D02*
X0119119Y0120211D01*
X0123881Y0120211D02*
X0134500Y0120211D01*
X0134500Y0119213D02*
X0124880Y0119213D01*
X0125848Y0118214D02*
X0134500Y0118214D01*
X0134500Y0117216D02*
X0125848Y0117216D01*
X0125848Y0116217D02*
X0134500Y0116217D01*
X0134500Y0115219D02*
X0125848Y0115219D01*
X0125426Y0114220D02*
X0134500Y0114220D01*
X0134500Y0113222D02*
X0124427Y0113222D01*
X0123429Y0112223D02*
X0134500Y0112223D01*
X0134500Y0111225D02*
X0013500Y0111225D01*
X0013500Y0110226D02*
X0134500Y0110226D01*
X0134500Y0109228D02*
X0013500Y0109228D01*
X0013500Y0108229D02*
X0134500Y0108229D01*
X0134500Y0107231D02*
X0013500Y0107231D01*
X0013500Y0100241D02*
X0013957Y0100241D01*
X0014000Y0094896D02*
X0016813Y0092083D01*
X0018375Y0092083D01*
X0019938Y0090521D01*
X0024000Y0090521D01*
X0023999Y0088259D02*
X0020185Y0088259D01*
X0021184Y0087260D02*
X0024998Y0087260D01*
X0025996Y0086262D02*
X0021622Y0086262D01*
X0021850Y0085263D02*
X0026995Y0085263D01*
X0030968Y0080271D02*
X0013500Y0080271D01*
X0013500Y0081269D02*
X0015791Y0081269D01*
X0014580Y0082268D02*
X0013500Y0082268D01*
X0013500Y0083266D02*
X0013987Y0083266D01*
X0013650Y0084265D02*
X0013500Y0084265D01*
X0013500Y0085263D02*
X0013650Y0085263D01*
X0013500Y0086262D02*
X0013878Y0086262D01*
X0013500Y0087260D02*
X0014316Y0087260D01*
X0013500Y0088259D02*
X0015315Y0088259D01*
X0013500Y0089257D02*
X0018938Y0089257D01*
X0017940Y0090256D02*
X0013500Y0090256D01*
X0013500Y0091254D02*
X0015379Y0091254D01*
X0014380Y0092253D02*
X0013500Y0092253D01*
X0022437Y0101458D02*
X0022437Y0102708D01*
X0024312Y0104583D01*
X0030562Y0104583D01*
X0027000Y0131195D02*
X0026000Y0131195D01*
X0026000Y0132193D02*
X0027000Y0132193D01*
X0027000Y0133192D02*
X0026000Y0133192D01*
X0026000Y0134190D02*
X0027000Y0134190D01*
X0029247Y0134190D02*
X0065880Y0134190D01*
X0066813Y0135521D02*
X0065250Y0137083D01*
X0066813Y0135521D02*
X0089937Y0135521D01*
X0092437Y0138021D01*
X0092437Y0142708D01*
X0094625Y0144896D01*
X0095562Y0144896D01*
X0097125Y0146458D01*
X0097125Y0147396D01*
X0100250Y0150521D01*
X0100875Y0150521D01*
X0101862Y0148170D02*
X0121876Y0148170D01*
X0122579Y0147466D02*
X0125123Y0146412D01*
X0127877Y0146412D01*
X0130421Y0147466D01*
X0132368Y0149413D01*
X0133421Y0151957D01*
X0133421Y0154710D01*
X0132368Y0157254D01*
X0130421Y0159201D01*
X0127877Y0160255D01*
X0125123Y0160255D01*
X0122579Y0159201D01*
X0120632Y0157254D01*
X0119579Y0154710D01*
X0119579Y0151957D01*
X0120632Y0149413D01*
X0122579Y0147466D01*
X0123291Y0147171D02*
X0099163Y0147171D01*
X0098725Y0146173D02*
X0134500Y0146173D01*
X0134500Y0147171D02*
X0129709Y0147171D01*
X0131124Y0148170D02*
X0134500Y0148170D01*
X0134500Y0149168D02*
X0132123Y0149168D01*
X0132680Y0150167D02*
X0134500Y0150167D01*
X0134500Y0151165D02*
X0133093Y0151165D01*
X0133421Y0152164D02*
X0134500Y0152164D01*
X0134500Y0153162D02*
X0133421Y0153162D01*
X0133421Y0154161D02*
X0134500Y0154161D01*
X0134500Y0155159D02*
X0133235Y0155159D01*
X0132822Y0156158D02*
X0134500Y0156158D01*
X0134500Y0157156D02*
X0132408Y0157156D01*
X0131467Y0158155D02*
X0134496Y0158155D01*
X0134287Y0159153D02*
X0130468Y0159153D01*
X0132286Y0161150D02*
X0105321Y0161150D01*
X0106319Y0160152D02*
X0124875Y0160152D01*
X0128125Y0160152D02*
X0133739Y0160152D01*
X0122532Y0159153D02*
X0107318Y0159153D01*
X0108316Y0158155D02*
X0121533Y0158155D01*
X0120592Y0157156D02*
X0109315Y0157156D01*
X0110313Y0156158D02*
X0112906Y0156158D01*
X0114625Y0154271D02*
X0109937Y0154271D01*
X0103062Y0161146D01*
X0098062Y0161146D01*
X0097125Y0160208D01*
X0074625Y0160208D01*
X0078375Y0155521D02*
X0069625Y0155521D01*
X0068375Y0154271D01*
X0052125Y0154271D01*
X0048375Y0150521D01*
X0046412Y0152164D02*
X0028421Y0152164D01*
X0028421Y0151957D02*
X0027368Y0149413D01*
X0025421Y0147466D01*
X0022877Y0146412D01*
X0020123Y0146412D01*
X0017579Y0147466D01*
X0015632Y0149413D01*
X0014579Y0151957D01*
X0014579Y0154710D01*
X0015632Y0157254D01*
X0017579Y0159201D01*
X0020123Y0160255D01*
X0022877Y0160255D01*
X0025421Y0159201D01*
X0027368Y0157254D01*
X0028421Y0154710D01*
X0028421Y0151957D01*
X0028093Y0151165D02*
X0033851Y0151165D01*
X0033173Y0150167D02*
X0027680Y0150167D01*
X0027123Y0149168D02*
X0033013Y0149168D01*
X0033259Y0148170D02*
X0026124Y0148170D01*
X0024709Y0147171D02*
X0034056Y0147171D01*
X0036398Y0146173D02*
X0013500Y0146173D01*
X0013500Y0147171D02*
X0018291Y0147171D01*
X0016876Y0148170D02*
X0013500Y0148170D01*
X0013500Y0149168D02*
X0015877Y0149168D01*
X0015320Y0150167D02*
X0013500Y0150167D01*
X0013500Y0151165D02*
X0014907Y0151165D01*
X0014579Y0152164D02*
X0013500Y0152164D01*
X0013500Y0153162D02*
X0014579Y0153162D01*
X0014579Y0154161D02*
X0013500Y0154161D01*
X0013500Y0155159D02*
X0014765Y0155159D01*
X0015178Y0156158D02*
X0013500Y0156158D01*
X0013500Y0157156D02*
X0015592Y0157156D01*
X0016533Y0158155D02*
X0013500Y0158155D01*
X0013655Y0159153D02*
X0017532Y0159153D01*
X0019875Y0160152D02*
X0014157Y0160152D01*
X0015612Y0161150D02*
X0064443Y0161150D01*
X0064262Y0160152D02*
X0023125Y0160152D01*
X0025468Y0159153D02*
X0064489Y0159153D01*
X0065260Y0158155D02*
X0026467Y0158155D01*
X0027408Y0157156D02*
X0067602Y0157156D01*
X0067999Y0156158D02*
X0027822Y0156158D01*
X0028235Y0155159D02*
X0050751Y0155159D01*
X0049752Y0154161D02*
X0028421Y0154161D01*
X0028421Y0153162D02*
X0048754Y0153162D01*
X0045882Y0151165D02*
X0037274Y0151165D01*
X0037952Y0150167D02*
X0045825Y0150167D01*
X0050633Y0149308D02*
X0050925Y0150014D01*
X0050925Y0150808D01*
X0052788Y0152671D01*
X0069038Y0152671D01*
X0070288Y0153921D01*
X0077700Y0153921D01*
X0077700Y0153139D01*
X0078088Y0152201D01*
X0078481Y0151808D01*
X0077087Y0151808D01*
X0074587Y0149308D01*
X0050633Y0149308D01*
X0050925Y0150167D02*
X0075446Y0150167D01*
X0076444Y0151165D02*
X0051282Y0151165D01*
X0052281Y0152164D02*
X0078126Y0152164D01*
X0077700Y0153162D02*
X0069529Y0153162D01*
X0069625Y0157396D02*
X0087750Y0157396D01*
X0089625Y0155521D01*
X0089625Y0153958D01*
X0092471Y0150167D02*
X0093584Y0150167D01*
X0093470Y0151165D02*
X0098382Y0151165D01*
X0098912Y0152164D02*
X0094468Y0152164D01*
X0095467Y0153162D02*
X0108783Y0153162D01*
X0107785Y0154161D02*
X0096465Y0154161D01*
X0097464Y0155159D02*
X0099611Y0155159D01*
X0102139Y0155159D02*
X0106786Y0155159D01*
X0105788Y0156158D02*
X0103122Y0156158D01*
X0103425Y0157156D02*
X0104789Y0157156D01*
X0103791Y0158155D02*
X0103321Y0158155D01*
X0102792Y0159153D02*
X0102724Y0159153D01*
X0100875Y0157396D02*
X0097437Y0157396D01*
X0088062Y0148021D01*
X0080250Y0148021D01*
X0079625Y0147396D01*
X0079313Y0147396D01*
X0077750Y0145208D02*
X0076188Y0145208D01*
X0077750Y0145208D02*
X0078375Y0144583D01*
X0087750Y0144583D01*
X0090875Y0147708D01*
X0094312Y0147708D01*
X0095041Y0150167D02*
X0097633Y0150167D01*
X0096635Y0149168D02*
X0096459Y0149168D01*
X0098103Y0145174D02*
X0134500Y0145174D01*
X0134500Y0144176D02*
X0097105Y0144176D01*
X0095169Y0143177D02*
X0134500Y0143177D01*
X0134500Y0142179D02*
X0094170Y0142179D01*
X0106717Y0142179D01*
X0107716Y0141180D02*
X0094037Y0141180D01*
X0134500Y0141180D01*
X0134500Y0140181D02*
X0094037Y0140181D01*
X0108714Y0140181D01*
X0109713Y0139183D02*
X0094037Y0139183D01*
X0134500Y0139183D01*
X0134500Y0138184D02*
X0094037Y0138184D01*
X0110711Y0138184D01*
X0111710Y0137186D02*
X0093865Y0137186D01*
X0134500Y0137186D01*
X0134500Y0136187D02*
X0092867Y0136187D01*
X0112708Y0136187D01*
X0113707Y0135189D02*
X0091868Y0135189D01*
X0134500Y0135189D01*
X0134500Y0128199D02*
X0126191Y0128199D01*
X0126500Y0128199D02*
X0109134Y0128199D01*
X0110132Y0127201D02*
X0126500Y0127201D01*
X0126500Y0126202D02*
X0111131Y0126202D01*
X0125192Y0127201D02*
X0134500Y0127201D01*
X0120877Y0149168D02*
X0103075Y0149168D01*
X0103425Y0150167D02*
X0120320Y0150167D01*
X0119907Y0151165D02*
X0103368Y0151165D01*
X0102838Y0152164D02*
X0113126Y0152164D01*
X0116124Y0152164D02*
X0119579Y0152164D01*
X0119579Y0153162D02*
X0116926Y0153162D01*
X0117175Y0154161D02*
X0119579Y0154161D01*
X0119765Y0155159D02*
X0117017Y0155159D01*
X0116344Y0156158D02*
X0120178Y0156158D01*
X0085875Y0153958D02*
X0085875Y0153333D01*
X0082750Y0150208D01*
X0077750Y0150208D01*
X0075250Y0147708D01*
X0037125Y0147708D01*
X0035563Y0149271D01*
X0021500Y0134190D02*
X0062357Y0134190D01*
X0061359Y0133192D02*
X0021500Y0133192D01*
X0021500Y0130196D02*
X0058363Y0130196D01*
X0068829Y0144176D02*
X0013500Y0144176D01*
X0013500Y0145174D02*
X0073638Y0145174D01*
X0080250Y0153646D02*
X0078375Y0155521D01*
X0069625Y0157396D02*
X0066813Y0160208D01*
X0056741Y0079272D02*
X0051537Y0079272D01*
X0051537Y0078274D02*
X0056297Y0078274D01*
X0056114Y0077275D02*
X0051537Y0077275D01*
X0051537Y0076277D02*
X0056137Y0076277D01*
X0056551Y0075278D02*
X0051537Y0075278D01*
X0051537Y0074280D02*
X0057355Y0074280D01*
D15*
X0066500Y0083333D03*
X0080250Y0078333D03*
X0091500Y0083333D03*
X0094625Y0097425D03*
X0100250Y0101771D03*
X0108687Y0103333D03*
X0092125Y0133021D03*
X0079313Y0147396D03*
X0076188Y0145208D03*
X0076813Y0152708D03*
X0080250Y0153646D03*
X0085875Y0153958D03*
X0089625Y0153958D03*
X0094312Y0147708D03*
X0100875Y0150521D03*
X0100875Y0157396D03*
X0114625Y0154271D03*
X0116500Y0158333D03*
X0116500Y0148333D03*
X0121500Y0143333D03*
X0131500Y0143333D03*
X0074625Y0160208D03*
X0066813Y0160208D03*
X0071188Y0151771D03*
X0065250Y0137083D03*
X0048375Y0150521D03*
X0035563Y0149271D03*
X0031500Y0153333D03*
X0031500Y0158333D03*
X0025562Y0144271D03*
X0016500Y0143333D03*
X0035563Y0139896D03*
X0059625Y0102708D03*
X0050562Y0095208D03*
X0049937Y0088958D03*
X0044937Y0092083D03*
X0039000Y0100208D03*
X0029000Y0089896D03*
X0026500Y0078333D03*
X0041500Y0078333D03*
X0055562Y0061771D03*
X0061500Y0043333D03*
X0071500Y0043333D03*
X0091500Y0043333D03*
X0111500Y0043333D03*
X0111500Y0058333D03*
X0126500Y0063333D03*
X0069313Y0100833D03*
X0031500Y0058333D03*
X0036500Y0043333D03*
D16*
X0069000Y0139271D03*
X0072125Y0141458D03*
X0085875Y0141458D03*
X0089000Y0139271D03*
D17*
X0094625Y0097425D02*
X0053345Y0097425D01*
X0051812Y0098958D01*
X0040250Y0098958D01*
X0039000Y0100208D01*
M02*
