%
M48
M72
T01C0.0150
T02C0.0200
T03C0.0256
T04C0.0354
T05C0.0400
T06C0.0433
T07C0.0984
%
T01
X3650Y4333
X3150Y5833
X2650Y7833
X2900Y8990
X3900Y10021
X4494Y9208
X4994Y8896
X5056Y9521
X5963Y10271
X6931Y10083
X6650Y8333
X8025Y7833
X9150Y8333
X9463Y9743
X10025Y10177
X10869Y10333
X9213Y13302
X7931Y14740
X7619Y14521
X7681Y15271
X8025Y15365
X8588Y15396
X8963Y15396
X9431Y14771
X10088Y15052
X10088Y15740
X11463Y15427
X11650Y15833
X11650Y14833
X12150Y14333
X13150Y14333
X7463Y16021
X6681Y16021
X7119Y15177
X6525Y13708
X4838Y15052
X3556Y14927
X3150Y15333
X3150Y15833
X2556Y14427
X1650Y14333
X3556Y13990
X4150Y7833
X5556Y6177
X6150Y4333
X7150Y4333
X9150Y4333
X11150Y4333
X11150Y5833
X12650Y6333
T02
X8900Y13927
X8588Y14146
X7213Y14146
X6900Y13927
T03
X2744Y10146
X2744Y9646
X2244Y9646
X2244Y10146
X1744Y10146
X1744Y9646
T04
X3311Y7708
X5989Y7708
X7181Y7708
X10331Y7708
T05
X1775Y7490
X1775Y8490
T06
X2650Y11644
X2650Y13022
X12150Y13022
X12150Y11644
T07
X12650Y15333
X12650Y4833
X2150Y4833
X2150Y15333
M30
