G75*
%MOIN*%
%OFA0B0*%
%FSLAX24Y24*%
%IPPOS*%
%LPD*%
%AMOC8*
5,1,8,0,0,1.08239X$1,22.5*
%
%ADD10C,0.0040*%
%ADD11C,0.0030*%
%ADD12C,0.0100*%
D10*
X006764Y005865D02*
X007224Y005865D01*
X006764Y006172D01*
X007224Y006172D01*
X007071Y006402D02*
X006994Y006325D01*
X006840Y006325D01*
X006764Y006402D01*
X006764Y006555D01*
X006840Y006632D01*
X006994Y006632D01*
X007071Y006555D01*
X007071Y006402D01*
X007545Y006555D02*
X007545Y006785D01*
X007622Y006862D01*
X007698Y006862D01*
X007775Y006785D01*
X007775Y006555D01*
X007775Y006785D02*
X007852Y006862D01*
X007929Y006862D01*
X008005Y006785D01*
X008005Y006555D01*
X007545Y006555D01*
X007545Y007016D02*
X007545Y007169D01*
X007545Y007092D02*
X008005Y007092D01*
X008005Y007016D01*
X008264Y007016D02*
X008264Y007169D01*
X008264Y007092D02*
X008724Y007092D01*
X008724Y007016D01*
X008647Y006862D02*
X008571Y006862D01*
X008494Y006785D01*
X008494Y006555D01*
X008724Y006555D02*
X008724Y006785D01*
X008647Y006862D01*
X008494Y006785D02*
X008417Y006862D01*
X008340Y006862D01*
X008264Y006785D01*
X008264Y006555D01*
X008724Y006555D01*
X008724Y005941D02*
X008264Y005941D01*
X008264Y005711D01*
X008340Y005634D01*
X008494Y005634D01*
X008571Y005711D01*
X008571Y005941D01*
X008494Y005481D02*
X008417Y005481D01*
X008417Y005174D01*
X008340Y005174D02*
X008494Y005174D01*
X008571Y005251D01*
X008571Y005404D01*
X008494Y005481D01*
X008264Y005404D02*
X008264Y005251D01*
X008340Y005174D01*
X008264Y005021D02*
X008417Y004867D01*
X008417Y004944D02*
X008417Y004714D01*
X008264Y004714D02*
X008724Y004714D01*
X008724Y004944D01*
X008647Y005021D01*
X008494Y005021D01*
X008417Y004944D01*
X007852Y004944D02*
X007852Y004790D01*
X007775Y004714D01*
X007622Y004714D01*
X007545Y004790D01*
X007545Y004944D01*
X007622Y005174D02*
X007545Y005251D01*
X007545Y005404D01*
X007545Y005634D02*
X007852Y005634D01*
X007852Y005865D01*
X007775Y005941D01*
X007545Y005941D01*
X007698Y005481D02*
X007698Y005174D01*
X007622Y005174D02*
X007775Y005174D01*
X007852Y005251D01*
X007852Y005404D01*
X007775Y005481D01*
X007698Y005481D01*
X007698Y005021D02*
X007698Y004714D01*
X007852Y004560D02*
X007852Y004483D01*
X007698Y004330D01*
X007545Y004330D02*
X007852Y004330D01*
X007929Y004177D02*
X008005Y004100D01*
X008005Y003946D01*
X007929Y003870D01*
X007622Y003870D01*
X007545Y003946D01*
X007545Y004100D01*
X007622Y004177D01*
X007775Y004177D01*
X007775Y004023D01*
X007852Y004944D02*
X007775Y005021D01*
X007698Y005021D01*
X007224Y007246D02*
X006764Y007246D01*
X006764Y007553D01*
X006764Y007706D02*
X006764Y007860D01*
X006764Y007783D02*
X007071Y007783D01*
X007071Y007706D01*
X007224Y007783D02*
X007301Y007783D01*
X007545Y007936D02*
X007775Y007936D01*
X007852Y007860D01*
X007852Y007629D01*
X007545Y007629D01*
X007545Y007476D02*
X007545Y007323D01*
X007545Y007399D02*
X007852Y007399D01*
X007852Y007323D01*
X008005Y007399D02*
X008082Y007399D01*
X008264Y007399D02*
X008571Y007399D01*
X008571Y007323D01*
X008724Y007399D02*
X008801Y007399D01*
X008571Y007629D02*
X008571Y007860D01*
X008494Y007936D01*
X008264Y007936D01*
X008264Y008090D02*
X008724Y008090D01*
X008571Y008320D02*
X008417Y008090D01*
X008264Y008320D01*
X008264Y008474D02*
X008264Y008627D01*
X008264Y008550D02*
X008571Y008550D01*
X008571Y008474D01*
X008724Y008550D02*
X008801Y008550D01*
X008571Y008780D02*
X008571Y009011D01*
X008494Y009087D01*
X008264Y009087D01*
X008340Y009241D02*
X008264Y009318D01*
X008264Y009548D01*
X008187Y009548D02*
X008571Y009548D01*
X008571Y009318D01*
X008494Y009241D01*
X008340Y009241D01*
X008110Y009394D02*
X008110Y009471D01*
X008187Y009548D01*
X008247Y009868D02*
X008170Y009945D01*
X008170Y010098D01*
X008247Y010175D01*
X008247Y010328D02*
X008170Y010405D01*
X008170Y010635D01*
X008477Y010635D01*
X008477Y010789D02*
X008477Y010942D01*
X008554Y010866D02*
X008247Y010866D01*
X008170Y010942D01*
X008247Y011096D02*
X008170Y011172D01*
X008170Y011326D01*
X008247Y011403D01*
X008400Y011403D01*
X008477Y011326D01*
X008477Y011172D01*
X008400Y011096D01*
X008247Y011096D01*
X008400Y011556D02*
X008400Y011710D01*
X008400Y011863D02*
X008400Y012017D01*
X008554Y011940D02*
X008170Y011940D01*
X008170Y011633D02*
X008554Y011633D01*
X008630Y011710D01*
X008554Y011940D02*
X008630Y012017D01*
X007650Y010635D02*
X007420Y010635D01*
X007650Y010635D02*
X007727Y010559D01*
X007727Y010328D01*
X007420Y010328D01*
X007497Y010175D02*
X007804Y010175D01*
X007880Y010098D01*
X007880Y009945D01*
X007804Y009868D01*
X007497Y009868D01*
X007420Y009945D01*
X007420Y010098D01*
X007497Y010175D01*
X007130Y010098D02*
X007130Y009945D01*
X007054Y009868D01*
X006747Y009868D01*
X006670Y009945D01*
X006670Y010098D01*
X006747Y010175D01*
X007054Y010175D01*
X007130Y010098D01*
X007054Y010405D02*
X007130Y010482D01*
X007054Y010405D02*
X006670Y010405D01*
X006900Y010328D02*
X006900Y010482D01*
X006900Y010635D02*
X006900Y010789D01*
X007054Y010712D02*
X006670Y010712D01*
X007054Y010712D02*
X007130Y010789D01*
X008247Y010328D02*
X008477Y010328D01*
X008554Y010175D02*
X008630Y010098D01*
X008630Y009945D01*
X008554Y009868D01*
X008247Y009868D01*
X007852Y009548D02*
X007852Y009318D01*
X007775Y009241D01*
X007622Y009241D01*
X007545Y009318D01*
X007545Y009548D01*
X007468Y009548D02*
X007852Y009548D01*
X007468Y009548D02*
X007392Y009471D01*
X007392Y009394D01*
X007071Y009318D02*
X007071Y009548D01*
X006917Y009471D02*
X006917Y009318D01*
X006994Y009241D01*
X007071Y009318D01*
X006917Y009471D02*
X006840Y009548D01*
X006764Y009471D01*
X006764Y009241D01*
X006764Y009087D02*
X006840Y009011D01*
X007147Y009011D01*
X007071Y009087D02*
X007071Y008934D01*
X006994Y008780D02*
X006764Y008780D01*
X006764Y008474D02*
X007224Y008474D01*
X007071Y008550D02*
X007071Y008704D01*
X006994Y008780D01*
X007071Y008550D02*
X006994Y008474D01*
X007071Y008320D02*
X007071Y008090D01*
X006994Y008013D01*
X006840Y008013D01*
X006764Y008090D01*
X006764Y008320D01*
X006687Y008320D02*
X007071Y008320D01*
X006687Y008320D02*
X006610Y008243D01*
X006610Y008167D01*
X007545Y008090D02*
X008005Y008090D01*
X007852Y008320D02*
X007698Y008090D01*
X007545Y008320D01*
X007545Y008474D02*
X007545Y008627D01*
X007545Y008550D02*
X007852Y008550D01*
X007852Y008474D01*
X008005Y008550D02*
X008082Y008550D01*
X008264Y008780D02*
X008571Y008780D01*
X007852Y008780D02*
X007852Y009011D01*
X007775Y009087D01*
X007545Y009087D01*
X007545Y008780D02*
X007852Y008780D01*
X008264Y007629D02*
X008571Y007629D01*
X008264Y007476D02*
X008264Y007323D01*
X005130Y008217D02*
X005130Y008371D01*
X005054Y008447D01*
X004977Y008447D01*
X004900Y008371D01*
X004823Y008447D01*
X004747Y008447D01*
X004670Y008371D01*
X004670Y008217D01*
X004747Y008140D01*
X004900Y008294D02*
X004900Y008371D01*
X004900Y008601D02*
X004900Y008908D01*
X004747Y009061D02*
X004670Y009138D01*
X004670Y009291D01*
X004747Y009368D01*
X004823Y009368D01*
X004900Y009291D01*
X004900Y009215D01*
X004900Y009291D02*
X004977Y009368D01*
X005054Y009368D01*
X005130Y009291D01*
X005130Y009138D01*
X005054Y009061D01*
X005054Y009521D02*
X004747Y009521D01*
X005054Y009828D01*
X004747Y009828D01*
X004670Y009752D01*
X004670Y009598D01*
X004747Y009521D01*
X005054Y009521D02*
X005130Y009598D01*
X005130Y009752D01*
X005054Y009828D01*
X005130Y009982D02*
X004823Y009982D01*
X004670Y010135D01*
X004823Y010289D01*
X005130Y010289D01*
X005130Y010903D02*
X005130Y011056D01*
X005130Y010979D02*
X004670Y010979D01*
X004670Y010903D02*
X004670Y011056D01*
X004670Y011210D02*
X004977Y011210D01*
X004977Y011440D01*
X004900Y011517D01*
X004670Y011517D01*
X004227Y011210D02*
X003920Y010903D01*
X003920Y010749D02*
X003920Y010519D01*
X003997Y010442D01*
X004073Y010519D01*
X004073Y010749D01*
X004150Y010749D02*
X003920Y010749D01*
X004150Y010749D02*
X004227Y010672D01*
X004227Y010519D01*
X004380Y010289D02*
X003920Y010289D01*
X003920Y009982D02*
X004380Y009982D01*
X004227Y010135D01*
X004380Y010289D01*
X004227Y010903D02*
X003920Y011210D01*
X003920Y009368D02*
X004227Y009368D01*
X004380Y009215D01*
X004227Y009061D01*
X003920Y009061D01*
X003997Y008908D02*
X003920Y008831D01*
X003920Y008677D01*
X003997Y008601D01*
X004304Y008908D01*
X003997Y008908D01*
X004150Y009061D02*
X004150Y009368D01*
X004304Y008908D02*
X004380Y008831D01*
X004380Y008677D01*
X004304Y008601D01*
X003997Y008601D01*
X003920Y008447D02*
X003920Y008140D01*
X003920Y008294D02*
X004380Y008294D01*
X004227Y008140D01*
X005054Y008140D02*
X005130Y008217D01*
D11*
X011453Y007075D02*
X011453Y006828D01*
X011699Y007075D01*
X011761Y007075D01*
X011823Y007013D01*
X011823Y006890D01*
X011761Y006828D01*
X011699Y006338D02*
X011453Y006215D01*
X011699Y006091D01*
X011638Y005970D02*
X011576Y005970D01*
X011576Y005723D01*
X011638Y005723D02*
X011699Y005785D01*
X011699Y005908D01*
X011638Y005970D01*
X011453Y005908D02*
X011453Y005785D01*
X011514Y005723D01*
X011638Y005723D01*
X011638Y005602D02*
X011576Y005540D01*
X011576Y005355D01*
X011576Y005478D02*
X011453Y005602D01*
X011638Y005602D02*
X011761Y005602D01*
X011823Y005540D01*
X011823Y005355D01*
X011453Y005355D01*
X011514Y004865D02*
X011453Y004803D01*
X011453Y004680D01*
X011514Y004618D01*
X011761Y004618D01*
X011823Y004680D01*
X011823Y004803D01*
X011761Y004865D01*
X011823Y004497D02*
X011576Y004497D01*
X011453Y004373D01*
X011576Y004250D01*
X011823Y004250D01*
X011823Y003881D02*
X011453Y003881D01*
X011453Y004128D01*
X012539Y006915D02*
X012478Y006977D01*
X012478Y007100D01*
X012539Y007162D01*
X012601Y007162D01*
X012663Y007100D01*
X012663Y006977D01*
X012724Y006915D01*
X012786Y006915D01*
X012848Y006977D01*
X012848Y007100D01*
X012786Y007162D01*
X012848Y007283D02*
X012478Y007530D01*
X012848Y007530D01*
X012848Y007283D02*
X012478Y007283D01*
D12*
X008931Y003681D02*
X006463Y003681D01*
X006463Y009713D01*
X008931Y009713D01*
X008931Y012181D01*
X006463Y012181D01*
X006463Y009713D01*
X005306Y007963D02*
X005306Y011681D01*
X003744Y011681D01*
X003744Y007963D01*
X005306Y007963D01*
X008931Y009713D02*
X008931Y003681D01*
X012150Y003931D02*
X012150Y006744D01*
X013150Y006744D01*
X013150Y003931D01*
X012150Y003931D01*
X012150Y004007D02*
X013150Y004007D01*
X013150Y004105D02*
X012150Y004105D01*
X012150Y004204D02*
X013150Y004204D01*
X013150Y004302D02*
X012150Y004302D01*
X012150Y004401D02*
X013150Y004401D01*
X013150Y004499D02*
X012150Y004499D01*
X012150Y004598D02*
X013150Y004598D01*
X013150Y004696D02*
X012150Y004696D01*
X012150Y004795D02*
X013150Y004795D01*
X013150Y004893D02*
X012150Y004893D01*
X012150Y004992D02*
X013150Y004992D01*
X013150Y005090D02*
X012150Y005090D01*
X012150Y005189D02*
X013150Y005189D01*
X013150Y005287D02*
X012150Y005287D01*
X012150Y005386D02*
X013150Y005386D01*
X013150Y005484D02*
X012150Y005484D01*
X012150Y005583D02*
X013150Y005583D01*
X013150Y005681D02*
X012150Y005681D01*
X012150Y005780D02*
X013150Y005780D01*
X013150Y005878D02*
X012150Y005878D01*
X012150Y005977D02*
X013150Y005977D01*
X013150Y006075D02*
X012150Y006075D01*
X012150Y006174D02*
X013150Y006174D01*
X013150Y006272D02*
X012150Y006272D01*
X012150Y006371D02*
X013150Y006371D01*
X013150Y006469D02*
X012150Y006469D01*
X012150Y006568D02*
X013150Y006568D01*
X013150Y006666D02*
X012150Y006666D01*
M02*
