G75*
%MOIN*%
%OFA0B0*%
%FSLAX24Y24*%
%IPPOS*%
%LPD*%
%AMOC8*
5,1,8,0,0,1.08239X$1,22.5*
%
%ADD10C,0.0000*%
D10*
X001150Y001650D02*
X001150Y013150D01*
X001152Y013194D01*
X001158Y013237D01*
X001167Y013279D01*
X001180Y013321D01*
X001197Y013361D01*
X001217Y013400D01*
X001240Y013437D01*
X001267Y013471D01*
X001296Y013504D01*
X001329Y013533D01*
X001363Y013560D01*
X001400Y013583D01*
X001439Y013603D01*
X001479Y013620D01*
X001521Y013633D01*
X001563Y013642D01*
X001606Y013648D01*
X001650Y013650D01*
X013150Y013650D01*
X013194Y013648D01*
X013237Y013642D01*
X013279Y013633D01*
X013321Y013620D01*
X013361Y013603D01*
X013400Y013583D01*
X013437Y013560D01*
X013471Y013533D01*
X013504Y013504D01*
X013533Y013471D01*
X013560Y013437D01*
X013583Y013400D01*
X013603Y013361D01*
X013620Y013321D01*
X013633Y013279D01*
X013642Y013237D01*
X013648Y013194D01*
X013650Y013150D01*
X013650Y001650D01*
X013648Y001606D01*
X013642Y001563D01*
X013633Y001521D01*
X013620Y001479D01*
X013603Y001439D01*
X013583Y001400D01*
X013560Y001363D01*
X013533Y001329D01*
X013504Y001296D01*
X013471Y001267D01*
X013437Y001240D01*
X013400Y001217D01*
X013361Y001197D01*
X013321Y001180D01*
X013279Y001167D01*
X013237Y001158D01*
X013194Y001152D01*
X013150Y001150D01*
X001650Y001150D01*
X001606Y001152D01*
X001563Y001158D01*
X001521Y001167D01*
X001479Y001180D01*
X001439Y001197D01*
X001400Y001217D01*
X001363Y001240D01*
X001329Y001267D01*
X001296Y001296D01*
X001267Y001329D01*
X001240Y001363D01*
X001217Y001400D01*
X001197Y001439D01*
X001180Y001479D01*
X001167Y001521D01*
X001158Y001563D01*
X001152Y001606D01*
X001150Y001650D01*
X001658Y002150D02*
X001660Y002194D01*
X001666Y002238D01*
X001676Y002281D01*
X001689Y002323D01*
X001707Y002363D01*
X001728Y002402D01*
X001752Y002439D01*
X001779Y002474D01*
X001810Y002506D01*
X001843Y002535D01*
X001879Y002561D01*
X001917Y002583D01*
X001957Y002602D01*
X001998Y002618D01*
X002041Y002630D01*
X002084Y002638D01*
X002128Y002642D01*
X002172Y002642D01*
X002216Y002638D01*
X002259Y002630D01*
X002302Y002618D01*
X002343Y002602D01*
X002383Y002583D01*
X002421Y002561D01*
X002457Y002535D01*
X002490Y002506D01*
X002521Y002474D01*
X002548Y002439D01*
X002572Y002402D01*
X002593Y002363D01*
X002611Y002323D01*
X002624Y002281D01*
X002634Y002238D01*
X002640Y002194D01*
X002642Y002150D01*
X002640Y002106D01*
X002634Y002062D01*
X002624Y002019D01*
X002611Y001977D01*
X002593Y001937D01*
X002572Y001898D01*
X002548Y001861D01*
X002521Y001826D01*
X002490Y001794D01*
X002457Y001765D01*
X002421Y001739D01*
X002383Y001717D01*
X002343Y001698D01*
X002302Y001682D01*
X002259Y001670D01*
X002216Y001662D01*
X002172Y001658D01*
X002128Y001658D01*
X002084Y001662D01*
X002041Y001670D01*
X001998Y001682D01*
X001957Y001698D01*
X001917Y001717D01*
X001879Y001739D01*
X001843Y001765D01*
X001810Y001794D01*
X001779Y001826D01*
X001752Y001861D01*
X001728Y001898D01*
X001707Y001937D01*
X001689Y001977D01*
X001676Y002019D01*
X001666Y002062D01*
X001660Y002106D01*
X001658Y002150D01*
X003134Y005025D02*
X003136Y005051D01*
X003142Y005077D01*
X003152Y005102D01*
X003165Y005125D01*
X003181Y005145D01*
X003201Y005163D01*
X003223Y005178D01*
X003246Y005190D01*
X003272Y005198D01*
X003298Y005202D01*
X003324Y005202D01*
X003350Y005198D01*
X003376Y005190D01*
X003400Y005178D01*
X003421Y005163D01*
X003441Y005145D01*
X003457Y005125D01*
X003470Y005102D01*
X003480Y005077D01*
X003486Y005051D01*
X003488Y005025D01*
X003486Y004999D01*
X003480Y004973D01*
X003470Y004948D01*
X003457Y004925D01*
X003441Y004905D01*
X003421Y004887D01*
X003399Y004872D01*
X003376Y004860D01*
X003350Y004852D01*
X003324Y004848D01*
X003298Y004848D01*
X003272Y004852D01*
X003246Y004860D01*
X003222Y004872D01*
X003201Y004887D01*
X003181Y004905D01*
X003165Y004925D01*
X003152Y004948D01*
X003142Y004973D01*
X003136Y004999D01*
X003134Y005025D01*
X005812Y005025D02*
X005814Y005051D01*
X005820Y005077D01*
X005830Y005102D01*
X005843Y005125D01*
X005859Y005145D01*
X005879Y005163D01*
X005901Y005178D01*
X005924Y005190D01*
X005950Y005198D01*
X005976Y005202D01*
X006002Y005202D01*
X006028Y005198D01*
X006054Y005190D01*
X006078Y005178D01*
X006099Y005163D01*
X006119Y005145D01*
X006135Y005125D01*
X006148Y005102D01*
X006158Y005077D01*
X006164Y005051D01*
X006166Y005025D01*
X006164Y004999D01*
X006158Y004973D01*
X006148Y004948D01*
X006135Y004925D01*
X006119Y004905D01*
X006099Y004887D01*
X006077Y004872D01*
X006054Y004860D01*
X006028Y004852D01*
X006002Y004848D01*
X005976Y004848D01*
X005950Y004852D01*
X005924Y004860D01*
X005900Y004872D01*
X005879Y004887D01*
X005859Y004905D01*
X005843Y004925D01*
X005830Y004948D01*
X005820Y004973D01*
X005814Y004999D01*
X005812Y005025D01*
X007004Y005025D02*
X007006Y005051D01*
X007012Y005077D01*
X007022Y005102D01*
X007035Y005125D01*
X007051Y005145D01*
X007071Y005163D01*
X007093Y005178D01*
X007116Y005190D01*
X007142Y005198D01*
X007168Y005202D01*
X007194Y005202D01*
X007220Y005198D01*
X007246Y005190D01*
X007270Y005178D01*
X007291Y005163D01*
X007311Y005145D01*
X007327Y005125D01*
X007340Y005102D01*
X007350Y005077D01*
X007356Y005051D01*
X007358Y005025D01*
X007356Y004999D01*
X007350Y004973D01*
X007340Y004948D01*
X007327Y004925D01*
X007311Y004905D01*
X007291Y004887D01*
X007269Y004872D01*
X007246Y004860D01*
X007220Y004852D01*
X007194Y004848D01*
X007168Y004848D01*
X007142Y004852D01*
X007116Y004860D01*
X007092Y004872D01*
X007071Y004887D01*
X007051Y004905D01*
X007035Y004925D01*
X007022Y004948D01*
X007012Y004973D01*
X007006Y004999D01*
X007004Y005025D01*
X010154Y005025D02*
X010156Y005051D01*
X010162Y005077D01*
X010172Y005102D01*
X010185Y005125D01*
X010201Y005145D01*
X010221Y005163D01*
X010243Y005178D01*
X010266Y005190D01*
X010292Y005198D01*
X010318Y005202D01*
X010344Y005202D01*
X010370Y005198D01*
X010396Y005190D01*
X010420Y005178D01*
X010441Y005163D01*
X010461Y005145D01*
X010477Y005125D01*
X010490Y005102D01*
X010500Y005077D01*
X010506Y005051D01*
X010508Y005025D01*
X010506Y004999D01*
X010500Y004973D01*
X010490Y004948D01*
X010477Y004925D01*
X010461Y004905D01*
X010441Y004887D01*
X010419Y004872D01*
X010396Y004860D01*
X010370Y004852D01*
X010344Y004848D01*
X010318Y004848D01*
X010292Y004852D01*
X010266Y004860D01*
X010242Y004872D01*
X010221Y004887D01*
X010201Y004905D01*
X010185Y004925D01*
X010172Y004948D01*
X010162Y004973D01*
X010156Y004999D01*
X010154Y005025D01*
X012158Y002150D02*
X012160Y002194D01*
X012166Y002238D01*
X012176Y002281D01*
X012189Y002323D01*
X012207Y002363D01*
X012228Y002402D01*
X012252Y002439D01*
X012279Y002474D01*
X012310Y002506D01*
X012343Y002535D01*
X012379Y002561D01*
X012417Y002583D01*
X012457Y002602D01*
X012498Y002618D01*
X012541Y002630D01*
X012584Y002638D01*
X012628Y002642D01*
X012672Y002642D01*
X012716Y002638D01*
X012759Y002630D01*
X012802Y002618D01*
X012843Y002602D01*
X012883Y002583D01*
X012921Y002561D01*
X012957Y002535D01*
X012990Y002506D01*
X013021Y002474D01*
X013048Y002439D01*
X013072Y002402D01*
X013093Y002363D01*
X013111Y002323D01*
X013124Y002281D01*
X013134Y002238D01*
X013140Y002194D01*
X013142Y002150D01*
X013140Y002106D01*
X013134Y002062D01*
X013124Y002019D01*
X013111Y001977D01*
X013093Y001937D01*
X013072Y001898D01*
X013048Y001861D01*
X013021Y001826D01*
X012990Y001794D01*
X012957Y001765D01*
X012921Y001739D01*
X012883Y001717D01*
X012843Y001698D01*
X012802Y001682D01*
X012759Y001670D01*
X012716Y001662D01*
X012672Y001658D01*
X012628Y001658D01*
X012584Y001662D01*
X012541Y001670D01*
X012498Y001682D01*
X012457Y001698D01*
X012417Y001717D01*
X012379Y001739D01*
X012343Y001765D01*
X012310Y001794D01*
X012279Y001826D01*
X012252Y001861D01*
X012228Y001898D01*
X012207Y001937D01*
X012189Y001977D01*
X012176Y002019D01*
X012166Y002062D01*
X012160Y002106D01*
X012158Y002150D01*
X012158Y012650D02*
X012160Y012694D01*
X012166Y012738D01*
X012176Y012781D01*
X012189Y012823D01*
X012207Y012863D01*
X012228Y012902D01*
X012252Y012939D01*
X012279Y012974D01*
X012310Y013006D01*
X012343Y013035D01*
X012379Y013061D01*
X012417Y013083D01*
X012457Y013102D01*
X012498Y013118D01*
X012541Y013130D01*
X012584Y013138D01*
X012628Y013142D01*
X012672Y013142D01*
X012716Y013138D01*
X012759Y013130D01*
X012802Y013118D01*
X012843Y013102D01*
X012883Y013083D01*
X012921Y013061D01*
X012957Y013035D01*
X012990Y013006D01*
X013021Y012974D01*
X013048Y012939D01*
X013072Y012902D01*
X013093Y012863D01*
X013111Y012823D01*
X013124Y012781D01*
X013134Y012738D01*
X013140Y012694D01*
X013142Y012650D01*
X013140Y012606D01*
X013134Y012562D01*
X013124Y012519D01*
X013111Y012477D01*
X013093Y012437D01*
X013072Y012398D01*
X013048Y012361D01*
X013021Y012326D01*
X012990Y012294D01*
X012957Y012265D01*
X012921Y012239D01*
X012883Y012217D01*
X012843Y012198D01*
X012802Y012182D01*
X012759Y012170D01*
X012716Y012162D01*
X012672Y012158D01*
X012628Y012158D01*
X012584Y012162D01*
X012541Y012170D01*
X012498Y012182D01*
X012457Y012198D01*
X012417Y012217D01*
X012379Y012239D01*
X012343Y012265D01*
X012310Y012294D01*
X012279Y012326D01*
X012252Y012361D01*
X012228Y012398D01*
X012207Y012437D01*
X012189Y012477D01*
X012176Y012519D01*
X012166Y012562D01*
X012160Y012606D01*
X012158Y012650D01*
X001658Y012650D02*
X001660Y012694D01*
X001666Y012738D01*
X001676Y012781D01*
X001689Y012823D01*
X001707Y012863D01*
X001728Y012902D01*
X001752Y012939D01*
X001779Y012974D01*
X001810Y013006D01*
X001843Y013035D01*
X001879Y013061D01*
X001917Y013083D01*
X001957Y013102D01*
X001998Y013118D01*
X002041Y013130D01*
X002084Y013138D01*
X002128Y013142D01*
X002172Y013142D01*
X002216Y013138D01*
X002259Y013130D01*
X002302Y013118D01*
X002343Y013102D01*
X002383Y013083D01*
X002421Y013061D01*
X002457Y013035D01*
X002490Y013006D01*
X002521Y012974D01*
X002548Y012939D01*
X002572Y012902D01*
X002593Y012863D01*
X002611Y012823D01*
X002624Y012781D01*
X002634Y012738D01*
X002640Y012694D01*
X002642Y012650D01*
X002640Y012606D01*
X002634Y012562D01*
X002624Y012519D01*
X002611Y012477D01*
X002593Y012437D01*
X002572Y012398D01*
X002548Y012361D01*
X002521Y012326D01*
X002490Y012294D01*
X002457Y012265D01*
X002421Y012239D01*
X002383Y012217D01*
X002343Y012198D01*
X002302Y012182D01*
X002259Y012170D01*
X002216Y012162D01*
X002172Y012158D01*
X002128Y012158D01*
X002084Y012162D01*
X002041Y012170D01*
X001998Y012182D01*
X001957Y012198D01*
X001917Y012217D01*
X001879Y012239D01*
X001843Y012265D01*
X001810Y012294D01*
X001779Y012326D01*
X001752Y012361D01*
X001728Y012398D01*
X001707Y012437D01*
X001689Y012477D01*
X001676Y012519D01*
X001666Y012562D01*
X001660Y012606D01*
X001658Y012650D01*
M02*
