G75*
%MOIN*%
%OFA0B0*%
%FSLAX24Y24*%
%IPPOS*%
%LPD*%
%AMOC8*
5,1,8,0,0,1.08239X$1,22.5*
%
%ADD10R,0.0394X0.0433*%
%ADD11R,0.0157X0.0480*%
%ADD12R,0.0433X0.0394*%
%ADD13R,0.0484X0.0244*%
%ADD14R,0.0244X0.0484*%
%ADD15R,0.0197X0.0197*%
%ADD16R,0.0157X0.0236*%
%ADD17R,0.0323X0.0161*%
%ADD18R,0.1429X0.1599*%
%ADD19R,0.0240X0.0232*%
%ADD20R,0.0201X0.1969*%
%ADD21R,0.0240X0.0079*%
%ADD22R,0.0241X0.0079*%
%ADD23R,0.0085X0.1598*%
%ADD24R,0.0591X0.0354*%
%ADD25R,0.0315X0.0315*%
%ADD26OC8,0.0650*%
%ADD27R,0.0472X0.0551*%
%ADD28R,0.0630X0.0512*%
%ADD29R,0.0630X0.0787*%
%ADD30R,0.0350X0.0165*%
%ADD31R,0.0984X0.0984*%
%ADD32R,0.0396X0.0396*%
%ADD33OC8,0.0396*%
%ADD34C,0.0600*%
%ADD35C,0.0100*%
%ADD36C,0.0290*%
%ADD37C,0.0070*%
%ADD38C,0.0080*%
%ADD39C,0.0450*%
%ADD40C,0.0160*%
D10*
X005565Y006150D03*
X006235Y006150D03*
X006400Y007034D03*
X006400Y007703D03*
X008431Y007703D03*
X008431Y007034D03*
X009753Y007963D03*
X010422Y007963D03*
X012315Y006150D03*
X012985Y006150D03*
X006922Y003931D03*
X006922Y003338D03*
X006922Y002744D03*
X006922Y002150D03*
X006253Y002150D03*
X006253Y002744D03*
X006253Y003338D03*
X006253Y003931D03*
X005940Y012338D03*
X005940Y012994D03*
X006610Y012994D03*
X006610Y012338D03*
D11*
X006954Y007884D03*
X007210Y007884D03*
X007465Y007884D03*
X007721Y007884D03*
X007721Y006853D03*
X007465Y006853D03*
X007210Y006853D03*
X006954Y006853D03*
D12*
X007097Y006150D03*
X007766Y006150D03*
X003985Y006369D03*
X003315Y006369D03*
X009650Y012378D03*
X009650Y013047D03*
X010431Y013047D03*
X011025Y013047D03*
X011025Y012378D03*
X010431Y012378D03*
D13*
X005541Y007587D03*
X005541Y007213D03*
X005541Y006838D03*
X004509Y006838D03*
X004509Y007213D03*
X004509Y007587D03*
D14*
X008307Y012072D03*
X008681Y012072D03*
X009055Y012072D03*
X009055Y013103D03*
X008681Y013103D03*
X008307Y013103D03*
D15*
X007738Y013083D03*
X007187Y013083D03*
X007187Y012217D03*
X007738Y012217D03*
D16*
X007463Y012217D03*
X007463Y013083D03*
D17*
X008656Y010400D03*
X008656Y009900D03*
X008656Y009400D03*
X008656Y008900D03*
D18*
X007273Y009650D03*
D19*
X007588Y008733D03*
X007588Y010567D03*
D20*
X006458Y009650D03*
D21*
X007588Y008850D03*
D22*
X007587Y010450D03*
D23*
X006561Y009650D03*
D24*
X005323Y012315D03*
X005323Y012985D03*
X004102Y012985D03*
X004102Y012315D03*
D25*
X010521Y011806D03*
X011092Y011806D03*
D26*
X012150Y010339D03*
X012150Y008961D03*
X002650Y008961D03*
X002650Y010339D03*
D27*
X004650Y005891D03*
X003666Y004159D03*
X005634Y004159D03*
X007575Y004159D03*
X008363Y005891D03*
X009937Y005891D03*
X010725Y004159D03*
D28*
X012017Y004158D03*
X012017Y005142D03*
D29*
X013158Y004650D03*
D30*
X010730Y006547D03*
X010730Y006803D03*
X010730Y007059D03*
X010730Y007315D03*
X009070Y007315D03*
X009070Y007059D03*
X009070Y006803D03*
X009070Y006547D03*
D31*
X012650Y007150D03*
D32*
X002744Y007463D03*
D33*
X002244Y007463D03*
X002244Y006963D03*
X002744Y006963D03*
X001744Y006963D03*
X001744Y007463D03*
D34*
X001775Y005806D03*
X001775Y004806D03*
D35*
X001438Y001446D02*
X013362Y001446D01*
X013399Y001483D02*
X013317Y001401D01*
X013209Y001356D01*
X013150Y001350D01*
X001650Y001350D01*
X001591Y001356D01*
X001483Y001401D01*
X001401Y001483D01*
X001356Y001591D01*
X001350Y001650D01*
X001350Y006630D01*
X001428Y006552D01*
X001521Y006459D01*
X002466Y006459D01*
X002662Y006655D01*
X002871Y006655D01*
X002989Y006773D01*
X003835Y006773D01*
X003835Y006676D01*
X003723Y006676D01*
X003671Y006624D01*
X003652Y006658D01*
X003624Y006686D01*
X003590Y006705D01*
X003552Y006716D01*
X003364Y006716D01*
X003364Y006417D01*
X003267Y006417D01*
X003267Y006320D01*
X002949Y006320D01*
X002949Y006152D01*
X002959Y006114D01*
X002979Y006080D01*
X003007Y006052D01*
X003008Y006051D01*
X002110Y006051D01*
X002007Y006154D01*
X001857Y006216D01*
X001693Y006216D01*
X001543Y006154D01*
X001427Y006038D01*
X001365Y005888D01*
X001365Y005725D01*
X001427Y005574D01*
X001543Y005459D01*
X001693Y005396D01*
X001857Y005396D01*
X002007Y005459D01*
X002123Y005574D01*
X002185Y005725D01*
X002185Y005731D01*
X004304Y005731D01*
X004304Y005570D01*
X004368Y005506D01*
X004932Y005506D01*
X004996Y005570D01*
X004996Y005958D01*
X005044Y005958D01*
X005138Y005996D01*
X005210Y006068D01*
X005249Y006162D01*
X005249Y006263D01*
X005210Y006357D01*
X005138Y006429D01*
X005044Y006467D01*
X004943Y006467D01*
X004849Y006429D01*
X004778Y006357D01*
X004744Y006277D01*
X004561Y006277D01*
X004638Y006309D01*
X004710Y006381D01*
X004749Y006474D01*
X004749Y006576D01*
X004736Y006606D01*
X004797Y006606D01*
X004861Y006671D01*
X004861Y006672D01*
X004912Y006621D01*
X005006Y006583D01*
X005107Y006583D01*
X005201Y006621D01*
X005219Y006640D01*
X005253Y006606D01*
X005755Y006606D01*
X005625Y006477D01*
X005323Y006477D01*
X005259Y006412D01*
X005259Y005888D01*
X005323Y005823D01*
X005405Y005823D01*
X005405Y005663D01*
X004061Y004319D01*
X004012Y004319D01*
X004012Y004480D01*
X003948Y004544D01*
X003384Y004544D01*
X003320Y004480D01*
X003320Y004319D01*
X002489Y004319D01*
X002155Y004652D01*
X002185Y004725D01*
X002185Y004888D01*
X002123Y005038D01*
X002007Y005154D01*
X001857Y005216D01*
X001693Y005216D01*
X001543Y005154D01*
X001427Y005038D01*
X001365Y004888D01*
X001365Y004725D01*
X001427Y004574D01*
X001543Y004459D01*
X001693Y004396D01*
X001857Y004396D01*
X001929Y004426D01*
X002356Y003999D01*
X003320Y003999D01*
X003320Y003838D01*
X003384Y003773D01*
X003948Y003773D01*
X004012Y003838D01*
X004012Y003999D01*
X004194Y003999D01*
X005632Y005437D01*
X005725Y005530D01*
X005725Y005823D01*
X005808Y005823D01*
X005872Y005888D01*
X005872Y006271D01*
X005888Y006287D01*
X005888Y006198D01*
X006186Y006198D01*
X006186Y006102D01*
X005888Y006102D01*
X005888Y005914D01*
X005898Y005876D01*
X005918Y005841D01*
X005946Y005813D01*
X005980Y005794D01*
X006018Y005783D01*
X006186Y005783D01*
X006186Y006102D01*
X006283Y006102D01*
X006283Y006198D01*
X006581Y006198D01*
X006581Y006386D01*
X006579Y006396D01*
X006723Y006396D01*
X006752Y006425D01*
X006740Y006405D01*
X006730Y006367D01*
X006730Y006198D01*
X007048Y006198D01*
X007048Y006102D01*
X006730Y006102D01*
X006730Y005933D01*
X006740Y005895D01*
X006760Y005861D01*
X006788Y005833D01*
X006822Y005813D01*
X006860Y005803D01*
X007048Y005803D01*
X007048Y006102D01*
X007145Y006102D01*
X007145Y005803D01*
X007333Y005803D01*
X007371Y005813D01*
X007405Y005833D01*
X007433Y005861D01*
X007452Y005894D01*
X007504Y005843D01*
X008016Y005843D01*
X008016Y005570D01*
X008081Y005506D01*
X008644Y005506D01*
X008709Y005570D01*
X008709Y005969D01*
X008794Y006054D01*
X009385Y006054D01*
X009479Y006148D01*
X009591Y006148D01*
X009591Y005771D01*
X008599Y004779D01*
X007469Y004779D01*
X007501Y004811D01*
X007559Y004950D01*
X007559Y005100D01*
X007501Y005239D01*
X007395Y005345D01*
X007257Y005402D01*
X007106Y005402D01*
X006968Y005345D01*
X006862Y005239D01*
X006804Y005100D01*
X006804Y004950D01*
X006862Y004811D01*
X006968Y004705D01*
X007106Y004648D01*
X007109Y004648D01*
X006762Y004301D01*
X006762Y004258D01*
X006680Y004258D01*
X006615Y004193D01*
X006615Y003669D01*
X006650Y003634D01*
X006615Y003600D01*
X006615Y003075D01*
X006650Y003041D01*
X006615Y003006D01*
X006615Y002482D01*
X006650Y002447D01*
X006615Y002412D01*
X006615Y001888D01*
X006680Y001823D01*
X007165Y001823D01*
X007229Y001888D01*
X007229Y002412D01*
X007194Y002447D01*
X007229Y002482D01*
X007229Y002584D01*
X009376Y002584D01*
X010565Y003773D01*
X011007Y003773D01*
X011071Y003838D01*
X011071Y004480D01*
X011061Y004490D01*
X011572Y004490D01*
X011562Y004472D01*
X011552Y004434D01*
X011552Y004208D01*
X011967Y004208D01*
X011967Y004108D01*
X012067Y004108D01*
X012067Y004208D01*
X012482Y004208D01*
X012482Y004434D01*
X012471Y004472D01*
X012461Y004490D01*
X012733Y004490D01*
X012733Y004211D01*
X012798Y004146D01*
X013450Y004146D01*
X013450Y001650D01*
X013444Y001591D01*
X013399Y001483D01*
X013425Y001544D02*
X012996Y001544D01*
X013042Y001563D02*
X012788Y001458D01*
X012512Y001458D01*
X012258Y001563D01*
X012063Y001758D01*
X011958Y002012D01*
X011958Y002288D01*
X012063Y002542D01*
X012258Y002737D01*
X012512Y002842D01*
X012788Y002842D01*
X013042Y002737D01*
X013237Y002542D01*
X013342Y002288D01*
X013342Y002012D01*
X013237Y001758D01*
X013042Y001563D01*
X013121Y001643D02*
X013449Y001643D01*
X013450Y001741D02*
X013220Y001741D01*
X013271Y001840D02*
X013450Y001840D01*
X013450Y001938D02*
X013311Y001938D01*
X013342Y002037D02*
X013450Y002037D01*
X013450Y002135D02*
X013342Y002135D01*
X013342Y002234D02*
X013450Y002234D01*
X013450Y002332D02*
X013324Y002332D01*
X013283Y002431D02*
X013450Y002431D01*
X013450Y002529D02*
X013242Y002529D01*
X013151Y002628D02*
X013450Y002628D01*
X013450Y002726D02*
X013053Y002726D01*
X012830Y002825D02*
X013450Y002825D01*
X013450Y002923D02*
X009715Y002923D01*
X009617Y002825D02*
X012470Y002825D01*
X012247Y002726D02*
X009518Y002726D01*
X009420Y002628D02*
X012149Y002628D01*
X012058Y002529D02*
X007229Y002529D01*
X007211Y002431D02*
X012017Y002431D01*
X011976Y002332D02*
X007229Y002332D01*
X007229Y002234D02*
X011958Y002234D01*
X011958Y002135D02*
X007229Y002135D01*
X007229Y002037D02*
X011958Y002037D01*
X011989Y001938D02*
X007229Y001938D01*
X007181Y001840D02*
X012029Y001840D01*
X012080Y001741D02*
X002720Y001741D01*
X002737Y001758D02*
X002842Y002012D01*
X002842Y002288D01*
X002737Y002542D01*
X002542Y002737D01*
X002288Y002842D01*
X002012Y002842D01*
X001758Y002737D01*
X001563Y002542D01*
X001458Y002288D01*
X001458Y002012D01*
X001563Y001758D01*
X001758Y001563D01*
X002012Y001458D01*
X002288Y001458D01*
X002542Y001563D01*
X002737Y001758D01*
X002771Y001840D02*
X005994Y001840D01*
X006010Y001823D02*
X006495Y001823D01*
X006560Y001888D01*
X006560Y002412D01*
X006553Y002419D01*
X006570Y002435D01*
X006589Y002469D01*
X006600Y002507D01*
X006600Y002695D01*
X006301Y002695D01*
X006301Y002792D01*
X006204Y002792D01*
X006204Y002695D01*
X005906Y002695D01*
X005906Y002507D01*
X005916Y002469D01*
X005936Y002435D01*
X005952Y002419D01*
X005946Y002412D01*
X005946Y002341D01*
X005935Y002341D01*
X005716Y002560D01*
X005716Y003293D01*
X005757Y003334D01*
X005810Y003334D01*
X005904Y003427D01*
X005906Y003430D01*
X005906Y003386D01*
X006204Y003386D01*
X006204Y003289D01*
X005906Y003289D01*
X005906Y003101D01*
X005916Y003063D01*
X005929Y003041D01*
X005916Y003018D01*
X005906Y002980D01*
X005906Y002792D01*
X006204Y002792D01*
X006204Y003110D01*
X006204Y003289D01*
X006301Y003289D01*
X006301Y002792D01*
X006600Y002792D01*
X006600Y002980D01*
X006589Y003018D01*
X006577Y003041D01*
X006589Y003063D01*
X006600Y003101D01*
X006600Y003289D01*
X006301Y003289D01*
X006301Y003386D01*
X006600Y003386D01*
X006600Y003574D01*
X006589Y003612D01*
X006570Y003646D01*
X006553Y003663D01*
X006560Y003669D01*
X006560Y004193D01*
X006495Y004258D01*
X006010Y004258D01*
X005980Y004228D01*
X005980Y004480D01*
X005916Y004544D01*
X005352Y004544D01*
X005288Y004480D01*
X005288Y003838D01*
X005352Y003773D01*
X005797Y003773D01*
X005717Y003693D01*
X005701Y003710D01*
X005607Y003749D01*
X005506Y003749D01*
X005412Y003710D01*
X005340Y003638D01*
X005301Y003544D01*
X005301Y003443D01*
X005340Y003349D01*
X005396Y003293D01*
X005396Y002427D01*
X005490Y002334D01*
X005802Y002021D01*
X005946Y002021D01*
X005946Y001888D01*
X006010Y001823D01*
X005946Y001938D02*
X002811Y001938D01*
X002842Y002037D02*
X005787Y002037D01*
X005689Y002135D02*
X002842Y002135D01*
X002842Y002234D02*
X005590Y002234D01*
X005492Y002332D02*
X002824Y002332D01*
X002783Y002431D02*
X005396Y002431D01*
X005396Y002529D02*
X002742Y002529D01*
X002651Y002628D02*
X005396Y002628D01*
X005396Y002726D02*
X002553Y002726D01*
X002330Y002825D02*
X005396Y002825D01*
X005396Y002923D02*
X001350Y002923D01*
X001350Y002825D02*
X001970Y002825D01*
X001747Y002726D02*
X001350Y002726D01*
X001350Y002628D02*
X001649Y002628D01*
X001558Y002529D02*
X001350Y002529D01*
X001350Y002431D02*
X001517Y002431D01*
X001476Y002332D02*
X001350Y002332D01*
X001350Y002234D02*
X001458Y002234D01*
X001458Y002135D02*
X001350Y002135D01*
X001350Y002037D02*
X001458Y002037D01*
X001489Y001938D02*
X001350Y001938D01*
X001350Y001840D02*
X001529Y001840D01*
X001580Y001741D02*
X001350Y001741D01*
X001351Y001643D02*
X001679Y001643D01*
X001804Y001544D02*
X001375Y001544D01*
X002496Y001544D02*
X012304Y001544D01*
X012179Y001643D02*
X002621Y001643D01*
X001350Y003022D02*
X005396Y003022D01*
X005396Y003120D02*
X001350Y003120D01*
X001350Y003219D02*
X005396Y003219D01*
X005372Y003317D02*
X001350Y003317D01*
X001350Y003416D02*
X005313Y003416D01*
X005301Y003514D02*
X001350Y003514D01*
X001350Y003613D02*
X005329Y003613D01*
X005414Y003711D02*
X001350Y003711D01*
X001350Y003810D02*
X003348Y003810D01*
X003320Y003908D02*
X001350Y003908D01*
X001350Y004007D02*
X002348Y004007D01*
X002250Y004105D02*
X001350Y004105D01*
X001350Y004204D02*
X002151Y004204D01*
X002053Y004302D02*
X001350Y004302D01*
X001350Y004401D02*
X001683Y004401D01*
X001867Y004401D02*
X001954Y004401D01*
X002210Y004598D02*
X004340Y004598D01*
X004438Y004696D02*
X003503Y004696D01*
X003525Y004705D02*
X003631Y004811D01*
X003689Y004950D01*
X003689Y005100D01*
X003631Y005239D01*
X003525Y005345D01*
X003386Y005402D01*
X003236Y005402D01*
X003098Y005345D01*
X002992Y005239D01*
X002934Y005100D01*
X002934Y004950D01*
X002992Y004811D01*
X003098Y004705D01*
X003236Y004648D01*
X003386Y004648D01*
X003525Y004705D01*
X003614Y004795D02*
X004537Y004795D01*
X004635Y004893D02*
X003665Y004893D01*
X003689Y004992D02*
X004734Y004992D01*
X004832Y005090D02*
X003689Y005090D01*
X003652Y005189D02*
X004931Y005189D01*
X005029Y005287D02*
X003583Y005287D01*
X003427Y005386D02*
X005128Y005386D01*
X005226Y005484D02*
X002033Y005484D01*
X002126Y005583D02*
X004304Y005583D01*
X004304Y005681D02*
X002167Y005681D01*
X001860Y005891D02*
X001775Y005806D01*
X001860Y005891D02*
X004650Y005891D01*
X004971Y006213D01*
X004994Y006213D01*
X004791Y006371D02*
X004700Y006371D01*
X004747Y006469D02*
X005315Y006469D01*
X005259Y006371D02*
X005196Y006371D01*
X005245Y006272D02*
X005259Y006272D01*
X005249Y006174D02*
X005259Y006174D01*
X005259Y006075D02*
X005213Y006075D01*
X005259Y005977D02*
X005090Y005977D01*
X004996Y005878D02*
X005268Y005878D01*
X005405Y005780D02*
X004996Y005780D01*
X004996Y005681D02*
X005405Y005681D01*
X005325Y005583D02*
X004996Y005583D01*
X005384Y005189D02*
X005648Y005189D01*
X005669Y005239D02*
X005611Y005100D01*
X005611Y004950D01*
X005669Y004811D01*
X005775Y004705D01*
X005914Y004648D01*
X006064Y004648D01*
X006202Y004705D01*
X006308Y004811D01*
X006366Y004950D01*
X006366Y005100D01*
X006308Y005239D01*
X006202Y005345D01*
X006064Y005402D01*
X005914Y005402D01*
X005775Y005345D01*
X005669Y005239D01*
X005717Y005287D02*
X005482Y005287D01*
X005581Y005386D02*
X005873Y005386D01*
X005679Y005484D02*
X009304Y005484D01*
X009205Y005386D02*
X007297Y005386D01*
X007453Y005287D02*
X009107Y005287D01*
X009008Y005189D02*
X007522Y005189D01*
X007559Y005090D02*
X008910Y005090D01*
X008811Y004992D02*
X007559Y004992D01*
X007535Y004893D02*
X008713Y004893D01*
X008614Y004795D02*
X007484Y004795D01*
X007306Y004619D02*
X008665Y004619D01*
X009937Y005891D01*
X009591Y005878D02*
X008709Y005878D01*
X008709Y005780D02*
X009591Y005780D01*
X009501Y005681D02*
X008709Y005681D01*
X008709Y005583D02*
X009402Y005583D01*
X009591Y005977D02*
X008717Y005977D01*
X008016Y005780D02*
X005725Y005780D01*
X005725Y005681D02*
X008016Y005681D01*
X008016Y005583D02*
X005725Y005583D01*
X005565Y005597D02*
X005565Y006150D01*
X005565Y006190D01*
X005931Y006556D01*
X006657Y006556D01*
X006954Y006853D01*
X006765Y006891D02*
X006747Y006872D01*
X006747Y006986D01*
X006448Y006986D01*
X006448Y007083D01*
X006747Y007083D01*
X006747Y007270D01*
X006737Y007309D01*
X006717Y007343D01*
X006689Y007371D01*
X006656Y007390D01*
X006707Y007441D01*
X006707Y007694D01*
X006765Y007694D01*
X006765Y007599D01*
X006829Y007534D01*
X007020Y007534D01*
X007020Y007512D01*
X007148Y007384D01*
X007259Y007273D01*
X007759Y007273D01*
X007788Y007243D01*
X007721Y007243D01*
X007623Y007243D01*
X007593Y007235D01*
X007564Y007243D01*
X007465Y007243D01*
X007367Y007243D01*
X007338Y007235D01*
X007308Y007243D01*
X007210Y007243D01*
X007210Y006853D01*
X007438Y006853D01*
X007465Y006853D01*
X007210Y006853D01*
X007210Y006853D01*
X007210Y006853D01*
X007210Y007243D01*
X007111Y007243D01*
X007073Y007233D01*
X007039Y007213D01*
X007029Y007203D01*
X006829Y007203D01*
X006765Y007139D01*
X006765Y006891D01*
X006765Y006962D02*
X006747Y006962D01*
X006765Y007060D02*
X006448Y007060D01*
X006352Y007060D02*
X005930Y007060D01*
X005933Y007071D02*
X005933Y007201D01*
X005552Y007201D01*
X005552Y007224D01*
X005933Y007224D01*
X005933Y007333D01*
X006013Y007333D01*
X006107Y007371D01*
X006135Y007399D01*
X006144Y007390D01*
X006111Y007371D01*
X006083Y007343D01*
X006063Y007309D01*
X006053Y007270D01*
X006053Y007083D01*
X006352Y007083D01*
X006352Y006986D01*
X006053Y006986D01*
X006053Y006798D01*
X006063Y006760D01*
X006083Y006725D01*
X006092Y006716D01*
X005893Y006716D01*
X005893Y006988D01*
X005903Y006998D01*
X005923Y007033D01*
X005933Y007071D01*
X005933Y007159D02*
X006053Y007159D01*
X006053Y007257D02*
X005933Y007257D01*
X006069Y007356D02*
X006096Y007356D01*
X005963Y007588D02*
X005542Y007588D01*
X005541Y007587D01*
X005530Y007224D02*
X005149Y007224D01*
X005149Y007255D01*
X005104Y007210D01*
X004973Y007079D01*
X005006Y007092D01*
X005107Y007092D01*
X005149Y007075D01*
X005149Y007201D01*
X005530Y007201D01*
X005530Y007224D01*
X005540Y006838D02*
X005541Y006838D01*
X005540Y006838D02*
X005056Y006838D01*
X004867Y006666D02*
X004857Y006666D01*
X004749Y006568D02*
X005716Y006568D01*
X005893Y006765D02*
X006062Y006765D01*
X006053Y006863D02*
X005893Y006863D01*
X005893Y006962D02*
X006053Y006962D01*
X005888Y006272D02*
X005873Y006272D01*
X005872Y006174D02*
X006186Y006174D01*
X006283Y006174D02*
X007048Y006174D01*
X007048Y006075D02*
X007145Y006075D01*
X007145Y005977D02*
X007048Y005977D01*
X007048Y005878D02*
X007145Y005878D01*
X007443Y005878D02*
X007469Y005878D01*
X007452Y006406D02*
X007433Y006439D01*
X007409Y006463D01*
X007465Y006463D01*
X007465Y006853D01*
X007465Y006853D01*
X007465Y007243D01*
X007465Y006853D01*
X007465Y006853D01*
X007465Y006853D01*
X007465Y006463D01*
X007564Y006463D01*
X007593Y006471D01*
X007623Y006463D01*
X007721Y006463D01*
X007721Y006853D01*
X007465Y006853D01*
X007694Y006853D01*
X007721Y006853D01*
X007721Y006853D01*
X007721Y007243D01*
X007721Y006853D01*
X007721Y006853D01*
X007721Y006853D01*
X007721Y006463D01*
X007748Y006463D01*
X007742Y006457D01*
X007504Y006457D01*
X007452Y006406D01*
X007465Y006469D02*
X007465Y006469D01*
X007465Y006568D02*
X007465Y006568D01*
X007465Y006666D02*
X007465Y006666D01*
X007465Y006765D02*
X007465Y006765D01*
X007465Y006853D02*
X007465Y006853D01*
X007465Y006863D02*
X007465Y006863D01*
X007465Y006962D02*
X007465Y006962D01*
X007465Y007060D02*
X007465Y007060D01*
X007465Y007159D02*
X007465Y007159D01*
X007210Y007159D02*
X007210Y007159D01*
X007210Y007060D02*
X007210Y007060D01*
X007210Y006962D02*
X007210Y006962D01*
X007210Y006863D02*
X007210Y006863D01*
X007176Y007356D02*
X006704Y007356D01*
X006707Y007454D02*
X007077Y007454D01*
X006811Y007553D02*
X006707Y007553D01*
X006707Y007651D02*
X006765Y007651D01*
X006747Y007257D02*
X007774Y007257D01*
X007721Y007159D02*
X007721Y007159D01*
X007721Y007060D02*
X007721Y007060D01*
X007721Y006962D02*
X007721Y006962D01*
X007721Y006863D02*
X007721Y006863D01*
X007721Y006765D02*
X007721Y006765D01*
X007721Y006666D02*
X007721Y006666D01*
X007721Y006568D02*
X007721Y006568D01*
X007721Y006469D02*
X007721Y006469D01*
X007600Y006469D02*
X007587Y006469D01*
X006731Y006371D02*
X006581Y006371D01*
X006581Y006272D02*
X006730Y006272D01*
X006730Y006075D02*
X006581Y006075D01*
X006581Y006102D02*
X006283Y006102D01*
X006283Y005783D01*
X006451Y005783D01*
X006489Y005794D01*
X006524Y005813D01*
X006552Y005841D01*
X006571Y005876D01*
X006581Y005914D01*
X006581Y006102D01*
X006581Y005977D02*
X006730Y005977D01*
X006750Y005878D02*
X006572Y005878D01*
X006283Y005878D02*
X006186Y005878D01*
X006186Y005977D02*
X006283Y005977D01*
X006283Y006075D02*
X006186Y006075D01*
X005888Y006075D02*
X005872Y006075D01*
X005872Y005977D02*
X005888Y005977D01*
X005897Y005878D02*
X005862Y005878D01*
X005565Y005597D02*
X004128Y004159D01*
X003666Y004159D01*
X002422Y004159D01*
X001775Y004806D01*
X001365Y004795D02*
X001350Y004795D01*
X001350Y004893D02*
X001367Y004893D01*
X001350Y004992D02*
X001408Y004992D01*
X001350Y005090D02*
X001479Y005090D01*
X001350Y005189D02*
X001626Y005189D01*
X001350Y005287D02*
X003040Y005287D01*
X002971Y005189D02*
X001924Y005189D01*
X002071Y005090D02*
X002934Y005090D01*
X002934Y004992D02*
X002142Y004992D01*
X002183Y004893D02*
X002958Y004893D01*
X003009Y004795D02*
X002185Y004795D01*
X002173Y004696D02*
X003120Y004696D01*
X003339Y004499D02*
X002309Y004499D01*
X002407Y004401D02*
X003320Y004401D01*
X003993Y004499D02*
X004241Y004499D01*
X004143Y004401D02*
X004012Y004401D01*
X004300Y004105D02*
X005288Y004105D01*
X005288Y004007D02*
X004202Y004007D01*
X004012Y003908D02*
X005288Y003908D01*
X005316Y003810D02*
X003984Y003810D01*
X004399Y004204D02*
X005288Y004204D01*
X005288Y004302D02*
X004497Y004302D01*
X004596Y004401D02*
X005288Y004401D01*
X005307Y004499D02*
X004694Y004499D01*
X004793Y004598D02*
X007059Y004598D01*
X006990Y004696D02*
X006180Y004696D01*
X006291Y004795D02*
X006879Y004795D01*
X006828Y004893D02*
X006342Y004893D01*
X006366Y004992D02*
X006804Y004992D01*
X006804Y005090D02*
X006366Y005090D01*
X006329Y005189D02*
X006841Y005189D01*
X006910Y005287D02*
X006260Y005287D01*
X006104Y005386D02*
X007066Y005386D01*
X007306Y004619D02*
X006922Y004235D01*
X006922Y003931D01*
X006922Y003338D01*
X006615Y003317D02*
X006301Y003317D01*
X006204Y003317D02*
X005740Y003317D01*
X005716Y003219D02*
X005906Y003219D01*
X005906Y003120D02*
X005716Y003120D01*
X005716Y003022D02*
X005918Y003022D01*
X005906Y002923D02*
X005716Y002923D01*
X005716Y002825D02*
X005906Y002825D01*
X005716Y002726D02*
X006204Y002726D01*
X006301Y002726D02*
X006615Y002726D01*
X006615Y002628D02*
X006600Y002628D01*
X006600Y002529D02*
X006615Y002529D01*
X006634Y002431D02*
X006565Y002431D01*
X006560Y002332D02*
X006615Y002332D01*
X006615Y002234D02*
X006560Y002234D01*
X006560Y002135D02*
X006615Y002135D01*
X006615Y002037D02*
X006560Y002037D01*
X006560Y001938D02*
X006615Y001938D01*
X006664Y001840D02*
X006511Y001840D01*
X006253Y002150D02*
X006222Y002181D01*
X005869Y002181D01*
X005556Y002494D01*
X005556Y003494D01*
X005744Y003494D01*
X005994Y003744D01*
X006065Y003744D01*
X006253Y003931D01*
X006560Y003908D02*
X006615Y003908D01*
X006615Y003810D02*
X006560Y003810D01*
X006560Y003711D02*
X006615Y003711D01*
X006628Y003613D02*
X006589Y003613D01*
X006600Y003514D02*
X006615Y003514D01*
X006615Y003416D02*
X006600Y003416D01*
X006600Y003219D02*
X006615Y003219D01*
X006615Y003120D02*
X006600Y003120D01*
X006588Y003022D02*
X006631Y003022D01*
X006615Y002923D02*
X006600Y002923D01*
X006600Y002825D02*
X006615Y002825D01*
X006301Y002825D02*
X006204Y002825D01*
X006204Y002923D02*
X006301Y002923D01*
X006301Y003022D02*
X006204Y003022D01*
X006204Y003120D02*
X006301Y003120D01*
X006301Y003219D02*
X006204Y003219D01*
X005906Y003416D02*
X005892Y003416D01*
X005735Y003711D02*
X005698Y003711D01*
X005980Y004302D02*
X006763Y004302D01*
X006862Y004401D02*
X005980Y004401D01*
X005961Y004499D02*
X006960Y004499D01*
X006625Y004204D02*
X006550Y004204D01*
X006560Y004105D02*
X006615Y004105D01*
X006615Y004007D02*
X006560Y004007D01*
X005797Y004696D02*
X004891Y004696D01*
X004990Y004795D02*
X005686Y004795D01*
X005635Y004893D02*
X005088Y004893D01*
X005187Y004992D02*
X005611Y004992D01*
X005611Y005090D02*
X005285Y005090D01*
X004494Y006525D02*
X004494Y006823D01*
X004509Y006838D01*
X005052Y007159D02*
X005149Y007159D01*
X005181Y008431D02*
X005119Y008494D01*
X002400Y008494D01*
X002150Y008744D01*
X002150Y009619D01*
X002338Y009806D01*
X005619Y009806D01*
X006463Y010650D01*
X008025Y010650D01*
X008119Y010556D01*
X008119Y008744D01*
X008025Y008650D01*
X006838Y008650D01*
X006619Y008431D01*
X005181Y008431D01*
X005173Y008439D02*
X006627Y008439D01*
X006725Y008538D02*
X002356Y008538D01*
X002258Y008636D02*
X006824Y008636D01*
X006714Y008805D02*
X006714Y010495D01*
X006649Y010559D01*
X006473Y010559D01*
X006409Y010495D01*
X006409Y008805D01*
X006473Y008741D01*
X006649Y008741D01*
X006714Y008805D01*
X006714Y008833D02*
X007357Y008833D01*
X007357Y008765D02*
X007357Y008935D01*
X007422Y009000D01*
X007753Y009000D01*
X007818Y008935D01*
X007818Y008765D01*
X007753Y008701D01*
X007422Y008701D01*
X007357Y008765D01*
X007388Y008735D02*
X002159Y008735D01*
X002150Y008833D02*
X006409Y008833D01*
X006409Y008932D02*
X002150Y008932D01*
X002150Y009030D02*
X006409Y009030D01*
X006409Y009129D02*
X002150Y009129D01*
X002150Y009227D02*
X006409Y009227D01*
X006409Y009326D02*
X002150Y009326D01*
X002150Y009424D02*
X006409Y009424D01*
X006409Y009523D02*
X002150Y009523D01*
X002152Y009621D02*
X006409Y009621D01*
X006409Y009720D02*
X002251Y009720D01*
X002150Y009845D02*
X002178Y009873D01*
X002091Y009786D01*
X002091Y010521D01*
X002466Y010896D01*
X002935Y010896D01*
X003654Y011615D01*
X007490Y011615D01*
X007568Y011583D01*
X007669Y011583D01*
X007763Y011621D01*
X007764Y011622D01*
X007771Y011615D01*
X008154Y011615D01*
X008247Y011709D01*
X008258Y011720D01*
X008475Y011720D01*
X008494Y011739D01*
X008514Y011720D01*
X008849Y011720D01*
X008868Y011739D01*
X008888Y011720D01*
X009223Y011720D01*
X009287Y011784D01*
X009287Y011871D01*
X009381Y011833D01*
X009482Y011833D01*
X009576Y011871D01*
X009647Y011943D01*
X009686Y012037D01*
X009686Y012071D01*
X009912Y012071D01*
X009977Y012135D01*
X009977Y012553D01*
X010105Y012553D01*
X010105Y012135D01*
X010169Y012071D01*
X010271Y012071D01*
X010271Y012027D01*
X010253Y012009D01*
X010253Y011603D01*
X010318Y011539D01*
X010629Y011539D01*
X011209Y010959D01*
X011302Y010865D01*
X012677Y010865D01*
X012709Y010834D01*
X012709Y009904D01*
X012677Y009872D01*
X011178Y009872D01*
X010494Y010556D01*
X008898Y010556D01*
X008863Y010591D01*
X008449Y010591D01*
X008409Y010550D01*
X008338Y010550D01*
X008279Y010491D01*
X008279Y010623D01*
X008185Y010716D01*
X008091Y010810D01*
X006396Y010810D01*
X006330Y010744D01*
X006312Y010744D01*
X006247Y010680D01*
X006247Y010661D01*
X005552Y009966D01*
X002949Y009966D01*
X003125Y010142D01*
X003125Y010289D01*
X002700Y010289D01*
X002700Y010389D01*
X002600Y010389D01*
X002600Y010814D01*
X002453Y010814D01*
X002175Y010536D01*
X002175Y010389D01*
X002600Y010389D01*
X002600Y010289D01*
X002175Y010289D01*
X002175Y010142D01*
X002351Y009966D01*
X002271Y009966D01*
X002178Y009873D01*
X002271Y009966D01*
X005466Y009966D01*
X006369Y010869D01*
X008181Y010869D01*
X008459Y010591D01*
X008863Y010591D01*
X008928Y010526D01*
X008928Y010497D01*
X010466Y010497D01*
X011091Y009872D01*
X011945Y009872D01*
X011675Y010142D01*
X011675Y010289D01*
X012100Y010289D01*
X012100Y010389D01*
X012100Y010814D01*
X011953Y010814D01*
X011675Y010536D01*
X011675Y010389D01*
X012100Y010389D01*
X012200Y010389D01*
X012200Y010814D01*
X012347Y010814D01*
X012625Y010536D01*
X012625Y010389D01*
X012200Y010389D01*
X012200Y010289D01*
X012625Y010289D01*
X012625Y010142D01*
X012355Y009872D01*
X012677Y009872D01*
X012709Y009904D01*
X012709Y009925D01*
X012650Y010806D01*
X011400Y010806D01*
X011341Y010865D01*
X011302Y010865D01*
X011209Y010959D01*
X010629Y011539D01*
X010318Y011539D01*
X010269Y011588D01*
X007682Y011588D01*
X007669Y011583D01*
X007568Y011583D01*
X007556Y011588D01*
X003626Y011588D01*
X003029Y010990D01*
X002935Y010896D01*
X002466Y010896D01*
X002150Y010580D01*
X002150Y009845D01*
X002123Y009818D02*
X002091Y009818D01*
X002091Y009917D02*
X002221Y009917D01*
X002150Y009917D01*
X002150Y010015D02*
X005515Y010015D01*
X005601Y010015D02*
X002998Y010015D01*
X003096Y010114D02*
X005700Y010114D01*
X005614Y010114D02*
X002150Y010114D01*
X002204Y010114D02*
X002091Y010114D01*
X002091Y010212D02*
X002175Y010212D01*
X002150Y010212D02*
X005712Y010212D01*
X005798Y010212D02*
X003125Y010212D01*
X003125Y010389D02*
X003125Y010536D01*
X002847Y010814D01*
X002700Y010814D01*
X002700Y010389D01*
X003125Y010389D01*
X003125Y010409D02*
X005995Y010409D01*
X005909Y010409D02*
X002150Y010409D01*
X002175Y010409D02*
X002091Y010409D01*
X002091Y010311D02*
X002600Y010311D01*
X002600Y010409D02*
X002700Y010409D01*
X002700Y010311D02*
X005897Y010311D01*
X005811Y010311D02*
X002150Y010311D01*
X002150Y010508D02*
X006008Y010508D01*
X006094Y010508D02*
X003125Y010508D01*
X003054Y010606D02*
X006192Y010606D01*
X006106Y010606D02*
X002176Y010606D01*
X002246Y010606D01*
X002275Y010705D02*
X002344Y010705D01*
X002275Y010705D02*
X006205Y010705D01*
X006272Y010705D02*
X002956Y010705D01*
X002857Y010803D02*
X006389Y010803D01*
X006303Y010803D02*
X002373Y010803D01*
X002443Y010803D01*
X002600Y010803D02*
X002700Y010803D01*
X002700Y010705D02*
X002600Y010705D01*
X002600Y010606D02*
X002700Y010606D01*
X002700Y010508D02*
X002600Y010508D01*
X002940Y010902D02*
X011266Y010902D01*
X002940Y010902D01*
X003039Y011000D02*
X011167Y011000D01*
X003039Y011000D01*
X003137Y011099D02*
X011069Y011099D01*
X003137Y011099D01*
X003236Y011197D02*
X010970Y011197D01*
X003236Y011197D01*
X003334Y011296D02*
X010872Y011296D01*
X003334Y011296D01*
X003433Y011394D02*
X010773Y011394D01*
X003433Y011394D01*
X003531Y011493D02*
X010675Y011493D01*
X003531Y011493D01*
X003630Y011591D02*
X007547Y011591D01*
X007690Y011591D02*
X010266Y011591D01*
X010253Y011690D02*
X008228Y011690D01*
X008088Y011775D02*
X008276Y011963D01*
X008307Y012072D01*
X008075Y012273D02*
X008075Y012359D01*
X008140Y012424D01*
X008181Y012424D01*
X008149Y012456D01*
X008076Y012426D01*
X007974Y012426D01*
X007881Y012465D01*
X007809Y012537D01*
X007770Y012631D01*
X007770Y012732D01*
X007809Y012826D01*
X007818Y012835D01*
X007738Y012835D01*
X007738Y013083D01*
X007738Y013083D01*
X007738Y012835D01*
X007620Y012835D01*
X007591Y012842D01*
X007591Y012802D01*
X007560Y012771D01*
X007560Y012445D01*
X007587Y012445D01*
X007606Y012425D01*
X007882Y012425D01*
X007947Y012361D01*
X007947Y012311D01*
X007982Y012311D01*
X008075Y012273D01*
X008075Y012281D02*
X008056Y012281D01*
X008095Y012379D02*
X007928Y012379D01*
X007868Y012478D02*
X007560Y012478D01*
X007560Y012576D02*
X007793Y012576D01*
X007770Y012675D02*
X007560Y012675D01*
X007562Y012773D02*
X007787Y012773D01*
X007738Y012872D02*
X007738Y012872D01*
X007738Y012970D02*
X007738Y012970D01*
X007738Y013069D02*
X007738Y013069D01*
X007738Y013083D02*
X007738Y013083D01*
X007738Y013331D01*
X007717Y013331D01*
X007717Y013388D01*
X007692Y013450D01*
X008134Y013450D01*
X008075Y013391D01*
X008075Y012936D01*
X007979Y012936D01*
X007987Y012965D01*
X007987Y013083D01*
X007738Y013083D01*
X007738Y013083D01*
X007738Y013331D01*
X007856Y013331D01*
X007894Y013321D01*
X007929Y013302D01*
X007957Y013274D01*
X007976Y013239D01*
X007987Y013201D01*
X007987Y013083D01*
X007738Y013083D01*
X007738Y013167D02*
X007738Y013167D01*
X007738Y013266D02*
X007738Y013266D01*
X007717Y013364D02*
X008075Y013364D01*
X008075Y013266D02*
X007961Y013266D01*
X007987Y013167D02*
X008075Y013167D01*
X008075Y013069D02*
X007987Y013069D01*
X007987Y012970D02*
X008075Y012970D01*
X008307Y012870D02*
X008150Y012681D01*
X008369Y012463D01*
X008463Y012463D01*
X008588Y012338D01*
X008588Y012197D01*
X008681Y012072D01*
X009055Y012072D02*
X009024Y012305D01*
X009055Y012274D02*
X009055Y012072D01*
X009055Y012274D02*
X009275Y012494D01*
X009275Y012619D01*
X009369Y012713D01*
X010838Y012713D01*
X011025Y012525D01*
X011025Y012378D01*
X011391Y012744D01*
X011463Y012744D01*
X011655Y012576D02*
X011958Y012576D01*
X011958Y012512D02*
X012063Y012258D01*
X012258Y012063D01*
X012512Y011958D01*
X012788Y011958D01*
X013042Y012063D01*
X013237Y012258D01*
X013342Y012512D01*
X013342Y012788D01*
X013237Y013042D01*
X013042Y013237D01*
X012788Y013342D01*
X012512Y013342D01*
X012258Y013237D01*
X012063Y013042D01*
X011958Y012788D01*
X011958Y012512D01*
X011972Y012478D02*
X011352Y012478D01*
X011377Y012503D01*
X011412Y012489D01*
X011513Y012489D01*
X011607Y012528D01*
X011679Y012599D01*
X011717Y012693D01*
X011717Y012794D01*
X011679Y012888D01*
X011607Y012960D01*
X011513Y012999D01*
X011412Y012999D01*
X011392Y012990D01*
X011392Y012999D01*
X011073Y012999D01*
X011073Y013096D01*
X010977Y013096D01*
X010977Y013394D01*
X010789Y013394D01*
X010751Y013384D01*
X010716Y013364D01*
X010700Y013348D01*
X010693Y013354D01*
X010169Y013354D01*
X010126Y013311D01*
X010037Y013311D01*
X010007Y013299D01*
X010006Y013302D01*
X009987Y013336D01*
X009959Y013364D01*
X009924Y013384D01*
X009886Y013394D01*
X009698Y013394D01*
X009698Y013096D01*
X009602Y013096D01*
X009602Y013394D01*
X009414Y013394D01*
X009376Y013384D01*
X009341Y013364D01*
X009313Y013336D01*
X009294Y013302D01*
X009287Y013278D01*
X009287Y013391D01*
X009228Y013450D01*
X013150Y013450D01*
X013209Y013444D01*
X013317Y013399D01*
X013399Y013317D01*
X013444Y013209D01*
X013450Y013150D01*
X013450Y007795D01*
X012810Y008435D01*
X012810Y009334D01*
X012935Y009334D01*
X013029Y009427D01*
X013247Y009646D01*
X013247Y011060D01*
X013154Y011154D01*
X012904Y011404D01*
X011720Y011404D01*
X011359Y011765D01*
X011359Y012009D01*
X011295Y012074D01*
X011290Y012074D01*
X011352Y012135D01*
X011352Y012478D01*
X011352Y012379D02*
X012013Y012379D01*
X012054Y012281D02*
X011352Y012281D01*
X011352Y012182D02*
X012139Y012182D01*
X012238Y012084D02*
X011300Y012084D01*
X011359Y011985D02*
X012447Y011985D01*
X012853Y011985D02*
X013450Y011985D01*
X013450Y011887D02*
X011359Y011887D01*
X011359Y011788D02*
X013450Y011788D01*
X013450Y011690D02*
X011435Y011690D01*
X011533Y011591D02*
X013450Y011591D01*
X013450Y011493D02*
X011632Y011493D01*
X011654Y011244D02*
X012838Y011244D01*
X013088Y010994D01*
X013088Y009713D01*
X012869Y009494D01*
X012588Y009494D01*
X012150Y009056D01*
X012150Y008961D01*
X012150Y008869D01*
X013338Y007681D01*
X013338Y006503D01*
X012985Y006150D01*
X012315Y006150D02*
X012017Y005851D01*
X012017Y005142D01*
X012482Y004401D02*
X012733Y004401D01*
X012733Y004302D02*
X012482Y004302D01*
X012482Y004108D02*
X012067Y004108D01*
X012067Y003752D01*
X012351Y003752D01*
X012389Y003762D01*
X012424Y003782D01*
X012452Y003810D01*
X012471Y003844D01*
X012482Y003882D01*
X012482Y004108D01*
X012482Y004105D02*
X013450Y004105D01*
X013450Y004007D02*
X012482Y004007D01*
X012482Y003908D02*
X013450Y003908D01*
X013450Y003810D02*
X012451Y003810D01*
X012741Y004204D02*
X012067Y004204D01*
X012067Y004105D02*
X011967Y004105D01*
X011967Y004108D02*
X011967Y003752D01*
X011682Y003752D01*
X011644Y003762D01*
X011610Y003782D01*
X011582Y003810D01*
X011562Y003844D01*
X011552Y003882D01*
X011552Y004108D01*
X011967Y004108D01*
X011967Y004204D02*
X011071Y004204D01*
X011071Y004302D02*
X011552Y004302D01*
X011552Y004401D02*
X011071Y004401D01*
X011071Y004105D02*
X011552Y004105D01*
X011552Y004007D02*
X011071Y004007D01*
X011071Y003908D02*
X011552Y003908D01*
X011582Y003810D02*
X011043Y003810D01*
X010725Y004159D02*
X009310Y002744D01*
X006922Y002744D01*
X006922Y002150D01*
X005941Y002431D02*
X005846Y002431D01*
X005906Y002529D02*
X005747Y002529D01*
X005716Y002628D02*
X005906Y002628D01*
X007575Y004159D02*
X009940Y004159D01*
X010431Y004650D01*
X013158Y004650D01*
X013450Y003711D02*
X010503Y003711D01*
X010405Y003613D02*
X013450Y003613D01*
X013450Y003514D02*
X010306Y003514D01*
X010208Y003416D02*
X013450Y003416D01*
X013450Y003317D02*
X010109Y003317D01*
X010011Y003219D02*
X013450Y003219D01*
X013450Y003120D02*
X009912Y003120D01*
X009814Y003022D02*
X013450Y003022D01*
X012067Y003810D02*
X011967Y003810D01*
X011967Y003908D02*
X012067Y003908D01*
X012067Y004007D02*
X011967Y004007D01*
X009591Y006075D02*
X009406Y006075D01*
X009982Y006993D02*
X009837Y007138D01*
X009726Y007249D01*
X009633Y007249D01*
X009607Y007275D01*
X009513Y007314D01*
X009412Y007314D01*
X009355Y007291D01*
X009355Y007443D01*
X009291Y007508D01*
X008850Y007508D01*
X008785Y007443D01*
X008785Y006992D01*
X008778Y006984D01*
X008778Y006986D01*
X008480Y006986D01*
X008480Y007083D01*
X008778Y007083D01*
X008778Y007270D01*
X008768Y007309D01*
X008748Y007343D01*
X008720Y007371D01*
X008687Y007390D01*
X008738Y007441D01*
X008738Y007678D01*
X009177Y007678D01*
X009396Y007459D01*
X009770Y007459D01*
X009770Y007443D01*
X009809Y007349D01*
X009881Y007278D01*
X009974Y007239D01*
X010076Y007239D01*
X010169Y007278D01*
X010241Y007349D01*
X010280Y007443D01*
X010280Y007544D01*
X010253Y007610D01*
X010284Y007636D01*
X010665Y007636D01*
X010729Y007700D01*
X010729Y008178D01*
X012615Y008178D01*
X013040Y007752D01*
X012112Y007752D01*
X012048Y007688D01*
X012048Y007249D01*
X011071Y007249D01*
X011055Y007249D01*
X011055Y007315D01*
X010730Y007315D01*
X010730Y007315D01*
X011055Y007315D01*
X011055Y007418D01*
X011044Y007456D01*
X011025Y007490D01*
X010997Y007518D01*
X010962Y007538D01*
X010924Y007548D01*
X010730Y007548D01*
X010730Y007315D01*
X010730Y007315D01*
X010730Y007548D01*
X010535Y007548D01*
X010497Y007538D01*
X010462Y007518D01*
X010434Y007490D01*
X010415Y007456D01*
X010405Y007418D01*
X010405Y007315D01*
X010405Y007213D01*
X010415Y007175D01*
X010434Y007140D01*
X010445Y007130D01*
X010445Y006993D01*
X009982Y006993D01*
X009915Y007060D02*
X010445Y007060D01*
X010424Y007159D02*
X009816Y007159D01*
X009930Y007257D02*
X009625Y007257D01*
X009806Y007356D02*
X009355Y007356D01*
X009345Y007454D02*
X009770Y007454D01*
X010016Y007503D02*
X010016Y007619D01*
X009463Y007619D01*
X009244Y007838D01*
X008588Y007838D01*
X008453Y007703D01*
X008431Y007703D01*
X008250Y007884D01*
X007721Y007884D01*
X007787Y008735D02*
X008110Y008735D01*
X008119Y008833D02*
X007818Y008833D01*
X007818Y008932D02*
X008119Y008932D01*
X008119Y009030D02*
X006714Y009030D01*
X006714Y008932D02*
X007357Y008932D01*
X007273Y009048D02*
X007273Y009650D01*
X007273Y010252D01*
X007588Y010567D01*
X007753Y010599D02*
X007421Y010599D01*
X007357Y010535D01*
X007357Y010365D01*
X007421Y010300D01*
X007753Y010300D01*
X007818Y010365D01*
X007818Y010535D01*
X007753Y010599D01*
X007818Y010508D02*
X008119Y010508D01*
X008119Y010409D02*
X007818Y010409D01*
X007763Y010311D02*
X008119Y010311D01*
X008119Y010212D02*
X006714Y010212D01*
X006714Y010114D02*
X008119Y010114D01*
X008119Y010015D02*
X006714Y010015D01*
X006714Y009917D02*
X008119Y009917D01*
X008119Y009818D02*
X006714Y009818D01*
X006714Y009720D02*
X008119Y009720D01*
X008119Y009621D02*
X006714Y009621D01*
X006714Y009523D02*
X008119Y009523D01*
X008119Y009424D02*
X006714Y009424D01*
X006714Y009326D02*
X008119Y009326D01*
X008119Y009227D02*
X006714Y009227D01*
X006714Y009129D02*
X008119Y009129D01*
X008425Y009129D02*
X012650Y009129D01*
X012650Y009227D02*
X008425Y009227D01*
X008425Y009326D02*
X012650Y009326D01*
X012650Y009424D02*
X008425Y009424D01*
X008425Y009523D02*
X010902Y009523D01*
X010931Y009494D02*
X010306Y010119D01*
X008425Y010119D01*
X008425Y008750D01*
X008838Y008338D01*
X012650Y008338D01*
X012650Y009494D01*
X010931Y009494D01*
X010804Y009621D02*
X008425Y009621D01*
X008425Y009720D02*
X010705Y009720D01*
X010607Y009818D02*
X008425Y009818D01*
X008425Y009917D02*
X010508Y009917D01*
X010410Y010015D02*
X008425Y010015D01*
X008425Y010114D02*
X010311Y010114D01*
X010400Y010338D02*
X011025Y009713D01*
X012744Y009713D01*
X012869Y009838D01*
X012869Y010900D01*
X012744Y011025D01*
X011369Y011025D01*
X010588Y011806D01*
X010521Y011806D01*
X010431Y011927D01*
X010431Y012378D01*
X010105Y012379D02*
X009977Y012379D01*
X009977Y012281D02*
X010105Y012281D01*
X010105Y012182D02*
X009977Y012182D01*
X009925Y012084D02*
X010157Y012084D01*
X010253Y011985D02*
X009665Y011985D01*
X009591Y011887D02*
X010253Y011887D01*
X010253Y011788D02*
X009287Y011788D01*
X009431Y012088D02*
X009463Y012190D01*
X009650Y012378D01*
X009977Y012478D02*
X010105Y012478D01*
X010088Y013056D02*
X010378Y013056D01*
X010431Y013047D01*
X010716Y013364D02*
X009959Y013364D01*
X009698Y013364D02*
X009602Y013364D01*
X009602Y013266D02*
X009698Y013266D01*
X009698Y013167D02*
X009602Y013167D01*
X009341Y013364D02*
X009287Y013364D01*
X009055Y013103D02*
X009056Y012977D01*
X008963Y012884D01*
X008963Y012713D01*
X008588Y012713D02*
X008588Y012900D01*
X008681Y012994D01*
X008681Y013103D01*
X008307Y013103D02*
X008307Y012870D01*
X008150Y012681D02*
X008025Y012681D01*
X007738Y012217D02*
X007899Y012056D01*
X007931Y012056D01*
X007775Y011838D02*
X007619Y011838D01*
X007556Y011775D01*
X003588Y011775D01*
X002869Y011056D01*
X002400Y011056D01*
X001931Y010588D01*
X001931Y008275D01*
X002744Y007463D01*
X002244Y007463D02*
X002244Y007650D01*
X001744Y008150D01*
X001744Y010681D01*
X002306Y011244D01*
X002775Y011244D01*
X003494Y011963D01*
X007338Y011963D01*
X007463Y012088D01*
X007463Y012217D01*
X007463Y012306D01*
X007400Y012369D01*
X007400Y012838D01*
X007431Y012869D01*
X007431Y013052D01*
X007463Y013083D01*
X007463Y013338D01*
X007187Y013083D02*
X006963Y012859D01*
X006963Y012713D01*
X006610Y012360D01*
X006610Y012338D01*
X006916Y012379D02*
X006952Y012379D01*
X006949Y012373D02*
X006938Y012335D01*
X006938Y012217D01*
X007187Y012217D01*
X007187Y012217D01*
X007187Y012465D01*
X007240Y012465D01*
X007240Y012875D01*
X007205Y012875D01*
X007122Y012792D01*
X007122Y012646D01*
X007029Y012553D01*
X006916Y012440D01*
X006916Y012122D01*
X006938Y012122D01*
X006938Y012217D01*
X007187Y012217D01*
X007187Y012465D01*
X007069Y012465D01*
X007031Y012455D01*
X006996Y012435D01*
X006968Y012407D01*
X006949Y012373D01*
X006938Y012281D02*
X006916Y012281D01*
X006916Y012182D02*
X006938Y012182D01*
X006954Y012478D02*
X007240Y012478D01*
X007240Y012576D02*
X007052Y012576D01*
X007122Y012675D02*
X007240Y012675D01*
X007240Y012773D02*
X007122Y012773D01*
X007202Y012872D02*
X007240Y012872D01*
X007187Y012379D02*
X007187Y012379D01*
X007187Y012281D02*
X007187Y012281D01*
X007187Y012217D02*
X007187Y012217D01*
X006691Y012667D02*
X006688Y012664D01*
X006367Y012664D01*
X006303Y012600D01*
X006303Y012122D01*
X006247Y012122D01*
X006247Y012600D01*
X006183Y012664D01*
X005840Y012664D01*
X005837Y012667D01*
X006183Y012667D01*
X006247Y012732D01*
X006247Y013256D01*
X006183Y013320D01*
X005698Y013320D01*
X005649Y013272D01*
X004982Y013272D01*
X004917Y013207D01*
X004917Y012810D01*
X004548Y012810D01*
X004548Y012946D01*
X004141Y012946D01*
X004141Y013023D01*
X004548Y013023D01*
X004548Y013182D01*
X004537Y013220D01*
X004518Y013254D01*
X004490Y013282D01*
X004455Y013302D01*
X004417Y013312D01*
X004141Y013312D01*
X004141Y013023D01*
X004064Y013023D01*
X004064Y012946D01*
X004141Y012946D01*
X004141Y012657D01*
X004306Y012657D01*
X004251Y012603D01*
X003761Y012603D01*
X003697Y012538D01*
X003697Y012461D01*
X003607Y012499D01*
X003506Y012499D01*
X003412Y012460D01*
X003340Y012388D01*
X003301Y012294D01*
X003301Y012278D01*
X002615Y011591D01*
X002146Y011591D01*
X001350Y011591D01*
X001350Y011493D02*
X002048Y011493D01*
X002146Y011591D02*
X001490Y010935D01*
X001396Y010841D01*
X001396Y007873D01*
X001350Y007826D01*
X001350Y013150D01*
X001356Y013209D01*
X001401Y013317D01*
X001483Y013399D01*
X001591Y013444D01*
X001650Y013450D01*
X006452Y013450D01*
X006426Y013388D01*
X006426Y013320D01*
X006367Y013320D01*
X006303Y013256D01*
X006303Y012732D01*
X006367Y012667D01*
X006691Y012667D01*
X006681Y012972D02*
X006610Y012994D01*
X006681Y012972D02*
X006681Y013338D01*
X006426Y013364D02*
X001448Y013364D01*
X001379Y013266D02*
X001827Y013266D01*
X001758Y013237D02*
X001563Y013042D01*
X001458Y012788D01*
X001458Y012512D01*
X001563Y012258D01*
X001758Y012063D01*
X002012Y011958D01*
X002288Y011958D01*
X002542Y012063D01*
X002737Y012258D01*
X002842Y012512D01*
X002842Y012788D01*
X002737Y013042D01*
X002542Y013237D01*
X002288Y013342D01*
X002012Y013342D01*
X001758Y013237D01*
X001688Y013167D02*
X001352Y013167D01*
X001350Y013069D02*
X001590Y013069D01*
X001533Y012970D02*
X001350Y012970D01*
X001350Y012872D02*
X001493Y012872D01*
X001458Y012773D02*
X001350Y012773D01*
X001350Y012675D02*
X001458Y012675D01*
X001458Y012576D02*
X001350Y012576D01*
X001350Y012478D02*
X001472Y012478D01*
X001513Y012379D02*
X001350Y012379D01*
X001350Y012281D02*
X001554Y012281D01*
X001639Y012182D02*
X001350Y012182D01*
X001350Y012084D02*
X001738Y012084D01*
X001947Y011985D02*
X001350Y011985D01*
X001350Y011887D02*
X002910Y011887D01*
X003009Y011985D02*
X002353Y011985D01*
X002562Y012084D02*
X003107Y012084D01*
X003206Y012182D02*
X002661Y012182D01*
X002746Y012281D02*
X003301Y012281D01*
X003336Y012379D02*
X002787Y012379D01*
X002828Y012478D02*
X003454Y012478D01*
X003658Y012478D02*
X003697Y012478D01*
X003735Y012576D02*
X002842Y012576D01*
X002842Y012675D02*
X003737Y012675D01*
X003749Y012668D02*
X003787Y012657D01*
X004064Y012657D01*
X004064Y012946D01*
X003657Y012946D01*
X003657Y012788D01*
X003667Y012750D01*
X003687Y012715D01*
X003715Y012687D01*
X003749Y012668D01*
X003661Y012773D02*
X002842Y012773D01*
X002807Y012872D02*
X003657Y012872D01*
X003657Y013023D02*
X004064Y013023D01*
X004064Y013312D01*
X003787Y013312D01*
X003749Y013302D01*
X003715Y013282D01*
X003687Y013254D01*
X003667Y013220D01*
X003657Y013182D01*
X003657Y013023D01*
X003657Y013069D02*
X002710Y013069D01*
X002767Y012970D02*
X004064Y012970D01*
X004141Y012970D02*
X004917Y012970D01*
X004917Y012872D02*
X004548Y012872D01*
X004548Y013069D02*
X004917Y013069D01*
X004917Y013167D02*
X004548Y013167D01*
X004506Y013266D02*
X004976Y013266D01*
X005323Y012985D02*
X005981Y012985D01*
X005940Y012994D01*
X006247Y012970D02*
X006303Y012970D01*
X006303Y012872D02*
X006247Y012872D01*
X006247Y012773D02*
X006303Y012773D01*
X006360Y012675D02*
X006190Y012675D01*
X006247Y012576D02*
X006303Y012576D01*
X006303Y012478D02*
X006247Y012478D01*
X006247Y012379D02*
X006303Y012379D01*
X006303Y012281D02*
X006247Y012281D01*
X006247Y012182D02*
X006303Y012182D01*
X005940Y012338D02*
X005628Y012650D01*
X004525Y012650D01*
X004190Y012315D01*
X004102Y012315D01*
X004064Y012675D02*
X004141Y012675D01*
X004141Y012773D02*
X004064Y012773D01*
X004064Y012872D02*
X004141Y012872D01*
X004141Y013069D02*
X004064Y013069D01*
X004064Y013167D02*
X004141Y013167D01*
X004141Y013266D02*
X004064Y013266D01*
X003699Y013266D02*
X002473Y013266D01*
X002612Y013167D02*
X003657Y013167D01*
X003556Y012244D02*
X003463Y012150D01*
X003400Y012150D01*
X002681Y011431D01*
X002213Y011431D01*
X001556Y010775D01*
X001556Y007806D01*
X001400Y007650D01*
X001400Y006806D01*
X001588Y006619D01*
X002400Y006619D01*
X002744Y006963D01*
X002981Y006765D02*
X003835Y006765D01*
X003713Y006666D02*
X003644Y006666D01*
X003364Y006666D02*
X003267Y006666D01*
X003267Y006716D02*
X003267Y006417D01*
X002949Y006417D01*
X002949Y006585D01*
X002959Y006623D01*
X002979Y006658D01*
X003007Y006686D01*
X003041Y006705D01*
X003079Y006716D01*
X003267Y006716D01*
X003267Y006568D02*
X003364Y006568D01*
X003364Y006469D02*
X003267Y006469D01*
X003267Y006371D02*
X001350Y006371D01*
X001350Y006469D02*
X001511Y006469D01*
X001412Y006568D02*
X001350Y006568D01*
X001350Y006272D02*
X002949Y006272D01*
X002900Y006306D02*
X003253Y006306D01*
X003315Y006369D01*
X002987Y006666D02*
X002883Y006666D01*
X002949Y006568D02*
X002575Y006568D01*
X002477Y006469D02*
X002949Y006469D01*
X002949Y006174D02*
X001960Y006174D01*
X002086Y006075D02*
X002984Y006075D01*
X003196Y005386D02*
X001350Y005386D01*
X001350Y005484D02*
X001517Y005484D01*
X001424Y005583D02*
X001350Y005583D01*
X001350Y005681D02*
X001383Y005681D01*
X001365Y005780D02*
X001350Y005780D01*
X001350Y005878D02*
X001365Y005878D01*
X001350Y005977D02*
X001402Y005977D01*
X001350Y006075D02*
X001464Y006075D01*
X001350Y006174D02*
X001590Y006174D01*
X001377Y004696D02*
X001350Y004696D01*
X001350Y004598D02*
X001418Y004598D01*
X001350Y004499D02*
X001502Y004499D01*
X001372Y007848D02*
X001350Y007848D01*
X001350Y007947D02*
X001396Y007947D01*
X001396Y008045D02*
X001350Y008045D01*
X001350Y008144D02*
X001396Y008144D01*
X001396Y008242D02*
X001350Y008242D01*
X001350Y008341D02*
X001396Y008341D01*
X001396Y008439D02*
X001350Y008439D01*
X001350Y008538D02*
X001396Y008538D01*
X001396Y008636D02*
X001350Y008636D01*
X001350Y008735D02*
X001396Y008735D01*
X001396Y008833D02*
X001350Y008833D01*
X001350Y008932D02*
X001396Y008932D01*
X001396Y009030D02*
X001350Y009030D01*
X001350Y009129D02*
X001396Y009129D01*
X001396Y009227D02*
X001350Y009227D01*
X001350Y009326D02*
X001396Y009326D01*
X001396Y009424D02*
X001350Y009424D01*
X001350Y009523D02*
X001396Y009523D01*
X001396Y009621D02*
X001350Y009621D01*
X001350Y009720D02*
X001396Y009720D01*
X001396Y009818D02*
X001350Y009818D01*
X001350Y009917D02*
X001396Y009917D01*
X001396Y010015D02*
X001350Y010015D01*
X001350Y010114D02*
X001396Y010114D01*
X001396Y010212D02*
X001350Y010212D01*
X001350Y010311D02*
X001396Y010311D01*
X001396Y010409D02*
X001350Y010409D01*
X001350Y010508D02*
X001396Y010508D01*
X001396Y010606D02*
X001350Y010606D01*
X001350Y010705D02*
X001396Y010705D01*
X001396Y010803D02*
X001350Y010803D01*
X001350Y010902D02*
X001457Y010902D01*
X001555Y011000D02*
X001350Y011000D01*
X001350Y011099D02*
X001654Y011099D01*
X001752Y011197D02*
X001350Y011197D01*
X001350Y011296D02*
X001851Y011296D01*
X001949Y011394D02*
X001350Y011394D01*
X001350Y011690D02*
X002713Y011690D01*
X002812Y011788D02*
X001350Y011788D01*
X002091Y010508D02*
X002175Y010508D01*
X002091Y010015D02*
X002302Y010015D01*
X004838Y012369D02*
X005269Y012369D01*
X005323Y012315D01*
X005391Y012315D01*
X005345Y012963D02*
X005323Y012985D01*
X006247Y013069D02*
X006303Y013069D01*
X006303Y013167D02*
X006247Y013167D01*
X006238Y013266D02*
X006312Y013266D01*
X007775Y011838D02*
X007838Y011775D01*
X008088Y011775D01*
X008098Y010803D02*
X011943Y010803D01*
X011844Y010705D02*
X008197Y010705D01*
X008247Y010803D02*
X012650Y010803D01*
X012709Y010803D02*
X012357Y010803D01*
X012456Y010705D02*
X012709Y010705D01*
X012657Y010705D02*
X008345Y010705D01*
X008279Y010606D02*
X011746Y010606D01*
X011675Y010508D02*
X008928Y010508D01*
X008719Y010338D02*
X010400Y010338D01*
X010555Y010409D02*
X011675Y010409D01*
X011675Y010212D02*
X010752Y010212D01*
X010838Y010212D02*
X012690Y010212D01*
X012709Y010212D02*
X012625Y010212D01*
X012596Y010114D02*
X012709Y010114D01*
X012696Y010114D02*
X010936Y010114D01*
X010850Y010114D02*
X011704Y010114D01*
X011802Y010015D02*
X010949Y010015D01*
X011035Y010015D02*
X012703Y010015D01*
X012709Y010015D02*
X012498Y010015D01*
X012399Y009917D02*
X012709Y009917D01*
X011133Y009917D01*
X011047Y009917D02*
X011901Y009917D01*
X012100Y010311D02*
X010653Y010311D01*
X010739Y010311D02*
X012683Y010311D01*
X012709Y010311D02*
X012200Y010311D01*
X012200Y010409D02*
X012100Y010409D01*
X012100Y010508D02*
X012200Y010508D01*
X012200Y010606D02*
X012100Y010606D01*
X012100Y010705D02*
X012200Y010705D01*
X012200Y010803D02*
X012100Y010803D01*
X012554Y010606D02*
X012709Y010606D01*
X012663Y010606D02*
X008444Y010606D01*
X008295Y010508D02*
X008279Y010508D01*
X008069Y010606D02*
X006419Y010606D01*
X006421Y010508D02*
X006320Y010508D01*
X006409Y010409D02*
X006222Y010409D01*
X006123Y010311D02*
X006409Y010311D01*
X006409Y010212D02*
X006025Y010212D01*
X005926Y010114D02*
X006409Y010114D01*
X006409Y010015D02*
X005828Y010015D01*
X005729Y009917D02*
X006409Y009917D01*
X006409Y009818D02*
X005631Y009818D01*
X006714Y010311D02*
X007411Y010311D01*
X007357Y010409D02*
X006714Y010409D01*
X006701Y010508D02*
X007357Y010508D01*
X007273Y009048D02*
X007588Y008733D01*
X008425Y008833D02*
X012650Y008833D01*
X012650Y008735D02*
X008440Y008735D01*
X008539Y008636D02*
X012650Y008636D01*
X012650Y008538D02*
X008637Y008538D01*
X008736Y008439D02*
X012650Y008439D01*
X012650Y008341D02*
X008834Y008341D01*
X008425Y008932D02*
X012650Y008932D01*
X012650Y009030D02*
X008425Y009030D01*
X008719Y010338D02*
X008656Y010400D01*
X010150Y008650D02*
X010422Y008534D01*
X010422Y007963D01*
X010016Y007619D01*
X010016Y007503D02*
X010025Y007494D01*
X010120Y007257D02*
X010405Y007257D01*
X010405Y007315D02*
X010730Y007315D01*
X010730Y007315D01*
X010405Y007315D01*
X010405Y007356D02*
X010244Y007356D01*
X010280Y007454D02*
X010414Y007454D01*
X010277Y007553D02*
X012048Y007553D01*
X012048Y007651D02*
X010680Y007651D01*
X010729Y007750D02*
X012110Y007750D01*
X012048Y007454D02*
X011045Y007454D01*
X011055Y007356D02*
X012048Y007356D01*
X012048Y007257D02*
X011055Y007257D01*
X010730Y007356D02*
X010730Y007356D01*
X010730Y007454D02*
X010730Y007454D01*
X010729Y007848D02*
X012944Y007848D01*
X012846Y007947D02*
X010729Y007947D01*
X010729Y008045D02*
X012747Y008045D01*
X012649Y008144D02*
X010729Y008144D01*
X009302Y007553D02*
X008738Y007553D01*
X008738Y007651D02*
X009204Y007651D01*
X008796Y007454D02*
X008738Y007454D01*
X008735Y007356D02*
X008785Y007356D01*
X008778Y007257D02*
X008785Y007257D01*
X008778Y007159D02*
X008785Y007159D01*
X008785Y007060D02*
X008480Y007060D01*
X006785Y007159D02*
X006747Y007159D01*
X010542Y010508D02*
X012670Y010508D01*
X012709Y010508D02*
X012625Y010508D01*
X012625Y010409D02*
X012709Y010409D01*
X012676Y010409D02*
X010641Y010409D01*
X011654Y011244D02*
X011092Y011806D01*
X011710Y012675D02*
X011958Y012675D01*
X011958Y012773D02*
X011717Y012773D01*
X011686Y012872D02*
X011993Y012872D01*
X012033Y012970D02*
X011583Y012970D01*
X011392Y013096D02*
X011392Y013264D01*
X011381Y013302D01*
X011362Y013336D01*
X011334Y013364D01*
X011299Y013384D01*
X011261Y013394D01*
X011073Y013394D01*
X011073Y013096D01*
X011392Y013096D01*
X011392Y013167D02*
X012188Y013167D01*
X012090Y013069D02*
X011073Y013069D01*
X011073Y013167D02*
X010977Y013167D01*
X010977Y013266D02*
X011073Y013266D01*
X011073Y013364D02*
X010977Y013364D01*
X011334Y013364D02*
X013352Y013364D01*
X013421Y013266D02*
X012973Y013266D01*
X013112Y013167D02*
X013448Y013167D01*
X013450Y013069D02*
X013210Y013069D01*
X013267Y012970D02*
X013450Y012970D01*
X013450Y012872D02*
X013307Y012872D01*
X013342Y012773D02*
X013450Y012773D01*
X013450Y012675D02*
X013342Y012675D01*
X013342Y012576D02*
X013450Y012576D01*
X013450Y012478D02*
X013328Y012478D01*
X013287Y012379D02*
X013450Y012379D01*
X013450Y012281D02*
X013246Y012281D01*
X013161Y012182D02*
X013450Y012182D01*
X013450Y012084D02*
X013062Y012084D01*
X012913Y011394D02*
X013450Y011394D01*
X013450Y011296D02*
X013012Y011296D01*
X013110Y011197D02*
X013450Y011197D01*
X013450Y011099D02*
X013209Y011099D01*
X013247Y011000D02*
X013450Y011000D01*
X013450Y010902D02*
X013247Y010902D01*
X013247Y010803D02*
X013450Y010803D01*
X013450Y010705D02*
X013247Y010705D01*
X013247Y010606D02*
X013450Y010606D01*
X013450Y010508D02*
X013247Y010508D01*
X013247Y010409D02*
X013450Y010409D01*
X013450Y010311D02*
X013247Y010311D01*
X013247Y010212D02*
X013450Y010212D01*
X013450Y010114D02*
X013247Y010114D01*
X013247Y010015D02*
X013450Y010015D01*
X013450Y009917D02*
X013247Y009917D01*
X013247Y009818D02*
X013450Y009818D01*
X013450Y009720D02*
X013247Y009720D01*
X013222Y009621D02*
X013450Y009621D01*
X013450Y009523D02*
X013124Y009523D01*
X013025Y009424D02*
X013450Y009424D01*
X013450Y009326D02*
X012810Y009326D01*
X012810Y009227D02*
X013450Y009227D01*
X013450Y009129D02*
X012810Y009129D01*
X012810Y009030D02*
X013450Y009030D01*
X013450Y008932D02*
X012810Y008932D01*
X012810Y008833D02*
X013450Y008833D01*
X013450Y008735D02*
X012810Y008735D01*
X012810Y008636D02*
X013450Y008636D01*
X013450Y008538D02*
X012810Y008538D01*
X012810Y008439D02*
X013450Y008439D01*
X013450Y008341D02*
X012905Y008341D01*
X013003Y008242D02*
X013450Y008242D01*
X013450Y008144D02*
X013102Y008144D01*
X013200Y008045D02*
X013450Y008045D01*
X013450Y007947D02*
X013299Y007947D01*
X013397Y007848D02*
X013450Y007848D01*
X012327Y013266D02*
X011391Y013266D01*
D36*
X011650Y013150D03*
X011463Y012744D03*
X011650Y012150D03*
X012150Y011650D03*
X013150Y011650D03*
X013025Y008869D03*
X012713Y007869D03*
X011713Y007869D03*
X010869Y007869D03*
X010025Y007494D03*
X009463Y007059D03*
X009150Y005650D03*
X008025Y005150D03*
X006650Y005650D03*
X006931Y007400D03*
X005963Y007588D03*
X005056Y006838D03*
X004994Y006213D03*
X004494Y006525D03*
X003900Y007338D03*
X002900Y006306D03*
X002650Y005150D03*
X004150Y005150D03*
X005556Y003494D03*
X006150Y001650D03*
X007150Y001650D03*
X009150Y001650D03*
X011150Y001650D03*
X011150Y003150D03*
X012650Y003650D03*
X009056Y010650D03*
X009150Y011556D03*
X009431Y012088D03*
X010056Y012025D03*
X010088Y013056D03*
X008963Y012713D03*
X008588Y012713D03*
X008025Y012681D03*
X007681Y012588D03*
X007119Y012494D03*
X007619Y011838D03*
X007931Y012056D03*
X007463Y013338D03*
X006681Y013338D03*
X004838Y012369D03*
X003556Y012244D03*
X003150Y012650D03*
X003150Y013150D03*
X002556Y011744D03*
X001650Y011650D03*
X003556Y011306D03*
X005713Y010306D03*
X003150Y003150D03*
X003650Y001650D03*
D37*
X009650Y013338D02*
X009525Y013463D01*
X007994Y013463D01*
X007963Y013431D01*
D38*
X009650Y013338D02*
X009650Y013047D01*
X008656Y010400D02*
X008400Y010400D01*
X008275Y010275D01*
X008275Y008650D01*
X008775Y008150D01*
X009565Y008150D01*
X009753Y007963D01*
D39*
X009056Y008525D03*
X009119Y009931D03*
X006025Y009963D03*
X006056Y008619D03*
D40*
X006203Y007900D02*
X006400Y007703D01*
X006581Y007884D01*
X006954Y007884D01*
X007210Y007884D01*
X007210Y007590D01*
X007338Y007463D01*
X007838Y007463D01*
X008025Y007275D01*
X008025Y006766D01*
X008172Y006619D01*
X007766Y006213D01*
X007766Y006150D01*
X008172Y006619D02*
X008681Y006619D01*
X008866Y006803D01*
X009070Y006803D01*
X009070Y007059D02*
X009463Y007059D01*
X009647Y007059D01*
X009903Y006803D01*
X010730Y006803D01*
X010730Y007059D02*
X011150Y007059D01*
X011150Y006431D01*
X010963Y006244D01*
X010463Y006244D01*
X010369Y006338D01*
X009400Y006338D01*
X009306Y006244D01*
X008715Y006244D01*
X008363Y005891D01*
X006203Y007900D02*
X005244Y007900D01*
X005025Y007681D01*
X005025Y007400D01*
X004838Y007213D01*
X004509Y007213D01*
X004275Y007213D01*
X004025Y006963D01*
X004025Y006409D01*
X003985Y006369D01*
X004025Y006963D02*
X002744Y006963D01*
X003900Y007338D02*
X004149Y007587D01*
X004509Y007587D01*
X011150Y007059D02*
X012559Y007059D01*
X012650Y007150D01*
M02*
