G04 EAGLE Gerber X2 export*
%TF.Part,Single*%
%TF.FileFunction,Other,Top Solder Paste*%
%TF.FilePolarity,Positive*%
%TF.GenerationSoftware,Autodesk,EAGLE,8.7.0*%
%TF.CreationDate,2018-03-22T17:08:22Z*%
G75*
%MOMM*%
%FSLAX34Y34*%
%LPD*%
%AMOC8*
5,1,8,0,0,1.08239X$1,22.5*%
G01*
%ADD10R,1.000000X1.100000*%
%ADD11R,0.800000X0.800000*%
%ADD12R,1.100000X1.000000*%
%ADD13R,1.200000X1.400000*%
%ADD14R,1.600000X1.300000*%
%ADD15R,1.600000X2.000000*%
%ADD16R,2.500000X2.500000*%
%ADD17R,0.610000X1.270000*%
%ADD18R,0.610000X1.020000*%
%ADD19R,0.610000X0.710000*%
%ADD20R,1.650000X3.810000*%
%ADD21R,0.550000X1.200000*%
%ADD22R,0.800000X0.900000*%
%ADD23R,0.850000X0.850000*%
%ADD24R,0.482600X1.397000*%
%ADD25R,0.558800X1.397000*%

G36*
X110764Y246384D02*
X110764Y246384D01*
X110783Y246382D01*
X110885Y246404D01*
X110987Y246421D01*
X111004Y246430D01*
X111024Y246434D01*
X111113Y246487D01*
X111204Y246536D01*
X111218Y246550D01*
X111235Y246560D01*
X111302Y246639D01*
X111374Y246714D01*
X111382Y246732D01*
X111395Y246747D01*
X111434Y246843D01*
X111477Y246937D01*
X111479Y246957D01*
X111487Y246975D01*
X111505Y247142D01*
X111505Y269748D01*
X111491Y269838D01*
X111483Y269929D01*
X111471Y269959D01*
X111466Y269991D01*
X111423Y270071D01*
X111387Y270155D01*
X111361Y270187D01*
X111350Y270208D01*
X111327Y270230D01*
X111282Y270286D01*
X105155Y276413D01*
X105155Y279654D01*
X105152Y279674D01*
X105154Y279693D01*
X105132Y279795D01*
X105116Y279897D01*
X105106Y279914D01*
X105102Y279934D01*
X105049Y280023D01*
X105000Y280114D01*
X104986Y280128D01*
X104976Y280145D01*
X104897Y280212D01*
X104822Y280284D01*
X104804Y280292D01*
X104789Y280305D01*
X104693Y280344D01*
X104599Y280387D01*
X104579Y280389D01*
X104561Y280397D01*
X104394Y280415D01*
X98806Y280415D01*
X98786Y280412D01*
X98767Y280414D01*
X98665Y280392D01*
X98563Y280376D01*
X98546Y280366D01*
X98526Y280362D01*
X98437Y280309D01*
X98346Y280260D01*
X98332Y280246D01*
X98315Y280236D01*
X98248Y280157D01*
X98177Y280082D01*
X98168Y280064D01*
X98155Y280049D01*
X98116Y279953D01*
X98073Y279859D01*
X98071Y279839D01*
X98063Y279821D01*
X98045Y279654D01*
X98045Y276413D01*
X91918Y270286D01*
X91865Y270212D01*
X91805Y270143D01*
X91793Y270113D01*
X91774Y270087D01*
X91747Y270000D01*
X91713Y269915D01*
X91709Y269874D01*
X91702Y269851D01*
X91703Y269819D01*
X91695Y269748D01*
X91695Y247142D01*
X91698Y247122D01*
X91696Y247103D01*
X91718Y247001D01*
X91735Y246899D01*
X91744Y246882D01*
X91748Y246862D01*
X91801Y246773D01*
X91850Y246682D01*
X91864Y246668D01*
X91874Y246651D01*
X91953Y246584D01*
X92028Y246513D01*
X92046Y246504D01*
X92061Y246491D01*
X92157Y246452D01*
X92251Y246409D01*
X92271Y246407D01*
X92289Y246399D01*
X92456Y246381D01*
X110744Y246381D01*
X110764Y246384D01*
G37*
D10*
X235513Y173038D03*
X218513Y173038D03*
D11*
X262044Y267494D03*
X247544Y267494D03*
D12*
X235744Y285188D03*
X235744Y302188D03*
X250825Y285188D03*
X250825Y302188D03*
D13*
X243200Y76425D03*
X223200Y120425D03*
X183200Y120425D03*
X163200Y76425D03*
D10*
X129613Y70644D03*
X146613Y70644D03*
X146613Y55563D03*
X129613Y55563D03*
X129613Y25400D03*
X146613Y25400D03*
X146613Y40481D03*
X129613Y40481D03*
D14*
X276013Y76400D03*
D15*
X305013Y88900D03*
D14*
X276013Y101400D03*
D10*
X283600Y127000D03*
X300600Y127000D03*
D16*
X292100Y152400D03*
D13*
X88900Y120425D03*
X113900Y76425D03*
X63900Y76425D03*
D11*
X222938Y267494D03*
X237438Y267494D03*
D10*
X216131Y252413D03*
X233131Y252413D03*
D17*
X172244Y243150D03*
X184944Y243150D03*
X159544Y243150D03*
X146844Y243150D03*
D18*
X184944Y188500D03*
D19*
X171994Y186950D03*
X159794Y186950D03*
D18*
X146844Y188500D03*
D20*
X177194Y209550D03*
X154594Y209550D03*
D21*
X155600Y139399D03*
X165100Y139399D03*
X174600Y139399D03*
X174600Y165401D03*
X155600Y165401D03*
D22*
X197644Y302100D03*
X207144Y282100D03*
X188144Y282100D03*
D12*
X131994Y301625D03*
X148994Y301625D03*
D10*
X65881Y281550D03*
X65881Y264550D03*
D11*
X56794Y301625D03*
X71794Y301625D03*
D10*
X93100Y301625D03*
X110100Y301625D03*
D23*
X203200Y169150D03*
X203200Y135650D03*
D24*
X117300Y286639D03*
D25*
X101600Y286639D03*
D24*
X85900Y286639D03*
M02*
