G04 EAGLE Gerber X2 export*
%TF.Part,Single*%
%TF.FileFunction,Other,Top Copper Layer*%
%TF.FilePolarity,Positive*%
%TF.GenerationSoftware,Autodesk,EAGLE,8.7.0*%
%TF.CreationDate,2018-03-22T17:08:22Z*%
G75*
%MOMM*%
%FSLAX34Y34*%
%LPD*%
%AMOC8*
5,1,8,0,0,1.08239X$1,22.5*%
G01*
%ADD10R,1.000000X1.100000*%
%ADD11R,0.800000X0.800000*%
%ADD12R,1.100000X1.000000*%
%ADD13P,1.785944X8X292.500000*%
%ADD14P,1.785944X8X112.500000*%
%ADD15R,1.200000X1.400000*%
%ADD16R,1.600000X1.300000*%
%ADD17R,1.600000X2.000000*%
%ADD18R,2.500000X2.500000*%
%ADD19C,1.524000*%
%ADD20R,0.610000X1.270000*%
%ADD21R,0.610000X1.020000*%
%ADD22R,0.610000X0.710000*%
%ADD23R,1.650000X3.810000*%
%ADD24R,0.550000X1.200000*%
%ADD25R,0.800000X0.900000*%
%ADD26R,0.850000X0.850000*%
%ADD27R,0.482600X1.397000*%
%ADD28R,0.558800X1.397000*%
%ADD29C,0.635000*%
%ADD30C,0.254000*%
%ADD31C,0.762000*%
%ADD32C,0.304800*%
%ADD33C,0.406400*%

G36*
X138917Y18073D02*
X138917Y18073D01*
X139055Y18082D01*
X139075Y18088D01*
X139095Y18090D01*
X139226Y18137D01*
X139358Y18180D01*
X139375Y18191D01*
X139394Y18198D01*
X139509Y18276D01*
X139627Y18350D01*
X139641Y18365D01*
X139657Y18376D01*
X139749Y18480D01*
X139845Y18582D01*
X139854Y18599D01*
X139868Y18615D01*
X139931Y18739D01*
X139998Y18860D01*
X140003Y18880D01*
X140012Y18898D01*
X140043Y19034D01*
X140078Y19168D01*
X140079Y19196D01*
X140082Y19208D01*
X140081Y19229D01*
X140088Y19329D01*
X140088Y31532D01*
X140599Y32043D01*
X140672Y32137D01*
X140751Y32226D01*
X140769Y32262D01*
X140794Y32294D01*
X140841Y32403D01*
X140896Y32510D01*
X140905Y32549D01*
X140921Y32586D01*
X140939Y32704D01*
X140965Y32820D01*
X140964Y32860D01*
X140970Y32900D01*
X140959Y33019D01*
X140956Y33138D01*
X140944Y33177D01*
X140941Y33217D01*
X140900Y33329D01*
X140867Y33443D01*
X140847Y33478D01*
X140833Y33516D01*
X140766Y33615D01*
X140706Y33717D01*
X140666Y33763D01*
X140654Y33779D01*
X140639Y33793D01*
X140599Y33838D01*
X140088Y34350D01*
X140088Y46613D01*
X140599Y47124D01*
X140672Y47218D01*
X140751Y47308D01*
X140769Y47344D01*
X140794Y47376D01*
X140842Y47485D01*
X140896Y47591D01*
X140905Y47630D01*
X140921Y47667D01*
X140939Y47785D01*
X140965Y47901D01*
X140964Y47942D01*
X140970Y47982D01*
X140959Y48100D01*
X140956Y48219D01*
X140944Y48258D01*
X140941Y48298D01*
X140900Y48410D01*
X140867Y48525D01*
X140847Y48559D01*
X140833Y48597D01*
X140766Y48696D01*
X140706Y48799D01*
X140666Y48844D01*
X140654Y48861D01*
X140639Y48874D01*
X140599Y48919D01*
X140088Y49431D01*
X140088Y61694D01*
X140599Y62206D01*
X140672Y62300D01*
X140751Y62389D01*
X140769Y62425D01*
X140794Y62457D01*
X140842Y62566D01*
X140896Y62672D01*
X140905Y62712D01*
X140921Y62749D01*
X140939Y62867D01*
X140965Y62983D01*
X140964Y63023D01*
X140970Y63063D01*
X140959Y63181D01*
X140956Y63300D01*
X140944Y63339D01*
X140941Y63379D01*
X140900Y63492D01*
X140867Y63606D01*
X140847Y63641D01*
X140833Y63679D01*
X140766Y63777D01*
X140706Y63880D01*
X140666Y63925D01*
X140654Y63942D01*
X140639Y63955D01*
X140599Y64001D01*
X140088Y64512D01*
X140088Y76775D01*
X140981Y77668D01*
X142549Y77668D01*
X142667Y77683D01*
X142785Y77691D01*
X142824Y77703D01*
X142864Y77708D01*
X142975Y77752D01*
X143088Y77789D01*
X143122Y77810D01*
X143160Y77825D01*
X143256Y77895D01*
X143357Y77959D01*
X143384Y77988D01*
X143417Y78012D01*
X143493Y78104D01*
X143575Y78191D01*
X143594Y78226D01*
X143620Y78257D01*
X143671Y78365D01*
X143728Y78469D01*
X143738Y78508D01*
X143755Y78545D01*
X143778Y78662D01*
X143808Y78777D01*
X143811Y78837D01*
X143815Y78857D01*
X143814Y78878D01*
X143818Y78938D01*
X143818Y79508D01*
X152258Y87948D01*
X152343Y88057D01*
X152432Y88164D01*
X152440Y88183D01*
X152453Y88199D01*
X152508Y88327D01*
X152567Y88452D01*
X152571Y88472D01*
X152579Y88491D01*
X152601Y88629D01*
X152627Y88765D01*
X152626Y88785D01*
X152629Y88805D01*
X152616Y88944D01*
X152607Y89082D01*
X152601Y89101D01*
X152599Y89121D01*
X152552Y89253D01*
X152509Y89384D01*
X152498Y89402D01*
X152491Y89421D01*
X152413Y89536D01*
X152339Y89653D01*
X152324Y89667D01*
X152313Y89684D01*
X152209Y89776D01*
X152107Y89871D01*
X152090Y89881D01*
X152074Y89894D01*
X151950Y89958D01*
X151829Y90025D01*
X151809Y90030D01*
X151791Y90039D01*
X151655Y90069D01*
X148492Y91379D01*
X146154Y93717D01*
X144889Y96772D01*
X144889Y100078D01*
X146154Y103133D01*
X148492Y105471D01*
X151547Y106736D01*
X154853Y106736D01*
X157908Y105471D01*
X160246Y103133D01*
X161511Y100078D01*
X161511Y96772D01*
X160246Y93717D01*
X159596Y93068D01*
X159511Y92958D01*
X159422Y92851D01*
X159413Y92832D01*
X159401Y92816D01*
X159346Y92689D01*
X159286Y92563D01*
X159283Y92543D01*
X159275Y92525D01*
X159253Y92387D01*
X159227Y92251D01*
X159228Y92231D01*
X159225Y92211D01*
X159238Y92071D01*
X159246Y91933D01*
X159253Y91914D01*
X159255Y91894D01*
X159302Y91763D01*
X159344Y91631D01*
X159355Y91614D01*
X159362Y91595D01*
X159440Y91480D01*
X159515Y91362D01*
X159529Y91348D01*
X159541Y91331D01*
X159645Y91240D01*
X159746Y91144D01*
X159764Y91134D01*
X159779Y91121D01*
X159903Y91058D01*
X160025Y90991D01*
X160044Y90986D01*
X160062Y90976D01*
X160198Y90946D01*
X160333Y90911D01*
X160361Y90909D01*
X160373Y90907D01*
X160393Y90907D01*
X160493Y90901D01*
X189198Y90901D01*
X189296Y90913D01*
X189395Y90916D01*
X189453Y90933D01*
X189513Y90941D01*
X189606Y90977D01*
X189701Y91005D01*
X189753Y91036D01*
X189809Y91058D01*
X189889Y91116D01*
X189975Y91166D01*
X190050Y91233D01*
X190066Y91245D01*
X190074Y91254D01*
X190095Y91273D01*
X215304Y116481D01*
X215364Y116559D01*
X215432Y116631D01*
X215461Y116684D01*
X215498Y116732D01*
X215538Y116823D01*
X215586Y116910D01*
X215601Y116968D01*
X215625Y117024D01*
X215640Y117122D01*
X215665Y117218D01*
X215671Y117318D01*
X215675Y117338D01*
X215673Y117350D01*
X215675Y117378D01*
X215675Y126937D01*
X215660Y127055D01*
X215653Y127173D01*
X215640Y127212D01*
X215635Y127252D01*
X215592Y127363D01*
X215555Y127476D01*
X215533Y127510D01*
X215518Y127548D01*
X215449Y127644D01*
X215385Y127745D01*
X215355Y127772D01*
X215332Y127805D01*
X215240Y127881D01*
X215153Y127963D01*
X215118Y127982D01*
X215087Y128008D01*
X214979Y128059D01*
X214875Y128116D01*
X214835Y128126D01*
X214799Y128143D01*
X214682Y128166D01*
X214567Y128196D01*
X214507Y128199D01*
X214487Y128203D01*
X214466Y128202D01*
X214406Y128206D01*
X211549Y128206D01*
X211451Y128193D01*
X211352Y128190D01*
X211294Y128174D01*
X211233Y128166D01*
X211141Y128129D01*
X211046Y128102D01*
X210994Y128071D01*
X210938Y128049D01*
X210858Y127991D01*
X210772Y127940D01*
X210697Y127874D01*
X210680Y127862D01*
X210676Y127856D01*
X210672Y127854D01*
X210667Y127848D01*
X210651Y127834D01*
X208642Y125825D01*
X194536Y125825D01*
X194423Y125810D01*
X194309Y125804D01*
X194266Y125790D01*
X194221Y125785D01*
X194115Y125743D01*
X194006Y125708D01*
X193945Y125675D01*
X193925Y125668D01*
X193910Y125657D01*
X193864Y125632D01*
X192851Y125000D01*
X192801Y124959D01*
X192746Y124927D01*
X192625Y124820D01*
X191602Y123797D01*
X191601Y123797D01*
X191096Y123292D01*
X191036Y123213D01*
X190968Y123141D01*
X190939Y123088D01*
X190902Y123040D01*
X190862Y122949D01*
X190814Y122863D01*
X190799Y122804D01*
X190775Y122748D01*
X190760Y122650D01*
X190735Y122555D01*
X190729Y122455D01*
X190725Y122434D01*
X190727Y122422D01*
X190725Y122394D01*
X190725Y112793D01*
X189832Y111900D01*
X176568Y111900D01*
X175675Y112793D01*
X175675Y118174D01*
X175660Y118292D01*
X175653Y118410D01*
X175640Y118449D01*
X175635Y118489D01*
X175592Y118600D01*
X175555Y118713D01*
X175533Y118747D01*
X175518Y118785D01*
X175449Y118881D01*
X175385Y118982D01*
X175355Y119009D01*
X175332Y119042D01*
X175240Y119118D01*
X175153Y119200D01*
X175118Y119219D01*
X175087Y119245D01*
X174979Y119296D01*
X174875Y119353D01*
X174835Y119363D01*
X174799Y119380D01*
X174682Y119403D01*
X174567Y119433D01*
X174507Y119436D01*
X174487Y119440D01*
X174466Y119439D01*
X174406Y119443D01*
X170292Y119443D01*
X162305Y127430D01*
X162305Y130762D01*
X162293Y130860D01*
X162290Y130959D01*
X162273Y131017D01*
X162265Y131077D01*
X162229Y131169D01*
X162201Y131264D01*
X162171Y131317D01*
X162148Y131373D01*
X162090Y131453D01*
X162040Y131538D01*
X161974Y131614D01*
X161962Y131630D01*
X161952Y131638D01*
X161934Y131659D01*
X161247Y132345D01*
X161153Y132418D01*
X161064Y132497D01*
X161028Y132515D01*
X160996Y132540D01*
X160887Y132588D01*
X160781Y132642D01*
X160742Y132650D01*
X160704Y132666D01*
X160587Y132685D01*
X160471Y132711D01*
X160430Y132710D01*
X160390Y132716D01*
X160272Y132705D01*
X160153Y132702D01*
X160114Y132690D01*
X160074Y132687D01*
X159962Y132646D01*
X159847Y132613D01*
X159812Y132593D01*
X159774Y132579D01*
X159676Y132512D01*
X159573Y132452D01*
X159528Y132412D01*
X159511Y132400D01*
X159498Y132385D01*
X159452Y132345D01*
X158982Y131874D01*
X152218Y131874D01*
X151325Y132767D01*
X151325Y146031D01*
X152434Y147139D01*
X152494Y147217D01*
X152562Y147289D01*
X152591Y147342D01*
X152628Y147390D01*
X152668Y147481D01*
X152716Y147568D01*
X152731Y147626D01*
X152755Y147682D01*
X152770Y147780D01*
X152795Y147876D01*
X152801Y147976D01*
X152805Y147996D01*
X152803Y148008D01*
X152805Y148036D01*
X152805Y156051D01*
X152819Y156083D01*
X152873Y156189D01*
X152882Y156229D01*
X152898Y156266D01*
X152917Y156384D01*
X152943Y156500D01*
X152942Y156540D01*
X152948Y156580D01*
X152937Y156698D01*
X152933Y156818D01*
X152922Y156856D01*
X152918Y156896D01*
X152878Y157009D01*
X152845Y157123D01*
X152824Y157158D01*
X152811Y157196D01*
X152744Y157294D01*
X152683Y157397D01*
X152644Y157442D01*
X152632Y157459D01*
X152617Y157472D01*
X152577Y157518D01*
X151325Y158769D01*
X151325Y169767D01*
X151310Y169885D01*
X151303Y170004D01*
X151290Y170043D01*
X151285Y170083D01*
X151242Y170194D01*
X151205Y170307D01*
X151183Y170341D01*
X151168Y170378D01*
X151099Y170475D01*
X151035Y170575D01*
X151005Y170603D01*
X150982Y170636D01*
X150890Y170712D01*
X150803Y170793D01*
X150768Y170813D01*
X150737Y170839D01*
X150629Y170889D01*
X150525Y170947D01*
X150485Y170957D01*
X150449Y170974D01*
X150332Y170997D01*
X150217Y171026D01*
X150157Y171030D01*
X150137Y171034D01*
X150116Y171033D01*
X150056Y171037D01*
X17892Y171037D01*
X12287Y176642D01*
X12287Y243251D01*
X28211Y259176D01*
X39592Y259176D01*
X39690Y259188D01*
X39789Y259191D01*
X39847Y259208D01*
X39907Y259216D01*
X39999Y259252D01*
X40094Y259280D01*
X40147Y259311D01*
X40203Y259333D01*
X40283Y259391D01*
X40368Y259441D01*
X40444Y259508D01*
X40460Y259520D01*
X40468Y259529D01*
X40489Y259548D01*
X41760Y260818D01*
X41820Y260897D01*
X41888Y260969D01*
X41918Y261022D01*
X41955Y261070D01*
X41994Y261161D01*
X42042Y261247D01*
X42057Y261306D01*
X42081Y261361D01*
X42097Y261459D01*
X42121Y261555D01*
X42128Y261655D01*
X42131Y261676D01*
X42130Y261688D01*
X42132Y261716D01*
X42132Y263884D01*
X44885Y266637D01*
X48778Y266637D01*
X51395Y264020D01*
X51505Y263935D01*
X51612Y263847D01*
X51630Y263838D01*
X51646Y263825D01*
X51774Y263770D01*
X51899Y263711D01*
X51919Y263707D01*
X51938Y263699D01*
X52076Y263677D01*
X52212Y263651D01*
X52232Y263652D01*
X52252Y263649D01*
X52391Y263662D01*
X52529Y263671D01*
X52548Y263677D01*
X52569Y263679D01*
X52700Y263726D01*
X52832Y263769D01*
X52849Y263780D01*
X52868Y263787D01*
X52983Y263865D01*
X53100Y263939D01*
X53114Y263954D01*
X53131Y263965D01*
X53223Y264070D01*
X53318Y264171D01*
X53328Y264188D01*
X53342Y264204D01*
X53405Y264328D01*
X53472Y264449D01*
X53477Y264469D01*
X53486Y264487D01*
X53517Y264623D01*
X53551Y264757D01*
X53553Y264785D01*
X53556Y264797D01*
X53555Y264818D01*
X53562Y264918D01*
X53562Y278970D01*
X56927Y282336D01*
X58985Y284393D01*
X59045Y284472D01*
X59113Y284544D01*
X59143Y284597D01*
X59180Y284645D01*
X59219Y284736D01*
X59267Y284822D01*
X59282Y284881D01*
X59306Y284936D01*
X59322Y285034D01*
X59346Y285130D01*
X59353Y285230D01*
X59356Y285251D01*
X59355Y285263D01*
X59357Y285291D01*
X59357Y287682D01*
X60250Y288575D01*
X68428Y288575D01*
X68526Y288587D01*
X68625Y288590D01*
X68683Y288607D01*
X68743Y288615D01*
X68835Y288651D01*
X68931Y288679D01*
X68983Y288709D01*
X69039Y288732D01*
X69119Y288790D01*
X69205Y288840D01*
X69280Y288906D01*
X69296Y288918D01*
X69304Y288928D01*
X69325Y288947D01*
X69813Y289434D01*
X80693Y289434D01*
X80811Y289449D01*
X80930Y289456D01*
X80968Y289469D01*
X81009Y289474D01*
X81119Y289517D01*
X81232Y289554D01*
X81267Y289576D01*
X81304Y289591D01*
X81400Y289660D01*
X81501Y289724D01*
X81529Y289754D01*
X81562Y289777D01*
X81638Y289869D01*
X81719Y289956D01*
X81739Y289991D01*
X81764Y290022D01*
X81815Y290130D01*
X81873Y290234D01*
X81883Y290274D01*
X81900Y290310D01*
X81922Y290427D01*
X81952Y290542D01*
X81956Y290602D01*
X81960Y290622D01*
X81958Y290643D01*
X81962Y290703D01*
X81962Y294256D01*
X82855Y295149D01*
X85306Y295149D01*
X85424Y295164D01*
X85543Y295171D01*
X85581Y295184D01*
X85622Y295189D01*
X85732Y295232D01*
X85845Y295269D01*
X85880Y295291D01*
X85917Y295306D01*
X86013Y295375D01*
X86114Y295439D01*
X86142Y295469D01*
X86175Y295492D01*
X86251Y295584D01*
X86332Y295671D01*
X86352Y295706D01*
X86377Y295737D01*
X86428Y295845D01*
X86486Y295949D01*
X86496Y295989D01*
X86513Y296025D01*
X86535Y296142D01*
X86565Y296257D01*
X86569Y296317D01*
X86573Y296337D01*
X86571Y296358D01*
X86575Y296418D01*
X86575Y297561D01*
X86560Y297679D01*
X86553Y297798D01*
X86540Y297836D01*
X86535Y297877D01*
X86492Y297987D01*
X86455Y298100D01*
X86433Y298135D01*
X86418Y298172D01*
X86349Y298268D01*
X86285Y298369D01*
X86255Y298397D01*
X86232Y298430D01*
X86140Y298506D01*
X86053Y298587D01*
X86018Y298607D01*
X85987Y298632D01*
X85879Y298683D01*
X85775Y298741D01*
X85735Y298751D01*
X85699Y298768D01*
X85582Y298790D01*
X85467Y298820D01*
X85407Y298824D01*
X85387Y298828D01*
X85366Y298826D01*
X85306Y298830D01*
X78588Y298830D01*
X78470Y298815D01*
X78351Y298808D01*
X78312Y298795D01*
X78272Y298790D01*
X78161Y298747D01*
X78048Y298710D01*
X78014Y298688D01*
X77977Y298673D01*
X77880Y298604D01*
X77780Y298540D01*
X77752Y298510D01*
X77719Y298487D01*
X77643Y298395D01*
X77562Y298308D01*
X77542Y298273D01*
X77516Y298242D01*
X77466Y298134D01*
X77408Y298030D01*
X77398Y297990D01*
X77381Y297954D01*
X77358Y297837D01*
X77329Y297722D01*
X77325Y297662D01*
X77321Y297642D01*
X77322Y297621D01*
X77318Y297561D01*
X77318Y296993D01*
X76425Y296100D01*
X67162Y296100D01*
X66269Y296993D01*
X66269Y306257D01*
X67162Y307150D01*
X76425Y307150D01*
X77318Y306257D01*
X77318Y305689D01*
X77333Y305571D01*
X77341Y305452D01*
X77353Y305414D01*
X77358Y305373D01*
X77402Y305263D01*
X77439Y305150D01*
X77460Y305115D01*
X77475Y305078D01*
X77545Y304982D01*
X77609Y304881D01*
X77638Y304853D01*
X77662Y304820D01*
X77754Y304744D01*
X77841Y304663D01*
X77876Y304643D01*
X77907Y304618D01*
X78015Y304567D01*
X78119Y304509D01*
X78158Y304499D01*
X78195Y304482D01*
X78312Y304460D01*
X78427Y304430D01*
X78487Y304426D01*
X78507Y304422D01*
X78528Y304424D01*
X78588Y304420D01*
X85306Y304420D01*
X85424Y304435D01*
X85543Y304442D01*
X85581Y304455D01*
X85622Y304460D01*
X85732Y304503D01*
X85845Y304540D01*
X85880Y304562D01*
X85917Y304577D01*
X86013Y304646D01*
X86114Y304710D01*
X86142Y304740D01*
X86175Y304763D01*
X86251Y304855D01*
X86332Y304942D01*
X86352Y304977D01*
X86377Y305008D01*
X86428Y305116D01*
X86486Y305220D01*
X86496Y305260D01*
X86513Y305296D01*
X86535Y305413D01*
X86565Y305528D01*
X86569Y305588D01*
X86573Y305608D01*
X86571Y305629D01*
X86575Y305689D01*
X86575Y307757D01*
X87468Y308650D01*
X98732Y308650D01*
X99625Y307757D01*
X99625Y297434D01*
X99640Y297316D01*
X99647Y297197D01*
X99660Y297159D01*
X99665Y297118D01*
X99708Y297007D01*
X99745Y296895D01*
X99767Y296860D01*
X99782Y296823D01*
X99851Y296727D01*
X99915Y296626D01*
X99945Y296598D01*
X99968Y296565D01*
X100060Y296489D01*
X100147Y296408D01*
X100182Y296388D01*
X100204Y296371D01*
X100204Y294957D01*
X99614Y294957D01*
X99515Y294944D01*
X99417Y294941D01*
X99358Y294925D01*
X99298Y294917D01*
X99206Y294881D01*
X99111Y294853D01*
X99059Y294822D01*
X99003Y294800D01*
X98922Y294742D01*
X98837Y294691D01*
X98762Y294625D01*
X98745Y294613D01*
X98737Y294604D01*
X98734Y294600D01*
X91107Y294600D01*
X90989Y294585D01*
X90870Y294578D01*
X90832Y294565D01*
X90791Y294560D01*
X90681Y294517D01*
X90568Y294480D01*
X90533Y294458D01*
X90496Y294443D01*
X90400Y294374D01*
X90299Y294310D01*
X90271Y294280D01*
X90238Y294257D01*
X90162Y294165D01*
X90081Y294078D01*
X90061Y294043D01*
X90036Y294012D01*
X89985Y293904D01*
X89927Y293800D01*
X89917Y293760D01*
X89900Y293724D01*
X89878Y293607D01*
X89848Y293492D01*
X89844Y293432D01*
X89840Y293412D01*
X89842Y293391D01*
X89838Y293331D01*
X89838Y279022D01*
X88945Y278129D01*
X82855Y278129D01*
X81962Y279022D01*
X81962Y282575D01*
X81947Y282693D01*
X81940Y282812D01*
X81927Y282850D01*
X81922Y282891D01*
X81879Y283001D01*
X81842Y283114D01*
X81820Y283149D01*
X81805Y283186D01*
X81736Y283282D01*
X81672Y283383D01*
X81642Y283411D01*
X81619Y283444D01*
X81527Y283520D01*
X81440Y283601D01*
X81405Y283621D01*
X81374Y283646D01*
X81266Y283697D01*
X81162Y283755D01*
X81122Y283765D01*
X81086Y283782D01*
X80969Y283804D01*
X80854Y283834D01*
X80794Y283838D01*
X80774Y283842D01*
X80753Y283840D01*
X80693Y283844D01*
X73675Y283844D01*
X73557Y283829D01*
X73438Y283822D01*
X73400Y283809D01*
X73360Y283804D01*
X73249Y283761D01*
X73136Y283724D01*
X73102Y283702D01*
X73064Y283687D01*
X72968Y283618D01*
X72867Y283554D01*
X72839Y283524D01*
X72807Y283501D01*
X72731Y283409D01*
X72649Y283322D01*
X72630Y283287D01*
X72604Y283256D01*
X72553Y283148D01*
X72496Y283044D01*
X72486Y283004D01*
X72468Y282968D01*
X72446Y282851D01*
X72416Y282736D01*
X72412Y282676D01*
X72409Y282656D01*
X72410Y282635D01*
X72406Y282575D01*
X72406Y275418D01*
X71474Y274486D01*
X71397Y274387D01*
X71315Y274292D01*
X71300Y274262D01*
X71279Y274235D01*
X71229Y274120D01*
X71173Y274007D01*
X71166Y273974D01*
X71153Y273943D01*
X71133Y273819D01*
X71107Y273696D01*
X71108Y273663D01*
X71103Y273629D01*
X71115Y273504D01*
X71120Y273379D01*
X71130Y273346D01*
X71133Y273313D01*
X71175Y273194D01*
X71211Y273074D01*
X71229Y273045D01*
X71240Y273013D01*
X71311Y272909D01*
X71376Y272802D01*
X71400Y272778D01*
X71419Y272750D01*
X71513Y272667D01*
X71603Y272579D01*
X71643Y272552D01*
X71657Y272540D01*
X71677Y272530D01*
X71737Y272490D01*
X72441Y272083D01*
X72914Y271610D01*
X73249Y271031D01*
X73422Y270384D01*
X73422Y267049D01*
X67111Y267049D01*
X66993Y267034D01*
X66875Y267027D01*
X66836Y267014D01*
X66796Y267009D01*
X66685Y266966D01*
X66572Y266929D01*
X66538Y266907D01*
X66500Y266892D01*
X66404Y266823D01*
X66303Y266759D01*
X66276Y266729D01*
X66243Y266706D01*
X66167Y266614D01*
X66085Y266527D01*
X66066Y266492D01*
X66040Y266461D01*
X66003Y266382D01*
X60420Y266382D01*
X60302Y266367D01*
X60183Y266359D01*
X60145Y266347D01*
X60105Y266342D01*
X59994Y266298D01*
X59881Y266261D01*
X59847Y266240D01*
X59809Y266225D01*
X59713Y266155D01*
X59612Y266091D01*
X59584Y266062D01*
X59552Y266038D01*
X59476Y265946D01*
X59394Y265860D01*
X59375Y265824D01*
X59349Y265793D01*
X59298Y265685D01*
X59241Y265581D01*
X59231Y265542D01*
X59213Y265505D01*
X59191Y265389D01*
X59161Y265273D01*
X59157Y265213D01*
X59154Y265193D01*
X59155Y265173D01*
X59151Y265113D01*
X59151Y255224D01*
X51958Y248030D01*
X31846Y248030D01*
X31748Y248018D01*
X31649Y248015D01*
X31590Y247998D01*
X31530Y247990D01*
X31438Y247954D01*
X31343Y247926D01*
X31291Y247896D01*
X31235Y247873D01*
X31154Y247815D01*
X31106Y247787D01*
X31069Y247765D01*
X30994Y247699D01*
X30987Y247694D01*
X30977Y247687D01*
X30969Y247677D01*
X30948Y247659D01*
X23010Y239720D01*
X22950Y239642D01*
X22882Y239570D01*
X22852Y239517D01*
X22815Y239469D01*
X22776Y239378D01*
X22728Y239292D01*
X22713Y239233D01*
X22689Y239177D01*
X22673Y239079D01*
X22649Y238984D01*
X22642Y238884D01*
X22639Y238863D01*
X22640Y238851D01*
X22638Y238823D01*
X22638Y216980D01*
X22656Y216842D01*
X22669Y216704D01*
X22676Y216685D01*
X22678Y216665D01*
X22729Y216535D01*
X22777Y216404D01*
X22788Y216388D01*
X22795Y216369D01*
X22877Y216257D01*
X22955Y216141D01*
X22970Y216128D01*
X22982Y216111D01*
X23089Y216023D01*
X23194Y215931D01*
X23212Y215922D01*
X23227Y215909D01*
X23353Y215849D01*
X23477Y215786D01*
X23497Y215782D01*
X23515Y215773D01*
X23651Y215747D01*
X23787Y215717D01*
X23807Y215717D01*
X23827Y215713D01*
X23966Y215722D01*
X24105Y215726D01*
X24125Y215732D01*
X24145Y215733D01*
X24277Y215776D01*
X24410Y215815D01*
X24428Y215825D01*
X24447Y215831D01*
X24565Y215906D01*
X24684Y215976D01*
X24705Y215995D01*
X24716Y216001D01*
X24730Y216016D01*
X24805Y216083D01*
X26202Y217480D01*
X28211Y219488D01*
X49117Y219488D01*
X49215Y219501D01*
X49314Y219504D01*
X49372Y219521D01*
X49432Y219528D01*
X49524Y219565D01*
X49619Y219592D01*
X49672Y219623D01*
X49728Y219645D01*
X49808Y219703D01*
X49893Y219754D01*
X49969Y219820D01*
X49985Y219832D01*
X49993Y219842D01*
X50014Y219860D01*
X61549Y231395D01*
X147351Y231395D01*
X147489Y231412D01*
X147628Y231425D01*
X147647Y231432D01*
X147667Y231435D01*
X147796Y231486D01*
X147927Y231533D01*
X147944Y231544D01*
X147962Y231552D01*
X148075Y231633D01*
X148190Y231711D01*
X148203Y231727D01*
X148220Y231738D01*
X148309Y231846D01*
X148400Y231950D01*
X148410Y231968D01*
X148423Y231983D01*
X148482Y232109D01*
X148545Y232233D01*
X148549Y232253D01*
X148558Y232271D01*
X148584Y232408D01*
X148615Y232543D01*
X148614Y232564D01*
X148618Y232583D01*
X148609Y232722D01*
X148605Y232861D01*
X148599Y232881D01*
X148598Y232901D01*
X148555Y233033D01*
X148517Y233167D01*
X148506Y233184D01*
X148500Y233203D01*
X148426Y233321D01*
X148355Y233441D01*
X148337Y233462D01*
X148330Y233472D01*
X148315Y233486D01*
X148249Y233561D01*
X146907Y234904D01*
X146828Y234964D01*
X146756Y235032D01*
X146703Y235061D01*
X146655Y235098D01*
X146564Y235138D01*
X146478Y235186D01*
X146419Y235201D01*
X146363Y235225D01*
X146266Y235240D01*
X146170Y235265D01*
X146070Y235271D01*
X146049Y235275D01*
X146037Y235273D01*
X146009Y235275D01*
X143162Y235275D01*
X142269Y236168D01*
X142269Y245174D01*
X142254Y245292D01*
X142247Y245410D01*
X142234Y245449D01*
X142229Y245489D01*
X142185Y245600D01*
X142149Y245713D01*
X142127Y245747D01*
X142112Y245785D01*
X142042Y245881D01*
X141979Y245982D01*
X141949Y246009D01*
X141925Y246042D01*
X141834Y246118D01*
X141747Y246200D01*
X141711Y246219D01*
X141680Y246245D01*
X141573Y246296D01*
X141468Y246353D01*
X141429Y246363D01*
X141393Y246380D01*
X141276Y246403D01*
X141160Y246433D01*
X141100Y246436D01*
X141080Y246440D01*
X141060Y246439D01*
X141000Y246443D01*
X139315Y246443D01*
X139217Y246430D01*
X139118Y246427D01*
X139060Y246411D01*
X138999Y246403D01*
X138907Y246366D01*
X138812Y246339D01*
X138760Y246308D01*
X138704Y246286D01*
X138624Y246228D01*
X138538Y246177D01*
X138479Y246125D01*
X134578Y246125D01*
X133202Y247502D01*
X132355Y248349D01*
X131825Y248878D01*
X131825Y252772D01*
X134578Y255525D01*
X138017Y255525D01*
X138135Y255540D01*
X138254Y255547D01*
X138293Y255560D01*
X138333Y255565D01*
X138444Y255608D01*
X138557Y255645D01*
X138591Y255667D01*
X138628Y255682D01*
X138725Y255751D01*
X138825Y255815D01*
X138853Y255845D01*
X138886Y255868D01*
X138962Y255960D01*
X139043Y256047D01*
X139063Y256082D01*
X139089Y256113D01*
X139139Y256221D01*
X139197Y256325D01*
X139207Y256365D01*
X139224Y256401D01*
X139247Y256518D01*
X139276Y256633D01*
X139280Y256693D01*
X139284Y256713D01*
X139283Y256734D01*
X139287Y256794D01*
X139287Y260714D01*
X147274Y268701D01*
X194833Y268701D01*
X198948Y264586D01*
X199042Y264513D01*
X199131Y264434D01*
X199167Y264416D01*
X199199Y264391D01*
X199309Y264343D01*
X199414Y264289D01*
X199454Y264280D01*
X199491Y264264D01*
X199609Y264246D01*
X199725Y264220D01*
X199765Y264221D01*
X199805Y264215D01*
X199924Y264226D01*
X200043Y264229D01*
X200081Y264241D01*
X200122Y264244D01*
X200234Y264285D01*
X200348Y264318D01*
X200383Y264338D01*
X200421Y264352D01*
X200519Y264419D01*
X200622Y264479D01*
X200667Y264519D01*
X200684Y264531D01*
X200698Y264546D01*
X200743Y264586D01*
X206923Y270766D01*
X209050Y272893D01*
X209135Y273002D01*
X209224Y273109D01*
X209232Y273128D01*
X209245Y273144D01*
X209300Y273272D01*
X209359Y273397D01*
X209363Y273417D01*
X209371Y273436D01*
X209393Y273573D01*
X209419Y273710D01*
X209418Y273730D01*
X209421Y273750D01*
X209408Y273889D01*
X209399Y274027D01*
X209393Y274046D01*
X209391Y274066D01*
X209344Y274198D01*
X209301Y274329D01*
X209290Y274347D01*
X209283Y274366D01*
X209205Y274481D01*
X209143Y274579D01*
X209143Y280101D01*
X213684Y280101D01*
X213684Y278210D01*
X213702Y278072D01*
X213715Y277934D01*
X213722Y277915D01*
X213724Y277895D01*
X213775Y277765D01*
X213823Y277635D01*
X213834Y277618D01*
X213841Y277599D01*
X213923Y277487D01*
X214001Y277371D01*
X214016Y277358D01*
X214028Y277342D01*
X214136Y277253D01*
X214240Y277161D01*
X214258Y277152D01*
X214273Y277139D01*
X214399Y277080D01*
X214523Y277016D01*
X214543Y277012D01*
X214561Y277003D01*
X214697Y276977D01*
X214833Y276947D01*
X214853Y276947D01*
X214873Y276944D01*
X215012Y276952D01*
X215151Y276956D01*
X215171Y276962D01*
X215191Y276963D01*
X215323Y277006D01*
X215456Y277045D01*
X215474Y277055D01*
X215493Y277061D01*
X215611Y277136D01*
X215730Y277206D01*
X215751Y277225D01*
X215762Y277232D01*
X215776Y277247D01*
X215851Y277313D01*
X217018Y278480D01*
X219809Y278480D01*
X219947Y278497D01*
X220086Y278510D01*
X220105Y278517D01*
X220125Y278520D01*
X220254Y278571D01*
X220385Y278618D01*
X220402Y278629D01*
X220421Y278637D01*
X220533Y278719D01*
X220648Y278797D01*
X220662Y278812D01*
X220678Y278824D01*
X220767Y278931D01*
X220859Y279035D01*
X220868Y279053D01*
X220881Y279069D01*
X220940Y279194D01*
X221003Y279318D01*
X221008Y279338D01*
X221016Y279356D01*
X221042Y279493D01*
X221073Y279629D01*
X221072Y279649D01*
X221076Y279669D01*
X221067Y279807D01*
X221063Y279946D01*
X221058Y279966D01*
X221056Y279986D01*
X221014Y280118D01*
X220975Y280252D01*
X220965Y280269D01*
X220958Y280289D01*
X220884Y280406D01*
X220813Y280526D01*
X220795Y280547D01*
X220788Y280557D01*
X220773Y280571D01*
X220707Y280647D01*
X219138Y282216D01*
X219138Y286109D01*
X221891Y288862D01*
X225784Y288862D01*
X226167Y288480D01*
X226250Y288415D01*
X226302Y288366D01*
X226319Y288357D01*
X226360Y288321D01*
X226391Y288306D01*
X226418Y288285D01*
X226532Y288235D01*
X226644Y288180D01*
X226678Y288172D01*
X226710Y288159D01*
X226833Y288139D01*
X226955Y288113D01*
X226990Y288114D01*
X227024Y288109D01*
X227148Y288120D01*
X227273Y288125D01*
X227322Y288137D01*
X227340Y288139D01*
X227361Y288146D01*
X227430Y288162D01*
X227816Y288278D01*
X227901Y288316D01*
X227989Y288345D01*
X228045Y288380D01*
X228106Y288407D01*
X228179Y288465D01*
X228258Y288515D01*
X228304Y288563D01*
X228356Y288604D01*
X228412Y288678D01*
X228476Y288746D01*
X228508Y288805D01*
X228548Y288858D01*
X228584Y288943D01*
X228629Y289025D01*
X228646Y289089D01*
X228672Y289151D01*
X228686Y289243D01*
X228709Y289333D01*
X228716Y289448D01*
X228719Y289465D01*
X228718Y289474D01*
X228719Y289493D01*
X228719Y290819D01*
X229612Y291712D01*
X241875Y291712D01*
X242387Y291201D01*
X242481Y291128D01*
X242570Y291049D01*
X242606Y291031D01*
X242638Y291006D01*
X242747Y290958D01*
X242853Y290904D01*
X242893Y290895D01*
X242930Y290879D01*
X243048Y290861D01*
X243164Y290835D01*
X243204Y290836D01*
X243244Y290830D01*
X243363Y290841D01*
X243482Y290844D01*
X243520Y290856D01*
X243561Y290859D01*
X243673Y290900D01*
X243787Y290933D01*
X243822Y290953D01*
X243860Y290967D01*
X243958Y291034D01*
X244061Y291094D01*
X244106Y291134D01*
X244123Y291146D01*
X244137Y291161D01*
X244182Y291201D01*
X244693Y291712D01*
X249134Y291712D01*
X249194Y291720D01*
X252398Y291720D01*
X252455Y291716D01*
X252476Y291713D01*
X252488Y291714D01*
X252516Y291712D01*
X252872Y291712D01*
X252970Y291725D01*
X253069Y291728D01*
X253127Y291744D01*
X253187Y291752D01*
X253279Y291788D01*
X253374Y291816D01*
X253427Y291847D01*
X253483Y291869D01*
X253563Y291927D01*
X253648Y291978D01*
X253724Y292044D01*
X253740Y292056D01*
X253748Y292065D01*
X253769Y292084D01*
X254165Y292480D01*
X254250Y292590D01*
X254339Y292697D01*
X254348Y292715D01*
X254360Y292731D01*
X254415Y292859D01*
X254475Y292985D01*
X254478Y293005D01*
X254486Y293023D01*
X254508Y293161D01*
X254534Y293297D01*
X254533Y293317D01*
X254536Y293337D01*
X254523Y293476D01*
X254515Y293614D01*
X254508Y293634D01*
X254507Y293654D01*
X254459Y293785D01*
X254417Y293917D01*
X254406Y293934D01*
X254399Y293953D01*
X254321Y294068D01*
X254246Y294186D01*
X254232Y294200D01*
X254220Y294216D01*
X254116Y294308D01*
X254015Y294404D01*
X253997Y294413D01*
X253982Y294427D01*
X253858Y294490D01*
X253736Y294557D01*
X253717Y294562D01*
X253699Y294571D01*
X253563Y294602D01*
X253428Y294637D01*
X253400Y294638D01*
X253388Y294641D01*
X253368Y294640D01*
X253324Y294643D01*
X253324Y299688D01*
X259127Y299688D01*
X259156Y299642D01*
X259186Y299614D01*
X259209Y299582D01*
X259301Y299506D01*
X259388Y299424D01*
X259423Y299405D01*
X259454Y299379D01*
X259562Y299328D01*
X259666Y299271D01*
X259706Y299261D01*
X259742Y299243D01*
X259859Y299221D01*
X259974Y299191D01*
X260034Y299187D01*
X260054Y299184D01*
X260075Y299185D01*
X260135Y299181D01*
X263884Y299181D01*
X266637Y296428D01*
X266637Y292535D01*
X263884Y289782D01*
X259897Y289782D01*
X259799Y289769D01*
X259700Y289766D01*
X259642Y289749D01*
X259582Y289742D01*
X259489Y289705D01*
X259394Y289678D01*
X259342Y289647D01*
X259286Y289625D01*
X259206Y289567D01*
X259120Y289516D01*
X259045Y289450D01*
X259029Y289438D01*
X259021Y289428D01*
X259000Y289410D01*
X258221Y288632D01*
X258161Y288553D01*
X258093Y288481D01*
X258064Y288428D01*
X258027Y288380D01*
X257987Y288289D01*
X257939Y288203D01*
X257924Y288144D01*
X257900Y288089D01*
X257885Y287991D01*
X257860Y287895D01*
X257854Y287795D01*
X257850Y287774D01*
X257852Y287762D01*
X257850Y287734D01*
X257850Y279556D01*
X256902Y278608D01*
X256788Y278562D01*
X256647Y278506D01*
X256641Y278501D01*
X256634Y278499D01*
X256513Y278409D01*
X256390Y278319D01*
X256385Y278313D01*
X256379Y278309D01*
X256284Y278192D01*
X256187Y278074D01*
X256184Y278067D01*
X256179Y278061D01*
X256116Y277923D01*
X256051Y277786D01*
X256050Y277779D01*
X256047Y277772D01*
X256020Y277622D01*
X255992Y277474D01*
X255992Y277467D01*
X255991Y277459D01*
X256002Y277306D01*
X256011Y277157D01*
X256014Y277150D01*
X256014Y277142D01*
X256063Y276998D01*
X256109Y276854D01*
X256113Y276848D01*
X256116Y276841D01*
X256199Y276713D01*
X256279Y276585D01*
X256285Y276580D01*
X256289Y276574D01*
X256401Y276458D01*
X259789Y273352D01*
X259847Y273311D01*
X259899Y273262D01*
X259976Y273219D01*
X260048Y273168D01*
X260115Y273143D01*
X260178Y273108D01*
X260263Y273086D01*
X260345Y273055D01*
X260416Y273047D01*
X260486Y273029D01*
X260646Y273018D01*
X266675Y273018D01*
X267568Y272125D01*
X267568Y262636D01*
X267547Y262504D01*
X267521Y262367D01*
X267523Y262347D01*
X267519Y262327D01*
X267532Y262189D01*
X267541Y262050D01*
X267547Y262031D01*
X267549Y262011D01*
X267596Y261879D01*
X267639Y261747D01*
X267650Y261730D01*
X267657Y261711D01*
X267735Y261596D01*
X267809Y261479D01*
X267824Y261465D01*
X267835Y261448D01*
X267940Y261356D01*
X268041Y261261D01*
X268058Y261251D01*
X268073Y261238D01*
X268198Y261174D01*
X268319Y261107D01*
X268339Y261102D01*
X268357Y261093D01*
X268493Y261062D01*
X268627Y261028D01*
X268655Y261026D01*
X268667Y261023D01*
X268687Y261024D01*
X268788Y261017D01*
X283044Y261017D01*
X309660Y234402D01*
X311523Y232539D01*
X311632Y232454D01*
X311739Y232365D01*
X311758Y232357D01*
X311774Y232344D01*
X311902Y232289D01*
X312027Y232230D01*
X312047Y232226D01*
X312066Y232218D01*
X312204Y232196D01*
X312340Y232170D01*
X312360Y232171D01*
X312380Y232168D01*
X312519Y232181D01*
X312657Y232190D01*
X312676Y232196D01*
X312696Y232198D01*
X312828Y232245D01*
X312959Y232288D01*
X312977Y232298D01*
X312996Y232305D01*
X313111Y232383D01*
X313228Y232458D01*
X313242Y232473D01*
X313259Y232484D01*
X313351Y232588D01*
X313446Y232689D01*
X313456Y232707D01*
X313469Y232722D01*
X313533Y232846D01*
X313600Y232968D01*
X313605Y232987D01*
X313614Y233006D01*
X313644Y233141D01*
X313679Y233276D01*
X313681Y233304D01*
X313684Y233316D01*
X313683Y233336D01*
X313689Y233437D01*
X313689Y301992D01*
X313679Y302071D01*
X313679Y302151D01*
X313659Y302228D01*
X313649Y302307D01*
X313637Y302339D01*
X313689Y304045D01*
X313688Y304056D01*
X313689Y304083D01*
X313689Y304194D01*
X313687Y304215D01*
X313686Y304281D01*
X313582Y305815D01*
X313562Y305920D01*
X313550Y306025D01*
X313525Y306106D01*
X313521Y306127D01*
X313514Y306142D01*
X313502Y306179D01*
X312393Y309106D01*
X312388Y309114D01*
X312386Y309123D01*
X312314Y309255D01*
X312244Y309387D01*
X312237Y309394D01*
X312233Y309402D01*
X312130Y309526D01*
X309985Y311806D01*
X309978Y311812D01*
X309972Y311819D01*
X309856Y311912D01*
X309739Y312008D01*
X309731Y312012D01*
X309724Y312018D01*
X309581Y312093D01*
X306727Y313378D01*
X306626Y313409D01*
X306527Y313449D01*
X306444Y313465D01*
X306423Y313471D01*
X306407Y313472D01*
X306369Y313480D01*
X304827Y313679D01*
X304826Y313679D01*
X304825Y313679D01*
X304664Y313689D01*
X12700Y313689D01*
X12680Y313687D01*
X12576Y313683D01*
X11089Y313537D01*
X10985Y313513D01*
X10880Y313498D01*
X10800Y313471D01*
X10779Y313466D01*
X10765Y313459D01*
X10728Y313446D01*
X7981Y312308D01*
X7973Y312304D01*
X7964Y312301D01*
X7834Y312225D01*
X7705Y312151D01*
X7698Y312144D01*
X7690Y312140D01*
X7569Y312033D01*
X5467Y309931D01*
X5461Y309924D01*
X5454Y309918D01*
X5364Y309798D01*
X5272Y309680D01*
X5268Y309671D01*
X5262Y309664D01*
X5192Y309519D01*
X4054Y306772D01*
X4026Y306670D01*
X3989Y306570D01*
X3976Y306487D01*
X3970Y306466D01*
X3970Y306450D01*
X3963Y306411D01*
X3817Y304924D01*
X3817Y304905D01*
X3811Y304800D01*
X3811Y125853D01*
X3828Y125715D01*
X3841Y125576D01*
X3848Y125557D01*
X3851Y125537D01*
X3902Y125408D01*
X3949Y125277D01*
X3960Y125260D01*
X3968Y125241D01*
X4049Y125129D01*
X4127Y125014D01*
X4143Y125000D01*
X4154Y124984D01*
X4262Y124895D01*
X4366Y124803D01*
X4384Y124794D01*
X4399Y124781D01*
X4525Y124722D01*
X4649Y124659D01*
X4669Y124654D01*
X4687Y124646D01*
X4824Y124620D01*
X4959Y124589D01*
X4980Y124590D01*
X4999Y124586D01*
X5138Y124594D01*
X5277Y124599D01*
X5297Y124604D01*
X5317Y124606D01*
X5449Y124648D01*
X5583Y124687D01*
X5600Y124697D01*
X5619Y124704D01*
X5737Y124778D01*
X5857Y124849D01*
X5878Y124867D01*
X5888Y124874D01*
X5902Y124889D01*
X5977Y124955D01*
X7044Y126021D01*
X10405Y127413D01*
X29283Y127413D01*
X32644Y126021D01*
X35074Y123591D01*
X35152Y123531D01*
X35224Y123463D01*
X35277Y123434D01*
X35325Y123397D01*
X35416Y123357D01*
X35502Y123309D01*
X35561Y123294D01*
X35617Y123270D01*
X35715Y123255D01*
X35810Y123230D01*
X35910Y123224D01*
X35931Y123220D01*
X35943Y123222D01*
X35971Y123220D01*
X80106Y123220D01*
X80224Y123235D01*
X80343Y123242D01*
X80381Y123255D01*
X80422Y123260D01*
X80532Y123303D01*
X80645Y123340D01*
X80680Y123362D01*
X80717Y123377D01*
X80813Y123446D01*
X80914Y123510D01*
X80942Y123540D01*
X80975Y123563D01*
X81051Y123655D01*
X81132Y123742D01*
X81152Y123777D01*
X81177Y123808D01*
X81228Y123916D01*
X81286Y124020D01*
X81296Y124060D01*
X81313Y124096D01*
X81335Y124213D01*
X81365Y124328D01*
X81369Y124388D01*
X81373Y124408D01*
X81371Y124429D01*
X81375Y124489D01*
X81375Y128057D01*
X82268Y128950D01*
X95532Y128950D01*
X96425Y128057D01*
X96425Y124489D01*
X96440Y124371D01*
X96447Y124252D01*
X96460Y124214D01*
X96465Y124173D01*
X96508Y124063D01*
X96545Y123950D01*
X96567Y123915D01*
X96582Y123878D01*
X96651Y123782D01*
X96715Y123681D01*
X96745Y123653D01*
X96768Y123620D01*
X96860Y123544D01*
X96947Y123463D01*
X96982Y123443D01*
X97013Y123418D01*
X97121Y123367D01*
X97225Y123309D01*
X97265Y123299D01*
X97301Y123282D01*
X97418Y123260D01*
X97533Y123230D01*
X97593Y123226D01*
X97613Y123222D01*
X97634Y123224D01*
X97694Y123220D01*
X131442Y123220D01*
X131540Y123232D01*
X131639Y123235D01*
X131697Y123252D01*
X131757Y123260D01*
X131849Y123296D01*
X131944Y123324D01*
X131997Y123354D01*
X132053Y123377D01*
X132133Y123435D01*
X132218Y123485D01*
X132294Y123551D01*
X132310Y123563D01*
X132318Y123573D01*
X132339Y123591D01*
X134629Y125881D01*
X134689Y125959D01*
X134757Y126031D01*
X134786Y126084D01*
X134823Y126132D01*
X134863Y126223D01*
X134911Y126310D01*
X134926Y126368D01*
X134950Y126424D01*
X134965Y126522D01*
X134990Y126618D01*
X134996Y126718D01*
X135000Y126738D01*
X134998Y126750D01*
X135000Y126778D01*
X135000Y128947D01*
X137753Y131700D01*
X141647Y131700D01*
X144400Y128947D01*
X144400Y125053D01*
X141647Y122300D01*
X139478Y122300D01*
X139380Y122288D01*
X139281Y122285D01*
X139223Y122268D01*
X139163Y122260D01*
X139071Y122224D01*
X138976Y122196D01*
X138923Y122166D01*
X138867Y122143D01*
X138787Y122085D01*
X138702Y122035D01*
X138626Y121969D01*
X138610Y121957D01*
X138602Y121947D01*
X138581Y121929D01*
X134283Y117630D01*
X97694Y117630D01*
X97576Y117615D01*
X97457Y117608D01*
X97419Y117595D01*
X97378Y117590D01*
X97268Y117547D01*
X97155Y117510D01*
X97120Y117488D01*
X97083Y117473D01*
X96987Y117404D01*
X96886Y117340D01*
X96858Y117310D01*
X96825Y117287D01*
X96749Y117195D01*
X96668Y117108D01*
X96648Y117073D01*
X96623Y117042D01*
X96572Y116934D01*
X96514Y116830D01*
X96504Y116790D01*
X96487Y116754D01*
X96465Y116637D01*
X96435Y116522D01*
X96431Y116462D01*
X96427Y116442D01*
X96429Y116421D01*
X96425Y116361D01*
X96425Y112793D01*
X95532Y111900D01*
X82268Y111900D01*
X81375Y112793D01*
X81375Y116361D01*
X81360Y116479D01*
X81353Y116598D01*
X81340Y116636D01*
X81335Y116677D01*
X81292Y116787D01*
X81255Y116900D01*
X81233Y116935D01*
X81218Y116972D01*
X81149Y117068D01*
X81085Y117169D01*
X81055Y117197D01*
X81032Y117230D01*
X80940Y117306D01*
X80853Y117387D01*
X80818Y117407D01*
X80787Y117432D01*
X80679Y117483D01*
X80575Y117541D01*
X80535Y117551D01*
X80499Y117568D01*
X80382Y117590D01*
X80267Y117620D01*
X80207Y117624D01*
X80187Y117628D01*
X80166Y117626D01*
X80106Y117630D01*
X37878Y117630D01*
X37760Y117615D01*
X37641Y117608D01*
X37602Y117595D01*
X37562Y117590D01*
X37451Y117547D01*
X37338Y117510D01*
X37304Y117488D01*
X37267Y117473D01*
X37170Y117404D01*
X37070Y117340D01*
X37042Y117310D01*
X37009Y117287D01*
X36933Y117195D01*
X36852Y117108D01*
X36832Y117073D01*
X36806Y117042D01*
X36756Y116934D01*
X36698Y116830D01*
X36688Y116790D01*
X36671Y116754D01*
X36648Y116637D01*
X36619Y116522D01*
X36615Y116466D01*
X35216Y113089D01*
X32644Y110516D01*
X29283Y109124D01*
X10405Y109124D01*
X7044Y110516D01*
X5977Y111582D01*
X5868Y111667D01*
X5761Y111756D01*
X5742Y111765D01*
X5726Y111777D01*
X5599Y111833D01*
X5473Y111892D01*
X5453Y111896D01*
X5434Y111904D01*
X5296Y111926D01*
X5160Y111952D01*
X5140Y111950D01*
X5120Y111954D01*
X4981Y111940D01*
X4843Y111932D01*
X4824Y111926D01*
X4804Y111924D01*
X4672Y111877D01*
X4541Y111834D01*
X4523Y111823D01*
X4504Y111816D01*
X4389Y111738D01*
X4272Y111664D01*
X4258Y111649D01*
X4241Y111638D01*
X4149Y111534D01*
X4054Y111432D01*
X4044Y111414D01*
X4031Y111399D01*
X3968Y111275D01*
X3900Y111154D01*
X3895Y111134D01*
X3886Y111116D01*
X3856Y110980D01*
X3821Y110846D01*
X3819Y110818D01*
X3816Y110806D01*
X3817Y110785D01*
X3811Y110685D01*
X3811Y100453D01*
X3828Y100315D01*
X3841Y100176D01*
X3848Y100157D01*
X3851Y100137D01*
X3902Y100008D01*
X3949Y99877D01*
X3960Y99860D01*
X3968Y99841D01*
X4049Y99729D01*
X4127Y99614D01*
X4143Y99600D01*
X4154Y99584D01*
X4262Y99495D01*
X4366Y99403D01*
X4384Y99394D01*
X4399Y99381D01*
X4525Y99322D01*
X4649Y99259D01*
X4669Y99254D01*
X4687Y99246D01*
X4824Y99220D01*
X4959Y99189D01*
X4980Y99190D01*
X4999Y99186D01*
X5138Y99194D01*
X5277Y99199D01*
X5297Y99204D01*
X5317Y99206D01*
X5449Y99248D01*
X5583Y99287D01*
X5600Y99297D01*
X5619Y99304D01*
X5737Y99378D01*
X5857Y99449D01*
X5878Y99467D01*
X5888Y99474D01*
X5902Y99489D01*
X5977Y99555D01*
X7044Y100621D01*
X10405Y102013D01*
X29283Y102013D01*
X32644Y100621D01*
X35216Y98049D01*
X36608Y94688D01*
X36608Y91050D01*
X35216Y87689D01*
X33581Y86054D01*
X33488Y85933D01*
X33394Y85815D01*
X33391Y85808D01*
X33386Y85802D01*
X33326Y85663D01*
X33264Y85524D01*
X33263Y85517D01*
X33260Y85511D01*
X33236Y85359D01*
X33211Y85211D01*
X33211Y85204D01*
X33210Y85196D01*
X33225Y85043D01*
X33237Y84894D01*
X33239Y84887D01*
X33240Y84880D01*
X33291Y84736D01*
X33341Y84593D01*
X33345Y84587D01*
X33348Y84581D01*
X33433Y84454D01*
X33517Y84328D01*
X33523Y84321D01*
X33526Y84317D01*
X33535Y84310D01*
X33629Y84213D01*
X38811Y79546D01*
X38865Y79508D01*
X38913Y79463D01*
X38995Y79418D01*
X39072Y79364D01*
X39134Y79341D01*
X39192Y79309D01*
X39282Y79286D01*
X39370Y79253D01*
X39436Y79246D01*
X39500Y79230D01*
X39660Y79220D01*
X55106Y79220D01*
X55224Y79235D01*
X55343Y79242D01*
X55381Y79255D01*
X55422Y79260D01*
X55532Y79303D01*
X55645Y79340D01*
X55680Y79362D01*
X55717Y79377D01*
X55813Y79446D01*
X55914Y79510D01*
X55942Y79540D01*
X55975Y79563D01*
X56051Y79655D01*
X56132Y79742D01*
X56152Y79777D01*
X56177Y79808D01*
X56228Y79916D01*
X56286Y80020D01*
X56296Y80060D01*
X56313Y80096D01*
X56335Y80213D01*
X56365Y80328D01*
X56369Y80388D01*
X56373Y80408D01*
X56371Y80429D01*
X56375Y80489D01*
X56375Y84057D01*
X57268Y84950D01*
X70532Y84950D01*
X71425Y84057D01*
X71425Y80489D01*
X71440Y80371D01*
X71447Y80252D01*
X71460Y80214D01*
X71465Y80173D01*
X71508Y80063D01*
X71545Y79950D01*
X71567Y79915D01*
X71582Y79878D01*
X71651Y79782D01*
X71715Y79681D01*
X71745Y79653D01*
X71768Y79620D01*
X71860Y79544D01*
X71947Y79463D01*
X71982Y79443D01*
X72013Y79418D01*
X72121Y79367D01*
X72225Y79309D01*
X72265Y79299D01*
X72301Y79282D01*
X72418Y79260D01*
X72533Y79230D01*
X72593Y79226D01*
X72613Y79222D01*
X72634Y79224D01*
X72694Y79220D01*
X96183Y79220D01*
X102386Y73016D01*
X104209Y71194D01*
X104318Y71109D01*
X104425Y71020D01*
X104444Y71011D01*
X104460Y70999D01*
X104588Y70943D01*
X104713Y70884D01*
X104733Y70881D01*
X104752Y70873D01*
X104890Y70851D01*
X105026Y70825D01*
X105046Y70826D01*
X105066Y70823D01*
X105205Y70836D01*
X105343Y70844D01*
X105362Y70851D01*
X105382Y70852D01*
X105514Y70900D01*
X105645Y70942D01*
X105663Y70953D01*
X105682Y70960D01*
X105797Y71038D01*
X105914Y71113D01*
X105928Y71127D01*
X105945Y71139D01*
X106037Y71243D01*
X106132Y71344D01*
X106142Y71362D01*
X106155Y71377D01*
X106219Y71501D01*
X106286Y71623D01*
X106291Y71642D01*
X106300Y71660D01*
X106330Y71796D01*
X106365Y71931D01*
X106367Y71959D01*
X106370Y71971D01*
X106369Y71991D01*
X106375Y72091D01*
X106375Y84057D01*
X107268Y84950D01*
X120532Y84950D01*
X121425Y84057D01*
X121425Y78177D01*
X121442Y78039D01*
X121455Y77900D01*
X121462Y77881D01*
X121465Y77861D01*
X121516Y77731D01*
X121563Y77601D01*
X121574Y77584D01*
X121582Y77565D01*
X121663Y77453D01*
X121741Y77338D01*
X121757Y77324D01*
X121768Y77308D01*
X121876Y77219D01*
X121980Y77127D01*
X121998Y77118D01*
X122013Y77105D01*
X122139Y77046D01*
X122263Y76983D01*
X122283Y76978D01*
X122301Y76970D01*
X122438Y76944D01*
X122573Y76913D01*
X122594Y76914D01*
X122613Y76910D01*
X122752Y76918D01*
X122891Y76923D01*
X122911Y76928D01*
X122931Y76930D01*
X123063Y76972D01*
X123197Y77011D01*
X123214Y77021D01*
X123233Y77028D01*
X123351Y77102D01*
X123471Y77173D01*
X123492Y77191D01*
X123502Y77198D01*
X123516Y77213D01*
X123591Y77279D01*
X123981Y77668D01*
X135244Y77668D01*
X136137Y76775D01*
X136137Y64440D01*
X136102Y64359D01*
X136048Y64253D01*
X136039Y64213D01*
X136023Y64176D01*
X136004Y64058D01*
X135978Y63942D01*
X135979Y63902D01*
X135973Y63862D01*
X135984Y63744D01*
X135988Y63624D01*
X135999Y63585D01*
X136003Y63545D01*
X136043Y63433D01*
X136076Y63319D01*
X136097Y63284D01*
X136110Y63246D01*
X136177Y63147D01*
X136238Y63045D01*
X136277Y63000D01*
X136289Y62983D01*
X136304Y62969D01*
X136344Y62924D01*
X136646Y62622D01*
X136980Y62043D01*
X137153Y61397D01*
X137153Y58062D01*
X130843Y58062D01*
X130724Y58047D01*
X130606Y58039D01*
X130567Y58027D01*
X130527Y58022D01*
X130416Y57978D01*
X130303Y57941D01*
X130269Y57920D01*
X130231Y57905D01*
X130135Y57835D01*
X130035Y57771D01*
X130007Y57742D01*
X129974Y57718D01*
X129898Y57626D01*
X129817Y57540D01*
X129797Y57504D01*
X129771Y57473D01*
X129721Y57365D01*
X129663Y57261D01*
X129653Y57222D01*
X129636Y57185D01*
X129615Y57079D01*
X129612Y57108D01*
X129568Y57219D01*
X129531Y57332D01*
X129510Y57366D01*
X129495Y57404D01*
X129425Y57500D01*
X129361Y57601D01*
X129332Y57628D01*
X129308Y57661D01*
X129216Y57737D01*
X129129Y57819D01*
X129094Y57838D01*
X129063Y57864D01*
X128955Y57915D01*
X128851Y57972D01*
X128812Y57982D01*
X128775Y57999D01*
X128658Y58022D01*
X128543Y58052D01*
X128483Y58055D01*
X128463Y58059D01*
X128442Y58058D01*
X128382Y58062D01*
X122072Y58062D01*
X122072Y59436D01*
X122057Y59554D01*
X122049Y59673D01*
X122037Y59711D01*
X122032Y59752D01*
X121988Y59862D01*
X121951Y59975D01*
X121930Y60010D01*
X121915Y60047D01*
X121845Y60143D01*
X121781Y60244D01*
X121752Y60272D01*
X121728Y60305D01*
X121636Y60381D01*
X121550Y60462D01*
X121514Y60482D01*
X121483Y60507D01*
X121375Y60558D01*
X121271Y60616D01*
X121232Y60626D01*
X121195Y60643D01*
X121079Y60665D01*
X120963Y60695D01*
X120903Y60699D01*
X120883Y60703D01*
X120863Y60701D01*
X120803Y60705D01*
X105664Y60705D01*
X105546Y60690D01*
X105427Y60683D01*
X105389Y60670D01*
X105348Y60665D01*
X105238Y60622D01*
X105125Y60585D01*
X105090Y60563D01*
X105053Y60548D01*
X104957Y60479D01*
X104856Y60415D01*
X104828Y60385D01*
X104795Y60362D01*
X104719Y60270D01*
X104638Y60183D01*
X104618Y60148D01*
X104593Y60117D01*
X104542Y60009D01*
X104484Y59905D01*
X104474Y59865D01*
X104457Y59829D01*
X104435Y59712D01*
X104405Y59597D01*
X104401Y59537D01*
X104397Y59517D01*
X104399Y59496D01*
X104395Y59436D01*
X104395Y39783D01*
X104407Y39685D01*
X104410Y39586D01*
X104427Y39528D01*
X104435Y39468D01*
X104471Y39376D01*
X104499Y39281D01*
X104529Y39228D01*
X104552Y39172D01*
X104610Y39092D01*
X104660Y39007D01*
X104726Y38931D01*
X104738Y38915D01*
X104748Y38907D01*
X104766Y38886D01*
X115086Y28566D01*
X115164Y28506D01*
X115236Y28438D01*
X115289Y28409D01*
X115337Y28372D01*
X115428Y28332D01*
X115515Y28284D01*
X115573Y28269D01*
X115629Y28245D01*
X115727Y28230D01*
X115823Y28205D01*
X115923Y28199D01*
X115943Y28195D01*
X115955Y28197D01*
X115983Y28195D01*
X121819Y28195D01*
X121937Y28210D01*
X122055Y28217D01*
X122094Y28230D01*
X122134Y28235D01*
X122245Y28278D01*
X122358Y28315D01*
X122392Y28337D01*
X122430Y28352D01*
X122526Y28421D01*
X122627Y28485D01*
X122654Y28515D01*
X122687Y28538D01*
X122763Y28630D01*
X122845Y28717D01*
X122864Y28752D01*
X122890Y28783D01*
X122941Y28891D01*
X122998Y28995D01*
X123008Y29035D01*
X123025Y29071D01*
X123048Y29188D01*
X123078Y29303D01*
X123081Y29363D01*
X123085Y29383D01*
X123084Y29404D01*
X123088Y29464D01*
X123088Y31604D01*
X123123Y31685D01*
X123177Y31791D01*
X123186Y31831D01*
X123202Y31868D01*
X123221Y31985D01*
X123247Y32102D01*
X123246Y32142D01*
X123252Y32182D01*
X123241Y32300D01*
X123237Y32419D01*
X123226Y32458D01*
X123222Y32498D01*
X123182Y32611D01*
X123149Y32725D01*
X123128Y32760D01*
X123115Y32798D01*
X123048Y32896D01*
X122987Y32999D01*
X122948Y33044D01*
X122936Y33061D01*
X122921Y33074D01*
X122881Y33120D01*
X122579Y33421D01*
X122245Y34000D01*
X122072Y34647D01*
X122072Y37982D01*
X128382Y37982D01*
X128501Y37997D01*
X128619Y38004D01*
X128658Y38017D01*
X128698Y38022D01*
X128809Y38066D01*
X128922Y38102D01*
X128956Y38124D01*
X128994Y38139D01*
X129090Y38209D01*
X129190Y38272D01*
X129218Y38302D01*
X129251Y38326D01*
X129327Y38417D01*
X129408Y38504D01*
X129428Y38539D01*
X129454Y38571D01*
X129504Y38678D01*
X129562Y38783D01*
X129572Y38822D01*
X129589Y38858D01*
X129610Y38965D01*
X129613Y38936D01*
X129657Y38825D01*
X129694Y38712D01*
X129715Y38678D01*
X129730Y38640D01*
X129800Y38544D01*
X129864Y38443D01*
X129893Y38415D01*
X129917Y38383D01*
X130009Y38307D01*
X130096Y38225D01*
X130131Y38206D01*
X130162Y38180D01*
X130270Y38129D01*
X130374Y38072D01*
X130413Y38062D01*
X130450Y38044D01*
X130567Y38022D01*
X130682Y37992D01*
X130742Y37988D01*
X130762Y37985D01*
X130783Y37986D01*
X130843Y37982D01*
X137153Y37982D01*
X137153Y34647D01*
X136980Y34000D01*
X136646Y33421D01*
X136344Y33120D01*
X136271Y33025D01*
X136192Y32936D01*
X136174Y32900D01*
X136149Y32868D01*
X136102Y32759D01*
X136048Y32653D01*
X136039Y32614D01*
X136023Y32577D01*
X136004Y32459D01*
X135978Y32343D01*
X135979Y32303D01*
X135973Y32262D01*
X135984Y32144D01*
X135988Y32025D01*
X135999Y31986D01*
X136003Y31946D01*
X136043Y31834D01*
X136076Y31719D01*
X136097Y31685D01*
X136110Y31647D01*
X136137Y31607D01*
X136137Y20741D01*
X136150Y20643D01*
X136153Y20544D01*
X136169Y20485D01*
X136177Y20425D01*
X136214Y20333D01*
X136241Y20238D01*
X136272Y20186D01*
X136294Y20130D01*
X136352Y20050D01*
X136403Y19964D01*
X136469Y19889D01*
X136481Y19872D01*
X136490Y19865D01*
X136509Y19843D01*
X137921Y18431D01*
X138031Y18346D01*
X138138Y18257D01*
X138156Y18249D01*
X138172Y18236D01*
X138300Y18181D01*
X138426Y18122D01*
X138445Y18118D01*
X138464Y18110D01*
X138602Y18088D01*
X138738Y18062D01*
X138758Y18063D01*
X138778Y18060D01*
X138917Y18073D01*
G37*
G36*
X302869Y3821D02*
X302869Y3821D01*
X302948Y3820D01*
X303026Y3840D01*
X303107Y3851D01*
X303146Y3866D01*
X304841Y3811D01*
X304853Y3813D01*
X304882Y3811D01*
X305004Y3811D01*
X305025Y3813D01*
X305088Y3813D01*
X306462Y3904D01*
X306566Y3924D01*
X306672Y3936D01*
X306752Y3961D01*
X306774Y3965D01*
X306788Y3972D01*
X306826Y3983D01*
X309465Y4978D01*
X309473Y4982D01*
X309482Y4985D01*
X309614Y5056D01*
X309746Y5126D01*
X309753Y5133D01*
X309761Y5137D01*
X309886Y5240D01*
X311943Y7169D01*
X311949Y7176D01*
X311957Y7182D01*
X312051Y7298D01*
X312146Y7414D01*
X312150Y7422D01*
X312156Y7429D01*
X312232Y7572D01*
X313395Y10142D01*
X313426Y10243D01*
X313466Y10342D01*
X313482Y10425D01*
X313488Y10445D01*
X313489Y10461D01*
X313497Y10500D01*
X313678Y11885D01*
X313678Y11887D01*
X313679Y11889D01*
X313689Y12050D01*
X313689Y76106D01*
X313674Y76224D01*
X313667Y76343D01*
X313654Y76381D01*
X313649Y76422D01*
X313606Y76532D01*
X313569Y76645D01*
X313547Y76680D01*
X313532Y76717D01*
X313463Y76813D01*
X313399Y76914D01*
X313369Y76942D01*
X313346Y76975D01*
X313254Y77051D01*
X313167Y77132D01*
X313132Y77152D01*
X313101Y77177D01*
X312993Y77228D01*
X312889Y77286D01*
X312849Y77296D01*
X312813Y77313D01*
X312696Y77335D01*
X312581Y77365D01*
X312521Y77369D01*
X312501Y77373D01*
X312480Y77371D01*
X312420Y77375D01*
X296381Y77375D01*
X295488Y78268D01*
X295488Y84836D01*
X295473Y84954D01*
X295465Y85073D01*
X295453Y85111D01*
X295448Y85152D01*
X295404Y85262D01*
X295367Y85375D01*
X295346Y85410D01*
X295331Y85447D01*
X295261Y85543D01*
X295197Y85644D01*
X295168Y85672D01*
X295144Y85705D01*
X295052Y85781D01*
X294966Y85862D01*
X294930Y85882D01*
X294899Y85907D01*
X294791Y85958D01*
X294687Y86016D01*
X294648Y86026D01*
X294611Y86043D01*
X294495Y86065D01*
X294379Y86095D01*
X294319Y86099D01*
X294299Y86103D01*
X294279Y86101D01*
X294219Y86105D01*
X287294Y86105D01*
X287163Y86089D01*
X287031Y86078D01*
X287005Y86069D01*
X286979Y86065D01*
X286856Y86017D01*
X286730Y85973D01*
X286708Y85958D01*
X286683Y85948D01*
X286576Y85871D01*
X286465Y85797D01*
X286447Y85777D01*
X286426Y85762D01*
X286341Y85659D01*
X286252Y85561D01*
X286240Y85537D01*
X286223Y85517D01*
X286166Y85397D01*
X286105Y85280D01*
X286099Y85253D01*
X286087Y85229D01*
X286062Y85099D01*
X286032Y84970D01*
X286032Y84943D01*
X286027Y84917D01*
X286036Y84785D01*
X286038Y84652D01*
X286045Y84626D01*
X286047Y84599D01*
X286088Y84473D01*
X286123Y84346D01*
X286140Y84311D01*
X286145Y84297D01*
X286157Y84278D01*
X286195Y84201D01*
X286380Y83881D01*
X286553Y83234D01*
X286553Y78939D01*
X277283Y78939D01*
X277164Y78924D01*
X277046Y78917D01*
X277007Y78904D01*
X276967Y78899D01*
X276856Y78855D01*
X276743Y78819D01*
X276709Y78797D01*
X276671Y78782D01*
X276575Y78712D01*
X276474Y78649D01*
X276447Y78619D01*
X276414Y78595D01*
X276338Y78504D01*
X276257Y78417D01*
X276237Y78382D01*
X276211Y78350D01*
X276161Y78243D01*
X276103Y78139D01*
X276093Y78099D01*
X276076Y78063D01*
X276053Y77946D01*
X276024Y77831D01*
X276020Y77770D01*
X276016Y77750D01*
X276017Y77730D01*
X276013Y77670D01*
X276013Y76399D01*
X276012Y76399D01*
X276012Y77670D01*
X275997Y77788D01*
X275989Y77907D01*
X275977Y77945D01*
X275972Y77985D01*
X275928Y78096D01*
X275891Y78209D01*
X275870Y78244D01*
X275855Y78281D01*
X275785Y78377D01*
X275721Y78478D01*
X275692Y78506D01*
X275668Y78538D01*
X275576Y78614D01*
X275490Y78696D01*
X275454Y78715D01*
X275423Y78741D01*
X275315Y78792D01*
X275211Y78849D01*
X275172Y78860D01*
X275135Y78877D01*
X275018Y78899D01*
X274903Y78929D01*
X274843Y78933D01*
X274823Y78937D01*
X274803Y78935D01*
X274742Y78939D01*
X265472Y78939D01*
X265472Y83234D01*
X265645Y83881D01*
X265830Y84201D01*
X265881Y84324D01*
X265938Y84443D01*
X265943Y84470D01*
X265953Y84495D01*
X265973Y84626D01*
X265998Y84756D01*
X265996Y84782D01*
X266000Y84809D01*
X265986Y84941D01*
X265978Y85073D01*
X265970Y85099D01*
X265967Y85125D01*
X265921Y85250D01*
X265880Y85375D01*
X265865Y85398D01*
X265856Y85424D01*
X265780Y85533D01*
X265710Y85644D01*
X265690Y85663D01*
X265675Y85685D01*
X265574Y85771D01*
X265478Y85862D01*
X265454Y85875D01*
X265434Y85893D01*
X265315Y85952D01*
X265200Y86016D01*
X265173Y86022D01*
X265149Y86034D01*
X265019Y86062D01*
X264892Y86095D01*
X264854Y86097D01*
X264838Y86101D01*
X264816Y86100D01*
X264731Y86105D01*
X257358Y86105D01*
X257260Y86093D01*
X257161Y86090D01*
X257103Y86073D01*
X257043Y86065D01*
X256951Y86029D01*
X256856Y86001D01*
X256803Y85971D01*
X256747Y85948D01*
X256667Y85890D01*
X256582Y85840D01*
X256506Y85774D01*
X256490Y85762D01*
X256482Y85752D01*
X256461Y85734D01*
X251096Y80369D01*
X251036Y80291D01*
X250968Y80219D01*
X250939Y80166D01*
X250902Y80118D01*
X250862Y80027D01*
X250814Y79940D01*
X250799Y79882D01*
X250775Y79826D01*
X250760Y79728D01*
X250735Y79632D01*
X250729Y79532D01*
X250725Y79512D01*
X250727Y79500D01*
X250725Y79472D01*
X250725Y68793D01*
X249832Y67900D01*
X236568Y67900D01*
X235675Y68793D01*
X235675Y84057D01*
X236568Y84950D01*
X247247Y84950D01*
X247345Y84962D01*
X247444Y84965D01*
X247502Y84982D01*
X247562Y84990D01*
X247654Y85026D01*
X247749Y85054D01*
X247802Y85084D01*
X247858Y85107D01*
X247938Y85165D01*
X248023Y85215D01*
X248099Y85281D01*
X248115Y85293D01*
X248123Y85303D01*
X248144Y85321D01*
X254517Y91695D01*
X265997Y91695D01*
X266135Y91712D01*
X266274Y91725D01*
X266293Y91732D01*
X266313Y91735D01*
X266442Y91786D01*
X266573Y91833D01*
X266590Y91844D01*
X266608Y91852D01*
X266721Y91933D01*
X266836Y92011D01*
X266849Y92027D01*
X266866Y92038D01*
X266955Y92146D01*
X267046Y92250D01*
X267056Y92268D01*
X267069Y92283D01*
X267128Y92409D01*
X267191Y92533D01*
X267196Y92553D01*
X267204Y92571D01*
X267230Y92708D01*
X267261Y92843D01*
X267260Y92864D01*
X267264Y92883D01*
X267255Y93022D01*
X267251Y93161D01*
X267245Y93181D01*
X267244Y93201D01*
X267201Y93333D01*
X267163Y93467D01*
X267152Y93484D01*
X267146Y93503D01*
X267072Y93621D01*
X267001Y93741D01*
X266983Y93762D01*
X266976Y93772D01*
X266961Y93786D01*
X266895Y93861D01*
X266488Y94268D01*
X266488Y108532D01*
X267381Y109425D01*
X284644Y109425D01*
X285537Y108532D01*
X285537Y105464D01*
X285552Y105346D01*
X285560Y105227D01*
X285572Y105189D01*
X285577Y105148D01*
X285621Y105038D01*
X285658Y104925D01*
X285679Y104890D01*
X285694Y104853D01*
X285764Y104757D01*
X285828Y104656D01*
X285857Y104628D01*
X285881Y104595D01*
X285973Y104519D01*
X286059Y104438D01*
X286095Y104418D01*
X286126Y104393D01*
X286234Y104342D01*
X286338Y104284D01*
X286377Y104274D01*
X286414Y104257D01*
X286530Y104235D01*
X286646Y104205D01*
X286706Y104201D01*
X286726Y104197D01*
X286746Y104199D01*
X286806Y104195D01*
X289423Y104195D01*
X289521Y104207D01*
X289620Y104210D01*
X289678Y104227D01*
X289738Y104235D01*
X289831Y104271D01*
X289926Y104299D01*
X289978Y104329D01*
X290034Y104352D01*
X290114Y104410D01*
X290200Y104460D01*
X290275Y104526D01*
X290291Y104538D01*
X290299Y104548D01*
X290320Y104566D01*
X297665Y111911D01*
X297725Y111989D01*
X297793Y112061D01*
X297823Y112114D01*
X297860Y112162D01*
X297899Y112253D01*
X297947Y112340D01*
X297962Y112398D01*
X297986Y112454D01*
X298002Y112552D01*
X298026Y112648D01*
X298033Y112748D01*
X298036Y112768D01*
X298035Y112780D01*
X298037Y112808D01*
X298037Y118706D01*
X298022Y118824D01*
X298014Y118943D01*
X298002Y118981D01*
X297997Y119022D01*
X297953Y119132D01*
X297916Y119245D01*
X297895Y119280D01*
X297880Y119317D01*
X297810Y119413D01*
X297746Y119514D01*
X297717Y119542D01*
X297693Y119575D01*
X297601Y119651D01*
X297514Y119732D01*
X297479Y119752D01*
X297448Y119777D01*
X297340Y119828D01*
X297236Y119886D01*
X297197Y119896D01*
X297160Y119913D01*
X297043Y119935D01*
X296928Y119965D01*
X296868Y119969D01*
X296848Y119973D01*
X296827Y119971D01*
X296767Y119975D01*
X294968Y119975D01*
X294075Y120868D01*
X294075Y133132D01*
X294968Y134025D01*
X306232Y134025D01*
X307125Y133132D01*
X307125Y120868D01*
X306232Y119975D01*
X304895Y119975D01*
X304777Y119960D01*
X304658Y119953D01*
X304620Y119940D01*
X304580Y119935D01*
X304469Y119892D01*
X304356Y119855D01*
X304322Y119833D01*
X304284Y119818D01*
X304188Y119749D01*
X304087Y119685D01*
X304059Y119655D01*
X304027Y119632D01*
X303951Y119540D01*
X303869Y119453D01*
X303850Y119418D01*
X303824Y119387D01*
X303773Y119279D01*
X303716Y119175D01*
X303706Y119135D01*
X303688Y119099D01*
X303666Y118982D01*
X303636Y118867D01*
X303632Y118807D01*
X303629Y118787D01*
X303630Y118766D01*
X303626Y118706D01*
X303626Y109967D01*
X301617Y107959D01*
X296250Y102591D01*
X296165Y102482D01*
X296076Y102375D01*
X296068Y102356D01*
X296055Y102340D01*
X296000Y102212D01*
X295941Y102087D01*
X295937Y102067D01*
X295929Y102048D01*
X295907Y101910D01*
X295881Y101774D01*
X295882Y101754D01*
X295879Y101734D01*
X295892Y101595D01*
X295901Y101457D01*
X295907Y101438D01*
X295909Y101418D01*
X295956Y101286D01*
X295999Y101155D01*
X296009Y101137D01*
X296016Y101118D01*
X296094Y101003D01*
X296169Y100886D01*
X296184Y100872D01*
X296195Y100855D01*
X296299Y100763D01*
X296400Y100668D01*
X296418Y100658D01*
X296433Y100645D01*
X296557Y100581D01*
X296679Y100514D01*
X296698Y100509D01*
X296717Y100500D01*
X296852Y100470D01*
X296987Y100435D01*
X297015Y100433D01*
X297027Y100430D01*
X297047Y100431D01*
X297148Y100425D01*
X312420Y100425D01*
X312538Y100440D01*
X312657Y100447D01*
X312695Y100460D01*
X312736Y100465D01*
X312846Y100508D01*
X312959Y100545D01*
X312994Y100567D01*
X313031Y100582D01*
X313127Y100651D01*
X313228Y100715D01*
X313256Y100745D01*
X313289Y100768D01*
X313365Y100860D01*
X313446Y100947D01*
X313466Y100982D01*
X313491Y101013D01*
X313542Y101121D01*
X313600Y101225D01*
X313610Y101265D01*
X313627Y101301D01*
X313649Y101418D01*
X313679Y101533D01*
X313683Y101593D01*
X313687Y101613D01*
X313685Y101634D01*
X313689Y101694D01*
X313689Y167407D01*
X313672Y167544D01*
X313659Y167684D01*
X313652Y167703D01*
X313649Y167723D01*
X313598Y167852D01*
X313551Y167983D01*
X313540Y168000D01*
X313532Y168018D01*
X313451Y168131D01*
X313373Y168246D01*
X313357Y168259D01*
X313346Y168276D01*
X313238Y168365D01*
X313134Y168456D01*
X313116Y168466D01*
X313101Y168479D01*
X312975Y168538D01*
X312851Y168601D01*
X312831Y168606D01*
X312813Y168614D01*
X312676Y168640D01*
X312541Y168671D01*
X312520Y168670D01*
X312501Y168674D01*
X312362Y168665D01*
X312223Y168661D01*
X312203Y168655D01*
X312183Y168654D01*
X312051Y168611D01*
X311917Y168573D01*
X311900Y168562D01*
X311881Y168556D01*
X311763Y168482D01*
X311643Y168411D01*
X311622Y168393D01*
X311612Y168386D01*
X311598Y168371D01*
X311523Y168305D01*
X310032Y166814D01*
X307394Y166814D01*
X307276Y166799D01*
X307157Y166791D01*
X307119Y166779D01*
X307078Y166774D01*
X306968Y166730D01*
X306855Y166693D01*
X306820Y166672D01*
X306783Y166657D01*
X306687Y166587D01*
X306586Y166523D01*
X306558Y166494D01*
X306525Y166470D01*
X306449Y166378D01*
X306368Y166292D01*
X306348Y166256D01*
X306323Y166225D01*
X306272Y166117D01*
X306214Y166013D01*
X306204Y165974D01*
X306187Y165937D01*
X306165Y165821D01*
X306135Y165705D01*
X306131Y165645D01*
X306127Y165625D01*
X306129Y165605D01*
X306125Y165545D01*
X306125Y139268D01*
X305232Y138375D01*
X278968Y138375D01*
X278075Y139268D01*
X278075Y145268D01*
X278060Y145386D01*
X278053Y145505D01*
X278040Y145543D01*
X278035Y145583D01*
X277992Y145694D01*
X277955Y145807D01*
X277933Y145841D01*
X277918Y145879D01*
X277849Y145975D01*
X277785Y146076D01*
X277755Y146104D01*
X277732Y146136D01*
X277640Y146212D01*
X277553Y146294D01*
X277518Y146313D01*
X277487Y146339D01*
X277379Y146390D01*
X277275Y146447D01*
X277235Y146457D01*
X277199Y146475D01*
X277082Y146497D01*
X276967Y146527D01*
X276907Y146531D01*
X276887Y146534D01*
X276866Y146533D01*
X276806Y146537D01*
X258826Y146537D01*
X258708Y146522D01*
X258589Y146515D01*
X258551Y146502D01*
X258510Y146497D01*
X258400Y146453D01*
X258287Y146417D01*
X258252Y146395D01*
X258215Y146380D01*
X258119Y146310D01*
X258018Y146247D01*
X257990Y146217D01*
X257957Y146193D01*
X257881Y146102D01*
X257800Y146015D01*
X257780Y145979D01*
X257755Y145948D01*
X257704Y145841D01*
X257646Y145736D01*
X257636Y145697D01*
X257619Y145661D01*
X257597Y145544D01*
X257567Y145428D01*
X257563Y145368D01*
X257559Y145348D01*
X257561Y145328D01*
X257557Y145268D01*
X257557Y132671D01*
X250711Y125825D01*
X235064Y125825D01*
X233055Y127834D01*
X232976Y127895D01*
X232904Y127963D01*
X232851Y127992D01*
X232803Y128029D01*
X232713Y128068D01*
X232626Y128116D01*
X232567Y128131D01*
X232512Y128155D01*
X232414Y128171D01*
X232318Y128196D01*
X232218Y128202D01*
X232198Y128205D01*
X232185Y128204D01*
X232157Y128206D01*
X231994Y128206D01*
X231876Y128191D01*
X231757Y128183D01*
X231719Y128171D01*
X231678Y128166D01*
X231568Y128122D01*
X231455Y128085D01*
X231420Y128064D01*
X231383Y128049D01*
X231287Y127979D01*
X231186Y127915D01*
X231158Y127886D01*
X231125Y127862D01*
X231049Y127770D01*
X230968Y127684D01*
X230948Y127648D01*
X230923Y127617D01*
X230872Y127509D01*
X230814Y127405D01*
X230804Y127366D01*
X230787Y127329D01*
X230765Y127213D01*
X230735Y127097D01*
X230731Y127037D01*
X230727Y127017D01*
X230728Y127011D01*
X230727Y127008D01*
X230728Y126992D01*
X230725Y126937D01*
X230725Y113601D01*
X230740Y113483D01*
X230747Y113365D01*
X230760Y113326D01*
X230765Y113286D01*
X230808Y113175D01*
X230845Y113062D01*
X230867Y113028D01*
X230882Y112990D01*
X230951Y112894D01*
X231015Y112793D01*
X231045Y112766D01*
X231068Y112733D01*
X231160Y112657D01*
X231247Y112575D01*
X231282Y112556D01*
X231313Y112530D01*
X231421Y112479D01*
X231525Y112422D01*
X231565Y112412D01*
X231601Y112395D01*
X231718Y112372D01*
X231833Y112342D01*
X231893Y112339D01*
X231913Y112335D01*
X231934Y112336D01*
X231994Y112332D01*
X248348Y112332D01*
X248446Y112345D01*
X248545Y112348D01*
X248603Y112364D01*
X248663Y112372D01*
X248756Y112409D01*
X248851Y112436D01*
X248903Y112467D01*
X248959Y112489D01*
X249039Y112547D01*
X249125Y112598D01*
X249200Y112664D01*
X249216Y112676D01*
X249224Y112685D01*
X249245Y112704D01*
X266336Y129795D01*
X275806Y129795D01*
X275924Y129810D01*
X276043Y129817D01*
X276081Y129830D01*
X276122Y129835D01*
X276232Y129878D01*
X276345Y129915D01*
X276380Y129937D01*
X276417Y129952D01*
X276513Y130021D01*
X276614Y130085D01*
X276642Y130115D01*
X276675Y130138D01*
X276751Y130230D01*
X276832Y130317D01*
X276852Y130352D01*
X276877Y130383D01*
X276928Y130491D01*
X276986Y130595D01*
X276996Y130635D01*
X277013Y130671D01*
X277035Y130788D01*
X277065Y130903D01*
X277069Y130963D01*
X277073Y130983D01*
X277071Y131004D01*
X277075Y131064D01*
X277075Y133132D01*
X277968Y134025D01*
X289232Y134025D01*
X290125Y133132D01*
X290125Y120868D01*
X289232Y119975D01*
X277968Y119975D01*
X277075Y120868D01*
X277075Y122936D01*
X277060Y123054D01*
X277053Y123173D01*
X277040Y123211D01*
X277035Y123252D01*
X276992Y123362D01*
X276955Y123475D01*
X276933Y123510D01*
X276918Y123547D01*
X276849Y123643D01*
X276785Y123744D01*
X276755Y123772D01*
X276732Y123805D01*
X276640Y123881D01*
X276553Y123962D01*
X276518Y123982D01*
X276487Y124007D01*
X276379Y124058D01*
X276275Y124116D01*
X276235Y124126D01*
X276199Y124143D01*
X276082Y124165D01*
X275967Y124195D01*
X275907Y124199D01*
X275887Y124203D01*
X275866Y124201D01*
X275806Y124205D01*
X269177Y124205D01*
X269079Y124193D01*
X268980Y124190D01*
X268922Y124173D01*
X268862Y124165D01*
X268769Y124129D01*
X268674Y124101D01*
X268622Y124071D01*
X268566Y124048D01*
X268486Y123990D01*
X268400Y123940D01*
X268325Y123874D01*
X268309Y123862D01*
X268301Y123852D01*
X268280Y123834D01*
X251189Y106743D01*
X239700Y106743D01*
X239562Y106725D01*
X239423Y106712D01*
X239404Y106705D01*
X239384Y106703D01*
X239255Y106652D01*
X239124Y106605D01*
X239107Y106593D01*
X239088Y106586D01*
X238976Y106504D01*
X238861Y106426D01*
X238847Y106411D01*
X238831Y106399D01*
X238742Y106292D01*
X238650Y106188D01*
X238641Y106170D01*
X238628Y106154D01*
X238569Y106028D01*
X238506Y105904D01*
X238501Y105885D01*
X238493Y105866D01*
X238467Y105730D01*
X238436Y105594D01*
X238437Y105574D01*
X238433Y105554D01*
X238442Y105416D01*
X238446Y105276D01*
X238451Y105257D01*
X238453Y105237D01*
X238495Y105105D01*
X238534Y104971D01*
X238544Y104953D01*
X238551Y104934D01*
X238625Y104816D01*
X238696Y104697D01*
X238714Y104676D01*
X238721Y104665D01*
X238736Y104651D01*
X238802Y104576D01*
X240246Y103133D01*
X241511Y100078D01*
X241511Y96772D01*
X240246Y93717D01*
X237908Y91379D01*
X234853Y90114D01*
X231547Y90114D01*
X228492Y91379D01*
X226154Y93717D01*
X224889Y96772D01*
X224889Y100078D01*
X226154Y103133D01*
X227598Y104576D01*
X227683Y104686D01*
X227772Y104793D01*
X227780Y104811D01*
X227793Y104827D01*
X227848Y104955D01*
X227907Y105081D01*
X227911Y105100D01*
X227919Y105119D01*
X227941Y105257D01*
X227967Y105393D01*
X227966Y105413D01*
X227969Y105433D01*
X227956Y105572D01*
X227947Y105710D01*
X227941Y105730D01*
X227939Y105750D01*
X227892Y105881D01*
X227849Y106013D01*
X227838Y106030D01*
X227832Y106049D01*
X227754Y106164D01*
X227679Y106282D01*
X227664Y106296D01*
X227653Y106312D01*
X227549Y106404D01*
X227448Y106500D01*
X227430Y106509D01*
X227415Y106523D01*
X227290Y106586D01*
X227169Y106653D01*
X227149Y106658D01*
X227131Y106667D01*
X226996Y106698D01*
X226861Y106733D01*
X226833Y106734D01*
X226821Y106737D01*
X226801Y106736D01*
X226700Y106743D01*
X225521Y106743D01*
X225423Y106730D01*
X225324Y106727D01*
X225265Y106711D01*
X225205Y106703D01*
X225113Y106666D01*
X225018Y106639D01*
X224966Y106608D01*
X224910Y106586D01*
X224830Y106528D01*
X224744Y106477D01*
X224669Y106411D01*
X224652Y106399D01*
X224645Y106390D01*
X224623Y106371D01*
X180966Y62714D01*
X180906Y62636D01*
X180838Y62564D01*
X180809Y62511D01*
X180772Y62463D01*
X180732Y62372D01*
X180684Y62285D01*
X180669Y62227D01*
X180645Y62171D01*
X180630Y62073D01*
X180605Y61977D01*
X180599Y61877D01*
X180595Y61857D01*
X180597Y61845D01*
X180595Y61817D01*
X180595Y38952D01*
X180606Y38864D01*
X180607Y38775D01*
X180618Y38736D01*
X180595Y37293D01*
X180596Y37287D01*
X180595Y37273D01*
X180595Y36123D01*
X179768Y35321D01*
X179764Y35316D01*
X179753Y35307D01*
X178730Y34284D01*
X178685Y34258D01*
X178589Y34176D01*
X178577Y34168D01*
X178573Y34163D01*
X178563Y34154D01*
X154367Y10715D01*
X154363Y10710D01*
X154353Y10701D01*
X153539Y9887D01*
X152387Y9905D01*
X152381Y9904D01*
X152367Y9905D01*
X138542Y9905D01*
X130444Y18004D01*
X130366Y18064D01*
X130294Y18132D01*
X130241Y18161D01*
X130193Y18198D01*
X130102Y18238D01*
X130015Y18286D01*
X129957Y18301D01*
X129901Y18325D01*
X129803Y18340D01*
X129707Y18365D01*
X129607Y18371D01*
X129587Y18375D01*
X129575Y18373D01*
X129547Y18375D01*
X123981Y18375D01*
X123088Y19268D01*
X123088Y21336D01*
X123073Y21454D01*
X123065Y21573D01*
X123053Y21611D01*
X123048Y21652D01*
X123004Y21762D01*
X122967Y21875D01*
X122946Y21910D01*
X122931Y21947D01*
X122861Y22043D01*
X122797Y22144D01*
X122768Y22172D01*
X122744Y22205D01*
X122652Y22281D01*
X122566Y22362D01*
X122530Y22382D01*
X122499Y22407D01*
X122391Y22458D01*
X122287Y22516D01*
X122248Y22526D01*
X122211Y22543D01*
X122095Y22565D01*
X121979Y22595D01*
X121919Y22599D01*
X121899Y22603D01*
X121879Y22601D01*
X121819Y22605D01*
X113142Y22605D01*
X98805Y36942D01*
X98805Y68167D01*
X98793Y68265D01*
X98790Y68364D01*
X98773Y68422D01*
X98765Y68482D01*
X98729Y68574D01*
X98701Y68669D01*
X98671Y68722D01*
X98648Y68778D01*
X98590Y68858D01*
X98540Y68943D01*
X98474Y69019D01*
X98462Y69035D01*
X98452Y69043D01*
X98434Y69064D01*
X94239Y73259D01*
X94161Y73319D01*
X94089Y73387D01*
X94036Y73416D01*
X93988Y73453D01*
X93897Y73493D01*
X93810Y73541D01*
X93752Y73556D01*
X93696Y73580D01*
X93598Y73595D01*
X93502Y73620D01*
X93402Y73626D01*
X93382Y73630D01*
X93370Y73628D01*
X93342Y73630D01*
X72694Y73630D01*
X72576Y73615D01*
X72457Y73608D01*
X72419Y73595D01*
X72378Y73590D01*
X72268Y73547D01*
X72155Y73510D01*
X72120Y73488D01*
X72083Y73473D01*
X71987Y73404D01*
X71886Y73340D01*
X71858Y73310D01*
X71825Y73287D01*
X71749Y73195D01*
X71668Y73108D01*
X71648Y73073D01*
X71623Y73042D01*
X71572Y72934D01*
X71514Y72830D01*
X71504Y72790D01*
X71487Y72754D01*
X71465Y72637D01*
X71435Y72522D01*
X71431Y72462D01*
X71427Y72442D01*
X71428Y72433D01*
X71427Y72431D01*
X71428Y72416D01*
X71425Y72361D01*
X71425Y68793D01*
X70532Y67900D01*
X57268Y67900D01*
X56375Y68793D01*
X56375Y72361D01*
X56360Y72479D01*
X56353Y72598D01*
X56340Y72636D01*
X56335Y72677D01*
X56292Y72787D01*
X56255Y72900D01*
X56233Y72935D01*
X56218Y72972D01*
X56149Y73068D01*
X56085Y73169D01*
X56055Y73197D01*
X56032Y73230D01*
X55940Y73306D01*
X55853Y73387D01*
X55818Y73407D01*
X55787Y73432D01*
X55679Y73483D01*
X55575Y73541D01*
X55535Y73551D01*
X55499Y73568D01*
X55382Y73590D01*
X55267Y73620D01*
X55207Y73624D01*
X55187Y73628D01*
X55166Y73626D01*
X55106Y73630D01*
X38206Y73630D01*
X38188Y73628D01*
X38140Y73629D01*
X37003Y73569D01*
X36199Y74374D01*
X36185Y74385D01*
X36151Y74419D01*
X26183Y83398D01*
X26128Y83436D01*
X26080Y83481D01*
X25998Y83526D01*
X25922Y83579D01*
X25860Y83602D01*
X25802Y83634D01*
X25711Y83658D01*
X25624Y83690D01*
X25558Y83697D01*
X25494Y83714D01*
X25333Y83724D01*
X10405Y83724D01*
X7044Y85116D01*
X5977Y86182D01*
X5868Y86267D01*
X5761Y86356D01*
X5742Y86365D01*
X5726Y86377D01*
X5599Y86433D01*
X5473Y86492D01*
X5453Y86496D01*
X5434Y86504D01*
X5296Y86526D01*
X5160Y86552D01*
X5140Y86550D01*
X5120Y86554D01*
X4981Y86540D01*
X4843Y86532D01*
X4824Y86526D01*
X4804Y86524D01*
X4672Y86477D01*
X4541Y86434D01*
X4523Y86423D01*
X4504Y86416D01*
X4389Y86338D01*
X4272Y86264D01*
X4258Y86249D01*
X4241Y86238D01*
X4149Y86134D01*
X4054Y86032D01*
X4044Y86014D01*
X4031Y85999D01*
X3968Y85875D01*
X3900Y85754D01*
X3895Y85734D01*
X3886Y85716D01*
X3856Y85580D01*
X3821Y85446D01*
X3819Y85418D01*
X3816Y85406D01*
X3817Y85385D01*
X3811Y85285D01*
X3811Y12700D01*
X3813Y12680D01*
X3817Y12576D01*
X3963Y11089D01*
X3987Y10985D01*
X4002Y10880D01*
X4029Y10800D01*
X4034Y10779D01*
X4041Y10765D01*
X4054Y10728D01*
X5192Y7981D01*
X5196Y7973D01*
X5199Y7964D01*
X5275Y7834D01*
X5349Y7705D01*
X5356Y7698D01*
X5360Y7690D01*
X5467Y7569D01*
X7569Y5467D01*
X7576Y5461D01*
X7582Y5454D01*
X7702Y5364D01*
X7820Y5272D01*
X7829Y5268D01*
X7836Y5262D01*
X7981Y5192D01*
X10728Y4054D01*
X10830Y4026D01*
X10930Y3989D01*
X11013Y3976D01*
X11034Y3970D01*
X11050Y3970D01*
X11089Y3963D01*
X12576Y3817D01*
X12595Y3817D01*
X12700Y3811D01*
X302791Y3811D01*
X302869Y3821D01*
G37*
G36*
X93761Y177337D02*
X93761Y177337D01*
X93860Y177340D01*
X93918Y177357D01*
X93978Y177364D01*
X94070Y177401D01*
X94165Y177428D01*
X94217Y177459D01*
X94274Y177481D01*
X94354Y177540D01*
X94439Y177590D01*
X94515Y177656D01*
X94531Y177668D01*
X94539Y177678D01*
X94560Y177696D01*
X97363Y180500D01*
X161830Y180500D01*
X161948Y180514D01*
X162067Y180522D01*
X162105Y180534D01*
X162145Y180539D01*
X162256Y180583D01*
X162369Y180620D01*
X162403Y180642D01*
X162441Y180656D01*
X162537Y180726D01*
X162638Y180790D01*
X162666Y180819D01*
X162698Y180843D01*
X162774Y180935D01*
X162856Y181022D01*
X162875Y181057D01*
X162901Y181088D01*
X162952Y181196D01*
X163009Y181300D01*
X163019Y181339D01*
X163037Y181376D01*
X163059Y181493D01*
X163089Y181608D01*
X163093Y181668D01*
X163096Y181688D01*
X163095Y181709D01*
X163099Y181769D01*
X163099Y228504D01*
X163087Y228602D01*
X163084Y228701D01*
X163077Y228723D01*
X163076Y228742D01*
X163065Y228777D01*
X163059Y228820D01*
X163023Y228912D01*
X162995Y229007D01*
X162984Y229026D01*
X162978Y229044D01*
X162957Y229077D01*
X162942Y229115D01*
X162884Y229195D01*
X162834Y229281D01*
X162814Y229303D01*
X162808Y229313D01*
X162793Y229326D01*
X162767Y229356D01*
X162755Y229373D01*
X162746Y229380D01*
X162727Y229402D01*
X162648Y229463D01*
X162576Y229531D01*
X162540Y229551D01*
X162510Y229576D01*
X162492Y229584D01*
X162475Y229597D01*
X162384Y229637D01*
X162298Y229684D01*
X162257Y229695D01*
X162223Y229711D01*
X162204Y229715D01*
X162184Y229724D01*
X162086Y229739D01*
X161990Y229764D01*
X161926Y229768D01*
X161910Y229771D01*
X161895Y229770D01*
X161890Y229770D01*
X161869Y229773D01*
X161857Y229772D01*
X161829Y229774D01*
X151894Y229774D01*
X151884Y229780D01*
X151825Y229795D01*
X151770Y229819D01*
X151672Y229834D01*
X151576Y229859D01*
X151476Y229865D01*
X151456Y229869D01*
X151443Y229867D01*
X151415Y229869D01*
X62706Y229869D01*
X62608Y229857D01*
X62509Y229854D01*
X62451Y229837D01*
X62391Y229829D01*
X62299Y229793D01*
X62204Y229765D01*
X62151Y229735D01*
X62095Y229712D01*
X62015Y229654D01*
X61930Y229604D01*
X61854Y229538D01*
X61838Y229526D01*
X61830Y229516D01*
X61809Y229498D01*
X50274Y217963D01*
X29369Y217963D01*
X29271Y217951D01*
X29172Y217948D01*
X29113Y217931D01*
X29053Y217923D01*
X28961Y217887D01*
X28866Y217859D01*
X28814Y217828D01*
X28758Y217806D01*
X28678Y217748D01*
X28592Y217698D01*
X28517Y217631D01*
X28500Y217619D01*
X28492Y217610D01*
X28471Y217591D01*
X22121Y211241D01*
X22061Y211163D01*
X21993Y211091D01*
X21963Y211038D01*
X21926Y210990D01*
X21887Y210899D01*
X21839Y210812D01*
X21824Y210754D01*
X21800Y210698D01*
X21784Y210600D01*
X21760Y210504D01*
X21754Y210416D01*
X21752Y210405D01*
X21752Y210399D01*
X21750Y210384D01*
X21751Y210372D01*
X21750Y210344D01*
X21750Y183356D01*
X21762Y183258D01*
X21765Y183159D01*
X21782Y183101D01*
X21789Y183041D01*
X21826Y182949D01*
X21853Y182854D01*
X21884Y182801D01*
X21906Y182745D01*
X21965Y182665D01*
X22015Y182580D01*
X22081Y182504D01*
X22093Y182488D01*
X22103Y182480D01*
X22121Y182459D01*
X26884Y177696D01*
X26962Y177636D01*
X27034Y177568D01*
X27087Y177538D01*
X27135Y177501D01*
X27226Y177462D01*
X27313Y177414D01*
X27371Y177399D01*
X27427Y177375D01*
X27525Y177359D01*
X27621Y177335D01*
X27721Y177328D01*
X27741Y177325D01*
X27753Y177326D01*
X27781Y177325D01*
X93663Y177325D01*
X93761Y177337D01*
G37*
G36*
X300057Y178118D02*
X300057Y178118D01*
X300145Y178131D01*
X300235Y178134D01*
X300302Y178153D01*
X300372Y178163D01*
X300454Y178197D01*
X300540Y178222D01*
X300601Y178258D01*
X300666Y178285D01*
X300737Y178338D01*
X300814Y178384D01*
X300908Y178466D01*
X300920Y178475D01*
X300924Y178481D01*
X300935Y178490D01*
X304110Y181665D01*
X304171Y181743D01*
X304239Y181815D01*
X304268Y181868D01*
X304305Y181916D01*
X304344Y182007D01*
X304392Y182094D01*
X304407Y182152D01*
X304431Y182208D01*
X304447Y182306D01*
X304472Y182402D01*
X304478Y182502D01*
X304481Y182522D01*
X304480Y182535D01*
X304482Y182563D01*
X304482Y209550D01*
X304469Y209648D01*
X304466Y209747D01*
X304450Y209805D01*
X304442Y209866D01*
X304405Y209958D01*
X304378Y210053D01*
X304347Y210105D01*
X304325Y210161D01*
X304267Y210241D01*
X304216Y210327D01*
X304150Y210402D01*
X304138Y210419D01*
X304129Y210426D01*
X304110Y210448D01*
X296966Y217591D01*
X296888Y217652D01*
X296816Y217720D01*
X296763Y217749D01*
X296715Y217786D01*
X296624Y217826D01*
X296537Y217873D01*
X296479Y217888D01*
X296423Y217913D01*
X296325Y217928D01*
X296229Y217953D01*
X296129Y217959D01*
X296109Y217962D01*
X296097Y217961D01*
X296069Y217963D01*
X272782Y217963D01*
X261248Y229498D01*
X261169Y229558D01*
X261097Y229626D01*
X261044Y229655D01*
X260996Y229692D01*
X260905Y229732D01*
X260819Y229780D01*
X260760Y229795D01*
X260704Y229819D01*
X260606Y229834D01*
X260511Y229859D01*
X260411Y229865D01*
X260390Y229869D01*
X260378Y229867D01*
X260350Y229869D01*
X193072Y229869D01*
X192974Y229857D01*
X192875Y229854D01*
X192817Y229837D01*
X192757Y229829D01*
X192665Y229793D01*
X192599Y229774D01*
X177294Y229774D01*
X177284Y229780D01*
X177225Y229795D01*
X177170Y229819D01*
X177072Y229834D01*
X176976Y229859D01*
X176876Y229865D01*
X176856Y229869D01*
X176843Y229867D01*
X176815Y229869D01*
X169958Y229869D01*
X169840Y229854D01*
X169721Y229847D01*
X169682Y229834D01*
X169642Y229829D01*
X169531Y229786D01*
X169418Y229749D01*
X169384Y229727D01*
X169347Y229712D01*
X169250Y229643D01*
X169150Y229579D01*
X169122Y229549D01*
X169089Y229526D01*
X169013Y229434D01*
X168932Y229347D01*
X168912Y229312D01*
X168886Y229281D01*
X168836Y229173D01*
X168778Y229069D01*
X168768Y229029D01*
X168751Y228993D01*
X168728Y228876D01*
X168699Y228761D01*
X168695Y228701D01*
X168691Y228681D01*
X168692Y228660D01*
X168688Y228600D01*
X168688Y184245D01*
X168703Y184127D01*
X168711Y184008D01*
X168723Y183970D01*
X168728Y183930D01*
X168772Y183819D01*
X168809Y183706D01*
X168830Y183672D01*
X168845Y183634D01*
X168915Y183538D01*
X168979Y183437D01*
X169008Y183409D01*
X169032Y183377D01*
X169124Y183301D01*
X169211Y183219D01*
X169246Y183200D01*
X169277Y183174D01*
X169385Y183123D01*
X169489Y183066D01*
X169528Y183056D01*
X169565Y183038D01*
X169682Y183016D01*
X169797Y182986D01*
X169857Y182982D01*
X169877Y182979D01*
X169898Y182980D01*
X169958Y182976D01*
X172608Y182976D01*
X174712Y180871D01*
X174791Y180811D01*
X174863Y180743D01*
X174916Y180713D01*
X174964Y180676D01*
X175055Y180637D01*
X175141Y180589D01*
X175200Y180574D01*
X175255Y180550D01*
X175353Y180534D01*
X175449Y180510D01*
X175549Y180503D01*
X175570Y180500D01*
X175582Y180501D01*
X175610Y180500D01*
X243949Y180500D01*
X246753Y177696D01*
X246838Y177630D01*
X246919Y177557D01*
X246963Y177533D01*
X247004Y177501D01*
X247104Y177458D01*
X247199Y177407D01*
X247249Y177395D01*
X247296Y177375D01*
X247403Y177358D01*
X247508Y177332D01*
X247588Y177329D01*
X247610Y177325D01*
X247627Y177327D01*
X247669Y177325D01*
X300057Y178118D01*
G37*
G36*
X174524Y125047D02*
X174524Y125047D01*
X174643Y125055D01*
X174681Y125067D01*
X174722Y125072D01*
X174832Y125116D01*
X174945Y125153D01*
X174980Y125174D01*
X175017Y125189D01*
X175113Y125259D01*
X175214Y125323D01*
X175242Y125352D01*
X175275Y125376D01*
X175351Y125468D01*
X175432Y125554D01*
X175452Y125590D01*
X175477Y125621D01*
X175528Y125729D01*
X175586Y125833D01*
X175596Y125872D01*
X175613Y125909D01*
X175635Y126025D01*
X175665Y126141D01*
X175669Y126201D01*
X175673Y126221D01*
X175671Y126241D01*
X175675Y126301D01*
X175675Y128057D01*
X176310Y128692D01*
X176395Y128801D01*
X176484Y128908D01*
X176493Y128927D01*
X176505Y128943D01*
X176560Y129070D01*
X176620Y129196D01*
X176623Y129216D01*
X176632Y129235D01*
X176653Y129373D01*
X176679Y129509D01*
X176678Y129529D01*
X176681Y129549D01*
X176668Y129688D01*
X176660Y129826D01*
X176653Y129845D01*
X176652Y129865D01*
X176604Y129997D01*
X176562Y130128D01*
X176551Y130146D01*
X176544Y130165D01*
X176466Y130280D01*
X176391Y130397D01*
X176377Y130411D01*
X176365Y130428D01*
X176261Y130520D01*
X176160Y130615D01*
X176142Y130625D01*
X176127Y130638D01*
X176003Y130701D01*
X175974Y130717D01*
X175974Y138025D01*
X179891Y138025D01*
X179891Y133065D01*
X179718Y132418D01*
X179383Y131839D01*
X178910Y131366D01*
X178827Y131318D01*
X178711Y131230D01*
X178593Y131145D01*
X178585Y131134D01*
X178574Y131126D01*
X178483Y131012D01*
X178391Y130900D01*
X178385Y130887D01*
X178376Y130877D01*
X178317Y130743D01*
X178255Y130612D01*
X178253Y130599D01*
X178247Y130586D01*
X178223Y130442D01*
X178195Y130299D01*
X178196Y130286D01*
X178194Y130273D01*
X178206Y130127D01*
X178215Y129982D01*
X178219Y129969D01*
X178220Y129956D01*
X178268Y129818D01*
X178313Y129680D01*
X178320Y129668D01*
X178325Y129655D01*
X178405Y129534D01*
X178483Y129411D01*
X178493Y129402D01*
X178500Y129390D01*
X178609Y129293D01*
X178715Y129193D01*
X178727Y129186D01*
X178737Y129177D01*
X178866Y129109D01*
X178993Y129039D01*
X179006Y129036D01*
X179018Y129030D01*
X179161Y128996D01*
X179301Y128960D01*
X179319Y128959D01*
X179328Y128957D01*
X179345Y128957D01*
X179462Y128950D01*
X186124Y128950D01*
X186257Y128967D01*
X186390Y128978D01*
X186414Y128986D01*
X186439Y128990D01*
X186564Y129039D01*
X186690Y129083D01*
X186711Y129097D01*
X186735Y129107D01*
X186843Y129185D01*
X186955Y129260D01*
X186972Y129279D01*
X186992Y129293D01*
X187078Y129397D01*
X187167Y129496D01*
X187179Y129519D01*
X187195Y129538D01*
X187252Y129659D01*
X187314Y129778D01*
X187324Y129813D01*
X187331Y129826D01*
X187335Y129847D01*
X187360Y129933D01*
X187367Y129963D01*
X188149Y130451D01*
X188199Y130491D01*
X188254Y130523D01*
X188375Y130630D01*
X190683Y132938D01*
X191772Y132938D01*
X191885Y132952D01*
X191999Y132958D01*
X192042Y132972D01*
X192088Y132978D01*
X192194Y133020D01*
X192302Y133054D01*
X192363Y133087D01*
X192383Y133095D01*
X192398Y133106D01*
X192444Y133130D01*
X196828Y135866D01*
X196893Y135919D01*
X196964Y135964D01*
X197016Y136019D01*
X197075Y136067D01*
X197124Y136135D01*
X197182Y136196D01*
X197219Y136262D01*
X197263Y136323D01*
X197295Y136401D01*
X197336Y136474D01*
X197354Y136547D01*
X197383Y136618D01*
X197394Y136701D01*
X197415Y136782D01*
X197424Y136924D01*
X197425Y136933D01*
X197425Y136936D01*
X197425Y136943D01*
X197425Y140532D01*
X198318Y141425D01*
X208082Y141425D01*
X208975Y140532D01*
X208975Y136588D01*
X208990Y136470D01*
X208997Y136352D01*
X209010Y136313D01*
X209015Y136273D01*
X209058Y136162D01*
X209095Y136049D01*
X209117Y136015D01*
X209132Y135977D01*
X209201Y135881D01*
X209265Y135780D01*
X209295Y135753D01*
X209318Y135720D01*
X209410Y135644D01*
X209497Y135562D01*
X209532Y135543D01*
X209563Y135517D01*
X209671Y135466D01*
X209775Y135409D01*
X209815Y135399D01*
X209851Y135382D01*
X209968Y135359D01*
X210083Y135329D01*
X210143Y135326D01*
X210163Y135322D01*
X210184Y135323D01*
X210244Y135319D01*
X235629Y135319D01*
X237639Y133310D01*
X237717Y133249D01*
X237789Y133181D01*
X237842Y133152D01*
X237890Y133115D01*
X237981Y133075D01*
X238068Y133028D01*
X238126Y133013D01*
X238182Y132988D01*
X238280Y132973D01*
X238376Y132948D01*
X238476Y132942D01*
X238496Y132939D01*
X238508Y132940D01*
X238536Y132938D01*
X247239Y132938D01*
X247337Y132950D01*
X247436Y132953D01*
X247494Y132970D01*
X247554Y132978D01*
X247646Y133014D01*
X247741Y133042D01*
X247793Y133073D01*
X247850Y133095D01*
X247930Y133153D01*
X248015Y133203D01*
X248091Y133270D01*
X248107Y133282D01*
X248115Y133291D01*
X248136Y133310D01*
X250072Y135245D01*
X250132Y135324D01*
X250200Y135396D01*
X250229Y135449D01*
X250266Y135497D01*
X250306Y135587D01*
X250354Y135674D01*
X250369Y135733D01*
X250393Y135788D01*
X250408Y135886D01*
X250433Y135982D01*
X250439Y136082D01*
X250443Y136102D01*
X250441Y136115D01*
X250443Y136143D01*
X250443Y151567D01*
X252527Y153650D01*
X276806Y153650D01*
X276924Y153665D01*
X277043Y153673D01*
X277081Y153685D01*
X277122Y153690D01*
X277232Y153734D01*
X277345Y153771D01*
X277380Y153792D01*
X277417Y153807D01*
X277513Y153877D01*
X277614Y153941D01*
X277642Y153970D01*
X277675Y153994D01*
X277751Y154086D01*
X277832Y154173D01*
X277852Y154208D01*
X277877Y154239D01*
X277928Y154347D01*
X277986Y154451D01*
X277996Y154490D01*
X278013Y154527D01*
X278035Y154644D01*
X278065Y154759D01*
X278069Y154819D01*
X278073Y154839D01*
X278071Y154860D01*
X278075Y154920D01*
X278075Y165532D01*
X279040Y166497D01*
X279114Y166591D01*
X279192Y166680D01*
X279211Y166716D01*
X279235Y166748D01*
X279283Y166858D01*
X279337Y166963D01*
X279346Y167003D01*
X279362Y167040D01*
X279380Y167158D01*
X279406Y167274D01*
X279405Y167314D01*
X279412Y167354D01*
X279400Y167473D01*
X279397Y167592D01*
X279386Y167630D01*
X279382Y167671D01*
X279341Y167783D01*
X279308Y167897D01*
X279288Y167932D01*
X279274Y167970D01*
X279207Y168068D01*
X279147Y168171D01*
X279107Y168216D01*
X279096Y168233D01*
X279080Y168246D01*
X279040Y168292D01*
X278361Y168971D01*
X277715Y169617D01*
X277637Y169678D01*
X277565Y169746D01*
X277512Y169775D01*
X277464Y169812D01*
X277373Y169851D01*
X277286Y169899D01*
X277228Y169914D01*
X277172Y169938D01*
X277074Y169954D01*
X276978Y169979D01*
X276878Y169985D01*
X276858Y169988D01*
X276846Y169987D01*
X276818Y169989D01*
X243306Y169989D01*
X243188Y169974D01*
X243070Y169966D01*
X243031Y169954D01*
X242991Y169949D01*
X242880Y169905D01*
X242767Y169868D01*
X242733Y169847D01*
X242695Y169832D01*
X242599Y169762D01*
X242498Y169698D01*
X242471Y169669D01*
X242438Y169645D01*
X242362Y169553D01*
X242280Y169467D01*
X242261Y169431D01*
X242235Y169400D01*
X242184Y169292D01*
X242127Y169188D01*
X242117Y169149D01*
X242100Y169112D01*
X242077Y168996D01*
X242047Y168880D01*
X242044Y168820D01*
X242040Y168800D01*
X242041Y168780D01*
X242037Y168720D01*
X242037Y166906D01*
X241144Y166013D01*
X231378Y166013D01*
X231280Y166000D01*
X231181Y165997D01*
X231123Y165981D01*
X231063Y165973D01*
X230971Y165936D01*
X230876Y165909D01*
X230823Y165878D01*
X230767Y165856D01*
X230687Y165798D01*
X230602Y165747D01*
X230526Y165681D01*
X230510Y165669D01*
X230502Y165660D01*
X230481Y165641D01*
X229919Y165079D01*
X229846Y164985D01*
X229767Y164896D01*
X229749Y164860D01*
X229724Y164828D01*
X229676Y164718D01*
X229622Y164612D01*
X229614Y164573D01*
X229597Y164536D01*
X229579Y164418D01*
X229553Y164302D01*
X229554Y164262D01*
X229548Y164222D01*
X229559Y164103D01*
X229562Y163984D01*
X229574Y163945D01*
X229577Y163905D01*
X229618Y163793D01*
X229651Y163679D01*
X229671Y163644D01*
X229685Y163606D01*
X229752Y163507D01*
X229812Y163405D01*
X229852Y163360D01*
X229864Y163343D01*
X229879Y163329D01*
X229919Y163284D01*
X230125Y163078D01*
X230125Y159185D01*
X227372Y156432D01*
X223478Y156432D01*
X220725Y159185D01*
X220725Y163078D01*
X221493Y163846D01*
X221578Y163955D01*
X221667Y164063D01*
X221676Y164081D01*
X221688Y164097D01*
X221744Y164225D01*
X221803Y164351D01*
X221807Y164370D01*
X221815Y164389D01*
X221837Y164527D01*
X221863Y164663D01*
X221861Y164683D01*
X221864Y164703D01*
X221851Y164842D01*
X221843Y164980D01*
X221837Y165000D01*
X221835Y165020D01*
X221787Y165151D01*
X221745Y165283D01*
X221734Y165300D01*
X221727Y165319D01*
X221649Y165434D01*
X221575Y165552D01*
X221560Y165566D01*
X221548Y165582D01*
X221444Y165674D01*
X221343Y165770D01*
X221325Y165779D01*
X221310Y165793D01*
X221186Y165856D01*
X221064Y165923D01*
X221045Y165928D01*
X221027Y165937D01*
X220891Y165968D01*
X220757Y166003D01*
X220728Y166004D01*
X220717Y166007D01*
X220696Y166006D01*
X220596Y166013D01*
X212881Y166013D01*
X212157Y166736D01*
X212048Y166821D01*
X211941Y166910D01*
X211922Y166919D01*
X211906Y166931D01*
X211779Y166986D01*
X211653Y167046D01*
X211633Y167049D01*
X211614Y167058D01*
X211476Y167079D01*
X211340Y167105D01*
X211320Y167104D01*
X211300Y167107D01*
X211161Y167094D01*
X211023Y167086D01*
X211004Y167079D01*
X210984Y167078D01*
X210852Y167030D01*
X210721Y166988D01*
X210703Y166977D01*
X210684Y166970D01*
X210569Y166892D01*
X210452Y166817D01*
X210438Y166803D01*
X210421Y166791D01*
X210329Y166687D01*
X210234Y166586D01*
X210224Y166568D01*
X210211Y166553D01*
X210148Y166429D01*
X210080Y166307D01*
X210075Y166288D01*
X210066Y166270D01*
X210036Y166134D01*
X210001Y165999D01*
X209999Y165971D01*
X209996Y165959D01*
X209997Y165939D01*
X209991Y165839D01*
X209991Y164566D01*
X209818Y163919D01*
X209483Y163340D01*
X209010Y162867D01*
X208431Y162532D01*
X207784Y162359D01*
X205324Y162359D01*
X205324Y168295D01*
X205309Y168413D01*
X205302Y168532D01*
X205290Y168570D01*
X205284Y168610D01*
X205241Y168721D01*
X205204Y168834D01*
X205182Y168868D01*
X205167Y168906D01*
X205098Y169002D01*
X205034Y169103D01*
X205004Y169131D01*
X204981Y169163D01*
X204889Y169239D01*
X204802Y169321D01*
X204767Y169340D01*
X204736Y169366D01*
X204628Y169417D01*
X204524Y169474D01*
X204484Y169484D01*
X204448Y169502D01*
X204331Y169524D01*
X204216Y169554D01*
X204156Y169558D01*
X204136Y169561D01*
X204115Y169560D01*
X204055Y169564D01*
X203614Y169564D01*
X203614Y170005D01*
X203599Y170123D01*
X203592Y170242D01*
X203579Y170280D01*
X203574Y170321D01*
X203530Y170431D01*
X203494Y170544D01*
X203472Y170579D01*
X203457Y170616D01*
X203387Y170712D01*
X203324Y170813D01*
X203294Y170841D01*
X203270Y170874D01*
X203179Y170950D01*
X203092Y171031D01*
X203057Y171051D01*
X203025Y171076D01*
X202918Y171127D01*
X202813Y171185D01*
X202774Y171195D01*
X202738Y171212D01*
X202621Y171234D01*
X202505Y171264D01*
X202445Y171268D01*
X202425Y171272D01*
X202405Y171270D01*
X202345Y171274D01*
X196409Y171274D01*
X196409Y172149D01*
X196394Y172267D01*
X196387Y172385D01*
X196374Y172424D01*
X196369Y172464D01*
X196326Y172575D01*
X196289Y172688D01*
X196267Y172722D01*
X196252Y172760D01*
X196183Y172856D01*
X196119Y172957D01*
X196089Y172984D01*
X196066Y173017D01*
X195974Y173093D01*
X195887Y173175D01*
X195852Y173194D01*
X195821Y173220D01*
X195713Y173271D01*
X195609Y173328D01*
X195569Y173338D01*
X195533Y173355D01*
X195416Y173378D01*
X195301Y173408D01*
X195241Y173411D01*
X195221Y173415D01*
X195200Y173414D01*
X195140Y173418D01*
X180144Y173418D01*
X180026Y173403D01*
X179907Y173395D01*
X179869Y173383D01*
X179828Y173378D01*
X179718Y173334D01*
X179605Y173297D01*
X179570Y173276D01*
X179533Y173261D01*
X179437Y173191D01*
X179336Y173127D01*
X179308Y173098D01*
X179275Y173074D01*
X179199Y172982D01*
X179118Y172896D01*
X179098Y172860D01*
X179073Y172829D01*
X179022Y172721D01*
X178964Y172617D01*
X178954Y172578D01*
X178937Y172541D01*
X178915Y172425D01*
X178885Y172309D01*
X178881Y172249D01*
X178877Y172229D01*
X178879Y172209D01*
X178875Y172149D01*
X178875Y158769D01*
X177982Y157876D01*
X171218Y157876D01*
X170325Y158769D01*
X170325Y172033D01*
X171218Y172926D01*
X171689Y172926D01*
X171826Y172943D01*
X171965Y172956D01*
X171984Y172963D01*
X172004Y172966D01*
X172133Y173017D01*
X172265Y173064D01*
X172281Y173075D01*
X172300Y173083D01*
X172413Y173164D01*
X172528Y173242D01*
X172541Y173258D01*
X172558Y173269D01*
X172646Y173377D01*
X172738Y173481D01*
X172747Y173499D01*
X172760Y173514D01*
X172820Y173640D01*
X172883Y173764D01*
X172887Y173784D01*
X172896Y173802D01*
X172922Y173939D01*
X172952Y174074D01*
X172952Y174095D01*
X172956Y174114D01*
X172947Y174253D01*
X172943Y174392D01*
X172937Y174412D01*
X172936Y174432D01*
X172893Y174564D01*
X172854Y174698D01*
X172844Y174715D01*
X172838Y174734D01*
X172763Y174852D01*
X172693Y174972D01*
X172674Y174993D01*
X172668Y175003D01*
X172653Y175017D01*
X172586Y175092D01*
X170664Y177015D01*
X170586Y177075D01*
X170514Y177143D01*
X170461Y177173D01*
X170413Y177210D01*
X170322Y177249D01*
X170235Y177297D01*
X170177Y177312D01*
X170121Y177336D01*
X170023Y177352D01*
X169927Y177376D01*
X169827Y177383D01*
X169807Y177386D01*
X169795Y177385D01*
X169767Y177387D01*
X166324Y177387D01*
X165108Y178602D01*
X164807Y178903D01*
X164713Y178976D01*
X164624Y179055D01*
X164588Y179073D01*
X164556Y179098D01*
X164446Y179146D01*
X164340Y179200D01*
X164301Y179208D01*
X164264Y179225D01*
X164146Y179243D01*
X164030Y179269D01*
X163990Y179268D01*
X163950Y179274D01*
X163831Y179263D01*
X163712Y179260D01*
X163673Y179248D01*
X163633Y179245D01*
X163521Y179204D01*
X163407Y179171D01*
X163372Y179151D01*
X163334Y179137D01*
X163235Y179070D01*
X163133Y179010D01*
X163092Y178974D01*
X161745Y178974D01*
X161607Y178957D01*
X161468Y178944D01*
X161449Y178937D01*
X161429Y178934D01*
X161300Y178883D01*
X161169Y178836D01*
X161152Y178825D01*
X161134Y178817D01*
X161021Y178735D01*
X160906Y178657D01*
X160893Y178642D01*
X160876Y178630D01*
X160787Y178523D01*
X160696Y178419D01*
X160686Y178401D01*
X160673Y178385D01*
X160614Y178260D01*
X160551Y178136D01*
X160547Y178116D01*
X160538Y178098D01*
X160512Y177961D01*
X160481Y177825D01*
X160482Y177805D01*
X160478Y177785D01*
X160487Y177647D01*
X160491Y177508D01*
X160497Y177488D01*
X160498Y177468D01*
X160541Y177335D01*
X160579Y177202D01*
X160590Y177185D01*
X160596Y177165D01*
X160671Y177048D01*
X160741Y176928D01*
X160760Y176907D01*
X160766Y176897D01*
X160772Y176891D01*
X160773Y176890D01*
X160783Y176880D01*
X160847Y176807D01*
X163939Y173716D01*
X163939Y157086D01*
X161930Y155077D01*
X160665Y153812D01*
X159664Y153812D01*
X159546Y153797D01*
X159427Y153790D01*
X159389Y153777D01*
X159348Y153772D01*
X159238Y153729D01*
X159125Y153692D01*
X159090Y153670D01*
X159053Y153655D01*
X158957Y153586D01*
X158856Y153522D01*
X158828Y153492D01*
X158795Y153469D01*
X158719Y153377D01*
X158638Y153290D01*
X158618Y153255D01*
X158593Y153224D01*
X158542Y153116D01*
X158484Y153012D01*
X158474Y152972D01*
X158457Y152936D01*
X158435Y152819D01*
X158405Y152704D01*
X158401Y152644D01*
X158397Y152624D01*
X158399Y152603D01*
X158395Y152543D01*
X158395Y148036D01*
X158407Y147938D01*
X158410Y147839D01*
X158427Y147781D01*
X158435Y147721D01*
X158471Y147629D01*
X158499Y147534D01*
X158529Y147481D01*
X158552Y147425D01*
X158610Y147345D01*
X158660Y147260D01*
X158726Y147184D01*
X158738Y147168D01*
X158748Y147160D01*
X158766Y147139D01*
X159452Y146453D01*
X159547Y146380D01*
X159636Y146301D01*
X159672Y146283D01*
X159704Y146258D01*
X159813Y146211D01*
X159919Y146156D01*
X159958Y146148D01*
X159996Y146132D01*
X160113Y146113D01*
X160229Y146087D01*
X160270Y146088D01*
X160310Y146082D01*
X160428Y146093D01*
X160547Y146096D01*
X160586Y146108D01*
X160626Y146111D01*
X160738Y146152D01*
X160853Y146185D01*
X160888Y146205D01*
X160926Y146219D01*
X161024Y146286D01*
X161127Y146346D01*
X161172Y146386D01*
X161189Y146398D01*
X161202Y146413D01*
X161247Y146453D01*
X161718Y146924D01*
X168605Y146924D01*
X168701Y146875D01*
X168740Y146866D01*
X168777Y146850D01*
X168895Y146831D01*
X169011Y146805D01*
X169051Y146806D01*
X169091Y146800D01*
X169210Y146811D01*
X169329Y146815D01*
X169368Y146826D01*
X169408Y146830D01*
X169520Y146870D01*
X169634Y146903D01*
X169669Y146924D01*
X169707Y146937D01*
X169806Y147004D01*
X169908Y147065D01*
X169953Y147105D01*
X169970Y147116D01*
X169984Y147131D01*
X170029Y147171D01*
X170290Y147432D01*
X170869Y147767D01*
X171516Y147940D01*
X173226Y147940D01*
X173226Y139504D01*
X173235Y139434D01*
X173232Y139394D01*
X173228Y139374D01*
X173230Y139354D01*
X173226Y139294D01*
X173226Y130858D01*
X171516Y130858D01*
X170869Y131031D01*
X170290Y131366D01*
X170062Y131594D01*
X169952Y131680D01*
X169845Y131768D01*
X169826Y131777D01*
X169810Y131789D01*
X169682Y131845D01*
X169557Y131904D01*
X169537Y131908D01*
X169518Y131916D01*
X169381Y131937D01*
X169244Y131964D01*
X169224Y131962D01*
X169204Y131966D01*
X169066Y131952D01*
X168927Y131944D01*
X168908Y131938D01*
X168888Y131936D01*
X168756Y131889D01*
X168625Y131846D01*
X168607Y131835D01*
X168588Y131828D01*
X168473Y131750D01*
X168356Y131676D01*
X168342Y131661D01*
X168325Y131650D01*
X168233Y131545D01*
X168138Y131444D01*
X168128Y131426D01*
X168115Y131411D01*
X168051Y131287D01*
X167984Y131166D01*
X167979Y131146D01*
X167970Y131128D01*
X167940Y130992D01*
X167905Y130858D01*
X167903Y130830D01*
X167900Y130818D01*
X167901Y130797D01*
X167895Y130697D01*
X167895Y130271D01*
X167907Y130173D01*
X167910Y130074D01*
X167927Y130015D01*
X167935Y129955D01*
X167971Y129863D01*
X167999Y129768D01*
X168029Y129716D01*
X168052Y129660D01*
X168110Y129580D01*
X168160Y129494D01*
X168226Y129419D01*
X168238Y129402D01*
X168248Y129395D01*
X168266Y129373D01*
X172236Y125404D01*
X172314Y125343D01*
X172386Y125275D01*
X172439Y125246D01*
X172487Y125209D01*
X172578Y125170D01*
X172665Y125122D01*
X172723Y125107D01*
X172779Y125083D01*
X172877Y125067D01*
X172973Y125042D01*
X173073Y125036D01*
X173093Y125033D01*
X173105Y125034D01*
X173133Y125032D01*
X174406Y125032D01*
X174524Y125047D01*
G37*
G36*
X304550Y212804D02*
X304550Y212804D01*
X304688Y212812D01*
X304707Y212818D01*
X304727Y212820D01*
X304858Y212867D01*
X304990Y212910D01*
X305007Y212921D01*
X305026Y212928D01*
X305141Y213006D01*
X305259Y213080D01*
X305273Y213095D01*
X305290Y213106D01*
X305382Y213211D01*
X305477Y213312D01*
X305487Y213330D01*
X305500Y213345D01*
X305563Y213469D01*
X305630Y213590D01*
X305635Y213610D01*
X305645Y213628D01*
X305675Y213764D01*
X305710Y213898D01*
X305712Y213926D01*
X305714Y213938D01*
X305714Y213959D01*
X305720Y214059D01*
X305720Y229193D01*
X305708Y229291D01*
X305705Y229390D01*
X305688Y229448D01*
X305680Y229508D01*
X305644Y229600D01*
X305616Y229695D01*
X305585Y229748D01*
X305563Y229804D01*
X305505Y229884D01*
X305455Y229969D01*
X305388Y230045D01*
X305376Y230061D01*
X305367Y230069D01*
X305348Y230090D01*
X292898Y242540D01*
X289272Y246166D01*
X280890Y254548D01*
X280812Y254609D01*
X280740Y254677D01*
X280687Y254706D01*
X280639Y254743D01*
X280548Y254783D01*
X280461Y254830D01*
X280403Y254845D01*
X280347Y254870D01*
X280249Y254885D01*
X280153Y254910D01*
X280053Y254916D01*
X280033Y254919D01*
X280021Y254918D01*
X279993Y254920D01*
X257955Y254920D01*
X257884Y254911D01*
X257812Y254912D01*
X257726Y254891D01*
X257639Y254880D01*
X257588Y254860D01*
X256236Y254919D01*
X256220Y254918D01*
X256181Y254920D01*
X254934Y254920D01*
X254091Y255840D01*
X254079Y255850D01*
X254052Y255880D01*
X253094Y256838D01*
X253069Y256900D01*
X253027Y256958D01*
X252994Y257021D01*
X252893Y257147D01*
X248850Y261557D01*
X248753Y261639D01*
X248661Y261726D01*
X248632Y261742D01*
X248607Y261763D01*
X248493Y261818D01*
X248383Y261879D01*
X248351Y261888D01*
X248321Y261902D01*
X248197Y261927D01*
X248075Y261959D01*
X248027Y261962D01*
X248009Y261965D01*
X247988Y261964D01*
X247914Y261969D01*
X232806Y261969D01*
X231913Y262862D01*
X231913Y265113D01*
X231898Y265231D01*
X231890Y265349D01*
X231878Y265388D01*
X231873Y265428D01*
X231829Y265539D01*
X231792Y265652D01*
X231771Y265686D01*
X231756Y265724D01*
X231686Y265820D01*
X231622Y265921D01*
X231593Y265948D01*
X231569Y265981D01*
X231477Y266057D01*
X231391Y266139D01*
X231355Y266158D01*
X231324Y266184D01*
X231216Y266235D01*
X231112Y266292D01*
X231073Y266302D01*
X231036Y266319D01*
X230920Y266342D01*
X230804Y266372D01*
X230744Y266375D01*
X230724Y266379D01*
X230704Y266378D01*
X230644Y266382D01*
X229731Y266382D01*
X229613Y266367D01*
X229495Y266359D01*
X229456Y266347D01*
X229416Y266342D01*
X229305Y266298D01*
X229192Y266261D01*
X229158Y266240D01*
X229120Y266225D01*
X229024Y266155D01*
X228923Y266091D01*
X228896Y266062D01*
X228863Y266038D01*
X228787Y265946D01*
X228705Y265860D01*
X228686Y265824D01*
X228660Y265793D01*
X228609Y265685D01*
X228552Y265581D01*
X228542Y265542D01*
X228525Y265505D01*
X228502Y265389D01*
X228472Y265273D01*
X228469Y265213D01*
X228465Y265193D01*
X228466Y265173D01*
X228462Y265113D01*
X228462Y262862D01*
X227569Y261969D01*
X222309Y261969D01*
X222177Y261952D01*
X222044Y261941D01*
X222042Y261941D01*
X222041Y261940D01*
X222017Y261932D01*
X221993Y261929D01*
X221869Y261880D01*
X221744Y261836D01*
X221742Y261836D01*
X221741Y261835D01*
X221720Y261821D01*
X221697Y261812D01*
X221589Y261734D01*
X221479Y261660D01*
X221477Y261659D01*
X221476Y261658D01*
X221452Y261634D01*
X221440Y261625D01*
X221426Y261609D01*
X221419Y261602D01*
X221364Y261547D01*
X221362Y261545D01*
X221356Y261538D01*
X221308Y261470D01*
X221253Y261407D01*
X221245Y261390D01*
X221243Y261388D01*
X221237Y261380D01*
X221217Y261337D01*
X221177Y261279D01*
X221176Y261277D01*
X221175Y261276D01*
X221146Y261198D01*
X221127Y261161D01*
X221108Y261124D01*
X221092Y261051D01*
X221066Y260981D01*
X221066Y260979D01*
X221065Y260978D01*
X221057Y260895D01*
X221039Y260813D01*
X221041Y260739D01*
X221033Y260664D01*
X221034Y260663D01*
X221033Y260661D01*
X221046Y260579D01*
X221048Y260496D01*
X221069Y260424D01*
X221080Y260350D01*
X221081Y260348D01*
X221081Y260347D01*
X221114Y260270D01*
X221137Y260190D01*
X221175Y260126D01*
X221204Y260057D01*
X221205Y260056D01*
X221205Y260054D01*
X221256Y259988D01*
X221298Y259916D01*
X221391Y259811D01*
X221396Y259804D01*
X221398Y259803D01*
X221399Y259802D01*
X221401Y259800D01*
X221405Y259795D01*
X222656Y258544D01*
X222656Y246281D01*
X221763Y245388D01*
X210500Y245388D01*
X209607Y246281D01*
X209607Y248349D01*
X209592Y248467D01*
X209584Y248585D01*
X209572Y248624D01*
X209567Y248664D01*
X209523Y248775D01*
X209486Y248888D01*
X209465Y248922D01*
X209450Y248960D01*
X209380Y249056D01*
X209316Y249157D01*
X209287Y249184D01*
X209263Y249217D01*
X209171Y249293D01*
X209084Y249375D01*
X209049Y249394D01*
X209018Y249420D01*
X208910Y249471D01*
X208806Y249528D01*
X208767Y249538D01*
X208730Y249555D01*
X208613Y249578D01*
X208498Y249608D01*
X208438Y249611D01*
X208418Y249615D01*
X208397Y249614D01*
X208337Y249618D01*
X206471Y249618D01*
X206373Y249605D01*
X206274Y249602D01*
X206215Y249586D01*
X206155Y249578D01*
X206063Y249541D01*
X205968Y249514D01*
X205916Y249483D01*
X205860Y249461D01*
X205780Y249403D01*
X205694Y249352D01*
X205619Y249286D01*
X205602Y249274D01*
X205595Y249265D01*
X205573Y249246D01*
X197635Y241308D01*
X197575Y241230D01*
X197507Y241158D01*
X197477Y241105D01*
X197440Y241057D01*
X197401Y240966D01*
X197353Y240879D01*
X197338Y240820D01*
X197314Y240765D01*
X197298Y240667D01*
X197274Y240571D01*
X197267Y240471D01*
X197264Y240451D01*
X197265Y240438D01*
X197263Y240410D01*
X197263Y234586D01*
X196239Y233561D01*
X196154Y233452D01*
X196065Y233345D01*
X196056Y233326D01*
X196044Y233310D01*
X195989Y233183D01*
X195929Y233057D01*
X195926Y233037D01*
X195918Y233018D01*
X195896Y232880D01*
X195870Y232744D01*
X195871Y232724D01*
X195868Y232704D01*
X195881Y232565D01*
X195889Y232427D01*
X195896Y232408D01*
X195897Y232388D01*
X195945Y232256D01*
X195987Y232125D01*
X195998Y232107D01*
X196005Y232088D01*
X196083Y231973D01*
X196158Y231856D01*
X196172Y231842D01*
X196184Y231825D01*
X196288Y231733D01*
X196389Y231638D01*
X196407Y231628D01*
X196422Y231615D01*
X196546Y231551D01*
X196668Y231484D01*
X196687Y231479D01*
X196705Y231470D01*
X196841Y231440D01*
X196976Y231405D01*
X197004Y231403D01*
X197016Y231400D01*
X197036Y231401D01*
X197136Y231395D01*
X261508Y231395D01*
X273042Y219860D01*
X273120Y219800D01*
X273192Y219732D01*
X273245Y219702D01*
X273293Y219665D01*
X273384Y219626D01*
X273471Y219578D01*
X273530Y219563D01*
X273585Y219539D01*
X273683Y219523D01*
X273779Y219499D01*
X273879Y219492D01*
X273899Y219489D01*
X273912Y219490D01*
X273940Y219488D01*
X297226Y219488D01*
X299235Y217480D01*
X303553Y213162D01*
X303663Y213076D01*
X303770Y212988D01*
X303789Y212979D01*
X303805Y212967D01*
X303933Y212911D01*
X304058Y212852D01*
X304078Y212848D01*
X304096Y212840D01*
X304234Y212818D01*
X304370Y212792D01*
X304390Y212794D01*
X304410Y212790D01*
X304550Y212804D01*
G37*
G36*
X163631Y236077D02*
X163631Y236077D01*
X163749Y236084D01*
X163788Y236097D01*
X163828Y236102D01*
X163939Y236146D01*
X164052Y236182D01*
X164086Y236204D01*
X164124Y236219D01*
X164220Y236289D01*
X164321Y236353D01*
X164348Y236382D01*
X164381Y236406D01*
X164457Y236497D01*
X164539Y236584D01*
X164558Y236620D01*
X164584Y236651D01*
X164635Y236758D01*
X164692Y236863D01*
X164702Y236902D01*
X164719Y236938D01*
X164742Y237055D01*
X164772Y237171D01*
X164775Y237231D01*
X164779Y237251D01*
X164778Y237271D01*
X164782Y237331D01*
X164782Y249556D01*
X166567Y249556D01*
X166666Y249568D01*
X166765Y249571D01*
X166823Y249588D01*
X166883Y249596D01*
X166975Y249632D01*
X167070Y249660D01*
X167122Y249690D01*
X167179Y249713D01*
X167259Y249771D01*
X167344Y249821D01*
X167420Y249887D01*
X167436Y249899D01*
X167444Y249909D01*
X167465Y249928D01*
X168562Y251025D01*
X175925Y251025D01*
X177023Y249928D01*
X177101Y249867D01*
X177173Y249799D01*
X177226Y249770D01*
X177274Y249733D01*
X177365Y249693D01*
X177451Y249645D01*
X177510Y249630D01*
X177566Y249606D01*
X177664Y249591D01*
X177759Y249566D01*
X177859Y249560D01*
X177880Y249556D01*
X177892Y249558D01*
X177920Y249556D01*
X179706Y249556D01*
X179706Y237331D01*
X179721Y237213D01*
X179728Y237094D01*
X179741Y237056D01*
X179746Y237016D01*
X179789Y236905D01*
X179826Y236792D01*
X179848Y236758D01*
X179863Y236720D01*
X179933Y236624D01*
X179996Y236523D01*
X180026Y236495D01*
X180049Y236463D01*
X180141Y236387D01*
X180228Y236305D01*
X180263Y236286D01*
X180294Y236260D01*
X180402Y236209D01*
X180506Y236152D01*
X180546Y236142D01*
X180582Y236124D01*
X180699Y236102D01*
X180814Y236072D01*
X180875Y236068D01*
X180895Y236065D01*
X180915Y236066D01*
X180975Y236062D01*
X188913Y236062D01*
X189031Y236077D01*
X189149Y236084D01*
X189188Y236097D01*
X189228Y236102D01*
X189339Y236146D01*
X189452Y236182D01*
X189486Y236204D01*
X189524Y236219D01*
X189620Y236289D01*
X189721Y236353D01*
X189748Y236382D01*
X189781Y236406D01*
X189857Y236497D01*
X189939Y236584D01*
X189958Y236620D01*
X189984Y236651D01*
X190035Y236758D01*
X190092Y236863D01*
X190102Y236902D01*
X190119Y236938D01*
X190142Y237055D01*
X190172Y237171D01*
X190175Y237231D01*
X190179Y237251D01*
X190178Y237271D01*
X190182Y237331D01*
X190182Y247918D01*
X193407Y251143D01*
X198438Y251143D01*
X198536Y251156D01*
X198635Y251159D01*
X198693Y251176D01*
X198753Y251183D01*
X198845Y251220D01*
X198940Y251247D01*
X198992Y251278D01*
X199049Y251300D01*
X199129Y251358D01*
X199214Y251409D01*
X199290Y251475D01*
X199306Y251487D01*
X199314Y251496D01*
X199335Y251515D01*
X201716Y253896D01*
X201777Y253975D01*
X201845Y254047D01*
X201874Y254100D01*
X201911Y254148D01*
X201951Y254239D01*
X201998Y254325D01*
X202013Y254384D01*
X202038Y254439D01*
X202053Y254537D01*
X202078Y254633D01*
X202084Y254733D01*
X202087Y254753D01*
X202086Y254766D01*
X202088Y254794D01*
X202088Y258763D01*
X202076Y258861D01*
X202073Y258960D01*
X202056Y259018D01*
X202048Y259078D01*
X202012Y259170D01*
X201984Y259265D01*
X201953Y259317D01*
X201931Y259374D01*
X201873Y259454D01*
X201823Y259539D01*
X201756Y259615D01*
X201744Y259631D01*
X201735Y259639D01*
X201716Y259660D01*
X194573Y266804D01*
X194494Y266864D01*
X194422Y266932D01*
X194369Y266962D01*
X194321Y266999D01*
X194230Y267038D01*
X194144Y267086D01*
X194085Y267101D01*
X194029Y267125D01*
X193931Y267141D01*
X193836Y267165D01*
X193736Y267172D01*
X193715Y267175D01*
X193703Y267174D01*
X193675Y267176D01*
X148431Y267176D01*
X148333Y267163D01*
X148234Y267160D01*
X148176Y267143D01*
X148116Y267136D01*
X148024Y267099D01*
X147929Y267072D01*
X147876Y267041D01*
X147820Y267019D01*
X147740Y266961D01*
X147655Y266910D01*
X147579Y266844D01*
X147563Y266832D01*
X147555Y266822D01*
X147534Y266804D01*
X141184Y260454D01*
X141123Y260375D01*
X141055Y260303D01*
X141026Y260250D01*
X140989Y260202D01*
X140949Y260112D01*
X140902Y260025D01*
X140887Y259966D01*
X140862Y259911D01*
X140847Y259813D01*
X140822Y259717D01*
X140816Y259617D01*
X140813Y259597D01*
X140814Y259584D01*
X140812Y259556D01*
X140812Y254794D01*
X140824Y254696D01*
X140827Y254597D01*
X140844Y254538D01*
X140852Y254478D01*
X140888Y254386D01*
X140916Y254291D01*
X140947Y254239D01*
X140969Y254183D01*
X141027Y254103D01*
X141077Y254017D01*
X141144Y253942D01*
X141156Y253925D01*
X141165Y253917D01*
X141184Y253896D01*
X142676Y252404D01*
X142754Y252343D01*
X142826Y252275D01*
X142880Y252246D01*
X142927Y252209D01*
X143018Y252170D01*
X143105Y252122D01*
X143164Y252107D01*
X143219Y252083D01*
X143317Y252067D01*
X143413Y252042D01*
X143513Y252036D01*
X143533Y252033D01*
X143546Y252034D01*
X143574Y252032D01*
X144033Y252032D01*
X144550Y251515D01*
X144628Y251454D01*
X144700Y251386D01*
X144753Y251357D01*
X144801Y251320D01*
X144892Y251281D01*
X144979Y251233D01*
X145037Y251218D01*
X145093Y251194D01*
X145191Y251178D01*
X145287Y251153D01*
X145387Y251147D01*
X145407Y251144D01*
X145419Y251145D01*
X145447Y251143D01*
X151081Y251143D01*
X154306Y247918D01*
X154306Y237331D01*
X154321Y237213D01*
X154328Y237094D01*
X154341Y237056D01*
X154346Y237016D01*
X154389Y236905D01*
X154426Y236792D01*
X154448Y236758D01*
X154463Y236720D01*
X154533Y236624D01*
X154596Y236523D01*
X154626Y236495D01*
X154649Y236463D01*
X154741Y236387D01*
X154828Y236305D01*
X154863Y236286D01*
X154894Y236260D01*
X155002Y236209D01*
X155106Y236152D01*
X155146Y236142D01*
X155182Y236124D01*
X155299Y236102D01*
X155414Y236072D01*
X155475Y236068D01*
X155495Y236065D01*
X155515Y236066D01*
X155575Y236062D01*
X163513Y236062D01*
X163631Y236077D01*
G37*
%LPC*%
G36*
X22156Y275789D02*
X22156Y275789D01*
X16161Y278272D01*
X11572Y282861D01*
X9089Y288856D01*
X9089Y295344D01*
X11572Y301339D01*
X16161Y305928D01*
X22156Y308411D01*
X28644Y308411D01*
X34639Y305928D01*
X39228Y301339D01*
X41711Y295344D01*
X41711Y288856D01*
X39228Y282861D01*
X34639Y278272D01*
X28644Y275789D01*
X22156Y275789D01*
G37*
%LPD*%
%LPC*%
G36*
X288856Y275789D02*
X288856Y275789D01*
X282861Y278272D01*
X278272Y282861D01*
X275789Y288856D01*
X275789Y295344D01*
X278272Y301339D01*
X282861Y305928D01*
X288856Y308411D01*
X295344Y308411D01*
X301339Y305928D01*
X305928Y301339D01*
X308411Y295344D01*
X308411Y288856D01*
X305928Y282861D01*
X301339Y278272D01*
X295344Y275789D01*
X288856Y275789D01*
G37*
%LPD*%
%LPC*%
G36*
X22156Y9089D02*
X22156Y9089D01*
X16161Y11572D01*
X11572Y16161D01*
X9089Y22156D01*
X9089Y28644D01*
X11572Y34639D01*
X16161Y39228D01*
X22156Y41711D01*
X28644Y41711D01*
X34639Y39228D01*
X39228Y34639D01*
X41711Y28644D01*
X41711Y22156D01*
X39228Y16161D01*
X34639Y11572D01*
X28644Y9089D01*
X22156Y9089D01*
G37*
%LPD*%
%LPC*%
G36*
X288856Y9089D02*
X288856Y9089D01*
X282861Y11572D01*
X278272Y16161D01*
X275789Y22156D01*
X275789Y28644D01*
X278272Y34639D01*
X282861Y39228D01*
X288856Y41711D01*
X295344Y41711D01*
X301339Y39228D01*
X305928Y34639D01*
X308411Y28644D01*
X308411Y22156D01*
X305928Y16161D01*
X301339Y11572D01*
X295344Y9089D01*
X288856Y9089D01*
G37*
%LPD*%
%LPC*%
G36*
X114255Y278129D02*
X114255Y278129D01*
X113362Y279022D01*
X113362Y293331D01*
X113347Y293449D01*
X113340Y293568D01*
X113327Y293606D01*
X113322Y293647D01*
X113279Y293757D01*
X113242Y293870D01*
X113220Y293905D01*
X113205Y293942D01*
X113136Y294038D01*
X113072Y294139D01*
X113042Y294167D01*
X113019Y294200D01*
X112927Y294276D01*
X112840Y294357D01*
X112805Y294377D01*
X112774Y294402D01*
X112666Y294453D01*
X112562Y294511D01*
X112522Y294521D01*
X112486Y294538D01*
X112369Y294560D01*
X112254Y294590D01*
X112194Y294594D01*
X112174Y294598D01*
X112153Y294596D01*
X112093Y294600D01*
X104464Y294600D01*
X104405Y294646D01*
X104333Y294714D01*
X104280Y294743D01*
X104232Y294780D01*
X104142Y294819D01*
X104055Y294867D01*
X103996Y294882D01*
X103941Y294906D01*
X103843Y294922D01*
X103747Y294947D01*
X103647Y294953D01*
X103627Y294956D01*
X103614Y294955D01*
X103586Y294957D01*
X102996Y294957D01*
X102996Y296379D01*
X103013Y296391D01*
X103114Y296455D01*
X103142Y296485D01*
X103175Y296508D01*
X103251Y296600D01*
X103332Y296687D01*
X103352Y296722D01*
X103377Y296753D01*
X103428Y296861D01*
X103486Y296965D01*
X103496Y297005D01*
X103513Y297041D01*
X103535Y297158D01*
X103565Y297273D01*
X103569Y297333D01*
X103573Y297353D01*
X103571Y297374D01*
X103575Y297434D01*
X103575Y307757D01*
X104468Y308650D01*
X115732Y308650D01*
X116625Y307757D01*
X116625Y306451D01*
X116640Y306333D01*
X116647Y306214D01*
X116660Y306176D01*
X116665Y306135D01*
X116708Y306025D01*
X116745Y305912D01*
X116767Y305877D01*
X116782Y305840D01*
X116851Y305744D01*
X116915Y305643D01*
X116945Y305615D01*
X116968Y305582D01*
X117060Y305506D01*
X117147Y305425D01*
X117182Y305405D01*
X117213Y305380D01*
X117321Y305329D01*
X117425Y305271D01*
X117465Y305261D01*
X117501Y305244D01*
X117618Y305222D01*
X117733Y305192D01*
X117793Y305188D01*
X117813Y305184D01*
X117834Y305186D01*
X117894Y305182D01*
X123700Y305182D01*
X123818Y305197D01*
X123937Y305204D01*
X123975Y305217D01*
X124015Y305222D01*
X124126Y305265D01*
X124239Y305302D01*
X124273Y305324D01*
X124311Y305339D01*
X124407Y305408D01*
X124508Y305472D01*
X124536Y305502D01*
X124568Y305525D01*
X124644Y305617D01*
X124726Y305704D01*
X124745Y305739D01*
X124771Y305770D01*
X124822Y305878D01*
X124879Y305982D01*
X124889Y306022D01*
X124907Y306058D01*
X124929Y306175D01*
X124959Y306290D01*
X124963Y306350D01*
X124966Y306370D01*
X124965Y306391D01*
X124969Y306451D01*
X124969Y307257D01*
X125862Y308150D01*
X138125Y308150D01*
X139057Y307218D01*
X139157Y307141D01*
X139252Y307059D01*
X139282Y307044D01*
X139309Y307023D01*
X139424Y306973D01*
X139537Y306917D01*
X139569Y306910D01*
X139600Y306896D01*
X139725Y306877D01*
X139848Y306851D01*
X139881Y306852D01*
X139915Y306847D01*
X140040Y306858D01*
X140165Y306864D01*
X140198Y306873D01*
X140231Y306876D01*
X140349Y306919D01*
X140470Y306955D01*
X140499Y306973D01*
X140530Y306984D01*
X140634Y307055D01*
X140742Y307120D01*
X140766Y307144D01*
X140794Y307163D01*
X140877Y307257D01*
X140965Y307347D01*
X140992Y307387D01*
X141004Y307401D01*
X141014Y307420D01*
X141054Y307481D01*
X141461Y308185D01*
X141934Y308658D01*
X142513Y308993D01*
X143159Y309166D01*
X146494Y309166D01*
X146494Y302855D01*
X146509Y302737D01*
X146517Y302618D01*
X146529Y302580D01*
X146534Y302540D01*
X146578Y302429D01*
X146615Y302316D01*
X146636Y302282D01*
X146651Y302244D01*
X146721Y302148D01*
X146785Y302047D01*
X146814Y302019D01*
X146838Y301987D01*
X146930Y301911D01*
X147017Y301829D01*
X147052Y301810D01*
X147083Y301784D01*
X147191Y301733D01*
X147295Y301676D01*
X147334Y301666D01*
X147371Y301648D01*
X147477Y301628D01*
X147448Y301624D01*
X147337Y301580D01*
X147224Y301544D01*
X147190Y301522D01*
X147152Y301507D01*
X147056Y301437D01*
X146956Y301374D01*
X146928Y301344D01*
X146895Y301320D01*
X146819Y301229D01*
X146738Y301142D01*
X146718Y301107D01*
X146692Y301075D01*
X146642Y300968D01*
X146584Y300863D01*
X146574Y300824D01*
X146557Y300788D01*
X146534Y300671D01*
X146505Y300555D01*
X146501Y300495D01*
X146497Y300475D01*
X146498Y300455D01*
X146494Y300395D01*
X146494Y294084D01*
X143159Y294084D01*
X142513Y294257D01*
X141934Y294592D01*
X141461Y295065D01*
X141054Y295769D01*
X140978Y295869D01*
X140907Y295973D01*
X140882Y295996D01*
X140862Y296023D01*
X140763Y296101D01*
X140669Y296184D01*
X140639Y296199D01*
X140613Y296220D01*
X140498Y296271D01*
X140386Y296329D01*
X140353Y296336D01*
X140322Y296350D01*
X140198Y296371D01*
X140075Y296398D01*
X140042Y296397D01*
X140009Y296403D01*
X139883Y296392D01*
X139758Y296389D01*
X139725Y296379D01*
X139692Y296376D01*
X139573Y296335D01*
X139452Y296300D01*
X139423Y296283D01*
X139391Y296272D01*
X139287Y296203D01*
X139178Y296139D01*
X139141Y296106D01*
X139126Y296096D01*
X139112Y296080D01*
X139057Y296032D01*
X138125Y295100D01*
X125862Y295100D01*
X124969Y295993D01*
X124969Y296799D01*
X124954Y296917D01*
X124947Y297036D01*
X124934Y297074D01*
X124929Y297115D01*
X124885Y297225D01*
X124849Y297338D01*
X124827Y297373D01*
X124812Y297410D01*
X124742Y297506D01*
X124679Y297607D01*
X124649Y297635D01*
X124625Y297668D01*
X124534Y297744D01*
X124447Y297825D01*
X124411Y297845D01*
X124380Y297870D01*
X124273Y297921D01*
X124168Y297979D01*
X124129Y297989D01*
X124093Y298006D01*
X123976Y298028D01*
X123860Y298058D01*
X123800Y298062D01*
X123780Y298066D01*
X123760Y298064D01*
X123700Y298068D01*
X121364Y298068D01*
X121246Y298053D01*
X121127Y298046D01*
X121089Y298033D01*
X121048Y298028D01*
X120938Y297985D01*
X120825Y297948D01*
X120790Y297926D01*
X120753Y297911D01*
X120657Y297842D01*
X120556Y297778D01*
X120528Y297748D01*
X120495Y297725D01*
X120419Y297633D01*
X120338Y297546D01*
X120318Y297511D01*
X120293Y297480D01*
X120242Y297372D01*
X120184Y297268D01*
X120174Y297228D01*
X120157Y297192D01*
X120135Y297075D01*
X120105Y296960D01*
X120101Y296900D01*
X120097Y296880D01*
X120099Y296859D01*
X120095Y296799D01*
X120095Y295924D01*
X120107Y295826D01*
X120110Y295727D01*
X120127Y295669D01*
X120135Y295609D01*
X120171Y295517D01*
X120199Y295422D01*
X120229Y295369D01*
X120252Y295313D01*
X120310Y295233D01*
X120360Y295148D01*
X120426Y295072D01*
X120438Y295056D01*
X120448Y295048D01*
X120466Y295027D01*
X121238Y294256D01*
X121238Y279022D01*
X120345Y278129D01*
X114255Y278129D01*
G37*
%LPD*%
%LPC*%
G36*
X244991Y294647D02*
X244991Y294647D01*
X244344Y294820D01*
X243765Y295154D01*
X243463Y295456D01*
X243369Y295529D01*
X243280Y295608D01*
X243244Y295626D01*
X243212Y295651D01*
X243103Y295698D01*
X242997Y295752D01*
X242957Y295761D01*
X242920Y295777D01*
X242802Y295796D01*
X242686Y295822D01*
X242646Y295821D01*
X242606Y295827D01*
X242487Y295816D01*
X242369Y295812D01*
X242330Y295801D01*
X242290Y295797D01*
X242178Y295757D01*
X242063Y295724D01*
X242028Y295703D01*
X241990Y295690D01*
X241951Y295663D01*
X229612Y295663D01*
X228719Y296556D01*
X228719Y298036D01*
X228704Y298154D01*
X228697Y298273D01*
X228684Y298311D01*
X228679Y298352D01*
X228635Y298462D01*
X228599Y298575D01*
X228577Y298610D01*
X228562Y298647D01*
X228492Y298743D01*
X228429Y298844D01*
X228399Y298872D01*
X228375Y298905D01*
X228284Y298981D01*
X228197Y299062D01*
X228161Y299082D01*
X228130Y299107D01*
X228023Y299158D01*
X227918Y299216D01*
X227879Y299226D01*
X227843Y299243D01*
X227726Y299265D01*
X227610Y299295D01*
X227550Y299299D01*
X227530Y299303D01*
X227510Y299301D01*
X227450Y299305D01*
X204438Y299305D01*
X204320Y299290D01*
X204201Y299283D01*
X204162Y299270D01*
X204122Y299265D01*
X204011Y299222D01*
X203898Y299185D01*
X203864Y299163D01*
X203827Y299148D01*
X203730Y299079D01*
X203630Y299015D01*
X203602Y298985D01*
X203569Y298962D01*
X203493Y298870D01*
X203412Y298783D01*
X203392Y298748D01*
X203366Y298717D01*
X203316Y298609D01*
X203258Y298505D01*
X203248Y298465D01*
X203231Y298429D01*
X203208Y298312D01*
X203179Y298197D01*
X203175Y298137D01*
X203171Y298117D01*
X203172Y298096D01*
X203168Y298036D01*
X203168Y296968D01*
X202275Y296075D01*
X193012Y296075D01*
X192119Y296968D01*
X192119Y307232D01*
X193012Y308125D01*
X202275Y308125D01*
X203168Y307232D01*
X203168Y306164D01*
X203183Y306046D01*
X203191Y305927D01*
X203203Y305889D01*
X203208Y305848D01*
X203252Y305738D01*
X203289Y305625D01*
X203310Y305590D01*
X203325Y305553D01*
X203395Y305457D01*
X203459Y305356D01*
X203488Y305328D01*
X203512Y305295D01*
X203604Y305219D01*
X203691Y305138D01*
X203726Y305118D01*
X203757Y305093D01*
X203865Y305042D01*
X203969Y304984D01*
X204008Y304974D01*
X204045Y304957D01*
X204162Y304935D01*
X204277Y304905D01*
X204337Y304901D01*
X204357Y304897D01*
X204378Y304899D01*
X204438Y304895D01*
X227450Y304895D01*
X227568Y304910D01*
X227687Y304917D01*
X227725Y304930D01*
X227765Y304935D01*
X227876Y304978D01*
X227989Y305015D01*
X228023Y305037D01*
X228061Y305052D01*
X228157Y305121D01*
X228258Y305185D01*
X228286Y305215D01*
X228318Y305238D01*
X228394Y305330D01*
X228476Y305417D01*
X228495Y305452D01*
X228521Y305483D01*
X228572Y305591D01*
X228629Y305695D01*
X228639Y305735D01*
X228657Y305771D01*
X228679Y305888D01*
X228709Y306003D01*
X228713Y306063D01*
X228716Y306083D01*
X228715Y306104D01*
X228719Y306164D01*
X228719Y307819D01*
X229612Y308712D01*
X241947Y308712D01*
X242029Y308677D01*
X242135Y308623D01*
X242174Y308614D01*
X242211Y308598D01*
X242329Y308579D01*
X242445Y308553D01*
X242486Y308554D01*
X242526Y308548D01*
X242644Y308559D01*
X242763Y308563D01*
X242802Y308574D01*
X242842Y308578D01*
X242954Y308618D01*
X243069Y308651D01*
X243103Y308672D01*
X243141Y308685D01*
X243240Y308752D01*
X243343Y308813D01*
X243388Y308852D01*
X243405Y308864D01*
X243418Y308879D01*
X243463Y308919D01*
X243765Y309221D01*
X244344Y309555D01*
X244991Y309728D01*
X248326Y309728D01*
X248326Y303418D01*
X248341Y303299D01*
X248348Y303181D01*
X248360Y303142D01*
X248366Y303102D01*
X248409Y302991D01*
X248446Y302878D01*
X248468Y302844D01*
X248483Y302806D01*
X248552Y302710D01*
X248616Y302610D01*
X248646Y302582D01*
X248669Y302549D01*
X248761Y302473D01*
X248848Y302392D01*
X248883Y302372D01*
X248914Y302346D01*
X249022Y302296D01*
X249126Y302238D01*
X249166Y302228D01*
X249202Y302211D01*
X249309Y302190D01*
X249279Y302187D01*
X249169Y302143D01*
X249056Y302106D01*
X249021Y302085D01*
X248984Y302070D01*
X248887Y302000D01*
X248787Y301936D01*
X248759Y301907D01*
X248726Y301883D01*
X248650Y301791D01*
X248569Y301704D01*
X248549Y301669D01*
X248524Y301638D01*
X248473Y301530D01*
X248415Y301426D01*
X248405Y301387D01*
X248388Y301350D01*
X248366Y301233D01*
X248336Y301118D01*
X248332Y301058D01*
X248328Y301038D01*
X248330Y301017D01*
X248326Y300957D01*
X248326Y294647D01*
X244991Y294647D01*
G37*
%LPD*%
%LPC*%
G36*
X183512Y276075D02*
X183512Y276075D01*
X182619Y276968D01*
X182619Y278511D01*
X182604Y278629D01*
X182597Y278748D01*
X182584Y278786D01*
X182579Y278827D01*
X182535Y278937D01*
X182499Y279050D01*
X182477Y279085D01*
X182462Y279122D01*
X182392Y279218D01*
X182329Y279319D01*
X182299Y279347D01*
X182275Y279380D01*
X182184Y279456D01*
X182097Y279537D01*
X182061Y279557D01*
X182030Y279582D01*
X181923Y279633D01*
X181818Y279691D01*
X181779Y279701D01*
X181743Y279718D01*
X181626Y279740D01*
X181510Y279770D01*
X181450Y279774D01*
X181430Y279778D01*
X181410Y279776D01*
X181350Y279780D01*
X177415Y279780D01*
X177317Y279768D01*
X177218Y279765D01*
X177160Y279748D01*
X177099Y279740D01*
X177007Y279704D01*
X176912Y279676D01*
X176860Y279646D01*
X176804Y279623D01*
X176724Y279565D01*
X176638Y279515D01*
X176563Y279449D01*
X176546Y279437D01*
X176539Y279427D01*
X176517Y279409D01*
X174984Y277875D01*
X171091Y277875D01*
X168338Y280628D01*
X168338Y284522D01*
X171091Y287275D01*
X174984Y287275D01*
X176517Y285741D01*
X176596Y285681D01*
X176668Y285613D01*
X176721Y285584D01*
X176769Y285547D01*
X176860Y285507D01*
X176946Y285459D01*
X177005Y285444D01*
X177061Y285420D01*
X177159Y285405D01*
X177254Y285380D01*
X177354Y285374D01*
X177375Y285370D01*
X177387Y285372D01*
X177415Y285370D01*
X181350Y285370D01*
X181468Y285385D01*
X181587Y285392D01*
X181625Y285405D01*
X181665Y285410D01*
X181776Y285453D01*
X181889Y285490D01*
X181923Y285512D01*
X181961Y285527D01*
X182057Y285596D01*
X182158Y285660D01*
X182186Y285690D01*
X182218Y285713D01*
X182294Y285805D01*
X182376Y285892D01*
X182395Y285927D01*
X182421Y285958D01*
X182472Y286066D01*
X182529Y286170D01*
X182539Y286210D01*
X182557Y286246D01*
X182579Y286363D01*
X182609Y286478D01*
X182613Y286538D01*
X182616Y286558D01*
X182615Y286579D01*
X182619Y286639D01*
X182619Y287232D01*
X183512Y288125D01*
X192775Y288125D01*
X193668Y287232D01*
X193668Y276968D01*
X192775Y276075D01*
X183512Y276075D01*
G37*
%LPD*%
%LPC*%
G36*
X121247Y90114D02*
X121247Y90114D01*
X118192Y91379D01*
X115854Y93717D01*
X114589Y96772D01*
X114589Y100078D01*
X115854Y103133D01*
X118192Y105471D01*
X121247Y106736D01*
X124553Y106736D01*
X127608Y105471D01*
X129946Y103133D01*
X131211Y100078D01*
X131211Y96772D01*
X129946Y93717D01*
X127608Y91379D01*
X124553Y90114D01*
X121247Y90114D01*
G37*
%LPD*%
%LPC*%
G36*
X53247Y90114D02*
X53247Y90114D01*
X50192Y91379D01*
X47854Y93717D01*
X46589Y96772D01*
X46589Y100078D01*
X47854Y103133D01*
X50192Y105471D01*
X53247Y106736D01*
X56553Y106736D01*
X59608Y105471D01*
X61946Y103133D01*
X63211Y100078D01*
X63211Y96772D01*
X61946Y93717D01*
X59608Y91379D01*
X56553Y90114D01*
X53247Y90114D01*
G37*
%LPD*%
%LPC*%
G36*
X278552Y67359D02*
X278552Y67359D01*
X278552Y73861D01*
X286553Y73861D01*
X286553Y69566D01*
X286380Y68919D01*
X286046Y68340D01*
X285572Y67867D01*
X284993Y67532D01*
X284347Y67359D01*
X278552Y67359D01*
G37*
%LPD*%
%LPC*%
G36*
X267678Y67359D02*
X267678Y67359D01*
X267032Y67532D01*
X266453Y67867D01*
X265979Y68340D01*
X265645Y68919D01*
X265472Y69566D01*
X265472Y73861D01*
X273473Y73861D01*
X273473Y67359D01*
X267678Y67359D01*
G37*
%LPD*%
%LPC*%
G36*
X132112Y42981D02*
X132112Y42981D01*
X132112Y53063D01*
X137153Y53063D01*
X137153Y49728D01*
X136980Y49082D01*
X136735Y48657D01*
X136694Y48559D01*
X136644Y48465D01*
X136632Y48413D01*
X136611Y48363D01*
X136596Y48259D01*
X136572Y48156D01*
X136573Y48102D01*
X136565Y48049D01*
X136576Y47944D01*
X136578Y47838D01*
X136592Y47786D01*
X136598Y47732D01*
X136635Y47634D01*
X136663Y47531D01*
X136701Y47454D01*
X136709Y47434D01*
X136717Y47422D01*
X136735Y47387D01*
X136980Y46962D01*
X137153Y46316D01*
X137153Y42981D01*
X132112Y42981D01*
G37*
%LPD*%
%LPC*%
G36*
X122072Y42981D02*
X122072Y42981D01*
X122072Y46316D01*
X122245Y46962D01*
X122490Y47387D01*
X122532Y47485D01*
X122581Y47578D01*
X122593Y47631D01*
X122614Y47680D01*
X122629Y47785D01*
X122653Y47888D01*
X122652Y47942D01*
X122660Y47995D01*
X122649Y48100D01*
X122647Y48206D01*
X122633Y48258D01*
X122627Y48311D01*
X122590Y48410D01*
X122562Y48512D01*
X122524Y48589D01*
X122516Y48609D01*
X122508Y48622D01*
X122490Y48657D01*
X122245Y49082D01*
X122072Y49728D01*
X122072Y53063D01*
X127113Y53063D01*
X127113Y42981D01*
X122072Y42981D01*
G37*
%LPD*%
%LPC*%
G36*
X175974Y140773D02*
X175974Y140773D01*
X175974Y147940D01*
X177684Y147940D01*
X178331Y147767D01*
X178910Y147432D01*
X179383Y146959D01*
X179718Y146380D01*
X179891Y145733D01*
X179891Y140773D01*
X175974Y140773D01*
G37*
%LPD*%
%LPC*%
G36*
X253324Y304687D02*
X253324Y304687D01*
X253324Y309728D01*
X256659Y309728D01*
X257306Y309555D01*
X257885Y309221D01*
X258358Y308747D01*
X258693Y308168D01*
X258866Y307522D01*
X258866Y304687D01*
X253324Y304687D01*
G37*
%LPD*%
%LPC*%
G36*
X151493Y304124D02*
X151493Y304124D01*
X151493Y309166D01*
X154828Y309166D01*
X155475Y308993D01*
X156054Y308658D01*
X156527Y308185D01*
X156861Y307606D01*
X157034Y306959D01*
X157034Y304124D01*
X151493Y304124D01*
G37*
%LPD*%
%LPC*%
G36*
X151493Y294084D02*
X151493Y294084D01*
X151493Y299126D01*
X157034Y299126D01*
X157034Y296291D01*
X156861Y295644D01*
X156527Y295065D01*
X156054Y294592D01*
X155475Y294257D01*
X154828Y294084D01*
X151493Y294084D01*
G37*
%LPD*%
%LPC*%
G36*
X209143Y284099D02*
X209143Y284099D01*
X209143Y289141D01*
X211478Y289141D01*
X212125Y288968D01*
X212704Y288633D01*
X213177Y288160D01*
X213511Y287581D01*
X213684Y286934D01*
X213684Y284099D01*
X209143Y284099D01*
G37*
%LPD*%
%LPC*%
G36*
X200603Y284099D02*
X200603Y284099D01*
X200603Y286934D01*
X200776Y287581D01*
X201111Y288160D01*
X201584Y288633D01*
X202163Y288968D01*
X202809Y289141D01*
X205144Y289141D01*
X205144Y284099D01*
X200603Y284099D01*
G37*
%LPD*%
%LPC*%
G36*
X202809Y275059D02*
X202809Y275059D01*
X202163Y275232D01*
X201584Y275567D01*
X201111Y276040D01*
X200776Y276619D01*
X200603Y277266D01*
X200603Y280101D01*
X205144Y280101D01*
X205144Y275059D01*
X202809Y275059D01*
G37*
%LPD*%
%LPC*%
G36*
X198616Y162359D02*
X198616Y162359D01*
X197969Y162532D01*
X197390Y162867D01*
X196917Y163340D01*
X196582Y163919D01*
X196409Y164566D01*
X196409Y167026D01*
X201076Y167026D01*
X201076Y162359D01*
X198616Y162359D01*
G37*
%LPD*%
%LPC*%
G36*
X58793Y303624D02*
X58793Y303624D01*
X58793Y308166D01*
X61128Y308166D01*
X61775Y307993D01*
X62354Y307658D01*
X62827Y307185D01*
X63161Y306606D01*
X63334Y305959D01*
X63334Y303624D01*
X58793Y303624D01*
G37*
%LPD*%
%LPC*%
G36*
X58793Y299626D02*
X58793Y299626D01*
X63334Y299626D01*
X63334Y297291D01*
X63161Y296644D01*
X62827Y296065D01*
X62354Y295592D01*
X61775Y295257D01*
X61128Y295084D01*
X58793Y295084D01*
X58793Y299626D01*
G37*
%LPD*%
%LPC*%
G36*
X50253Y303624D02*
X50253Y303624D01*
X50253Y305959D01*
X50426Y306606D01*
X50761Y307185D01*
X51234Y307658D01*
X51813Y307993D01*
X52459Y308166D01*
X54794Y308166D01*
X54794Y303624D01*
X50253Y303624D01*
G37*
%LPD*%
%LPC*%
G36*
X52459Y295084D02*
X52459Y295084D01*
X51813Y295257D01*
X51234Y295592D01*
X50761Y296065D01*
X50426Y296644D01*
X50253Y297291D01*
X50253Y299626D01*
X54794Y299626D01*
X54794Y295084D01*
X52459Y295084D01*
G37*
%LPD*%
D10*
X235513Y173038D03*
X218513Y173038D03*
D11*
X262044Y267494D03*
X247544Y267494D03*
D12*
X235744Y285188D03*
X235744Y302188D03*
X250825Y285188D03*
X250825Y302188D03*
D13*
X38100Y198400D03*
X38100Y233400D03*
D14*
X279400Y233400D03*
X279400Y198400D03*
D15*
X243200Y76425D03*
X223200Y120425D03*
X183200Y120425D03*
X163200Y76425D03*
D10*
X129613Y70644D03*
X146613Y70644D03*
X146613Y55563D03*
X129613Y55563D03*
X129613Y25400D03*
X146613Y25400D03*
X146613Y40481D03*
X129613Y40481D03*
D16*
X276013Y76400D03*
D17*
X305013Y88900D03*
D16*
X276013Y101400D03*
D10*
X283600Y127000D03*
X300600Y127000D03*
D18*
X292100Y152400D03*
D15*
X88900Y120425D03*
X113900Y76425D03*
X63900Y76425D03*
D19*
X27464Y118269D02*
X12224Y118269D01*
X12224Y92869D02*
X27464Y92869D01*
D11*
X222938Y267494D03*
X237438Y267494D03*
D10*
X216131Y252413D03*
X233131Y252413D03*
D20*
X172244Y243150D03*
X184944Y243150D03*
X159544Y243150D03*
X146844Y243150D03*
D21*
X184944Y188500D03*
D22*
X171994Y186950D03*
X159794Y186950D03*
D21*
X146844Y188500D03*
D23*
X177194Y209550D03*
X154594Y209550D03*
D24*
X155600Y139399D03*
X165100Y139399D03*
X174600Y139399D03*
X174600Y165401D03*
X155600Y165401D03*
D25*
X197644Y302100D03*
X207144Y282100D03*
X188144Y282100D03*
D12*
X131994Y301625D03*
X148994Y301625D03*
D10*
X65881Y281550D03*
X65881Y264550D03*
D11*
X56794Y301625D03*
X71794Y301625D03*
D10*
X93100Y301625D03*
X110100Y301625D03*
D26*
X203200Y169150D03*
X203200Y135650D03*
D27*
X117300Y286639D03*
D28*
X101600Y286639D03*
D27*
X85900Y286639D03*
D29*
X304800Y266700D03*
X279400Y266700D03*
X266700Y279400D03*
X266700Y304800D03*
X114300Y12700D03*
X165100Y12700D03*
X174625Y101600D03*
X114300Y47625D03*
X38100Y266700D03*
X12700Y266700D03*
X304800Y50800D03*
X279400Y50800D03*
X266700Y38100D03*
X266700Y12700D03*
X50800Y12700D03*
X50800Y38100D03*
X187325Y152400D03*
X78581Y245269D03*
X125413Y246063D03*
D30*
X88900Y120425D02*
X30731Y120425D01*
D29*
X225425Y161131D03*
D30*
X225194Y161363D01*
X225194Y164306D01*
D31*
X153988Y261938D03*
X146050Y256381D03*
X188913Y261938D03*
X196850Y256381D03*
D32*
X247544Y267494D02*
X256275Y257969D01*
X281781Y257969D01*
X308769Y230981D01*
X308769Y169863D01*
X210344Y269875D02*
X196850Y256381D01*
D30*
X233925Y173038D02*
X225194Y164306D01*
D32*
X235513Y173038D02*
X278606Y173038D01*
X281781Y169863D01*
X308769Y169863D01*
X212725Y269875D02*
X210344Y269875D01*
X212725Y269875D02*
X218281Y275431D01*
X231775Y275431D01*
X239713Y267494D01*
X247544Y267494D01*
X239713Y267494D02*
X237438Y267494D01*
D33*
X235513Y173038D02*
X233925Y173038D01*
D30*
X133125Y120425D02*
X88900Y120425D01*
X133125Y120425D02*
X139700Y127000D01*
D29*
X139700Y127000D03*
D30*
X30731Y120425D02*
X19844Y118269D01*
D29*
X261938Y294481D03*
D30*
X41275Y256381D02*
X29369Y256381D01*
X15081Y242094D01*
X15081Y177800D01*
X250825Y285188D02*
X260119Y294481D01*
X261938Y294481D01*
X250825Y288925D02*
X250825Y285188D01*
D29*
X173038Y282575D03*
D30*
X187669Y282575D01*
X188144Y282100D01*
X46831Y261938D02*
X41275Y256381D01*
D29*
X46831Y261938D03*
D30*
X15081Y177800D02*
X19050Y173831D01*
X151693Y174195D02*
X159507Y174195D01*
X161144Y172558D01*
X151693Y174195D02*
X151329Y173831D01*
X19050Y173831D01*
X155600Y154794D02*
X155600Y139399D01*
X159507Y156607D02*
X161144Y158244D01*
X159507Y156607D02*
X157414Y156607D01*
X155600Y154794D01*
X161144Y158244D02*
X161144Y172558D01*
X252519Y276225D02*
X262044Y267494D01*
X215338Y176213D02*
X218513Y173038D01*
X215338Y176213D02*
X175419Y176213D01*
X171450Y180181D01*
X167481Y180181D01*
X165894Y181769D01*
X165894Y230188D01*
X163513Y232569D01*
X153194Y232569D01*
X146844Y238919D01*
X146844Y243150D01*
D29*
X223838Y284163D03*
X136525Y250825D03*
D30*
X138113Y249238D01*
X142875Y249238D01*
X146844Y245269D01*
X146844Y243150D01*
X223838Y284163D02*
X227244Y285188D01*
X235744Y285188D01*
X244475Y276225D02*
X252519Y276225D01*
X244475Y276225D02*
X235744Y284956D01*
X235744Y285188D01*
X235656Y302100D02*
X197644Y302100D01*
X235656Y302100D02*
X235744Y302188D01*
X30163Y250825D02*
X19844Y240506D01*
X19844Y208756D01*
X25400Y203200D01*
X38100Y203200D01*
X38100Y198400D01*
X30163Y250825D02*
X50800Y250825D01*
X56356Y256381D01*
X56356Y277813D01*
X60094Y281550D01*
X65881Y281550D01*
X70970Y286639D01*
X85900Y286639D01*
X146613Y70644D02*
X146613Y55563D01*
X146613Y70644D02*
X146613Y78350D01*
X156369Y88106D01*
X190881Y88106D01*
X223200Y120425D01*
X146613Y40481D02*
X146613Y25400D01*
X146613Y40481D02*
X154781Y40481D01*
X165100Y50800D01*
X165100Y74525D01*
X163200Y76425D01*
X276013Y101400D02*
X291106Y101400D01*
X300831Y111125D01*
X300831Y126769D01*
X300600Y127000D01*
D33*
X190500Y127725D02*
X183200Y120425D01*
X190500Y127725D02*
X192156Y129381D01*
X207169Y129381D01*
X209550Y131763D01*
X234156Y131763D01*
X236538Y129381D01*
X254000Y150094D02*
X289794Y150094D01*
X292100Y152400D01*
X249238Y129381D02*
X236538Y129381D01*
X249238Y129381D02*
X254000Y134144D01*
X254000Y150094D01*
X203200Y135650D02*
X190500Y127725D01*
D30*
X183200Y120425D02*
X181388Y122238D01*
X171450Y122238D02*
X165100Y128588D01*
X165100Y139399D01*
X171450Y122238D02*
X181388Y122238D01*
X63900Y76425D02*
X38100Y76425D01*
X63900Y76425D02*
X95025Y76425D01*
X101600Y69850D01*
X101600Y63500D01*
X101600Y38100D01*
X114300Y25400D01*
X127000Y25400D01*
X122469Y63500D02*
X129613Y70644D01*
X122469Y63500D02*
X101600Y63500D01*
X129613Y22788D02*
X139700Y12700D01*
X152400Y12700D01*
X177800Y37306D01*
X177800Y63500D01*
X223838Y109538D01*
X250031Y109538D01*
X267494Y127000D01*
X283600Y127000D01*
D33*
X129613Y25400D02*
X127000Y25400D01*
X129613Y25400D02*
X129613Y22788D01*
D30*
X38100Y76425D02*
X19844Y92869D01*
X194469Y235744D02*
X194469Y242094D01*
X194469Y235744D02*
X191294Y232569D01*
X178594Y232569D01*
X172244Y238919D01*
X172244Y243150D01*
X194469Y242094D02*
X204788Y252413D01*
X216131Y252413D01*
X216131Y259894D02*
X222938Y267494D01*
X216131Y259894D02*
X216131Y252413D01*
X255675Y88900D02*
X305013Y88900D01*
X255675Y88900D02*
X243200Y76425D01*
D33*
X131994Y301625D02*
X116681Y301625D01*
X110100Y301625D01*
D30*
X117300Y301006D02*
X117300Y286639D01*
X117300Y301006D02*
X116681Y301625D01*
X93100Y301625D02*
X71794Y301625D01*
M02*
