%
M48
M72
T01C0.0150
T02C0.0256
T03C0.0300
T04C0.0354
T05C0.0400
T06C0.0433
T07C0.0984
%
T01
X3150Y3150
X3650Y1650
X5556Y3494
X6150Y1650
X7150Y1650
X9150Y1650
X11150Y1650
X11150Y3150
X12650Y3650
X10025Y7494
X9463Y7059
X9150Y5650
X8025Y5150
X6650Y5650
X6931Y7400
X5963Y7588
X5056Y6838
X4994Y6213
X4494Y6525
X3900Y7338
X2900Y6306
X2650Y5150
X4150Y5150
X5713Y10306
X4838Y12369
X3556Y12244
X3150Y12650
X3150Y13150
X2556Y11744
X1650Y11650
X3556Y11306
X6681Y13338
X7463Y13338
X7681Y12588
X8025Y12681
X7931Y12056
X7619Y11838
X7119Y12494
X8588Y12713
X8963Y12713
X9431Y12088
X9150Y11556
X9056Y10650
X10056Y12025
X10088Y13056
X11463Y12744
X11650Y13150
X11650Y12150
X12150Y11650
X13150Y11650
X13025Y8869
X12713Y7869
X11713Y7869
X10869Y7869
T02
X2744Y7463
X2244Y7463
X2244Y6963
X2744Y6963
X1744Y6963
X1744Y7463
T03
X6056Y8619
X6025Y9963
X9119Y9931
X9056Y8525
T04
X10331Y5025
X7181Y5025
X5989Y5025
X3311Y5025
T05
X1775Y4806
X1775Y5806
T06
X2650Y8961
X2650Y10339
X12150Y10339
X12150Y8961
T07
X2150Y2150
X2150Y12650
X12650Y12650
X12650Y2150
M30
