G75*
%MOIN*%
%OFA0B0*%
%FSLAX25Y25*%
%IPPOS*%
%LPD*%
%AMOC8*
5,1,8,0,0,1.08239X$1,22.5*
%
%ADD10C,0.00000*%
D10*
X0016500Y0038333D02*
X0131500Y0038333D01*
X0131500Y0038334D02*
X0131638Y0038331D01*
X0131777Y0038332D01*
X0131915Y0038338D01*
X0132053Y0038347D01*
X0132191Y0038361D01*
X0132328Y0038378D01*
X0132465Y0038399D01*
X0132601Y0038424D01*
X0132736Y0038453D01*
X0132871Y0038486D01*
X0133004Y0038522D01*
X0133136Y0038563D01*
X0133268Y0038607D01*
X0133398Y0038655D01*
X0133526Y0038706D01*
X0133653Y0038762D01*
X0133778Y0038820D01*
X0133902Y0038883D01*
X0134023Y0038949D01*
X0134143Y0039018D01*
X0134261Y0039091D01*
X0134377Y0039167D01*
X0134490Y0039246D01*
X0134601Y0039329D01*
X0134710Y0039414D01*
X0134816Y0039503D01*
X0134920Y0039595D01*
X0135021Y0039689D01*
X0135119Y0039787D01*
X0135214Y0039887D01*
X0135307Y0039990D01*
X0135396Y0040096D01*
X0135483Y0040204D01*
X0135566Y0040314D01*
X0135646Y0040427D01*
X0135723Y0040542D01*
X0135797Y0040659D01*
X0135867Y0040779D01*
X0135934Y0040900D01*
X0135997Y0041023D01*
X0136057Y0041148D01*
X0136113Y0041274D01*
X0136165Y0041402D01*
X0136214Y0041532D01*
X0136259Y0041663D01*
X0136301Y0041795D01*
X0136338Y0041928D01*
X0136372Y0042062D01*
X0136402Y0042197D01*
X0136428Y0042333D01*
X0136450Y0042470D01*
X0136468Y0042607D01*
X0136483Y0042745D01*
X0136493Y0042883D01*
X0136499Y0043021D01*
X0136500Y0043021D02*
X0136500Y0158021D01*
X0136501Y0158021D02*
X0136503Y0158163D01*
X0136501Y0158305D01*
X0136496Y0158447D01*
X0136487Y0158589D01*
X0136473Y0158731D01*
X0136456Y0158872D01*
X0136435Y0159012D01*
X0136410Y0159152D01*
X0136381Y0159291D01*
X0136349Y0159430D01*
X0136312Y0159567D01*
X0136272Y0159704D01*
X0136228Y0159839D01*
X0136180Y0159973D01*
X0136129Y0160105D01*
X0136074Y0160236D01*
X0136016Y0160366D01*
X0135953Y0160494D01*
X0135888Y0160620D01*
X0135819Y0160744D01*
X0135746Y0160867D01*
X0135671Y0160987D01*
X0135592Y0161105D01*
X0135509Y0161221D01*
X0135424Y0161335D01*
X0135335Y0161446D01*
X0135244Y0161555D01*
X0135149Y0161661D01*
X0135052Y0161764D01*
X0134951Y0161865D01*
X0134848Y0161963D01*
X0134743Y0162058D01*
X0134635Y0162150D01*
X0134524Y0162239D01*
X0134411Y0162326D01*
X0134295Y0162408D01*
X0134178Y0162488D01*
X0134058Y0162565D01*
X0133936Y0162638D01*
X0133812Y0162707D01*
X0133686Y0162774D01*
X0133558Y0162837D01*
X0133429Y0162896D01*
X0133298Y0162951D01*
X0133166Y0163003D01*
X0133032Y0163052D01*
X0132898Y0163097D01*
X0132761Y0163137D01*
X0132624Y0163175D01*
X0132486Y0163208D01*
X0132347Y0163238D01*
X0132207Y0163263D01*
X0132067Y0163285D01*
X0131926Y0163303D01*
X0131784Y0163317D01*
X0131642Y0163327D01*
X0131500Y0163334D01*
X0131500Y0163333D02*
X0016500Y0163333D01*
X0016360Y0163331D01*
X0016220Y0163325D01*
X0016080Y0163315D01*
X0015940Y0163302D01*
X0015801Y0163284D01*
X0015662Y0163262D01*
X0015525Y0163237D01*
X0015387Y0163208D01*
X0015251Y0163175D01*
X0015116Y0163138D01*
X0014982Y0163097D01*
X0014849Y0163052D01*
X0014717Y0163004D01*
X0014587Y0162952D01*
X0014458Y0162897D01*
X0014331Y0162838D01*
X0014205Y0162775D01*
X0014081Y0162709D01*
X0013960Y0162640D01*
X0013840Y0162567D01*
X0013722Y0162490D01*
X0013607Y0162411D01*
X0013493Y0162328D01*
X0013383Y0162242D01*
X0013274Y0162153D01*
X0013168Y0162061D01*
X0013065Y0161966D01*
X0012964Y0161869D01*
X0012867Y0161768D01*
X0012772Y0161665D01*
X0012680Y0161559D01*
X0012591Y0161450D01*
X0012505Y0161340D01*
X0012422Y0161226D01*
X0012343Y0161111D01*
X0012266Y0160993D01*
X0012193Y0160873D01*
X0012124Y0160752D01*
X0012058Y0160628D01*
X0011995Y0160502D01*
X0011936Y0160375D01*
X0011881Y0160246D01*
X0011829Y0160116D01*
X0011781Y0159984D01*
X0011736Y0159851D01*
X0011695Y0159717D01*
X0011658Y0159582D01*
X0011625Y0159446D01*
X0011596Y0159308D01*
X0011571Y0159171D01*
X0011549Y0159032D01*
X0011531Y0158893D01*
X0011518Y0158753D01*
X0011508Y0158613D01*
X0011502Y0158473D01*
X0011500Y0158333D01*
X0011500Y0043333D01*
X0011502Y0043193D01*
X0011508Y0043053D01*
X0011518Y0042913D01*
X0011531Y0042773D01*
X0011549Y0042634D01*
X0011571Y0042495D01*
X0011596Y0042358D01*
X0011625Y0042220D01*
X0011658Y0042084D01*
X0011695Y0041949D01*
X0011736Y0041815D01*
X0011781Y0041682D01*
X0011829Y0041550D01*
X0011881Y0041420D01*
X0011936Y0041291D01*
X0011995Y0041164D01*
X0012058Y0041038D01*
X0012124Y0040914D01*
X0012193Y0040793D01*
X0012266Y0040673D01*
X0012343Y0040555D01*
X0012422Y0040440D01*
X0012505Y0040326D01*
X0012591Y0040216D01*
X0012680Y0040107D01*
X0012772Y0040001D01*
X0012867Y0039898D01*
X0012964Y0039797D01*
X0013065Y0039700D01*
X0013168Y0039605D01*
X0013274Y0039513D01*
X0013383Y0039424D01*
X0013493Y0039338D01*
X0013607Y0039255D01*
X0013722Y0039176D01*
X0013840Y0039099D01*
X0013960Y0039026D01*
X0014081Y0038957D01*
X0014205Y0038891D01*
X0014331Y0038828D01*
X0014458Y0038769D01*
X0014587Y0038714D01*
X0014717Y0038662D01*
X0014849Y0038614D01*
X0014982Y0038569D01*
X0015116Y0038528D01*
X0015251Y0038491D01*
X0015387Y0038458D01*
X0015525Y0038429D01*
X0015662Y0038404D01*
X0015801Y0038382D01*
X0015940Y0038364D01*
X0016080Y0038351D01*
X0016220Y0038341D01*
X0016360Y0038335D01*
X0016500Y0038333D01*
X0016579Y0048333D02*
X0016581Y0048473D01*
X0016587Y0048613D01*
X0016597Y0048752D01*
X0016611Y0048891D01*
X0016629Y0049030D01*
X0016650Y0049168D01*
X0016676Y0049306D01*
X0016706Y0049443D01*
X0016739Y0049578D01*
X0016777Y0049713D01*
X0016818Y0049847D01*
X0016863Y0049980D01*
X0016911Y0050111D01*
X0016964Y0050240D01*
X0017020Y0050369D01*
X0017079Y0050495D01*
X0017143Y0050620D01*
X0017209Y0050743D01*
X0017280Y0050864D01*
X0017353Y0050983D01*
X0017430Y0051100D01*
X0017511Y0051214D01*
X0017594Y0051326D01*
X0017681Y0051436D01*
X0017771Y0051544D01*
X0017863Y0051648D01*
X0017959Y0051750D01*
X0018058Y0051850D01*
X0018159Y0051946D01*
X0018263Y0052040D01*
X0018370Y0052130D01*
X0018479Y0052217D01*
X0018591Y0052302D01*
X0018705Y0052383D01*
X0018821Y0052461D01*
X0018939Y0052535D01*
X0019060Y0052606D01*
X0019182Y0052674D01*
X0019307Y0052738D01*
X0019433Y0052799D01*
X0019560Y0052856D01*
X0019690Y0052909D01*
X0019821Y0052959D01*
X0019953Y0053004D01*
X0020086Y0053047D01*
X0020221Y0053085D01*
X0020356Y0053119D01*
X0020493Y0053150D01*
X0020630Y0053177D01*
X0020768Y0053199D01*
X0020907Y0053218D01*
X0021046Y0053233D01*
X0021185Y0053244D01*
X0021325Y0053251D01*
X0021465Y0053254D01*
X0021605Y0053253D01*
X0021745Y0053248D01*
X0021884Y0053239D01*
X0022024Y0053226D01*
X0022163Y0053209D01*
X0022301Y0053188D01*
X0022439Y0053164D01*
X0022576Y0053135D01*
X0022712Y0053103D01*
X0022847Y0053066D01*
X0022981Y0053026D01*
X0023114Y0052982D01*
X0023245Y0052934D01*
X0023375Y0052883D01*
X0023504Y0052828D01*
X0023631Y0052769D01*
X0023756Y0052706D01*
X0023879Y0052641D01*
X0024001Y0052571D01*
X0024120Y0052498D01*
X0024238Y0052422D01*
X0024353Y0052343D01*
X0024466Y0052260D01*
X0024576Y0052174D01*
X0024684Y0052085D01*
X0024789Y0051993D01*
X0024892Y0051898D01*
X0024992Y0051800D01*
X0025089Y0051700D01*
X0025183Y0051596D01*
X0025275Y0051490D01*
X0025363Y0051382D01*
X0025448Y0051271D01*
X0025530Y0051157D01*
X0025609Y0051041D01*
X0025684Y0050924D01*
X0025756Y0050804D01*
X0025824Y0050682D01*
X0025889Y0050558D01*
X0025951Y0050432D01*
X0026009Y0050305D01*
X0026063Y0050176D01*
X0026114Y0050045D01*
X0026160Y0049913D01*
X0026203Y0049780D01*
X0026243Y0049646D01*
X0026278Y0049511D01*
X0026310Y0049374D01*
X0026337Y0049237D01*
X0026361Y0049099D01*
X0026381Y0048961D01*
X0026397Y0048822D01*
X0026409Y0048682D01*
X0026417Y0048543D01*
X0026421Y0048403D01*
X0026421Y0048263D01*
X0026417Y0048123D01*
X0026409Y0047984D01*
X0026397Y0047844D01*
X0026381Y0047705D01*
X0026361Y0047567D01*
X0026337Y0047429D01*
X0026310Y0047292D01*
X0026278Y0047155D01*
X0026243Y0047020D01*
X0026203Y0046886D01*
X0026160Y0046753D01*
X0026114Y0046621D01*
X0026063Y0046490D01*
X0026009Y0046361D01*
X0025951Y0046234D01*
X0025889Y0046108D01*
X0025824Y0045984D01*
X0025756Y0045862D01*
X0025684Y0045742D01*
X0025609Y0045625D01*
X0025530Y0045509D01*
X0025448Y0045395D01*
X0025363Y0045284D01*
X0025275Y0045176D01*
X0025183Y0045070D01*
X0025089Y0044966D01*
X0024992Y0044866D01*
X0024892Y0044768D01*
X0024789Y0044673D01*
X0024684Y0044581D01*
X0024576Y0044492D01*
X0024466Y0044406D01*
X0024353Y0044323D01*
X0024238Y0044244D01*
X0024120Y0044168D01*
X0024001Y0044095D01*
X0023879Y0044025D01*
X0023756Y0043960D01*
X0023631Y0043897D01*
X0023504Y0043838D01*
X0023375Y0043783D01*
X0023245Y0043732D01*
X0023114Y0043684D01*
X0022981Y0043640D01*
X0022847Y0043600D01*
X0022712Y0043563D01*
X0022576Y0043531D01*
X0022439Y0043502D01*
X0022301Y0043478D01*
X0022163Y0043457D01*
X0022024Y0043440D01*
X0021884Y0043427D01*
X0021745Y0043418D01*
X0021605Y0043413D01*
X0021465Y0043412D01*
X0021325Y0043415D01*
X0021185Y0043422D01*
X0021046Y0043433D01*
X0020907Y0043448D01*
X0020768Y0043467D01*
X0020630Y0043489D01*
X0020493Y0043516D01*
X0020356Y0043547D01*
X0020221Y0043581D01*
X0020086Y0043619D01*
X0019953Y0043662D01*
X0019821Y0043707D01*
X0019690Y0043757D01*
X0019560Y0043810D01*
X0019433Y0043867D01*
X0019307Y0043928D01*
X0019182Y0043992D01*
X0019060Y0044060D01*
X0018939Y0044131D01*
X0018821Y0044205D01*
X0018705Y0044283D01*
X0018591Y0044364D01*
X0018479Y0044449D01*
X0018370Y0044536D01*
X0018263Y0044626D01*
X0018159Y0044720D01*
X0018058Y0044816D01*
X0017959Y0044916D01*
X0017863Y0045018D01*
X0017771Y0045122D01*
X0017681Y0045230D01*
X0017594Y0045340D01*
X0017511Y0045452D01*
X0017430Y0045566D01*
X0017353Y0045683D01*
X0017280Y0045802D01*
X0017209Y0045923D01*
X0017143Y0046046D01*
X0017079Y0046171D01*
X0017020Y0046297D01*
X0016964Y0046426D01*
X0016911Y0046555D01*
X0016863Y0046686D01*
X0016818Y0046819D01*
X0016777Y0046953D01*
X0016739Y0047088D01*
X0016706Y0047223D01*
X0016676Y0047360D01*
X0016650Y0047498D01*
X0016629Y0047636D01*
X0016611Y0047775D01*
X0016597Y0047914D01*
X0016587Y0048053D01*
X0016581Y0048193D01*
X0016579Y0048333D01*
X0031342Y0077083D02*
X0031344Y0077167D01*
X0031350Y0077250D01*
X0031360Y0077333D01*
X0031374Y0077416D01*
X0031391Y0077498D01*
X0031413Y0077579D01*
X0031438Y0077658D01*
X0031467Y0077737D01*
X0031500Y0077814D01*
X0031536Y0077889D01*
X0031576Y0077963D01*
X0031619Y0078035D01*
X0031666Y0078104D01*
X0031716Y0078171D01*
X0031769Y0078236D01*
X0031825Y0078298D01*
X0031883Y0078358D01*
X0031945Y0078415D01*
X0032009Y0078468D01*
X0032076Y0078519D01*
X0032145Y0078566D01*
X0032216Y0078611D01*
X0032289Y0078651D01*
X0032364Y0078688D01*
X0032441Y0078722D01*
X0032519Y0078752D01*
X0032598Y0078778D01*
X0032679Y0078801D01*
X0032761Y0078819D01*
X0032843Y0078834D01*
X0032926Y0078845D01*
X0033009Y0078852D01*
X0033093Y0078855D01*
X0033177Y0078854D01*
X0033260Y0078849D01*
X0033344Y0078840D01*
X0033426Y0078827D01*
X0033508Y0078811D01*
X0033589Y0078790D01*
X0033670Y0078766D01*
X0033748Y0078738D01*
X0033826Y0078706D01*
X0033902Y0078670D01*
X0033976Y0078631D01*
X0034048Y0078589D01*
X0034118Y0078543D01*
X0034186Y0078494D01*
X0034251Y0078442D01*
X0034314Y0078387D01*
X0034374Y0078329D01*
X0034432Y0078268D01*
X0034486Y0078204D01*
X0034538Y0078138D01*
X0034586Y0078070D01*
X0034631Y0077999D01*
X0034672Y0077926D01*
X0034711Y0077852D01*
X0034745Y0077776D01*
X0034776Y0077698D01*
X0034803Y0077619D01*
X0034827Y0077538D01*
X0034846Y0077457D01*
X0034862Y0077375D01*
X0034874Y0077292D01*
X0034882Y0077208D01*
X0034886Y0077125D01*
X0034886Y0077041D01*
X0034882Y0076958D01*
X0034874Y0076874D01*
X0034862Y0076791D01*
X0034846Y0076709D01*
X0034827Y0076628D01*
X0034803Y0076547D01*
X0034776Y0076468D01*
X0034745Y0076390D01*
X0034711Y0076314D01*
X0034672Y0076240D01*
X0034631Y0076167D01*
X0034586Y0076096D01*
X0034538Y0076028D01*
X0034486Y0075962D01*
X0034432Y0075898D01*
X0034374Y0075837D01*
X0034314Y0075779D01*
X0034251Y0075724D01*
X0034186Y0075672D01*
X0034118Y0075623D01*
X0034048Y0075577D01*
X0033976Y0075535D01*
X0033902Y0075496D01*
X0033826Y0075460D01*
X0033748Y0075428D01*
X0033670Y0075400D01*
X0033589Y0075376D01*
X0033508Y0075355D01*
X0033426Y0075339D01*
X0033344Y0075326D01*
X0033260Y0075317D01*
X0033177Y0075312D01*
X0033093Y0075311D01*
X0033009Y0075314D01*
X0032926Y0075321D01*
X0032843Y0075332D01*
X0032761Y0075347D01*
X0032679Y0075365D01*
X0032598Y0075388D01*
X0032519Y0075414D01*
X0032441Y0075444D01*
X0032364Y0075478D01*
X0032289Y0075515D01*
X0032216Y0075555D01*
X0032145Y0075600D01*
X0032076Y0075647D01*
X0032009Y0075698D01*
X0031945Y0075751D01*
X0031883Y0075808D01*
X0031825Y0075868D01*
X0031769Y0075930D01*
X0031716Y0075995D01*
X0031666Y0076062D01*
X0031619Y0076131D01*
X0031576Y0076203D01*
X0031536Y0076277D01*
X0031500Y0076352D01*
X0031467Y0076429D01*
X0031438Y0076508D01*
X0031413Y0076587D01*
X0031391Y0076668D01*
X0031374Y0076750D01*
X0031360Y0076833D01*
X0031350Y0076916D01*
X0031344Y0076999D01*
X0031342Y0077083D01*
X0058114Y0077083D02*
X0058116Y0077167D01*
X0058122Y0077250D01*
X0058132Y0077333D01*
X0058146Y0077416D01*
X0058163Y0077498D01*
X0058185Y0077579D01*
X0058210Y0077658D01*
X0058239Y0077737D01*
X0058272Y0077814D01*
X0058308Y0077889D01*
X0058348Y0077963D01*
X0058391Y0078035D01*
X0058438Y0078104D01*
X0058488Y0078171D01*
X0058541Y0078236D01*
X0058597Y0078298D01*
X0058655Y0078358D01*
X0058717Y0078415D01*
X0058781Y0078468D01*
X0058848Y0078519D01*
X0058917Y0078566D01*
X0058988Y0078611D01*
X0059061Y0078651D01*
X0059136Y0078688D01*
X0059213Y0078722D01*
X0059291Y0078752D01*
X0059370Y0078778D01*
X0059451Y0078801D01*
X0059533Y0078819D01*
X0059615Y0078834D01*
X0059698Y0078845D01*
X0059781Y0078852D01*
X0059865Y0078855D01*
X0059949Y0078854D01*
X0060032Y0078849D01*
X0060116Y0078840D01*
X0060198Y0078827D01*
X0060280Y0078811D01*
X0060361Y0078790D01*
X0060442Y0078766D01*
X0060520Y0078738D01*
X0060598Y0078706D01*
X0060674Y0078670D01*
X0060748Y0078631D01*
X0060820Y0078589D01*
X0060890Y0078543D01*
X0060958Y0078494D01*
X0061023Y0078442D01*
X0061086Y0078387D01*
X0061146Y0078329D01*
X0061204Y0078268D01*
X0061258Y0078204D01*
X0061310Y0078138D01*
X0061358Y0078070D01*
X0061403Y0077999D01*
X0061444Y0077926D01*
X0061483Y0077852D01*
X0061517Y0077776D01*
X0061548Y0077698D01*
X0061575Y0077619D01*
X0061599Y0077538D01*
X0061618Y0077457D01*
X0061634Y0077375D01*
X0061646Y0077292D01*
X0061654Y0077208D01*
X0061658Y0077125D01*
X0061658Y0077041D01*
X0061654Y0076958D01*
X0061646Y0076874D01*
X0061634Y0076791D01*
X0061618Y0076709D01*
X0061599Y0076628D01*
X0061575Y0076547D01*
X0061548Y0076468D01*
X0061517Y0076390D01*
X0061483Y0076314D01*
X0061444Y0076240D01*
X0061403Y0076167D01*
X0061358Y0076096D01*
X0061310Y0076028D01*
X0061258Y0075962D01*
X0061204Y0075898D01*
X0061146Y0075837D01*
X0061086Y0075779D01*
X0061023Y0075724D01*
X0060958Y0075672D01*
X0060890Y0075623D01*
X0060820Y0075577D01*
X0060748Y0075535D01*
X0060674Y0075496D01*
X0060598Y0075460D01*
X0060520Y0075428D01*
X0060442Y0075400D01*
X0060361Y0075376D01*
X0060280Y0075355D01*
X0060198Y0075339D01*
X0060116Y0075326D01*
X0060032Y0075317D01*
X0059949Y0075312D01*
X0059865Y0075311D01*
X0059781Y0075314D01*
X0059698Y0075321D01*
X0059615Y0075332D01*
X0059533Y0075347D01*
X0059451Y0075365D01*
X0059370Y0075388D01*
X0059291Y0075414D01*
X0059213Y0075444D01*
X0059136Y0075478D01*
X0059061Y0075515D01*
X0058988Y0075555D01*
X0058917Y0075600D01*
X0058848Y0075647D01*
X0058781Y0075698D01*
X0058717Y0075751D01*
X0058655Y0075808D01*
X0058597Y0075868D01*
X0058541Y0075930D01*
X0058488Y0075995D01*
X0058438Y0076062D01*
X0058391Y0076131D01*
X0058348Y0076203D01*
X0058308Y0076277D01*
X0058272Y0076352D01*
X0058239Y0076429D01*
X0058210Y0076508D01*
X0058185Y0076587D01*
X0058163Y0076668D01*
X0058146Y0076750D01*
X0058132Y0076833D01*
X0058122Y0076916D01*
X0058116Y0076999D01*
X0058114Y0077083D01*
X0070043Y0077083D02*
X0070045Y0077167D01*
X0070051Y0077250D01*
X0070061Y0077333D01*
X0070075Y0077416D01*
X0070092Y0077498D01*
X0070114Y0077579D01*
X0070139Y0077658D01*
X0070168Y0077737D01*
X0070201Y0077814D01*
X0070237Y0077889D01*
X0070277Y0077963D01*
X0070320Y0078035D01*
X0070367Y0078104D01*
X0070417Y0078171D01*
X0070470Y0078236D01*
X0070526Y0078298D01*
X0070584Y0078358D01*
X0070646Y0078415D01*
X0070710Y0078468D01*
X0070777Y0078519D01*
X0070846Y0078566D01*
X0070917Y0078611D01*
X0070990Y0078651D01*
X0071065Y0078688D01*
X0071142Y0078722D01*
X0071220Y0078752D01*
X0071299Y0078778D01*
X0071380Y0078801D01*
X0071462Y0078819D01*
X0071544Y0078834D01*
X0071627Y0078845D01*
X0071710Y0078852D01*
X0071794Y0078855D01*
X0071878Y0078854D01*
X0071961Y0078849D01*
X0072045Y0078840D01*
X0072127Y0078827D01*
X0072209Y0078811D01*
X0072290Y0078790D01*
X0072371Y0078766D01*
X0072449Y0078738D01*
X0072527Y0078706D01*
X0072603Y0078670D01*
X0072677Y0078631D01*
X0072749Y0078589D01*
X0072819Y0078543D01*
X0072887Y0078494D01*
X0072952Y0078442D01*
X0073015Y0078387D01*
X0073075Y0078329D01*
X0073133Y0078268D01*
X0073187Y0078204D01*
X0073239Y0078138D01*
X0073287Y0078070D01*
X0073332Y0077999D01*
X0073373Y0077926D01*
X0073412Y0077852D01*
X0073446Y0077776D01*
X0073477Y0077698D01*
X0073504Y0077619D01*
X0073528Y0077538D01*
X0073547Y0077457D01*
X0073563Y0077375D01*
X0073575Y0077292D01*
X0073583Y0077208D01*
X0073587Y0077125D01*
X0073587Y0077041D01*
X0073583Y0076958D01*
X0073575Y0076874D01*
X0073563Y0076791D01*
X0073547Y0076709D01*
X0073528Y0076628D01*
X0073504Y0076547D01*
X0073477Y0076468D01*
X0073446Y0076390D01*
X0073412Y0076314D01*
X0073373Y0076240D01*
X0073332Y0076167D01*
X0073287Y0076096D01*
X0073239Y0076028D01*
X0073187Y0075962D01*
X0073133Y0075898D01*
X0073075Y0075837D01*
X0073015Y0075779D01*
X0072952Y0075724D01*
X0072887Y0075672D01*
X0072819Y0075623D01*
X0072749Y0075577D01*
X0072677Y0075535D01*
X0072603Y0075496D01*
X0072527Y0075460D01*
X0072449Y0075428D01*
X0072371Y0075400D01*
X0072290Y0075376D01*
X0072209Y0075355D01*
X0072127Y0075339D01*
X0072045Y0075326D01*
X0071961Y0075317D01*
X0071878Y0075312D01*
X0071794Y0075311D01*
X0071710Y0075314D01*
X0071627Y0075321D01*
X0071544Y0075332D01*
X0071462Y0075347D01*
X0071380Y0075365D01*
X0071299Y0075388D01*
X0071220Y0075414D01*
X0071142Y0075444D01*
X0071065Y0075478D01*
X0070990Y0075515D01*
X0070917Y0075555D01*
X0070846Y0075600D01*
X0070777Y0075647D01*
X0070710Y0075698D01*
X0070646Y0075751D01*
X0070584Y0075808D01*
X0070526Y0075868D01*
X0070470Y0075930D01*
X0070417Y0075995D01*
X0070367Y0076062D01*
X0070320Y0076131D01*
X0070277Y0076203D01*
X0070237Y0076277D01*
X0070201Y0076352D01*
X0070168Y0076429D01*
X0070139Y0076508D01*
X0070114Y0076587D01*
X0070092Y0076668D01*
X0070075Y0076750D01*
X0070061Y0076833D01*
X0070051Y0076916D01*
X0070045Y0076999D01*
X0070043Y0077083D01*
X0101539Y0077083D02*
X0101541Y0077167D01*
X0101547Y0077250D01*
X0101557Y0077333D01*
X0101571Y0077416D01*
X0101588Y0077498D01*
X0101610Y0077579D01*
X0101635Y0077658D01*
X0101664Y0077737D01*
X0101697Y0077814D01*
X0101733Y0077889D01*
X0101773Y0077963D01*
X0101816Y0078035D01*
X0101863Y0078104D01*
X0101913Y0078171D01*
X0101966Y0078236D01*
X0102022Y0078298D01*
X0102080Y0078358D01*
X0102142Y0078415D01*
X0102206Y0078468D01*
X0102273Y0078519D01*
X0102342Y0078566D01*
X0102413Y0078611D01*
X0102486Y0078651D01*
X0102561Y0078688D01*
X0102638Y0078722D01*
X0102716Y0078752D01*
X0102795Y0078778D01*
X0102876Y0078801D01*
X0102958Y0078819D01*
X0103040Y0078834D01*
X0103123Y0078845D01*
X0103206Y0078852D01*
X0103290Y0078855D01*
X0103374Y0078854D01*
X0103457Y0078849D01*
X0103541Y0078840D01*
X0103623Y0078827D01*
X0103705Y0078811D01*
X0103786Y0078790D01*
X0103867Y0078766D01*
X0103945Y0078738D01*
X0104023Y0078706D01*
X0104099Y0078670D01*
X0104173Y0078631D01*
X0104245Y0078589D01*
X0104315Y0078543D01*
X0104383Y0078494D01*
X0104448Y0078442D01*
X0104511Y0078387D01*
X0104571Y0078329D01*
X0104629Y0078268D01*
X0104683Y0078204D01*
X0104735Y0078138D01*
X0104783Y0078070D01*
X0104828Y0077999D01*
X0104869Y0077926D01*
X0104908Y0077852D01*
X0104942Y0077776D01*
X0104973Y0077698D01*
X0105000Y0077619D01*
X0105024Y0077538D01*
X0105043Y0077457D01*
X0105059Y0077375D01*
X0105071Y0077292D01*
X0105079Y0077208D01*
X0105083Y0077125D01*
X0105083Y0077041D01*
X0105079Y0076958D01*
X0105071Y0076874D01*
X0105059Y0076791D01*
X0105043Y0076709D01*
X0105024Y0076628D01*
X0105000Y0076547D01*
X0104973Y0076468D01*
X0104942Y0076390D01*
X0104908Y0076314D01*
X0104869Y0076240D01*
X0104828Y0076167D01*
X0104783Y0076096D01*
X0104735Y0076028D01*
X0104683Y0075962D01*
X0104629Y0075898D01*
X0104571Y0075837D01*
X0104511Y0075779D01*
X0104448Y0075724D01*
X0104383Y0075672D01*
X0104315Y0075623D01*
X0104245Y0075577D01*
X0104173Y0075535D01*
X0104099Y0075496D01*
X0104023Y0075460D01*
X0103945Y0075428D01*
X0103867Y0075400D01*
X0103786Y0075376D01*
X0103705Y0075355D01*
X0103623Y0075339D01*
X0103541Y0075326D01*
X0103457Y0075317D01*
X0103374Y0075312D01*
X0103290Y0075311D01*
X0103206Y0075314D01*
X0103123Y0075321D01*
X0103040Y0075332D01*
X0102958Y0075347D01*
X0102876Y0075365D01*
X0102795Y0075388D01*
X0102716Y0075414D01*
X0102638Y0075444D01*
X0102561Y0075478D01*
X0102486Y0075515D01*
X0102413Y0075555D01*
X0102342Y0075600D01*
X0102273Y0075647D01*
X0102206Y0075698D01*
X0102142Y0075751D01*
X0102080Y0075808D01*
X0102022Y0075868D01*
X0101966Y0075930D01*
X0101913Y0075995D01*
X0101863Y0076062D01*
X0101816Y0076131D01*
X0101773Y0076203D01*
X0101733Y0076277D01*
X0101697Y0076352D01*
X0101664Y0076429D01*
X0101635Y0076508D01*
X0101610Y0076587D01*
X0101588Y0076668D01*
X0101571Y0076750D01*
X0101557Y0076833D01*
X0101547Y0076916D01*
X0101541Y0076999D01*
X0101539Y0077083D01*
X0121579Y0048333D02*
X0121581Y0048473D01*
X0121587Y0048613D01*
X0121597Y0048752D01*
X0121611Y0048891D01*
X0121629Y0049030D01*
X0121650Y0049168D01*
X0121676Y0049306D01*
X0121706Y0049443D01*
X0121739Y0049578D01*
X0121777Y0049713D01*
X0121818Y0049847D01*
X0121863Y0049980D01*
X0121911Y0050111D01*
X0121964Y0050240D01*
X0122020Y0050369D01*
X0122079Y0050495D01*
X0122143Y0050620D01*
X0122209Y0050743D01*
X0122280Y0050864D01*
X0122353Y0050983D01*
X0122430Y0051100D01*
X0122511Y0051214D01*
X0122594Y0051326D01*
X0122681Y0051436D01*
X0122771Y0051544D01*
X0122863Y0051648D01*
X0122959Y0051750D01*
X0123058Y0051850D01*
X0123159Y0051946D01*
X0123263Y0052040D01*
X0123370Y0052130D01*
X0123479Y0052217D01*
X0123591Y0052302D01*
X0123705Y0052383D01*
X0123821Y0052461D01*
X0123939Y0052535D01*
X0124060Y0052606D01*
X0124182Y0052674D01*
X0124307Y0052738D01*
X0124433Y0052799D01*
X0124560Y0052856D01*
X0124690Y0052909D01*
X0124821Y0052959D01*
X0124953Y0053004D01*
X0125086Y0053047D01*
X0125221Y0053085D01*
X0125356Y0053119D01*
X0125493Y0053150D01*
X0125630Y0053177D01*
X0125768Y0053199D01*
X0125907Y0053218D01*
X0126046Y0053233D01*
X0126185Y0053244D01*
X0126325Y0053251D01*
X0126465Y0053254D01*
X0126605Y0053253D01*
X0126745Y0053248D01*
X0126884Y0053239D01*
X0127024Y0053226D01*
X0127163Y0053209D01*
X0127301Y0053188D01*
X0127439Y0053164D01*
X0127576Y0053135D01*
X0127712Y0053103D01*
X0127847Y0053066D01*
X0127981Y0053026D01*
X0128114Y0052982D01*
X0128245Y0052934D01*
X0128375Y0052883D01*
X0128504Y0052828D01*
X0128631Y0052769D01*
X0128756Y0052706D01*
X0128879Y0052641D01*
X0129001Y0052571D01*
X0129120Y0052498D01*
X0129238Y0052422D01*
X0129353Y0052343D01*
X0129466Y0052260D01*
X0129576Y0052174D01*
X0129684Y0052085D01*
X0129789Y0051993D01*
X0129892Y0051898D01*
X0129992Y0051800D01*
X0130089Y0051700D01*
X0130183Y0051596D01*
X0130275Y0051490D01*
X0130363Y0051382D01*
X0130448Y0051271D01*
X0130530Y0051157D01*
X0130609Y0051041D01*
X0130684Y0050924D01*
X0130756Y0050804D01*
X0130824Y0050682D01*
X0130889Y0050558D01*
X0130951Y0050432D01*
X0131009Y0050305D01*
X0131063Y0050176D01*
X0131114Y0050045D01*
X0131160Y0049913D01*
X0131203Y0049780D01*
X0131243Y0049646D01*
X0131278Y0049511D01*
X0131310Y0049374D01*
X0131337Y0049237D01*
X0131361Y0049099D01*
X0131381Y0048961D01*
X0131397Y0048822D01*
X0131409Y0048682D01*
X0131417Y0048543D01*
X0131421Y0048403D01*
X0131421Y0048263D01*
X0131417Y0048123D01*
X0131409Y0047984D01*
X0131397Y0047844D01*
X0131381Y0047705D01*
X0131361Y0047567D01*
X0131337Y0047429D01*
X0131310Y0047292D01*
X0131278Y0047155D01*
X0131243Y0047020D01*
X0131203Y0046886D01*
X0131160Y0046753D01*
X0131114Y0046621D01*
X0131063Y0046490D01*
X0131009Y0046361D01*
X0130951Y0046234D01*
X0130889Y0046108D01*
X0130824Y0045984D01*
X0130756Y0045862D01*
X0130684Y0045742D01*
X0130609Y0045625D01*
X0130530Y0045509D01*
X0130448Y0045395D01*
X0130363Y0045284D01*
X0130275Y0045176D01*
X0130183Y0045070D01*
X0130089Y0044966D01*
X0129992Y0044866D01*
X0129892Y0044768D01*
X0129789Y0044673D01*
X0129684Y0044581D01*
X0129576Y0044492D01*
X0129466Y0044406D01*
X0129353Y0044323D01*
X0129238Y0044244D01*
X0129120Y0044168D01*
X0129001Y0044095D01*
X0128879Y0044025D01*
X0128756Y0043960D01*
X0128631Y0043897D01*
X0128504Y0043838D01*
X0128375Y0043783D01*
X0128245Y0043732D01*
X0128114Y0043684D01*
X0127981Y0043640D01*
X0127847Y0043600D01*
X0127712Y0043563D01*
X0127576Y0043531D01*
X0127439Y0043502D01*
X0127301Y0043478D01*
X0127163Y0043457D01*
X0127024Y0043440D01*
X0126884Y0043427D01*
X0126745Y0043418D01*
X0126605Y0043413D01*
X0126465Y0043412D01*
X0126325Y0043415D01*
X0126185Y0043422D01*
X0126046Y0043433D01*
X0125907Y0043448D01*
X0125768Y0043467D01*
X0125630Y0043489D01*
X0125493Y0043516D01*
X0125356Y0043547D01*
X0125221Y0043581D01*
X0125086Y0043619D01*
X0124953Y0043662D01*
X0124821Y0043707D01*
X0124690Y0043757D01*
X0124560Y0043810D01*
X0124433Y0043867D01*
X0124307Y0043928D01*
X0124182Y0043992D01*
X0124060Y0044060D01*
X0123939Y0044131D01*
X0123821Y0044205D01*
X0123705Y0044283D01*
X0123591Y0044364D01*
X0123479Y0044449D01*
X0123370Y0044536D01*
X0123263Y0044626D01*
X0123159Y0044720D01*
X0123058Y0044816D01*
X0122959Y0044916D01*
X0122863Y0045018D01*
X0122771Y0045122D01*
X0122681Y0045230D01*
X0122594Y0045340D01*
X0122511Y0045452D01*
X0122430Y0045566D01*
X0122353Y0045683D01*
X0122280Y0045802D01*
X0122209Y0045923D01*
X0122143Y0046046D01*
X0122079Y0046171D01*
X0122020Y0046297D01*
X0121964Y0046426D01*
X0121911Y0046555D01*
X0121863Y0046686D01*
X0121818Y0046819D01*
X0121777Y0046953D01*
X0121739Y0047088D01*
X0121706Y0047223D01*
X0121676Y0047360D01*
X0121650Y0047498D01*
X0121629Y0047636D01*
X0121611Y0047775D01*
X0121597Y0047914D01*
X0121587Y0048053D01*
X0121581Y0048193D01*
X0121579Y0048333D01*
X0121579Y0153333D02*
X0121581Y0153473D01*
X0121587Y0153613D01*
X0121597Y0153752D01*
X0121611Y0153891D01*
X0121629Y0154030D01*
X0121650Y0154168D01*
X0121676Y0154306D01*
X0121706Y0154443D01*
X0121739Y0154578D01*
X0121777Y0154713D01*
X0121818Y0154847D01*
X0121863Y0154980D01*
X0121911Y0155111D01*
X0121964Y0155240D01*
X0122020Y0155369D01*
X0122079Y0155495D01*
X0122143Y0155620D01*
X0122209Y0155743D01*
X0122280Y0155864D01*
X0122353Y0155983D01*
X0122430Y0156100D01*
X0122511Y0156214D01*
X0122594Y0156326D01*
X0122681Y0156436D01*
X0122771Y0156544D01*
X0122863Y0156648D01*
X0122959Y0156750D01*
X0123058Y0156850D01*
X0123159Y0156946D01*
X0123263Y0157040D01*
X0123370Y0157130D01*
X0123479Y0157217D01*
X0123591Y0157302D01*
X0123705Y0157383D01*
X0123821Y0157461D01*
X0123939Y0157535D01*
X0124060Y0157606D01*
X0124182Y0157674D01*
X0124307Y0157738D01*
X0124433Y0157799D01*
X0124560Y0157856D01*
X0124690Y0157909D01*
X0124821Y0157959D01*
X0124953Y0158004D01*
X0125086Y0158047D01*
X0125221Y0158085D01*
X0125356Y0158119D01*
X0125493Y0158150D01*
X0125630Y0158177D01*
X0125768Y0158199D01*
X0125907Y0158218D01*
X0126046Y0158233D01*
X0126185Y0158244D01*
X0126325Y0158251D01*
X0126465Y0158254D01*
X0126605Y0158253D01*
X0126745Y0158248D01*
X0126884Y0158239D01*
X0127024Y0158226D01*
X0127163Y0158209D01*
X0127301Y0158188D01*
X0127439Y0158164D01*
X0127576Y0158135D01*
X0127712Y0158103D01*
X0127847Y0158066D01*
X0127981Y0158026D01*
X0128114Y0157982D01*
X0128245Y0157934D01*
X0128375Y0157883D01*
X0128504Y0157828D01*
X0128631Y0157769D01*
X0128756Y0157706D01*
X0128879Y0157641D01*
X0129001Y0157571D01*
X0129120Y0157498D01*
X0129238Y0157422D01*
X0129353Y0157343D01*
X0129466Y0157260D01*
X0129576Y0157174D01*
X0129684Y0157085D01*
X0129789Y0156993D01*
X0129892Y0156898D01*
X0129992Y0156800D01*
X0130089Y0156700D01*
X0130183Y0156596D01*
X0130275Y0156490D01*
X0130363Y0156382D01*
X0130448Y0156271D01*
X0130530Y0156157D01*
X0130609Y0156041D01*
X0130684Y0155924D01*
X0130756Y0155804D01*
X0130824Y0155682D01*
X0130889Y0155558D01*
X0130951Y0155432D01*
X0131009Y0155305D01*
X0131063Y0155176D01*
X0131114Y0155045D01*
X0131160Y0154913D01*
X0131203Y0154780D01*
X0131243Y0154646D01*
X0131278Y0154511D01*
X0131310Y0154374D01*
X0131337Y0154237D01*
X0131361Y0154099D01*
X0131381Y0153961D01*
X0131397Y0153822D01*
X0131409Y0153682D01*
X0131417Y0153543D01*
X0131421Y0153403D01*
X0131421Y0153263D01*
X0131417Y0153123D01*
X0131409Y0152984D01*
X0131397Y0152844D01*
X0131381Y0152705D01*
X0131361Y0152567D01*
X0131337Y0152429D01*
X0131310Y0152292D01*
X0131278Y0152155D01*
X0131243Y0152020D01*
X0131203Y0151886D01*
X0131160Y0151753D01*
X0131114Y0151621D01*
X0131063Y0151490D01*
X0131009Y0151361D01*
X0130951Y0151234D01*
X0130889Y0151108D01*
X0130824Y0150984D01*
X0130756Y0150862D01*
X0130684Y0150742D01*
X0130609Y0150625D01*
X0130530Y0150509D01*
X0130448Y0150395D01*
X0130363Y0150284D01*
X0130275Y0150176D01*
X0130183Y0150070D01*
X0130089Y0149966D01*
X0129992Y0149866D01*
X0129892Y0149768D01*
X0129789Y0149673D01*
X0129684Y0149581D01*
X0129576Y0149492D01*
X0129466Y0149406D01*
X0129353Y0149323D01*
X0129238Y0149244D01*
X0129120Y0149168D01*
X0129001Y0149095D01*
X0128879Y0149025D01*
X0128756Y0148960D01*
X0128631Y0148897D01*
X0128504Y0148838D01*
X0128375Y0148783D01*
X0128245Y0148732D01*
X0128114Y0148684D01*
X0127981Y0148640D01*
X0127847Y0148600D01*
X0127712Y0148563D01*
X0127576Y0148531D01*
X0127439Y0148502D01*
X0127301Y0148478D01*
X0127163Y0148457D01*
X0127024Y0148440D01*
X0126884Y0148427D01*
X0126745Y0148418D01*
X0126605Y0148413D01*
X0126465Y0148412D01*
X0126325Y0148415D01*
X0126185Y0148422D01*
X0126046Y0148433D01*
X0125907Y0148448D01*
X0125768Y0148467D01*
X0125630Y0148489D01*
X0125493Y0148516D01*
X0125356Y0148547D01*
X0125221Y0148581D01*
X0125086Y0148619D01*
X0124953Y0148662D01*
X0124821Y0148707D01*
X0124690Y0148757D01*
X0124560Y0148810D01*
X0124433Y0148867D01*
X0124307Y0148928D01*
X0124182Y0148992D01*
X0124060Y0149060D01*
X0123939Y0149131D01*
X0123821Y0149205D01*
X0123705Y0149283D01*
X0123591Y0149364D01*
X0123479Y0149449D01*
X0123370Y0149536D01*
X0123263Y0149626D01*
X0123159Y0149720D01*
X0123058Y0149816D01*
X0122959Y0149916D01*
X0122863Y0150018D01*
X0122771Y0150122D01*
X0122681Y0150230D01*
X0122594Y0150340D01*
X0122511Y0150452D01*
X0122430Y0150566D01*
X0122353Y0150683D01*
X0122280Y0150802D01*
X0122209Y0150923D01*
X0122143Y0151046D01*
X0122079Y0151171D01*
X0122020Y0151297D01*
X0121964Y0151426D01*
X0121911Y0151555D01*
X0121863Y0151686D01*
X0121818Y0151819D01*
X0121777Y0151953D01*
X0121739Y0152088D01*
X0121706Y0152223D01*
X0121676Y0152360D01*
X0121650Y0152498D01*
X0121629Y0152636D01*
X0121611Y0152775D01*
X0121597Y0152914D01*
X0121587Y0153053D01*
X0121581Y0153193D01*
X0121579Y0153333D01*
X0016579Y0153333D02*
X0016581Y0153473D01*
X0016587Y0153613D01*
X0016597Y0153752D01*
X0016611Y0153891D01*
X0016629Y0154030D01*
X0016650Y0154168D01*
X0016676Y0154306D01*
X0016706Y0154443D01*
X0016739Y0154578D01*
X0016777Y0154713D01*
X0016818Y0154847D01*
X0016863Y0154980D01*
X0016911Y0155111D01*
X0016964Y0155240D01*
X0017020Y0155369D01*
X0017079Y0155495D01*
X0017143Y0155620D01*
X0017209Y0155743D01*
X0017280Y0155864D01*
X0017353Y0155983D01*
X0017430Y0156100D01*
X0017511Y0156214D01*
X0017594Y0156326D01*
X0017681Y0156436D01*
X0017771Y0156544D01*
X0017863Y0156648D01*
X0017959Y0156750D01*
X0018058Y0156850D01*
X0018159Y0156946D01*
X0018263Y0157040D01*
X0018370Y0157130D01*
X0018479Y0157217D01*
X0018591Y0157302D01*
X0018705Y0157383D01*
X0018821Y0157461D01*
X0018939Y0157535D01*
X0019060Y0157606D01*
X0019182Y0157674D01*
X0019307Y0157738D01*
X0019433Y0157799D01*
X0019560Y0157856D01*
X0019690Y0157909D01*
X0019821Y0157959D01*
X0019953Y0158004D01*
X0020086Y0158047D01*
X0020221Y0158085D01*
X0020356Y0158119D01*
X0020493Y0158150D01*
X0020630Y0158177D01*
X0020768Y0158199D01*
X0020907Y0158218D01*
X0021046Y0158233D01*
X0021185Y0158244D01*
X0021325Y0158251D01*
X0021465Y0158254D01*
X0021605Y0158253D01*
X0021745Y0158248D01*
X0021884Y0158239D01*
X0022024Y0158226D01*
X0022163Y0158209D01*
X0022301Y0158188D01*
X0022439Y0158164D01*
X0022576Y0158135D01*
X0022712Y0158103D01*
X0022847Y0158066D01*
X0022981Y0158026D01*
X0023114Y0157982D01*
X0023245Y0157934D01*
X0023375Y0157883D01*
X0023504Y0157828D01*
X0023631Y0157769D01*
X0023756Y0157706D01*
X0023879Y0157641D01*
X0024001Y0157571D01*
X0024120Y0157498D01*
X0024238Y0157422D01*
X0024353Y0157343D01*
X0024466Y0157260D01*
X0024576Y0157174D01*
X0024684Y0157085D01*
X0024789Y0156993D01*
X0024892Y0156898D01*
X0024992Y0156800D01*
X0025089Y0156700D01*
X0025183Y0156596D01*
X0025275Y0156490D01*
X0025363Y0156382D01*
X0025448Y0156271D01*
X0025530Y0156157D01*
X0025609Y0156041D01*
X0025684Y0155924D01*
X0025756Y0155804D01*
X0025824Y0155682D01*
X0025889Y0155558D01*
X0025951Y0155432D01*
X0026009Y0155305D01*
X0026063Y0155176D01*
X0026114Y0155045D01*
X0026160Y0154913D01*
X0026203Y0154780D01*
X0026243Y0154646D01*
X0026278Y0154511D01*
X0026310Y0154374D01*
X0026337Y0154237D01*
X0026361Y0154099D01*
X0026381Y0153961D01*
X0026397Y0153822D01*
X0026409Y0153682D01*
X0026417Y0153543D01*
X0026421Y0153403D01*
X0026421Y0153263D01*
X0026417Y0153123D01*
X0026409Y0152984D01*
X0026397Y0152844D01*
X0026381Y0152705D01*
X0026361Y0152567D01*
X0026337Y0152429D01*
X0026310Y0152292D01*
X0026278Y0152155D01*
X0026243Y0152020D01*
X0026203Y0151886D01*
X0026160Y0151753D01*
X0026114Y0151621D01*
X0026063Y0151490D01*
X0026009Y0151361D01*
X0025951Y0151234D01*
X0025889Y0151108D01*
X0025824Y0150984D01*
X0025756Y0150862D01*
X0025684Y0150742D01*
X0025609Y0150625D01*
X0025530Y0150509D01*
X0025448Y0150395D01*
X0025363Y0150284D01*
X0025275Y0150176D01*
X0025183Y0150070D01*
X0025089Y0149966D01*
X0024992Y0149866D01*
X0024892Y0149768D01*
X0024789Y0149673D01*
X0024684Y0149581D01*
X0024576Y0149492D01*
X0024466Y0149406D01*
X0024353Y0149323D01*
X0024238Y0149244D01*
X0024120Y0149168D01*
X0024001Y0149095D01*
X0023879Y0149025D01*
X0023756Y0148960D01*
X0023631Y0148897D01*
X0023504Y0148838D01*
X0023375Y0148783D01*
X0023245Y0148732D01*
X0023114Y0148684D01*
X0022981Y0148640D01*
X0022847Y0148600D01*
X0022712Y0148563D01*
X0022576Y0148531D01*
X0022439Y0148502D01*
X0022301Y0148478D01*
X0022163Y0148457D01*
X0022024Y0148440D01*
X0021884Y0148427D01*
X0021745Y0148418D01*
X0021605Y0148413D01*
X0021465Y0148412D01*
X0021325Y0148415D01*
X0021185Y0148422D01*
X0021046Y0148433D01*
X0020907Y0148448D01*
X0020768Y0148467D01*
X0020630Y0148489D01*
X0020493Y0148516D01*
X0020356Y0148547D01*
X0020221Y0148581D01*
X0020086Y0148619D01*
X0019953Y0148662D01*
X0019821Y0148707D01*
X0019690Y0148757D01*
X0019560Y0148810D01*
X0019433Y0148867D01*
X0019307Y0148928D01*
X0019182Y0148992D01*
X0019060Y0149060D01*
X0018939Y0149131D01*
X0018821Y0149205D01*
X0018705Y0149283D01*
X0018591Y0149364D01*
X0018479Y0149449D01*
X0018370Y0149536D01*
X0018263Y0149626D01*
X0018159Y0149720D01*
X0018058Y0149816D01*
X0017959Y0149916D01*
X0017863Y0150018D01*
X0017771Y0150122D01*
X0017681Y0150230D01*
X0017594Y0150340D01*
X0017511Y0150452D01*
X0017430Y0150566D01*
X0017353Y0150683D01*
X0017280Y0150802D01*
X0017209Y0150923D01*
X0017143Y0151046D01*
X0017079Y0151171D01*
X0017020Y0151297D01*
X0016964Y0151426D01*
X0016911Y0151555D01*
X0016863Y0151686D01*
X0016818Y0151819D01*
X0016777Y0151953D01*
X0016739Y0152088D01*
X0016706Y0152223D01*
X0016676Y0152360D01*
X0016650Y0152498D01*
X0016629Y0152636D01*
X0016611Y0152775D01*
X0016597Y0152914D01*
X0016587Y0153053D01*
X0016581Y0153193D01*
X0016579Y0153333D01*
M02*
