G75*
%MOIN*%
%OFA0B0*%
%FSLAX24Y24*%
%IPPOS*%
%LPD*%
%AMOC8*
5,1,8,0,0,1.08239X$1,22.5*
%
%ADD10C,0.1064*%
%ADD11R,0.0474X0.0513*%
%ADD12R,0.0237X0.0560*%
%ADD13R,0.0513X0.0474*%
%ADD14R,0.0564X0.0324*%
%ADD15R,0.0324X0.0564*%
%ADD16R,0.0277X0.0277*%
%ADD17R,0.0237X0.0316*%
%ADD18R,0.0403X0.0241*%
%ADD19R,0.1509X0.1679*%
%ADD20R,0.0320X0.0312*%
%ADD21R,0.0281X0.2049*%
%ADD22R,0.0671X0.0434*%
%ADD23R,0.0395X0.0395*%
%ADD24OC8,0.0730*%
%ADD25C,0.0434*%
%ADD26R,0.0552X0.0631*%
%ADD27R,0.0710X0.0592*%
%ADD28R,0.0710X0.0867*%
%ADD29R,0.0430X0.0245*%
%ADD30R,0.1064X0.1064*%
%ADD31R,0.0476X0.0476*%
%ADD32OC8,0.0476*%
%ADD33C,0.0680*%
%ADD34C,0.0530*%
D10*
X002150Y002150D03*
X002150Y012650D03*
X012650Y012650D03*
X012650Y002150D03*
D11*
X012315Y006150D03*
X012985Y006150D03*
X010422Y007963D03*
X009753Y007963D03*
X008431Y007703D03*
X008431Y007034D03*
X006400Y007034D03*
X006400Y007703D03*
X006235Y006150D03*
X005565Y006150D03*
X006253Y003931D03*
X006253Y003338D03*
X006253Y002744D03*
X006253Y002150D03*
X006922Y002150D03*
X006922Y002744D03*
X006922Y003338D03*
X006922Y003931D03*
X006610Y012338D03*
X006610Y012994D03*
X005940Y012994D03*
X005940Y012338D03*
D12*
X006954Y007884D03*
X007210Y007884D03*
X007465Y007884D03*
X007721Y007884D03*
X007721Y006853D03*
X007465Y006853D03*
X007210Y006853D03*
X006954Y006853D03*
D13*
X007097Y006150D03*
X007766Y006150D03*
X003985Y006369D03*
X003315Y006369D03*
X009650Y012378D03*
X009650Y013047D03*
X010431Y013047D03*
X011025Y013047D03*
X011025Y012378D03*
X010431Y012378D03*
D14*
X005541Y007587D03*
X005541Y007213D03*
X005541Y006838D03*
X004509Y006838D03*
X004509Y007213D03*
X004509Y007587D03*
D15*
X008307Y012072D03*
X008681Y012072D03*
X009055Y012072D03*
X009055Y013103D03*
X008681Y013103D03*
X008307Y013103D03*
D16*
X007738Y013083D03*
X007187Y013083D03*
X007187Y012217D03*
X007738Y012217D03*
D17*
X007463Y012217D03*
X007463Y013083D03*
D18*
X008656Y010400D03*
X008656Y009900D03*
X008656Y009400D03*
X008656Y008900D03*
D19*
X007273Y009650D03*
D20*
X007588Y008733D03*
X007588Y010567D03*
D21*
X006458Y009650D03*
D22*
X005323Y012315D03*
X005323Y012985D03*
X004102Y012985D03*
X004102Y012315D03*
D23*
X010521Y011806D03*
X011092Y011806D03*
D24*
X012150Y010339D03*
X012150Y008961D03*
X002650Y008961D03*
X002650Y010339D03*
D25*
X003311Y005025D03*
X005989Y005025D03*
X007181Y005025D03*
X010331Y005025D03*
D26*
X009937Y005891D03*
X010725Y004159D03*
X008363Y005891D03*
X007575Y004159D03*
X005634Y004159D03*
X004650Y005891D03*
X003666Y004159D03*
D27*
X012017Y004158D03*
X012017Y005142D03*
D28*
X013158Y004650D03*
D29*
X010730Y006547D03*
X010730Y006803D03*
X010730Y007059D03*
X010730Y007315D03*
X009070Y007315D03*
X009070Y007059D03*
X009070Y006803D03*
X009070Y006547D03*
D30*
X012650Y007150D03*
D31*
X002744Y007463D03*
D32*
X002244Y007463D03*
X002244Y006963D03*
X002744Y006963D03*
X001744Y006963D03*
X001744Y007463D03*
D33*
X001775Y005806D03*
X001775Y004806D03*
D34*
X006056Y008619D03*
X006025Y009963D03*
X009119Y009931D03*
X009056Y008525D03*
M02*
