G75*
%MOIN*%
%OFA0B0*%
%FSLAX24Y24*%
%IPPOS*%
%LPD*%
%AMOC8*
5,1,8,0,0,1.08239X$1,22.5*
%
%ADD10OC8,0.0650*%
%ADD11R,0.0396X0.0396*%
%ADD12OC8,0.0396*%
%ADD13C,0.0600*%
%ADD14C,0.0100*%
%ADD15C,0.0290*%
%ADD16C,0.0450*%
%ADD17C,0.0160*%
D10*
X002650Y008961D03*
X002650Y010339D03*
X012150Y010339D03*
X012150Y008961D03*
D11*
X002744Y007463D03*
D12*
X002244Y007463D03*
X002244Y006963D03*
X002744Y006963D03*
X001744Y006963D03*
X001744Y007463D03*
D13*
X001775Y005806D03*
X001775Y004806D03*
D14*
X001438Y001446D02*
X013362Y001446D01*
X013399Y001483D02*
X013317Y001401D01*
X013209Y001356D01*
X013150Y001350D01*
X001650Y001350D01*
X001591Y001356D01*
X001483Y001401D01*
X001401Y001483D01*
X001356Y001591D01*
X001350Y001650D01*
X001350Y006630D01*
X001521Y006459D01*
X001615Y006365D01*
X001771Y006365D01*
X001834Y006302D01*
X001927Y006209D01*
X002334Y006209D01*
X002615Y005927D01*
X002709Y005834D01*
X004029Y005834D01*
X004465Y006270D01*
X004544Y006270D01*
X004638Y006309D01*
X004710Y006381D01*
X004749Y006474D01*
X004749Y006576D01*
X004710Y006669D01*
X004702Y006678D01*
X004856Y006678D01*
X004912Y006621D01*
X005006Y006583D01*
X005107Y006583D01*
X005159Y006604D01*
X005022Y006467D01*
X004943Y006467D01*
X004849Y006429D01*
X004778Y006357D01*
X004739Y006263D01*
X004739Y006162D01*
X004778Y006068D01*
X004834Y006012D01*
X004834Y003990D01*
X004927Y003896D01*
X005301Y003522D01*
X005301Y003443D01*
X005340Y003349D01*
X005412Y003278D01*
X005506Y003239D01*
X005607Y003239D01*
X005701Y003278D01*
X005772Y003349D01*
X005811Y003443D01*
X005811Y003544D01*
X005772Y003638D01*
X005701Y003710D01*
X005607Y003749D01*
X005528Y003749D01*
X005154Y004123D01*
X005154Y006012D01*
X005210Y006068D01*
X005249Y006162D01*
X005249Y006241D01*
X005591Y006584D01*
X009685Y006584D01*
X010091Y006990D01*
X010091Y006990D01*
X010185Y007084D01*
X010185Y007293D01*
X010241Y007349D01*
X010280Y007443D01*
X010280Y007544D01*
X010241Y007638D01*
X010169Y007710D01*
X010076Y007749D01*
X009974Y007749D01*
X009881Y007710D01*
X009809Y007638D01*
X009770Y007544D01*
X009770Y007443D01*
X009809Y007349D01*
X009865Y007293D01*
X009865Y007216D01*
X009717Y007069D01*
X009717Y007110D01*
X009679Y007204D01*
X009607Y007275D01*
X009513Y007314D01*
X009412Y007314D01*
X009318Y007275D01*
X009292Y007249D01*
X005413Y007249D01*
X005371Y007291D01*
X005260Y007402D01*
X004149Y007402D01*
X004139Y007428D01*
X005762Y007428D01*
X005818Y007371D01*
X005912Y007333D01*
X006013Y007333D01*
X006107Y007371D01*
X006179Y007443D01*
X006217Y007537D01*
X006217Y007638D01*
X006179Y007732D01*
X006107Y007804D01*
X006013Y007842D01*
X005912Y007842D01*
X005818Y007804D01*
X005762Y007747D01*
X004123Y007747D01*
X004060Y007810D01*
X003248Y007810D01*
X003216Y007841D01*
X003123Y007935D01*
X002365Y007935D01*
X002200Y007770D01*
X002116Y007770D01*
X001994Y007648D01*
X001871Y007770D01*
X001616Y007770D01*
X001436Y007590D01*
X001436Y007381D01*
X001350Y007295D01*
X001350Y013150D01*
X001356Y013209D01*
X001401Y013317D01*
X001483Y013399D01*
X001591Y013444D01*
X001650Y013450D01*
X006452Y013450D01*
X006426Y013388D01*
X006426Y013287D01*
X006465Y013193D01*
X006537Y013121D01*
X006631Y013083D01*
X006710Y013083D01*
X006803Y012990D01*
X006830Y012963D01*
X006803Y012935D01*
X006771Y012904D01*
X005146Y012904D01*
X005053Y012810D01*
X004866Y012624D01*
X004787Y012624D01*
X004693Y012585D01*
X004621Y012513D01*
X004583Y012419D01*
X004583Y012318D01*
X004612Y012247D01*
X003811Y012247D01*
X003811Y012294D01*
X003772Y012388D01*
X003701Y012460D01*
X003607Y012499D01*
X003506Y012499D01*
X003412Y012460D01*
X003340Y012388D01*
X003301Y012294D01*
X003301Y012193D01*
X003340Y012099D01*
X003412Y012028D01*
X003506Y011989D01*
X003585Y011989D01*
X003646Y011928D01*
X007380Y011928D01*
X007364Y011888D01*
X007364Y011787D01*
X007403Y011693D01*
X007474Y011621D01*
X007568Y011583D01*
X007669Y011583D01*
X007763Y011621D01*
X007764Y011622D01*
X007771Y011615D01*
X008841Y011615D01*
X008935Y011709D01*
X009154Y011928D01*
X009231Y011928D01*
X009287Y011871D01*
X009381Y011833D01*
X009482Y011833D01*
X009576Y011871D01*
X009647Y011943D01*
X009686Y012037D01*
X009686Y012138D01*
X009647Y012232D01*
X009576Y012304D01*
X009482Y012342D01*
X009381Y012342D01*
X009287Y012304D01*
X009231Y012247D01*
X009161Y012247D01*
X009810Y012896D01*
X009887Y012896D01*
X009943Y012840D01*
X010037Y012801D01*
X010138Y012801D01*
X010232Y012840D01*
X010304Y012912D01*
X010342Y013006D01*
X010342Y013107D01*
X010304Y013201D01*
X010233Y013271D01*
X010240Y013271D01*
X010834Y012677D01*
X010927Y012584D01*
X011262Y012584D01*
X011318Y012528D01*
X011412Y012489D01*
X011513Y012489D01*
X011607Y012528D01*
X011679Y012599D01*
X011717Y012693D01*
X011717Y012794D01*
X011679Y012888D01*
X011607Y012960D01*
X011513Y012999D01*
X011412Y012999D01*
X011318Y012960D01*
X011262Y012904D01*
X011060Y012904D01*
X010514Y013450D01*
X013150Y013450D01*
X013209Y013444D01*
X013317Y013399D01*
X013399Y013317D01*
X013444Y013209D01*
X013450Y013150D01*
X013450Y001650D01*
X013444Y001591D01*
X013399Y001483D01*
X013425Y001544D02*
X012996Y001544D01*
X013042Y001563D02*
X012788Y001458D01*
X012512Y001458D01*
X012258Y001563D01*
X012063Y001758D01*
X011958Y002012D01*
X011958Y002288D01*
X012063Y002542D01*
X012258Y002737D01*
X012512Y002842D01*
X012788Y002842D01*
X013042Y002737D01*
X013237Y002542D01*
X013342Y002288D01*
X013342Y002012D01*
X013237Y001758D01*
X013042Y001563D01*
X013121Y001643D02*
X013449Y001643D01*
X013450Y001741D02*
X013220Y001741D01*
X013271Y001840D02*
X013450Y001840D01*
X013450Y001938D02*
X013311Y001938D01*
X013342Y002037D02*
X013450Y002037D01*
X013450Y002135D02*
X013342Y002135D01*
X013342Y002234D02*
X013450Y002234D01*
X013450Y002332D02*
X013324Y002332D01*
X013283Y002431D02*
X013450Y002431D01*
X013450Y002529D02*
X013242Y002529D01*
X013151Y002628D02*
X013450Y002628D01*
X013450Y002726D02*
X013053Y002726D01*
X012830Y002825D02*
X013450Y002825D01*
X013450Y002923D02*
X001350Y002923D01*
X001350Y002825D02*
X001970Y002825D01*
X002012Y002842D02*
X001758Y002737D01*
X001563Y002542D01*
X001458Y002288D01*
X001458Y002012D01*
X001563Y001758D01*
X001758Y001563D01*
X002012Y001458D01*
X002288Y001458D01*
X002542Y001563D01*
X002737Y001758D01*
X002842Y002012D01*
X002842Y002288D01*
X002737Y002542D01*
X002542Y002737D01*
X002288Y002842D01*
X002012Y002842D01*
X001747Y002726D02*
X001350Y002726D01*
X001350Y002628D02*
X001649Y002628D01*
X001558Y002529D02*
X001350Y002529D01*
X001350Y002431D02*
X001517Y002431D01*
X001476Y002332D02*
X001350Y002332D01*
X001350Y002234D02*
X001458Y002234D01*
X001458Y002135D02*
X001350Y002135D01*
X001350Y002037D02*
X001458Y002037D01*
X001489Y001938D02*
X001350Y001938D01*
X001350Y001840D02*
X001529Y001840D01*
X001580Y001741D02*
X001350Y001741D01*
X001351Y001643D02*
X001679Y001643D01*
X001804Y001544D02*
X001375Y001544D01*
X002496Y001544D02*
X012304Y001544D01*
X012179Y001643D02*
X002621Y001643D01*
X002720Y001741D02*
X012080Y001741D01*
X012029Y001840D02*
X002771Y001840D01*
X002811Y001938D02*
X011989Y001938D01*
X011958Y002037D02*
X002842Y002037D01*
X002842Y002135D02*
X011958Y002135D01*
X011958Y002234D02*
X002842Y002234D01*
X002824Y002332D02*
X011976Y002332D01*
X012017Y002431D02*
X002783Y002431D01*
X002742Y002529D02*
X012058Y002529D01*
X012149Y002628D02*
X002651Y002628D01*
X002553Y002726D02*
X012247Y002726D01*
X012470Y002825D02*
X002330Y002825D01*
X001350Y003022D02*
X013450Y003022D01*
X013450Y003120D02*
X001350Y003120D01*
X001350Y003219D02*
X013450Y003219D01*
X013450Y003317D02*
X005740Y003317D01*
X005800Y003416D02*
X013450Y003416D01*
X013450Y003514D02*
X005811Y003514D01*
X005783Y003613D02*
X013450Y003613D01*
X013450Y003711D02*
X005698Y003711D01*
X005467Y003810D02*
X013450Y003810D01*
X013450Y003908D02*
X005368Y003908D01*
X005270Y004007D02*
X013450Y004007D01*
X013450Y004105D02*
X005171Y004105D01*
X005154Y004204D02*
X013450Y004204D01*
X013450Y004302D02*
X005154Y004302D01*
X005154Y004401D02*
X013450Y004401D01*
X013450Y004499D02*
X005154Y004499D01*
X005154Y004598D02*
X013450Y004598D01*
X013450Y004696D02*
X010522Y004696D01*
X010545Y004705D02*
X010651Y004811D01*
X010708Y004950D01*
X010708Y005100D01*
X010651Y005239D01*
X010545Y005345D01*
X010406Y005402D01*
X010256Y005402D01*
X010117Y005345D01*
X010011Y005239D01*
X009954Y005100D01*
X009954Y004950D01*
X010011Y004811D01*
X010117Y004705D01*
X010256Y004648D01*
X010406Y004648D01*
X010545Y004705D01*
X010634Y004795D02*
X013450Y004795D01*
X013450Y004893D02*
X010685Y004893D01*
X010708Y004992D02*
X013450Y004992D01*
X013450Y005090D02*
X010708Y005090D01*
X010672Y005189D02*
X013450Y005189D01*
X013450Y005287D02*
X010602Y005287D01*
X010446Y005386D02*
X013450Y005386D01*
X013450Y005484D02*
X005154Y005484D01*
X005154Y005386D02*
X005873Y005386D01*
X005914Y005402D02*
X005775Y005345D01*
X005669Y005239D01*
X005611Y005100D01*
X005611Y004950D01*
X005669Y004811D01*
X005775Y004705D01*
X005914Y004648D01*
X006064Y004648D01*
X006202Y004705D01*
X006308Y004811D01*
X006366Y004950D01*
X006366Y005100D01*
X006308Y005239D01*
X006202Y005345D01*
X006064Y005402D01*
X005914Y005402D01*
X005717Y005287D02*
X005154Y005287D01*
X005154Y005189D02*
X005648Y005189D01*
X005611Y005090D02*
X005154Y005090D01*
X005154Y004992D02*
X005611Y004992D01*
X005635Y004893D02*
X005154Y004893D01*
X005154Y004795D02*
X005686Y004795D01*
X005797Y004696D02*
X005154Y004696D01*
X004834Y004696D02*
X003503Y004696D01*
X003525Y004705D02*
X003631Y004811D01*
X003689Y004950D01*
X003689Y005100D01*
X003631Y005239D01*
X003525Y005345D01*
X003386Y005402D01*
X003236Y005402D01*
X003098Y005345D01*
X002992Y005239D01*
X002934Y005100D01*
X002934Y004950D01*
X002992Y004811D01*
X003098Y004705D01*
X003236Y004648D01*
X003386Y004648D01*
X003525Y004705D01*
X003614Y004795D02*
X004834Y004795D01*
X004834Y004893D02*
X003665Y004893D01*
X003689Y004992D02*
X004834Y004992D01*
X004834Y005090D02*
X003689Y005090D01*
X003652Y005189D02*
X004834Y005189D01*
X004834Y005287D02*
X003583Y005287D01*
X003427Y005386D02*
X004834Y005386D01*
X004834Y005484D02*
X002033Y005484D01*
X002007Y005459D02*
X001857Y005396D01*
X001693Y005396D01*
X001543Y005459D01*
X001427Y005574D01*
X001365Y005725D01*
X001365Y005888D01*
X001427Y006038D01*
X001543Y006154D01*
X001693Y006216D01*
X001857Y006216D01*
X002007Y006154D01*
X002123Y006038D01*
X002185Y005888D01*
X002185Y005725D01*
X002123Y005574D01*
X002007Y005459D01*
X002126Y005583D02*
X004834Y005583D01*
X004834Y005681D02*
X002167Y005681D01*
X002185Y005780D02*
X004834Y005780D01*
X004834Y005878D02*
X004073Y005878D01*
X004172Y005977D02*
X004834Y005977D01*
X004775Y006075D02*
X004270Y006075D01*
X004369Y006174D02*
X004739Y006174D01*
X004742Y006272D02*
X004549Y006272D01*
X004700Y006371D02*
X004791Y006371D01*
X004747Y006469D02*
X005024Y006469D01*
X005122Y006568D02*
X004749Y006568D01*
X004711Y006666D02*
X004867Y006666D01*
X005056Y006838D02*
X003681Y006838D01*
X003056Y007463D01*
X002744Y007463D01*
X003052Y007241D02*
X003052Y007219D01*
X002987Y007155D01*
X002987Y007155D01*
X003052Y007090D01*
X003052Y006835D01*
X002871Y006655D01*
X002616Y006655D01*
X002494Y006777D01*
X002371Y006655D01*
X002116Y006655D01*
X002022Y006749D01*
X001931Y006658D01*
X002060Y006529D01*
X002466Y006529D01*
X002841Y006154D01*
X003896Y006154D01*
X004239Y006496D01*
X004239Y006576D01*
X004278Y006669D01*
X004286Y006678D01*
X003615Y006678D01*
X003052Y007241D01*
X002991Y007159D02*
X003134Y007159D01*
X003052Y007060D02*
X003232Y007060D01*
X003331Y006962D02*
X003052Y006962D01*
X003052Y006863D02*
X003429Y006863D01*
X003528Y006765D02*
X002981Y006765D01*
X002883Y006666D02*
X004276Y006666D01*
X004239Y006568D02*
X002021Y006568D01*
X002088Y006619D02*
X002588Y006619D01*
X002900Y006306D01*
X002822Y006174D02*
X003916Y006174D01*
X004014Y006272D02*
X002723Y006272D01*
X002625Y006371D02*
X004113Y006371D01*
X004211Y006469D02*
X002526Y006469D01*
X002400Y006369D02*
X002775Y005994D01*
X003963Y005994D01*
X004494Y006525D01*
X004994Y006213D02*
X004994Y004056D01*
X005556Y003494D01*
X005372Y003317D02*
X001350Y003317D01*
X001350Y003416D02*
X005313Y003416D01*
X005301Y003514D02*
X001350Y003514D01*
X001350Y003613D02*
X005211Y003613D01*
X005113Y003711D02*
X001350Y003711D01*
X001350Y003810D02*
X005014Y003810D01*
X004916Y003908D02*
X001350Y003908D01*
X001350Y004007D02*
X004834Y004007D01*
X004834Y004105D02*
X001350Y004105D01*
X001350Y004204D02*
X004834Y004204D01*
X004834Y004302D02*
X001350Y004302D01*
X001350Y004401D02*
X001683Y004401D01*
X001693Y004396D02*
X001857Y004396D01*
X002007Y004459D01*
X002123Y004574D01*
X002185Y004725D01*
X002185Y004888D01*
X002123Y005038D01*
X002007Y005154D01*
X001857Y005216D01*
X001693Y005216D01*
X001543Y005154D01*
X001427Y005038D01*
X001365Y004888D01*
X001365Y004725D01*
X001427Y004574D01*
X001543Y004459D01*
X001693Y004396D01*
X001867Y004401D02*
X004834Y004401D01*
X004834Y004499D02*
X002048Y004499D01*
X002132Y004598D02*
X004834Y004598D01*
X005154Y005583D02*
X013450Y005583D01*
X013450Y005681D02*
X005154Y005681D01*
X005154Y005780D02*
X013450Y005780D01*
X013450Y005878D02*
X005154Y005878D01*
X005154Y005977D02*
X013450Y005977D01*
X013450Y006075D02*
X005213Y006075D01*
X005249Y006174D02*
X013450Y006174D01*
X013450Y006272D02*
X005280Y006272D01*
X005378Y006371D02*
X013450Y006371D01*
X013450Y006469D02*
X005477Y006469D01*
X005575Y006568D02*
X013450Y006568D01*
X013450Y006666D02*
X009767Y006666D01*
X009866Y006765D02*
X013450Y006765D01*
X013450Y006863D02*
X009964Y006863D01*
X010063Y006962D02*
X013450Y006962D01*
X013450Y007060D02*
X010161Y007060D01*
X010185Y007159D02*
X013450Y007159D01*
X013450Y007257D02*
X010185Y007257D01*
X010244Y007356D02*
X013450Y007356D01*
X013450Y007454D02*
X010280Y007454D01*
X010277Y007553D02*
X013450Y007553D01*
X013450Y007651D02*
X010228Y007651D01*
X010025Y007494D02*
X010025Y007150D01*
X009619Y006744D01*
X005525Y006744D01*
X004994Y006213D01*
X005405Y007257D02*
X009300Y007257D01*
X009625Y007257D02*
X009865Y007257D01*
X009807Y007159D02*
X009697Y007159D01*
X009806Y007356D02*
X006069Y007356D01*
X006183Y007454D02*
X009770Y007454D01*
X009773Y007553D02*
X006217Y007553D01*
X006212Y007651D02*
X009822Y007651D01*
X008771Y008178D02*
X012716Y008178D01*
X012810Y008271D01*
X012810Y009560D01*
X012716Y009654D01*
X012584Y009654D01*
X010998Y009654D01*
X010466Y010185D01*
X010373Y010279D01*
X008334Y010279D01*
X008240Y010185D01*
X008240Y008709D01*
X008678Y008271D01*
X008771Y008178D01*
X008707Y008242D02*
X001350Y008242D01*
X001350Y008144D02*
X013450Y008144D01*
X013450Y008242D02*
X012781Y008242D01*
X012810Y008341D02*
X013450Y008341D01*
X013450Y008439D02*
X012810Y008439D01*
X012810Y008538D02*
X013450Y008538D01*
X013450Y008636D02*
X012810Y008636D01*
X012810Y008735D02*
X013450Y008735D01*
X013450Y008833D02*
X012810Y008833D01*
X012810Y008932D02*
X013450Y008932D01*
X013450Y009030D02*
X012810Y009030D01*
X012810Y009129D02*
X013450Y009129D01*
X013450Y009227D02*
X012810Y009227D01*
X012810Y009326D02*
X013450Y009326D01*
X013450Y009424D02*
X012810Y009424D01*
X012810Y009523D02*
X013450Y009523D01*
X013450Y009621D02*
X012749Y009621D01*
X012650Y009494D02*
X012650Y008338D01*
X008838Y008338D01*
X008400Y008775D01*
X008400Y010119D01*
X010306Y010119D01*
X010931Y009494D01*
X012650Y009494D01*
X012650Y009424D02*
X008400Y009424D01*
X008400Y009326D02*
X012650Y009326D01*
X012650Y009227D02*
X008400Y009227D01*
X008400Y009129D02*
X012650Y009129D01*
X012650Y009030D02*
X008400Y009030D01*
X008400Y008932D02*
X012650Y008932D01*
X012650Y008833D02*
X008400Y008833D01*
X008440Y008735D02*
X012650Y008735D01*
X012650Y008636D02*
X008539Y008636D01*
X008637Y008538D02*
X012650Y008538D01*
X012650Y008439D02*
X008736Y008439D01*
X008834Y008341D02*
X012650Y008341D01*
X013450Y008045D02*
X001350Y008045D01*
X001350Y007947D02*
X013450Y007947D01*
X013450Y007848D02*
X003210Y007848D01*
X003056Y007775D02*
X003181Y007650D01*
X003994Y007650D01*
X004056Y007588D01*
X005963Y007588D01*
X006161Y007750D02*
X013450Y007750D01*
X013450Y009720D02*
X010932Y009720D01*
X010833Y009818D02*
X013450Y009818D01*
X013450Y009917D02*
X012399Y009917D01*
X012347Y009864D02*
X012200Y009864D01*
X012200Y010289D01*
X012200Y010389D01*
X012100Y010389D01*
X012100Y010814D01*
X011953Y010814D01*
X011675Y010536D01*
X011675Y010389D01*
X012100Y010389D01*
X012100Y010289D01*
X011675Y010289D01*
X011675Y010142D01*
X011953Y009864D01*
X012100Y009864D01*
X012100Y010289D01*
X012200Y010289D01*
X012625Y010289D01*
X012625Y010142D01*
X012347Y009864D01*
X012200Y009917D02*
X012100Y009917D01*
X012100Y010015D02*
X012200Y010015D01*
X012200Y010114D02*
X012100Y010114D01*
X012100Y010212D02*
X012200Y010212D01*
X012200Y010311D02*
X013450Y010311D01*
X013450Y010409D02*
X012625Y010409D01*
X012625Y010389D02*
X012625Y010536D01*
X012347Y010814D01*
X012200Y010814D01*
X012200Y010389D01*
X012625Y010389D01*
X012650Y010409D02*
X010641Y010409D01*
X010739Y010311D02*
X012650Y010311D01*
X012650Y010212D02*
X010838Y010212D01*
X010936Y010114D02*
X012650Y010114D01*
X012596Y010114D02*
X013450Y010114D01*
X013450Y010212D02*
X012625Y010212D01*
X012650Y010015D02*
X011035Y010015D01*
X011119Y009931D02*
X012650Y009931D01*
X012650Y010806D01*
X011400Y010806D01*
X010619Y011588D01*
X007682Y011588D01*
X007669Y011583D01*
X007568Y011583D01*
X007556Y011588D01*
X002713Y011588D01*
X002150Y011025D01*
X002150Y009845D01*
X002178Y009873D01*
X002178Y009873D01*
X002271Y009966D01*
X002351Y009966D01*
X002175Y010142D01*
X002175Y010289D01*
X002600Y010289D01*
X002600Y010389D01*
X002600Y010814D01*
X002453Y010814D01*
X002175Y010536D01*
X002175Y010389D01*
X002600Y010389D01*
X002700Y010389D01*
X002700Y010814D01*
X002847Y010814D01*
X003125Y010536D01*
X003125Y010389D01*
X002700Y010389D01*
X002700Y010289D01*
X003125Y010289D01*
X003125Y010142D01*
X002949Y009966D01*
X005552Y009966D01*
X006303Y010716D01*
X006396Y010810D01*
X006779Y010810D01*
X006918Y010670D01*
X006965Y010625D01*
X006965Y010624D01*
X006966Y010623D01*
X006966Y010558D01*
X006996Y008717D01*
X006997Y008716D01*
X006997Y008651D01*
X006999Y008586D01*
X006997Y008585D01*
X006997Y008584D01*
X006952Y008538D01*
X006906Y008491D01*
X006905Y008491D01*
X006779Y008365D01*
X006685Y008271D01*
X005115Y008271D01*
X005052Y008334D01*
X002334Y008334D01*
X002084Y008584D01*
X001990Y008677D01*
X001990Y009685D01*
X002084Y009779D01*
X002084Y009779D01*
X002178Y009873D01*
X002271Y009966D01*
X005466Y009966D01*
X006369Y010869D01*
X008181Y010869D01*
X008494Y010556D01*
X010494Y010556D01*
X011119Y009931D01*
X010804Y009621D02*
X008400Y009621D01*
X008400Y009523D02*
X010902Y009523D01*
X010705Y009720D02*
X008400Y009720D01*
X008400Y009818D02*
X010607Y009818D01*
X010508Y009917D02*
X008400Y009917D01*
X008400Y010015D02*
X010410Y010015D01*
X010311Y010114D02*
X008400Y010114D01*
X008240Y010114D02*
X006974Y010114D01*
X006972Y010212D02*
X008267Y010212D01*
X008240Y010015D02*
X006975Y010015D01*
X006977Y009917D02*
X008240Y009917D01*
X008240Y009818D02*
X006978Y009818D01*
X006980Y009720D02*
X008240Y009720D01*
X008240Y009621D02*
X006982Y009621D01*
X006983Y009523D02*
X008240Y009523D01*
X008240Y009424D02*
X006985Y009424D01*
X006986Y009326D02*
X008240Y009326D01*
X008240Y009227D02*
X006988Y009227D01*
X006990Y009129D02*
X008240Y009129D01*
X008240Y009030D02*
X006991Y009030D01*
X006993Y008932D02*
X008240Y008932D01*
X008240Y008833D02*
X006995Y008833D01*
X006996Y008735D02*
X008240Y008735D01*
X008313Y008636D02*
X006998Y008636D01*
X006951Y008538D02*
X008411Y008538D01*
X008510Y008439D02*
X006853Y008439D01*
X006754Y008341D02*
X008608Y008341D01*
X006970Y010311D02*
X012100Y010311D01*
X012100Y010409D02*
X012200Y010409D01*
X012200Y010508D02*
X012100Y010508D01*
X012100Y010606D02*
X012200Y010606D01*
X012200Y010705D02*
X012100Y010705D01*
X012100Y010803D02*
X012200Y010803D01*
X012357Y010803D02*
X013450Y010803D01*
X013450Y010705D02*
X012456Y010705D01*
X012554Y010606D02*
X013450Y010606D01*
X013450Y010508D02*
X012625Y010508D01*
X012650Y010508D02*
X010542Y010508D01*
X010439Y010212D02*
X011675Y010212D01*
X011704Y010114D02*
X010538Y010114D01*
X010636Y010015D02*
X011802Y010015D01*
X011901Y009917D02*
X010735Y009917D01*
X011305Y010902D02*
X002150Y010902D01*
X002150Y011000D02*
X011206Y011000D01*
X011108Y011099D02*
X002224Y011099D01*
X002322Y011197D02*
X011009Y011197D01*
X010911Y011296D02*
X002421Y011296D01*
X002519Y011394D02*
X010812Y011394D01*
X010714Y011493D02*
X002618Y011493D01*
X002353Y011985D02*
X003589Y011985D01*
X003713Y012088D02*
X003556Y012244D01*
X003713Y012088D02*
X007525Y012088D01*
X007775Y012338D01*
X008275Y012338D01*
X008588Y012650D01*
X008588Y012713D01*
X008963Y012713D02*
X008963Y012869D01*
X008775Y013056D01*
X006963Y013056D01*
X006681Y013338D01*
X006724Y013069D02*
X002710Y013069D01*
X002737Y013042D02*
X002542Y013237D01*
X002288Y013342D01*
X002012Y013342D01*
X001758Y013237D01*
X001563Y013042D01*
X001458Y012788D01*
X001458Y012512D01*
X001563Y012258D01*
X001758Y012063D01*
X002012Y011958D01*
X002288Y011958D01*
X002542Y012063D01*
X002737Y012258D01*
X002842Y012512D01*
X002842Y012788D01*
X002737Y013042D01*
X002767Y012970D02*
X006822Y012970D01*
X006963Y012869D02*
X006838Y012744D01*
X005213Y012744D01*
X004838Y012369D01*
X004607Y012478D02*
X003658Y012478D01*
X003776Y012379D02*
X004583Y012379D01*
X004598Y012281D02*
X003811Y012281D01*
X003454Y012478D02*
X002828Y012478D01*
X002842Y012576D02*
X004684Y012576D01*
X004917Y012675D02*
X002842Y012675D01*
X002842Y012773D02*
X005016Y012773D01*
X005114Y012872D02*
X002807Y012872D01*
X002612Y013167D02*
X006491Y013167D01*
X006435Y013266D02*
X002473Y013266D01*
X001827Y013266D02*
X001379Y013266D01*
X001352Y013167D02*
X001688Y013167D01*
X001590Y013069D02*
X001350Y013069D01*
X001350Y012970D02*
X001533Y012970D01*
X001493Y012872D02*
X001350Y012872D01*
X001350Y012773D02*
X001458Y012773D01*
X001458Y012675D02*
X001350Y012675D01*
X001350Y012576D02*
X001458Y012576D01*
X001472Y012478D02*
X001350Y012478D01*
X001350Y012379D02*
X001513Y012379D01*
X001554Y012281D02*
X001350Y012281D01*
X001350Y012182D02*
X001639Y012182D01*
X001738Y012084D02*
X001350Y012084D01*
X001350Y011985D02*
X001947Y011985D01*
X001350Y011887D02*
X007364Y011887D01*
X007364Y011788D02*
X001350Y011788D01*
X001350Y011690D02*
X007406Y011690D01*
X007547Y011591D02*
X001350Y011591D01*
X001350Y011493D02*
X013450Y011493D01*
X013450Y011591D02*
X007690Y011591D01*
X007838Y011775D02*
X007775Y011838D01*
X007619Y011838D01*
X007838Y011775D02*
X008775Y011775D01*
X009088Y012088D01*
X009431Y012088D01*
X009264Y012281D02*
X009194Y012281D01*
X009293Y012379D02*
X012013Y012379D01*
X011972Y012478D02*
X009391Y012478D01*
X009490Y012576D02*
X011270Y012576D01*
X011463Y012744D02*
X010994Y012744D01*
X010306Y013431D01*
X009806Y013431D01*
X009713Y013338D01*
X007463Y013338D01*
X007838Y012869D02*
X006963Y012869D01*
X007029Y012709D02*
X007770Y012709D01*
X007770Y012631D01*
X007809Y012537D01*
X007848Y012497D01*
X007709Y012497D01*
X007459Y012247D01*
X005063Y012247D01*
X005092Y012318D01*
X005092Y012397D01*
X005279Y012584D01*
X006904Y012584D01*
X007029Y012709D01*
X006995Y012675D02*
X007770Y012675D01*
X007793Y012576D02*
X005271Y012576D01*
X005173Y012478D02*
X007689Y012478D01*
X007590Y012379D02*
X005092Y012379D01*
X005077Y012281D02*
X007492Y012281D01*
X007931Y012056D02*
X007963Y012056D01*
X008025Y012119D01*
X008806Y012119D01*
X009744Y013056D01*
X010088Y013056D01*
X010263Y012872D02*
X010640Y012872D01*
X010541Y012970D02*
X010328Y012970D01*
X010342Y013069D02*
X010443Y013069D01*
X010344Y013167D02*
X010318Y013167D01*
X010246Y013266D02*
X010239Y013266D01*
X010600Y013364D02*
X013352Y013364D01*
X013421Y013266D02*
X012973Y013266D01*
X013042Y013237D02*
X012788Y013342D01*
X012512Y013342D01*
X012258Y013237D01*
X012063Y013042D01*
X011958Y012788D01*
X011958Y012512D01*
X012063Y012258D01*
X012258Y012063D01*
X012512Y011958D01*
X012788Y011958D01*
X013042Y012063D01*
X013237Y012258D01*
X013342Y012512D01*
X013342Y012788D01*
X013237Y013042D01*
X013042Y013237D01*
X013112Y013167D02*
X013448Y013167D01*
X013450Y013069D02*
X013210Y013069D01*
X013267Y012970D02*
X013450Y012970D01*
X013450Y012872D02*
X013307Y012872D01*
X013342Y012773D02*
X013450Y012773D01*
X013450Y012675D02*
X013342Y012675D01*
X013342Y012576D02*
X013450Y012576D01*
X013450Y012478D02*
X013328Y012478D01*
X013287Y012379D02*
X013450Y012379D01*
X013450Y012281D02*
X013246Y012281D01*
X013161Y012182D02*
X013450Y012182D01*
X013450Y012084D02*
X013062Y012084D01*
X012853Y011985D02*
X013450Y011985D01*
X013450Y011887D02*
X009591Y011887D01*
X009665Y011985D02*
X012447Y011985D01*
X012238Y012084D02*
X009686Y012084D01*
X009668Y012182D02*
X012139Y012182D01*
X012054Y012281D02*
X009599Y012281D01*
X009588Y012675D02*
X010837Y012675D01*
X010738Y012773D02*
X009687Y012773D01*
X009785Y012872D02*
X009912Y012872D01*
X010698Y013266D02*
X012327Y013266D01*
X012188Y013167D02*
X010797Y013167D01*
X010895Y013069D02*
X012090Y013069D01*
X012033Y012970D02*
X011583Y012970D01*
X011686Y012872D02*
X011993Y012872D01*
X011958Y012773D02*
X011717Y012773D01*
X011710Y012675D02*
X011958Y012675D01*
X011958Y012576D02*
X011655Y012576D01*
X011342Y012970D02*
X010994Y012970D01*
X009272Y011887D02*
X009113Y011887D01*
X009014Y011788D02*
X013450Y011788D01*
X013450Y011690D02*
X008916Y011690D01*
X008247Y010803D02*
X012650Y010803D01*
X012650Y010705D02*
X008345Y010705D01*
X008444Y010606D02*
X012650Y010606D01*
X012498Y010015D02*
X013450Y010015D01*
X013450Y010902D02*
X001350Y010902D01*
X001350Y011000D02*
X013450Y011000D01*
X013450Y011099D02*
X001350Y011099D01*
X001350Y011197D02*
X013450Y011197D01*
X013450Y011296D02*
X001350Y011296D01*
X001350Y011394D02*
X013450Y011394D01*
X011943Y010803D02*
X006786Y010803D01*
X006884Y010705D02*
X011844Y010705D01*
X011746Y010606D02*
X006966Y010606D01*
X006967Y010508D02*
X011675Y010508D01*
X011675Y010409D02*
X006969Y010409D01*
X006809Y010409D02*
X006222Y010409D01*
X006320Y010508D02*
X006807Y010508D01*
X006806Y010556D02*
X006838Y008650D01*
X006619Y008431D01*
X005181Y008431D01*
X005119Y008494D01*
X002400Y008494D01*
X002150Y008744D01*
X002150Y009619D01*
X002338Y009806D01*
X005619Y009806D01*
X006463Y010650D01*
X006713Y010650D01*
X006806Y010556D01*
X006756Y010606D02*
X006419Y010606D01*
X006291Y010705D02*
X002956Y010705D01*
X002857Y010803D02*
X006389Y010803D01*
X006303Y010803D02*
X002150Y010803D01*
X002150Y010705D02*
X006205Y010705D01*
X006192Y010606D02*
X003054Y010606D01*
X003125Y010508D02*
X006094Y010508D01*
X006008Y010508D02*
X002150Y010508D01*
X002175Y010508D02*
X001350Y010508D01*
X001350Y010606D02*
X002246Y010606D01*
X002150Y010606D02*
X006106Y010606D01*
X005995Y010409D02*
X003125Y010409D01*
X003125Y010212D02*
X005798Y010212D01*
X005712Y010212D02*
X002150Y010212D01*
X002175Y010212D02*
X001350Y010212D01*
X001350Y010114D02*
X002204Y010114D01*
X002150Y010114D02*
X005614Y010114D01*
X005700Y010114D02*
X003096Y010114D01*
X002998Y010015D02*
X005601Y010015D01*
X005515Y010015D02*
X002150Y010015D01*
X002150Y009917D02*
X002221Y009917D01*
X001350Y009917D01*
X001350Y010015D02*
X002302Y010015D01*
X002123Y009818D02*
X001350Y009818D01*
X001350Y009720D02*
X002024Y009720D01*
X001990Y009621D02*
X001350Y009621D01*
X001350Y009523D02*
X001990Y009523D01*
X001990Y009424D02*
X001350Y009424D01*
X001350Y009326D02*
X001990Y009326D01*
X001990Y009227D02*
X001350Y009227D01*
X001350Y009129D02*
X001990Y009129D01*
X001990Y009030D02*
X001350Y009030D01*
X001350Y008932D02*
X001990Y008932D01*
X001990Y008833D02*
X001350Y008833D01*
X001350Y008735D02*
X001990Y008735D01*
X002031Y008636D02*
X001350Y008636D01*
X001350Y008538D02*
X002130Y008538D01*
X002228Y008439D02*
X001350Y008439D01*
X001350Y008341D02*
X002327Y008341D01*
X002356Y008538D02*
X006725Y008538D01*
X006824Y008636D02*
X002258Y008636D01*
X002159Y008735D02*
X006836Y008735D01*
X006834Y008833D02*
X002150Y008833D01*
X002150Y008932D02*
X006833Y008932D01*
X006831Y009030D02*
X002150Y009030D01*
X002150Y009129D02*
X006830Y009129D01*
X006828Y009227D02*
X002150Y009227D01*
X002150Y009326D02*
X006826Y009326D01*
X006825Y009424D02*
X002150Y009424D01*
X002150Y009523D02*
X006823Y009523D01*
X006822Y009621D02*
X002152Y009621D01*
X002251Y009720D02*
X006820Y009720D01*
X006818Y009818D02*
X005631Y009818D01*
X005729Y009917D02*
X006817Y009917D01*
X006815Y010015D02*
X005828Y010015D01*
X005926Y010114D02*
X006814Y010114D01*
X006812Y010212D02*
X006025Y010212D01*
X006123Y010311D02*
X006810Y010311D01*
X005909Y010409D02*
X002150Y010409D01*
X002175Y010409D02*
X001350Y010409D01*
X001350Y010311D02*
X002600Y010311D01*
X002600Y010409D02*
X002700Y010409D01*
X002700Y010311D02*
X005897Y010311D01*
X005811Y010311D02*
X002150Y010311D01*
X002344Y010705D02*
X001350Y010705D01*
X001350Y010803D02*
X002443Y010803D01*
X002600Y010803D02*
X002700Y010803D01*
X002700Y010705D02*
X002600Y010705D01*
X002600Y010606D02*
X002700Y010606D01*
X002700Y010508D02*
X002600Y010508D01*
X002562Y012084D02*
X003356Y012084D01*
X003306Y012182D02*
X002661Y012182D01*
X002746Y012281D02*
X003301Y012281D01*
X003336Y012379D02*
X002787Y012379D01*
X001448Y013364D02*
X006426Y013364D01*
X007838Y012869D02*
X008025Y012681D01*
X006627Y008439D02*
X005173Y008439D01*
X005764Y007750D02*
X004121Y007750D01*
X003056Y007775D02*
X002431Y007775D01*
X002244Y007588D01*
X002244Y007463D01*
X002095Y007750D02*
X001892Y007750D01*
X001991Y007651D02*
X001997Y007651D01*
X001744Y007463D02*
X001400Y007119D01*
X001400Y006806D01*
X001681Y006525D01*
X001838Y006525D01*
X001994Y006369D01*
X002400Y006369D01*
X002369Y006174D02*
X001960Y006174D01*
X001864Y006272D02*
X001350Y006272D01*
X001350Y006174D02*
X001590Y006174D01*
X001464Y006075D02*
X001350Y006075D01*
X001350Y005977D02*
X001402Y005977D01*
X001365Y005878D02*
X001350Y005878D01*
X001350Y005780D02*
X001365Y005780D01*
X001350Y005681D02*
X001383Y005681D01*
X001350Y005583D02*
X001424Y005583D01*
X001350Y005484D02*
X001517Y005484D01*
X001350Y005386D02*
X003196Y005386D01*
X003040Y005287D02*
X001350Y005287D01*
X001350Y005189D02*
X001626Y005189D01*
X001479Y005090D02*
X001350Y005090D01*
X001350Y004992D02*
X001408Y004992D01*
X001367Y004893D02*
X001350Y004893D01*
X001350Y004795D02*
X001365Y004795D01*
X001377Y004696D02*
X001350Y004696D01*
X001350Y004598D02*
X001418Y004598D01*
X001350Y004499D02*
X001502Y004499D01*
X002071Y005090D02*
X002934Y005090D01*
X002934Y004992D02*
X002142Y004992D01*
X002183Y004893D02*
X002958Y004893D01*
X003009Y004795D02*
X002185Y004795D01*
X002173Y004696D02*
X003120Y004696D01*
X002971Y005189D02*
X001924Y005189D01*
X002185Y005878D02*
X002664Y005878D01*
X002566Y005977D02*
X002148Y005977D01*
X002086Y006075D02*
X002467Y006075D01*
X002383Y006666D02*
X002605Y006666D01*
X002506Y006765D02*
X002481Y006765D01*
X002105Y006666D02*
X001939Y006666D01*
X002088Y006619D02*
X001744Y006963D01*
X001410Y007356D02*
X001350Y007356D01*
X001350Y007454D02*
X001436Y007454D01*
X001436Y007553D02*
X001350Y007553D01*
X001350Y007651D02*
X001497Y007651D01*
X001595Y007750D02*
X001350Y007750D01*
X001350Y007848D02*
X002278Y007848D01*
X001412Y006568D02*
X001350Y006568D01*
X001350Y006469D02*
X001511Y006469D01*
X001609Y006371D02*
X001350Y006371D01*
X005307Y007356D02*
X005856Y007356D01*
X006104Y005386D02*
X007066Y005386D01*
X007106Y005402D02*
X006968Y005345D01*
X006862Y005239D01*
X006804Y005100D01*
X006804Y004950D01*
X006862Y004811D01*
X006968Y004705D01*
X007106Y004648D01*
X007257Y004648D01*
X007395Y004705D01*
X007501Y004811D01*
X007559Y004950D01*
X007559Y005100D01*
X007501Y005239D01*
X007395Y005345D01*
X007257Y005402D01*
X007106Y005402D01*
X007297Y005386D02*
X010216Y005386D01*
X010060Y005287D02*
X007453Y005287D01*
X007522Y005189D02*
X009991Y005189D01*
X009954Y005090D02*
X007559Y005090D01*
X007559Y004992D02*
X009954Y004992D01*
X009978Y004893D02*
X007535Y004893D01*
X007484Y004795D02*
X010028Y004795D01*
X010140Y004696D02*
X007373Y004696D01*
X006990Y004696D02*
X006180Y004696D01*
X006291Y004795D02*
X006879Y004795D01*
X006828Y004893D02*
X006342Y004893D01*
X006366Y004992D02*
X006804Y004992D01*
X006804Y005090D02*
X006366Y005090D01*
X006329Y005189D02*
X006841Y005189D01*
X006910Y005287D02*
X006260Y005287D01*
D15*
X006650Y005650D03*
X006931Y007400D03*
X005963Y007588D03*
X005056Y006838D03*
X004994Y006213D03*
X004494Y006525D03*
X003900Y007338D03*
X002900Y006306D03*
X002650Y005150D03*
X004150Y005150D03*
X005556Y003494D03*
X006150Y001650D03*
X007150Y001650D03*
X009150Y001650D03*
X011150Y001650D03*
X011150Y003150D03*
X012650Y003650D03*
X010025Y007494D03*
X009463Y007059D03*
X009150Y005650D03*
X008025Y005150D03*
X010869Y007869D03*
X011713Y007869D03*
X012713Y007869D03*
X013025Y008869D03*
X013150Y011650D03*
X012150Y011650D03*
X011650Y012150D03*
X011463Y012744D03*
X011650Y013150D03*
X010088Y013056D03*
X010056Y012025D03*
X009431Y012088D03*
X009150Y011556D03*
X009056Y010650D03*
X007931Y012056D03*
X007619Y011838D03*
X007119Y012494D03*
X007681Y012588D03*
X008025Y012681D03*
X008588Y012713D03*
X008963Y012713D03*
X007463Y013338D03*
X006681Y013338D03*
X004838Y012369D03*
X003556Y012244D03*
X003150Y012650D03*
X003150Y013150D03*
X002556Y011744D03*
X001650Y011650D03*
X003556Y011306D03*
X005713Y010306D03*
X003150Y003150D03*
X003650Y001650D03*
D16*
X006056Y008619D03*
X006025Y009963D03*
X009119Y009931D03*
X009056Y008525D03*
D17*
X009463Y007059D02*
X005335Y007059D01*
X005181Y007213D01*
X004025Y007213D01*
X003900Y007338D01*
M02*
