%
M48
M72
T01C0.01500
T02C0.02000
T03C0.02559
T04C0.03543
T05C0.04000
T06C0.04331
T07C0.09843
%
T01
X36500Y43333
X31500Y58333
X26500Y78333
X29000Y89896
X39000Y100208
X44937Y92083
X49937Y88958
X50562Y95208
X59625Y102708
X69313Y100833
X66500Y83333
X80250Y78333
X91500Y83333
X94625Y97425
X100250Y101771
X108687Y103333
X92125Y133021
X79313Y147396
X76188Y145208
X76813Y152708
X80250Y153646
X85875Y153958
X89625Y153958
X94312Y147708
X100875Y150521
X100875Y157396
X114625Y154271
X116500Y158333
X116500Y148333
X121500Y143333
X131500Y143333
X74625Y160208
X66813Y160208
X71188Y151771
X65250Y137083
X48375Y150521
X35563Y149271
X31500Y153333
X31500Y158333
X25562Y144271
X16500Y143333
X35563Y139896
X41500Y78333
X55562Y61771
X61500Y43333
X71500Y43333
X91500Y43333
X111500Y43333
X111500Y58333
X126500Y63333
T02
X89000Y139271
X85875Y141458
X72125Y141458
X69000Y139271
T03
X27437Y101458
X27437Y96458
X22437Y96458
X22437Y101458
X17438Y101458
X17438Y96458
T04
X33114Y77083
X59886Y77083
X71815Y77083
X103311Y77083
T05
X17750Y74896
X17750Y84896
T06
X26500Y116444
X26500Y130223
X121500Y130223
X121500Y116444
T07
X126500Y153333
X126500Y48333
X21500Y48333
X21500Y153333
M30
